M48
; DRILL file {KiCad (7.0.0)} date Sat Apr 22 21:46:53 2023
; FORMAT={-:-/ absolute / inch / decimal}
; #@! TF.CreationDate,2023-04-22T21:46:53+02:00
; #@! TF.GenerationSoftware,Kicad,Pcbnew,(7.0.0)
; #@! TF.FileFunction,Plated,1,2,PTH
FMAT,2
INCH
; #@! TA.AperFunction,Plated,PTH,ViaDrill
T1C0.0157
; #@! TA.AperFunction,Plated,PTH,ComponentDrill
T2C0.0276
; #@! TA.AperFunction,Plated,PTH,ComponentDrill
T3C0.0315
; #@! TA.AperFunction,Plated,PTH,ComponentDrill
T4C0.0394
; #@! TA.AperFunction,Plated,PTH,ComponentDrill
T5C0.0579
%
G90
G05
T1
X0.925Y-2.55
X1.04Y-3.785
X1.04Y-3.885
X1.645Y-3.875
X1.645Y-3.9321
X1.725Y-2.46
X2.6625Y-3.2056
X3.4125Y-3.2233
X4.1625Y-3.2357
X4.878Y-2.75
X5.6625Y-3.2588
X6.47Y-2.7235
X7.165Y-3.2588
X7.98Y-2.744
X8.665Y-3.2233
X9.39Y-4.015
X9.415Y-2.68
X9.655Y-4.72
X9.942Y-3.9973
T2
X0.835Y-2.4187
X0.835Y-2.4687
X0.835Y-2.5187
T3
X0.8107Y-2.6937
X0.8107Y-3.2937
X0.9107Y-2.6937
X0.9107Y-3.2937
X1.0107Y-2.6937
X1.0107Y-3.2937
X1.1107Y-2.6937
X1.1107Y-3.2937
X1.2107Y-2.6937
X1.2107Y-3.2937
X1.3107Y-2.6937
X1.3107Y-3.2937
X1.4107Y-2.6937
X1.4107Y-3.2937
X1.5107Y-2.6937
X1.5107Y-3.2937
X1.6107Y-2.6937
X1.6107Y-3.2937
X1.619Y-2.7937
X1.619Y-2.8937
X1.619Y-2.9937
X1.619Y-3.0937
X1.619Y-3.1937
T4
X1.5Y-2.0965
X1.5Y-2.4035
X1.5625Y-4.3465
X1.5625Y-4.6535
X1.6875Y-4.3465
X1.6875Y-4.6535
X1.745Y-2.784
X1.745Y-3.091
X1.75Y-3.5965
X1.75Y-3.9035
X2.25Y-2.0965
X2.25Y-2.4035
X2.4375Y-2.8465
X2.4375Y-3.1535
X2.625Y-3.5965
X2.625Y-3.9035
X3.0Y-2.0965
X3.0Y-2.4035
X3.1875Y-2.8465
X3.1875Y-3.1535
X3.375Y-3.5965
X3.375Y-3.9035
X3.5625Y-4.3465
X3.5625Y-4.6535
X3.75Y-2.0965
X3.75Y-2.4035
X3.9375Y-2.8465
X3.9375Y-3.1535
X4.125Y-3.5965
X4.125Y-3.9035
X4.5Y-2.0965
X4.5Y-2.4035
X4.6875Y-2.8465
X4.6875Y-3.1535
X4.72Y-4.3465
X4.72Y-4.6535
X4.875Y-3.5965
X4.875Y-3.9035
X5.125Y-4.3465
X5.125Y-4.6535
X5.25Y-2.0965
X5.25Y-2.4035
X5.4375Y-2.8465
X5.4375Y-3.1535
X5.625Y-3.5965
X5.625Y-3.9035
X6.0Y-2.0965
X6.0Y-2.4035
X6.1875Y-2.8465
X6.1875Y-3.1535
X6.375Y-3.5965
X6.375Y-3.9035
X6.595Y-4.3465
X6.595Y-4.6535
X6.75Y-2.0965
X6.75Y-2.4035
X6.9375Y-2.8465
X6.9375Y-3.1535
X7.125Y-3.5965
X7.125Y-3.9035
X7.3125Y-4.3465
X7.3125Y-4.6535
X7.5Y-2.0965
X7.5Y-2.4035
X7.6875Y-2.8465
X7.6875Y-3.1535
X7.875Y-3.5965
X7.875Y-3.9035
X8.25Y-2.0965
X8.25Y-2.4035
X8.4375Y-2.8465
X8.4375Y-3.1535
X8.625Y-3.5965
X8.625Y-3.9035
X9.0Y-2.0965
X9.0Y-2.4035
X9.125Y-4.3465
X9.125Y-4.6535
X9.1875Y-2.8465
X9.1875Y-3.1535
X9.3125Y-4.3465
X9.3125Y-4.6535
X9.375Y-3.5965
X9.375Y-3.9035
X9.5566Y-4.2244
X9.5566Y-4.7953
X9.655Y-4.7953
X9.7534Y-4.2244
X9.7534Y-4.7953
X9.9375Y-2.0965
X9.9375Y-2.4035
X10.0Y-2.8465
X10.0Y-3.1535
X10.0625Y-3.5965
X10.0625Y-3.9035
T5
X0.975Y-2.15
X1.07Y-2.9
X1.07Y-4.4
X1.1625Y-3.65
X1.225Y-2.05
X1.32Y-2.8
X1.32Y-4.3
X1.4125Y-3.55
X1.725Y-2.15
X1.9125Y-2.9
X1.9125Y-4.4
X1.975Y-2.05
X2.1Y-3.65
X2.1625Y-2.8
X2.1625Y-4.3
X2.35Y-3.55
X2.475Y-2.15
X2.6625Y-2.9
X2.725Y-2.05
X2.85Y-3.65
X2.9125Y-2.8
X3.0375Y-4.4
X3.1Y-3.55
X3.225Y-2.15
X3.2875Y-4.3
X3.4125Y-2.9
X3.475Y-2.05
X3.6Y-3.65
X3.6625Y-2.8
X3.85Y-3.55
X3.975Y-2.15
X4.1625Y-2.9
X4.225Y-2.05
X4.255Y-4.4
X4.35Y-3.65
X4.4125Y-2.8
X4.505Y-4.3
X4.6Y-3.55
X4.725Y-2.15
X4.9125Y-2.9
X4.975Y-2.05
X5.1Y-3.65
X5.1625Y-2.8
X5.2875Y-4.4
X5.35Y-3.55
X5.475Y-2.15
X5.5375Y-4.3
X5.6625Y-2.9
X5.725Y-2.05
X5.85Y-3.65
X5.9125Y-2.8
X6.1Y-3.55
X6.13Y-4.4
X6.225Y-2.15
X6.38Y-4.3
X6.4125Y-2.9
X6.475Y-2.05
X6.6Y-3.65
X6.6625Y-2.8
X6.85Y-3.55
X6.975Y-2.15
X7.1625Y-2.9
X7.225Y-2.05
X7.35Y-3.65
X7.4125Y-2.8
X7.5375Y-4.4
X7.6Y-3.55
X7.725Y-2.15
X7.7875Y-4.3
X7.9125Y-2.9
X7.975Y-2.05
X8.1Y-3.65
X8.1625Y-2.8
X8.35Y-3.55
X8.475Y-2.15
X8.6625Y-2.9
X8.6625Y-4.4
X8.725Y-2.05
X8.85Y-3.65
X8.9125Y-2.8
X8.9125Y-4.3
X9.1Y-3.55
X9.4125Y-2.15
X9.505Y-2.9
X9.505Y-4.4
X9.6Y-3.65
X9.6625Y-2.05
X9.755Y-2.8
X9.755Y-4.3
X9.85Y-3.55
T0
M30
