%TF.GenerationSoftware,KiCad,Pcbnew,(7.0.0)*%
%TF.CreationDate,2023-04-22T21:46:49+02:00*%
%TF.ProjectId,lumpen,6c756d70-656e-42e6-9b69-6361645f7063,rev?*%
%TF.SameCoordinates,Original*%
%TF.FileFunction,Paste,Bot*%
%TF.FilePolarity,Positive*%
%FSLAX46Y46*%
G04 Gerber Fmt 4.6, Leading zero omitted, Abs format (unit mm)*
G04 Created by KiCad (PCBNEW (7.0.0)) date 2023-04-22 21:46:49*
%MOMM*%
%LPD*%
G01*
G04 APERTURE LIST*
%ADD10R,1.200000X1.600000*%
%TA.AperFunction,Profile*%
%ADD11C,0.100000*%
%TD*%
%TA.AperFunction,Profile*%
%ADD12C,0.200000*%
%TD*%
G04 APERTURE END LIST*
D10*
%TO.C,D1*%
X38099999Y-58549999D03*
X38099999Y-55749999D03*
%TD*%
%TO.C,D41*%
X231774999Y-115699999D03*
X231774999Y-112899999D03*
%TD*%
%TO.C,D9*%
X42862499Y-115699999D03*
X42862499Y-112899999D03*
%TD*%
%TO.C,D21*%
X133349999Y-58549999D03*
X133349999Y-55749999D03*
%TD*%
%TO.C,D44*%
X253999999Y-77599999D03*
X253999999Y-74799999D03*
%TD*%
%TO.C,D28*%
X171449999Y-58549999D03*
X171449999Y-55749999D03*
%TD*%
%TO.C,D13*%
X95249999Y-58549999D03*
X95249999Y-55749999D03*
%TD*%
%TO.C,D33*%
X200024999Y-96649999D03*
X200024999Y-93849999D03*
%TD*%
%TO.C,D6*%
X57149999Y-58549999D03*
X57149999Y-55749999D03*
%TD*%
%TO.C,D37*%
X214312499Y-77599999D03*
X214312499Y-74799999D03*
%TD*%
%TO.C,D19*%
X152399999Y-58549999D03*
X152399999Y-55749999D03*
%TD*%
%TO.C,D39*%
X233362499Y-77599999D03*
X233362499Y-74799999D03*
%TD*%
%TO.C,D7*%
X61912499Y-77599999D03*
X61912499Y-74799999D03*
%TD*%
%TO.C,D36*%
X209549999Y-58549999D03*
X209549999Y-55749999D03*
%TD*%
%TO.C,D24*%
X130174999Y-115699999D03*
X130174999Y-112899999D03*
%TD*%
%TO.C,D22*%
X138112499Y-77599999D03*
X138112499Y-74799999D03*
%TD*%
%TO.C,D18*%
X123824999Y-96649999D03*
X123824999Y-93849999D03*
%TD*%
%TO.C,D31*%
X190499999Y-58549999D03*
X190499999Y-55749999D03*
%TD*%
%TO.C,D35*%
X185737499Y-115699999D03*
X185737499Y-112899999D03*
%TD*%
%TO.C,D16*%
X114299999Y-58549999D03*
X114299999Y-55749999D03*
%TD*%
%TO.C,D25*%
X157162499Y-77599999D03*
X157162499Y-74799999D03*
%TD*%
%TO.C,D8*%
X66674999Y-96649999D03*
X66674999Y-93849999D03*
%TD*%
%TO.C,D11*%
X85724999Y-96649999D03*
X85724999Y-93849999D03*
%TD*%
%TO.C,D4*%
X39687499Y-115699999D03*
X39687499Y-112899999D03*
%TD*%
%TO.C,D15*%
X104774999Y-96649999D03*
X104774999Y-93849999D03*
%TD*%
%TO.C,D30*%
X180974999Y-96649999D03*
X180974999Y-93849999D03*
%TD*%
%TO.C,D45*%
X255587499Y-96649999D03*
X255587499Y-93849999D03*
%TD*%
%TO.C,D14*%
X100012499Y-77599999D03*
X100012499Y-74799999D03*
%TD*%
%TO.C,D10*%
X80962499Y-77599999D03*
X80962499Y-74799999D03*
%TD*%
%TO.C,D5*%
X76199999Y-58549999D03*
X76199999Y-55749999D03*
%TD*%
%TO.C,D26*%
X161924999Y-96649999D03*
X161924999Y-93849999D03*
%TD*%
%TO.C,D29*%
X176212499Y-77599999D03*
X176212499Y-74799999D03*
%TD*%
%TO.C,D2*%
X44322999Y-76012499D03*
X44322999Y-73212499D03*
%TD*%
%TO.C,D12*%
X90487499Y-115699999D03*
X90487499Y-112899999D03*
%TD*%
%TO.C,D23*%
X142874999Y-96649999D03*
X142874999Y-93849999D03*
%TD*%
%TO.C,D34*%
X228599999Y-58549999D03*
X228599999Y-55749999D03*
%TD*%
%TO.C,D46*%
X236537499Y-115699999D03*
X236537499Y-112899999D03*
%TD*%
%TO.C,D17*%
X119062499Y-77599999D03*
X119062499Y-74799999D03*
%TD*%
%TO.C,D32*%
X195262499Y-77599999D03*
X195262499Y-74799999D03*
%TD*%
%TO.C,D27*%
X167512999Y-115699999D03*
X167512999Y-112899999D03*
%TD*%
%TO.C,D43*%
X252412499Y-58549999D03*
X252412499Y-55749999D03*
%TD*%
%TO.C,D20*%
X119887999Y-115699999D03*
X119887999Y-112899999D03*
%TD*%
%TO.C,D3*%
X44449999Y-96649999D03*
X44449999Y-93849999D03*
%TD*%
%TO.C,D38*%
X219074999Y-96649999D03*
X219074999Y-93849999D03*
%TD*%
%TO.C,D40*%
X238124999Y-96649999D03*
X238124999Y-93849999D03*
%TD*%
D11*
X224161188Y-86836250D02*
X52314313Y-86836250D01*
D12*
X33287290Y-128781256D02*
X25917546Y-128781256D01*
D11*
X125459250Y-103505000D02*
X127840500Y-105886250D01*
X224161188Y-86836200D02*
G75*
G03*
X224161188Y-84455000I12J1190600D01*
G01*
X78199375Y-102314375D02*
X83755625Y-102314375D01*
X192532000Y-102314375D02*
X191341375Y-103505000D01*
X224161188Y-67786200D02*
G75*
G03*
X224161188Y-65405000I12J1190600D01*
G01*
D12*
X39350957Y-123825611D02*
X35178801Y-127997767D01*
X25855692Y-42668888D02*
G75*
G03*
X23964181Y-43452380I8J-2675012D01*
G01*
D11*
X52314313Y-103505000D02*
X77008750Y-103505000D01*
X193722625Y-103505000D02*
X191341375Y-105886250D01*
D12*
X19102418Y-121966128D02*
X19040564Y-49484019D01*
X236913960Y-123824293D02*
X39350957Y-123825611D01*
X252245970Y-43472322D02*
G75*
G03*
X250354482Y-42688810I-1891570J-1891578D01*
G01*
D11*
X52314313Y-84454950D02*
G75*
G03*
X52314313Y-86836250I-13J-1190650D01*
G01*
D12*
X242984738Y-42688823D02*
G75*
G03*
X241096372Y-43469515I-38J-2674077D01*
G01*
X252245993Y-43472299D02*
X256386121Y-47612427D01*
D11*
X191341375Y-105886250D02*
X175402875Y-105886250D01*
D12*
X39257075Y-47592508D02*
X236956244Y-47609643D01*
D11*
X103964500Y-103505000D02*
X119903000Y-103505000D01*
D12*
X236956244Y-47609643D02*
X241096372Y-43469515D01*
D11*
X96027000Y-105886250D02*
X84946250Y-105886250D01*
D12*
X30540436Y-45418891D02*
G75*
G03*
X30540436Y-45418891I-1000000J0D01*
G01*
D11*
X196897625Y-103505000D02*
X199278875Y-105886250D01*
D12*
X250315343Y-128747910D02*
X242945599Y-128747910D01*
X30602546Y-126031256D02*
G75*
G03*
X30602546Y-126031256I-1000000J0D01*
G01*
D11*
X97217625Y-102314375D02*
X96027000Y-103505000D01*
D12*
X25855692Y-42668891D02*
X33225436Y-42668891D01*
X257169610Y-49503938D02*
X257130471Y-121932782D01*
D11*
X121093625Y-102314375D02*
X126649875Y-102314375D01*
D12*
X247669482Y-45438810D02*
G75*
G03*
X247669482Y-45438810I-1000000J0D01*
G01*
D11*
X144786188Y-102314375D02*
X143595563Y-103505000D01*
X168656000Y-102314375D02*
X167465375Y-103505000D01*
X121093625Y-102314375D02*
X119903000Y-103505000D01*
D12*
X250315343Y-128747925D02*
G75*
G03*
X252206853Y-127964420I57J2674825D01*
G01*
X241054108Y-127964401D02*
G75*
G03*
X242945599Y-128747910I1891492J1891401D01*
G01*
D11*
X122284250Y-103505000D02*
X125459250Y-103505000D01*
X224161188Y-105886250D02*
X199278875Y-105886250D01*
X102773875Y-102314375D02*
X103964500Y-103505000D01*
X193722625Y-103505000D02*
X196897625Y-103505000D01*
X169846625Y-103505000D02*
X173021625Y-103505000D01*
X151533063Y-103505000D02*
X167465375Y-103505000D01*
X144786188Y-102314375D02*
X150342438Y-102314375D01*
D12*
X35116939Y-43452388D02*
G75*
G03*
X33225436Y-42668891I-1891439J-1891312D01*
G01*
D11*
X52314313Y-103504950D02*
G75*
G03*
X52314313Y-105886250I-13J-1190650D01*
G01*
X199278875Y-103505000D02*
X224161188Y-103505000D01*
X169846625Y-103505000D02*
X167465375Y-105886250D01*
X52314313Y-84455000D02*
X224161188Y-84455000D01*
X224161188Y-105886200D02*
G75*
G03*
X224161188Y-103505000I12J1190600D01*
G01*
D12*
X256346997Y-123824308D02*
G75*
G03*
X257130471Y-121932782I-1891797J1891608D01*
G01*
X256346982Y-123824293D02*
X252206854Y-127964421D01*
X33287290Y-128781220D02*
G75*
G03*
X35178800Y-127997766I110J2674820D01*
G01*
D11*
X101583250Y-103505000D02*
X103964500Y-105886250D01*
X79390000Y-103505000D02*
X82565000Y-103505000D01*
X126649875Y-102314375D02*
X127840500Y-103505000D01*
X145976813Y-103505000D02*
X149151813Y-103505000D01*
X143595563Y-105886250D02*
X127840500Y-105886250D01*
X83755625Y-102314375D02*
X84946250Y-103505000D01*
X173021625Y-103505000D02*
X175402875Y-105886250D01*
D12*
X24026035Y-127997767D02*
X19885907Y-123857639D01*
X242984738Y-42688810D02*
X250354482Y-42688810D01*
D11*
X97217625Y-102314375D02*
X102773875Y-102314375D01*
D12*
X241054088Y-127964421D02*
X236913960Y-123824293D01*
X24026051Y-127997751D02*
G75*
G03*
X25917546Y-128781256I1891549J1891551D01*
G01*
D11*
X78199375Y-102314375D02*
X77008750Y-103505000D01*
X174212250Y-102314375D02*
X175402875Y-103505000D01*
X175402875Y-103505000D02*
X191341375Y-103505000D01*
X149151813Y-103505000D02*
X151533063Y-105886250D01*
X224161188Y-67786250D02*
X52314313Y-67786250D01*
X119903000Y-105886250D02*
X103964500Y-105886250D01*
X79390000Y-103505000D02*
X77008750Y-105886250D01*
X98408250Y-103505000D02*
X96027000Y-105886250D01*
X198088250Y-102314375D02*
X199278875Y-103505000D01*
X84946250Y-103505000D02*
X96027000Y-103505000D01*
X52314313Y-65404950D02*
G75*
G03*
X52314313Y-67786250I-13J-1190650D01*
G01*
X168656000Y-102314375D02*
X174212250Y-102314375D01*
X122284250Y-103505000D02*
X119903000Y-105886250D01*
D12*
X19824057Y-47592512D02*
G75*
G03*
X19040564Y-49484019I1891443J-1891488D01*
G01*
D11*
X167465375Y-105886250D02*
X151533063Y-105886250D01*
D12*
X19824053Y-47592508D02*
X23964181Y-43452380D01*
D11*
X77008750Y-105886250D02*
X52314313Y-105886250D01*
X82565000Y-103505000D02*
X84946250Y-105886250D01*
X52314313Y-65405000D02*
X224161188Y-65405000D01*
D12*
X35116947Y-43452380D02*
X39257075Y-47592508D01*
D11*
X150342438Y-102314375D02*
X151533063Y-103505000D01*
D12*
X247630599Y-125997910D02*
G75*
G03*
X247630599Y-125997910I-1000000J0D01*
G01*
D11*
X192532000Y-102314375D02*
X198088250Y-102314375D01*
D12*
X257169604Y-49503938D02*
G75*
G03*
X256386120Y-47612428I-2675404J-162D01*
G01*
D11*
X127840500Y-103505000D02*
X143595563Y-103505000D01*
D12*
X19102451Y-121966128D02*
G75*
G03*
X19885907Y-123857639I2675149J28D01*
G01*
D11*
X145976813Y-103505000D02*
X143595563Y-105886250D01*
X98408250Y-103505000D02*
X101583250Y-103505000D01*
M02*
