%TF.GenerationSoftware,KiCad,Pcbnew,(7.0.0)*%
%TF.CreationDate,2023-04-22T21:46:50+02:00*%
%TF.ProjectId,lumpen,6c756d70-656e-42e6-9b69-6361645f7063,rev?*%
%TF.SameCoordinates,Original*%
%TF.FileFunction,Legend,Bot*%
%TF.FilePolarity,Positive*%
%FSLAX46Y46*%
G04 Gerber Fmt 4.6, Leading zero omitted, Abs format (unit mm)*
G04 Created by KiCad (PCBNEW (7.0.0)) date 2023-04-22 21:46:50*
%MOMM*%
%LPD*%
G01*
G04 APERTURE LIST*
%ADD10C,0.250000*%
%ADD11C,0.150000*%
%ADD12C,0.050000*%
%ADD13C,0.120000*%
%TA.AperFunction,Profile*%
%ADD14C,0.100000*%
%TD*%
%TA.AperFunction,Profile*%
%ADD15C,0.200000*%
%TD*%
G04 APERTURE END LIST*
D10*
X24923618Y-63708714D02*
X24923618Y-64708714D01*
X24923618Y-63756333D02*
X24828380Y-63708714D01*
X24828380Y-63708714D02*
X24637904Y-63708714D01*
X24637904Y-63708714D02*
X24542666Y-63756333D01*
X24542666Y-63756333D02*
X24495047Y-63803952D01*
X24495047Y-63803952D02*
X24447428Y-63899190D01*
X24447428Y-63899190D02*
X24447428Y-64184904D01*
X24447428Y-64184904D02*
X24495047Y-64280142D01*
X24495047Y-64280142D02*
X24542666Y-64327761D01*
X24542666Y-64327761D02*
X24637904Y-64375380D01*
X24637904Y-64375380D02*
X24828380Y-64375380D01*
X24828380Y-64375380D02*
X24923618Y-64327761D01*
X24114094Y-63708714D02*
X23923618Y-64375380D01*
X23923618Y-64375380D02*
X23733142Y-63899190D01*
X23733142Y-63899190D02*
X23542666Y-64375380D01*
X23542666Y-64375380D02*
X23352190Y-63708714D01*
X22971237Y-64375380D02*
X22971237Y-63708714D01*
X22971237Y-63899190D02*
X22923618Y-63803952D01*
X22923618Y-63803952D02*
X22875999Y-63756333D01*
X22875999Y-63756333D02*
X22780761Y-63708714D01*
X22780761Y-63708714D02*
X22685523Y-63708714D01*
X113363189Y-116937619D02*
X113315570Y-116890000D01*
X113315570Y-116890000D02*
X113220332Y-116842380D01*
X113220332Y-116842380D02*
X112982237Y-116842380D01*
X112982237Y-116842380D02*
X112886999Y-116890000D01*
X112886999Y-116890000D02*
X112839380Y-116937619D01*
X112839380Y-116937619D02*
X112791761Y-117032857D01*
X112791761Y-117032857D02*
X112791761Y-117128095D01*
X112791761Y-117128095D02*
X112839380Y-117270952D01*
X112839380Y-117270952D02*
X113410808Y-117842380D01*
X113410808Y-117842380D02*
X112791761Y-117842380D01*
X112363189Y-117747142D02*
X112315570Y-117794761D01*
X112315570Y-117794761D02*
X112363189Y-117842380D01*
X112363189Y-117842380D02*
X112410808Y-117794761D01*
X112410808Y-117794761D02*
X112363189Y-117747142D01*
X112363189Y-117747142D02*
X112363189Y-117842380D01*
X111934618Y-116937619D02*
X111886999Y-116890000D01*
X111886999Y-116890000D02*
X111791761Y-116842380D01*
X111791761Y-116842380D02*
X111553666Y-116842380D01*
X111553666Y-116842380D02*
X111458428Y-116890000D01*
X111458428Y-116890000D02*
X111410809Y-116937619D01*
X111410809Y-116937619D02*
X111363190Y-117032857D01*
X111363190Y-117032857D02*
X111363190Y-117128095D01*
X111363190Y-117128095D02*
X111410809Y-117270952D01*
X111410809Y-117270952D02*
X111982237Y-117842380D01*
X111982237Y-117842380D02*
X111363190Y-117842380D01*
X110458428Y-116842380D02*
X110934618Y-116842380D01*
X110934618Y-116842380D02*
X110982237Y-117318571D01*
X110982237Y-117318571D02*
X110934618Y-117270952D01*
X110934618Y-117270952D02*
X110839380Y-117223333D01*
X110839380Y-117223333D02*
X110601285Y-117223333D01*
X110601285Y-117223333D02*
X110506047Y-117270952D01*
X110506047Y-117270952D02*
X110458428Y-117318571D01*
X110458428Y-117318571D02*
X110410809Y-117413809D01*
X110410809Y-117413809D02*
X110410809Y-117651904D01*
X110410809Y-117651904D02*
X110458428Y-117747142D01*
X110458428Y-117747142D02*
X110506047Y-117794761D01*
X110506047Y-117794761D02*
X110601285Y-117842380D01*
X110601285Y-117842380D02*
X110839380Y-117842380D01*
X110839380Y-117842380D02*
X110934618Y-117794761D01*
X110934618Y-117794761D02*
X110982237Y-117747142D01*
D11*
X21633071Y-87631144D02*
X21561642Y-87488287D01*
X21561642Y-87488287D02*
X21418785Y-87416858D01*
X21418785Y-87416858D02*
X20133071Y-87416858D01*
X20633071Y-88845430D02*
X21633071Y-88845430D01*
X20633071Y-88202572D02*
X21418785Y-88202572D01*
X21418785Y-88202572D02*
X21561642Y-88274001D01*
X21561642Y-88274001D02*
X21633071Y-88416858D01*
X21633071Y-88416858D02*
X21633071Y-88631144D01*
X21633071Y-88631144D02*
X21561642Y-88774001D01*
X21561642Y-88774001D02*
X21490214Y-88845430D01*
X21633071Y-89559715D02*
X20633071Y-89559715D01*
X20775928Y-89559715D02*
X20704500Y-89631144D01*
X20704500Y-89631144D02*
X20633071Y-89774001D01*
X20633071Y-89774001D02*
X20633071Y-89988287D01*
X20633071Y-89988287D02*
X20704500Y-90131144D01*
X20704500Y-90131144D02*
X20847357Y-90202573D01*
X20847357Y-90202573D02*
X21633071Y-90202573D01*
X20847357Y-90202573D02*
X20704500Y-90274001D01*
X20704500Y-90274001D02*
X20633071Y-90416858D01*
X20633071Y-90416858D02*
X20633071Y-90631144D01*
X20633071Y-90631144D02*
X20704500Y-90774001D01*
X20704500Y-90774001D02*
X20847357Y-90845430D01*
X20847357Y-90845430D02*
X21633071Y-90845430D01*
X20633071Y-91559715D02*
X22133071Y-91559715D01*
X20704500Y-91559715D02*
X20633071Y-91702573D01*
X20633071Y-91702573D02*
X20633071Y-91988287D01*
X20633071Y-91988287D02*
X20704500Y-92131144D01*
X20704500Y-92131144D02*
X20775928Y-92202573D01*
X20775928Y-92202573D02*
X20918785Y-92274001D01*
X20918785Y-92274001D02*
X21347357Y-92274001D01*
X21347357Y-92274001D02*
X21490214Y-92202573D01*
X21490214Y-92202573D02*
X21561642Y-92131144D01*
X21561642Y-92131144D02*
X21633071Y-91988287D01*
X21633071Y-91988287D02*
X21633071Y-91702573D01*
X21633071Y-91702573D02*
X21561642Y-91559715D01*
X21561642Y-93488287D02*
X21633071Y-93345430D01*
X21633071Y-93345430D02*
X21633071Y-93059716D01*
X21633071Y-93059716D02*
X21561642Y-92916858D01*
X21561642Y-92916858D02*
X21418785Y-92845430D01*
X21418785Y-92845430D02*
X20847357Y-92845430D01*
X20847357Y-92845430D02*
X20704500Y-92916858D01*
X20704500Y-92916858D02*
X20633071Y-93059716D01*
X20633071Y-93059716D02*
X20633071Y-93345430D01*
X20633071Y-93345430D02*
X20704500Y-93488287D01*
X20704500Y-93488287D02*
X20847357Y-93559716D01*
X20847357Y-93559716D02*
X20990214Y-93559716D01*
X20990214Y-93559716D02*
X21133071Y-92845430D01*
X20633071Y-94202572D02*
X21633071Y-94202572D01*
X20775928Y-94202572D02*
X20704500Y-94274001D01*
X20704500Y-94274001D02*
X20633071Y-94416858D01*
X20633071Y-94416858D02*
X20633071Y-94631144D01*
X20633071Y-94631144D02*
X20704500Y-94774001D01*
X20704500Y-94774001D02*
X20847357Y-94845430D01*
X20847357Y-94845430D02*
X21633071Y-94845430D01*
X20633071Y-96316858D02*
X21633071Y-96674001D01*
X21633071Y-96674001D02*
X20633071Y-97031144D01*
X21633071Y-98388287D02*
X21633071Y-97531144D01*
X21633071Y-97959715D02*
X20133071Y-97959715D01*
X20133071Y-97959715D02*
X20347357Y-97816858D01*
X20347357Y-97816858D02*
X20490214Y-97674001D01*
X20490214Y-97674001D02*
X20561642Y-97531144D01*
X21490214Y-99031143D02*
X21561642Y-99102572D01*
X21561642Y-99102572D02*
X21633071Y-99031143D01*
X21633071Y-99031143D02*
X21561642Y-98959715D01*
X21561642Y-98959715D02*
X21490214Y-99031143D01*
X21490214Y-99031143D02*
X21633071Y-99031143D01*
X21633071Y-100531144D02*
X21633071Y-99674001D01*
X21633071Y-100102572D02*
X20133071Y-100102572D01*
X20133071Y-100102572D02*
X20347357Y-99959715D01*
X20347357Y-99959715D02*
X20490214Y-99816858D01*
X20490214Y-99816858D02*
X20561642Y-99674001D01*
X21633071Y-102074000D02*
X20133071Y-102074000D01*
X20704500Y-102074000D02*
X20633071Y-102216858D01*
X20633071Y-102216858D02*
X20633071Y-102502572D01*
X20633071Y-102502572D02*
X20704500Y-102645429D01*
X20704500Y-102645429D02*
X20775928Y-102716858D01*
X20775928Y-102716858D02*
X20918785Y-102788286D01*
X20918785Y-102788286D02*
X21347357Y-102788286D01*
X21347357Y-102788286D02*
X21490214Y-102716858D01*
X21490214Y-102716858D02*
X21561642Y-102645429D01*
X21561642Y-102645429D02*
X21633071Y-102502572D01*
X21633071Y-102502572D02*
X21633071Y-102216858D01*
X21633071Y-102216858D02*
X21561642Y-102074000D01*
X20633071Y-103288286D02*
X21633071Y-103645429D01*
X20633071Y-104002572D02*
X21633071Y-103645429D01*
X21633071Y-103645429D02*
X21990214Y-103502572D01*
X21990214Y-103502572D02*
X22061642Y-103431143D01*
X22061642Y-103431143D02*
X22133071Y-103288286D01*
X21490214Y-106331143D02*
X21561642Y-106259715D01*
X21561642Y-106259715D02*
X21633071Y-106045429D01*
X21633071Y-106045429D02*
X21633071Y-105902572D01*
X21633071Y-105902572D02*
X21561642Y-105688286D01*
X21561642Y-105688286D02*
X21418785Y-105545429D01*
X21418785Y-105545429D02*
X21275928Y-105474000D01*
X21275928Y-105474000D02*
X20990214Y-105402572D01*
X20990214Y-105402572D02*
X20775928Y-105402572D01*
X20775928Y-105402572D02*
X20490214Y-105474000D01*
X20490214Y-105474000D02*
X20347357Y-105545429D01*
X20347357Y-105545429D02*
X20204500Y-105688286D01*
X20204500Y-105688286D02*
X20133071Y-105902572D01*
X20133071Y-105902572D02*
X20133071Y-106045429D01*
X20133071Y-106045429D02*
X20204500Y-106259715D01*
X20204500Y-106259715D02*
X20275928Y-106331143D01*
X21633071Y-107616858D02*
X20847357Y-107616858D01*
X20847357Y-107616858D02*
X20704500Y-107545429D01*
X20704500Y-107545429D02*
X20633071Y-107402572D01*
X20633071Y-107402572D02*
X20633071Y-107116858D01*
X20633071Y-107116858D02*
X20704500Y-106974000D01*
X21561642Y-107616858D02*
X21633071Y-107474000D01*
X21633071Y-107474000D02*
X21633071Y-107116858D01*
X21633071Y-107116858D02*
X21561642Y-106974000D01*
X21561642Y-106974000D02*
X21418785Y-106902572D01*
X21418785Y-106902572D02*
X21275928Y-106902572D01*
X21275928Y-106902572D02*
X21133071Y-106974000D01*
X21133071Y-106974000D02*
X21061642Y-107116858D01*
X21061642Y-107116858D02*
X21061642Y-107474000D01*
X21061642Y-107474000D02*
X20990214Y-107616858D01*
X21633071Y-108545429D02*
X21561642Y-108402572D01*
X21561642Y-108402572D02*
X21418785Y-108331143D01*
X21418785Y-108331143D02*
X20133071Y-108331143D01*
X20633071Y-108974000D02*
X21633071Y-109331143D01*
X21633071Y-109331143D02*
X20633071Y-109688286D01*
X21633071Y-110259714D02*
X20633071Y-110259714D01*
X20133071Y-110259714D02*
X20204500Y-110188286D01*
X20204500Y-110188286D02*
X20275928Y-110259714D01*
X20275928Y-110259714D02*
X20204500Y-110331143D01*
X20204500Y-110331143D02*
X20133071Y-110259714D01*
X20133071Y-110259714D02*
X20275928Y-110259714D01*
X20633071Y-110974000D02*
X21633071Y-110974000D01*
X20775928Y-110974000D02*
X20704500Y-111045429D01*
X20704500Y-111045429D02*
X20633071Y-111188286D01*
X20633071Y-111188286D02*
X20633071Y-111402572D01*
X20633071Y-111402572D02*
X20704500Y-111545429D01*
X20704500Y-111545429D02*
X20847357Y-111616858D01*
X20847357Y-111616858D02*
X21633071Y-111616858D01*
X20633071Y-112259715D02*
X20633071Y-113331143D01*
X19990214Y-112688286D02*
X21918785Y-112259715D01*
X21275928Y-113188286D02*
X21275928Y-112116858D01*
X21918785Y-112759715D02*
X19990214Y-113188286D01*
X20133071Y-114116858D02*
X20133071Y-114259715D01*
X20133071Y-114259715D02*
X20204500Y-114402572D01*
X20204500Y-114402572D02*
X20275928Y-114474001D01*
X20275928Y-114474001D02*
X20418785Y-114545429D01*
X20418785Y-114545429D02*
X20704500Y-114616858D01*
X20704500Y-114616858D02*
X21061642Y-114616858D01*
X21061642Y-114616858D02*
X21347357Y-114545429D01*
X21347357Y-114545429D02*
X21490214Y-114474001D01*
X21490214Y-114474001D02*
X21561642Y-114402572D01*
X21561642Y-114402572D02*
X21633071Y-114259715D01*
X21633071Y-114259715D02*
X21633071Y-114116858D01*
X21633071Y-114116858D02*
X21561642Y-113974001D01*
X21561642Y-113974001D02*
X21490214Y-113902572D01*
X21490214Y-113902572D02*
X21347357Y-113831143D01*
X21347357Y-113831143D02*
X21061642Y-113759715D01*
X21061642Y-113759715D02*
X20704500Y-113759715D01*
X20704500Y-113759715D02*
X20418785Y-113831143D01*
X20418785Y-113831143D02*
X20275928Y-113902572D01*
X20275928Y-113902572D02*
X20204500Y-113974001D01*
X20204500Y-113974001D02*
X20133071Y-114116858D01*
X20133071Y-115974000D02*
X20133071Y-115259714D01*
X20133071Y-115259714D02*
X20847357Y-115188286D01*
X20847357Y-115188286D02*
X20775928Y-115259714D01*
X20775928Y-115259714D02*
X20704500Y-115402572D01*
X20704500Y-115402572D02*
X20704500Y-115759714D01*
X20704500Y-115759714D02*
X20775928Y-115902572D01*
X20775928Y-115902572D02*
X20847357Y-115974000D01*
X20847357Y-115974000D02*
X20990214Y-116045429D01*
X20990214Y-116045429D02*
X21347357Y-116045429D01*
X21347357Y-116045429D02*
X21490214Y-115974000D01*
X21490214Y-115974000D02*
X21561642Y-115902572D01*
X21561642Y-115902572D02*
X21633071Y-115759714D01*
X21633071Y-115759714D02*
X21633071Y-115402572D01*
X21633071Y-115402572D02*
X21561642Y-115259714D01*
X21561642Y-115259714D02*
X21490214Y-115188286D01*
X20133071Y-117331143D02*
X20133071Y-117045428D01*
X20133071Y-117045428D02*
X20204500Y-116902571D01*
X20204500Y-116902571D02*
X20275928Y-116831143D01*
X20275928Y-116831143D02*
X20490214Y-116688285D01*
X20490214Y-116688285D02*
X20775928Y-116616857D01*
X20775928Y-116616857D02*
X21347357Y-116616857D01*
X21347357Y-116616857D02*
X21490214Y-116688285D01*
X21490214Y-116688285D02*
X21561642Y-116759714D01*
X21561642Y-116759714D02*
X21633071Y-116902571D01*
X21633071Y-116902571D02*
X21633071Y-117188285D01*
X21633071Y-117188285D02*
X21561642Y-117331143D01*
X21561642Y-117331143D02*
X21490214Y-117402571D01*
X21490214Y-117402571D02*
X21347357Y-117474000D01*
X21347357Y-117474000D02*
X20990214Y-117474000D01*
X20990214Y-117474000D02*
X20847357Y-117402571D01*
X20847357Y-117402571D02*
X20775928Y-117331143D01*
X20775928Y-117331143D02*
X20704500Y-117188285D01*
X20704500Y-117188285D02*
X20704500Y-116902571D01*
X20704500Y-116902571D02*
X20775928Y-116759714D01*
X20775928Y-116759714D02*
X20847357Y-116688285D01*
X20847357Y-116688285D02*
X20990214Y-116616857D01*
X20133071Y-117973999D02*
X20133071Y-118902571D01*
X20133071Y-118902571D02*
X20704500Y-118402571D01*
X20704500Y-118402571D02*
X20704500Y-118616856D01*
X20704500Y-118616856D02*
X20775928Y-118759714D01*
X20775928Y-118759714D02*
X20847357Y-118831142D01*
X20847357Y-118831142D02*
X20990214Y-118902571D01*
X20990214Y-118902571D02*
X21347357Y-118902571D01*
X21347357Y-118902571D02*
X21490214Y-118831142D01*
X21490214Y-118831142D02*
X21561642Y-118759714D01*
X21561642Y-118759714D02*
X21633071Y-118616856D01*
X21633071Y-118616856D02*
X21633071Y-118188285D01*
X21633071Y-118188285D02*
X21561642Y-118045428D01*
X21561642Y-118045428D02*
X21490214Y-117973999D01*
D10*
X160988189Y-116937619D02*
X160940570Y-116890000D01*
X160940570Y-116890000D02*
X160845332Y-116842380D01*
X160845332Y-116842380D02*
X160607237Y-116842380D01*
X160607237Y-116842380D02*
X160511999Y-116890000D01*
X160511999Y-116890000D02*
X160464380Y-116937619D01*
X160464380Y-116937619D02*
X160416761Y-117032857D01*
X160416761Y-117032857D02*
X160416761Y-117128095D01*
X160416761Y-117128095D02*
X160464380Y-117270952D01*
X160464380Y-117270952D02*
X161035808Y-117842380D01*
X161035808Y-117842380D02*
X160416761Y-117842380D01*
X159988189Y-117747142D02*
X159940570Y-117794761D01*
X159940570Y-117794761D02*
X159988189Y-117842380D01*
X159988189Y-117842380D02*
X160035808Y-117794761D01*
X160035808Y-117794761D02*
X159988189Y-117747142D01*
X159988189Y-117747142D02*
X159988189Y-117842380D01*
X159607237Y-116842380D02*
X158940571Y-116842380D01*
X158940571Y-116842380D02*
X159369142Y-117842380D01*
X158083428Y-116842380D02*
X158559618Y-116842380D01*
X158559618Y-116842380D02*
X158607237Y-117318571D01*
X158607237Y-117318571D02*
X158559618Y-117270952D01*
X158559618Y-117270952D02*
X158464380Y-117223333D01*
X158464380Y-117223333D02*
X158226285Y-117223333D01*
X158226285Y-117223333D02*
X158131047Y-117270952D01*
X158131047Y-117270952D02*
X158083428Y-117318571D01*
X158083428Y-117318571D02*
X158035809Y-117413809D01*
X158035809Y-117413809D02*
X158035809Y-117651904D01*
X158035809Y-117651904D02*
X158083428Y-117747142D01*
X158083428Y-117747142D02*
X158131047Y-117794761D01*
X158131047Y-117794761D02*
X158226285Y-117842380D01*
X158226285Y-117842380D02*
X158464380Y-117842380D01*
X158464380Y-117842380D02*
X158559618Y-117794761D01*
X158559618Y-117794761D02*
X158607237Y-117747142D01*
D12*
X256125225Y-58073810D02*
X255518082Y-58073810D01*
X255518082Y-58073810D02*
X255396653Y-58083333D01*
X255396653Y-58083333D02*
X255315701Y-58102381D01*
X255315701Y-58102381D02*
X255275225Y-58130952D01*
X255275225Y-58130952D02*
X255275225Y-58150000D01*
X255275225Y-57883333D02*
X255275225Y-57978571D01*
X255275225Y-57978571D02*
X256125225Y-57978571D01*
X255356177Y-57702381D02*
X255315701Y-57711905D01*
X255315701Y-57711905D02*
X255275225Y-57740476D01*
X255275225Y-57740476D02*
X255275225Y-57759524D01*
X255275225Y-57759524D02*
X255315701Y-57788095D01*
X255315701Y-57788095D02*
X255396653Y-57807143D01*
X255396653Y-57807143D02*
X255477606Y-57816666D01*
X255477606Y-57816666D02*
X255639510Y-57826190D01*
X255639510Y-57826190D02*
X255760939Y-57826190D01*
X255760939Y-57826190D02*
X255922844Y-57816666D01*
X255922844Y-57816666D02*
X256003796Y-57807143D01*
X256003796Y-57807143D02*
X256084749Y-57788095D01*
X256084749Y-57788095D02*
X256125225Y-57759524D01*
X256125225Y-57759524D02*
X256125225Y-57740476D01*
X256125225Y-57740476D02*
X256084749Y-57711905D01*
X256084749Y-57711905D02*
X256044272Y-57702381D01*
X256125225Y-57559524D02*
X255518082Y-57559524D01*
X255518082Y-57559524D02*
X255396653Y-57569047D01*
X255396653Y-57569047D02*
X255315701Y-57588095D01*
X255315701Y-57588095D02*
X255275225Y-57616666D01*
X255275225Y-57616666D02*
X255275225Y-57635714D01*
X255275225Y-57369047D02*
X255275225Y-57464285D01*
X255275225Y-57464285D02*
X256125225Y-57464285D01*
X255356177Y-57188095D02*
X255315701Y-57197619D01*
X255315701Y-57197619D02*
X255275225Y-57226190D01*
X255275225Y-57226190D02*
X255275225Y-57245238D01*
X255275225Y-57245238D02*
X255315701Y-57273809D01*
X255315701Y-57273809D02*
X255396653Y-57292857D01*
X255396653Y-57292857D02*
X255477606Y-57302380D01*
X255477606Y-57302380D02*
X255639510Y-57311904D01*
X255639510Y-57311904D02*
X255760939Y-57311904D01*
X255760939Y-57311904D02*
X255922844Y-57302380D01*
X255922844Y-57302380D02*
X256003796Y-57292857D01*
X256003796Y-57292857D02*
X256084749Y-57273809D01*
X256084749Y-57273809D02*
X256125225Y-57245238D01*
X256125225Y-57245238D02*
X256125225Y-57226190D01*
X256125225Y-57226190D02*
X256084749Y-57197619D01*
X256084749Y-57197619D02*
X256044272Y-57188095D01*
X256125225Y-57045238D02*
X255518082Y-57045238D01*
X255518082Y-57045238D02*
X255396653Y-57054761D01*
X255396653Y-57054761D02*
X255315701Y-57073809D01*
X255315701Y-57073809D02*
X255275225Y-57102380D01*
X255275225Y-57102380D02*
X255275225Y-57121428D01*
X255275225Y-56854761D02*
X255275225Y-56949999D01*
X255275225Y-56949999D02*
X256125225Y-56949999D01*
X255356177Y-56673809D02*
X255315701Y-56683333D01*
X255315701Y-56683333D02*
X255275225Y-56711904D01*
X255275225Y-56711904D02*
X255275225Y-56730952D01*
X255275225Y-56730952D02*
X255315701Y-56759523D01*
X255315701Y-56759523D02*
X255396653Y-56778571D01*
X255396653Y-56778571D02*
X255477606Y-56788094D01*
X255477606Y-56788094D02*
X255639510Y-56797618D01*
X255639510Y-56797618D02*
X255760939Y-56797618D01*
X255760939Y-56797618D02*
X255922844Y-56788094D01*
X255922844Y-56788094D02*
X256003796Y-56778571D01*
X256003796Y-56778571D02*
X256084749Y-56759523D01*
X256084749Y-56759523D02*
X256125225Y-56730952D01*
X256125225Y-56730952D02*
X256125225Y-56711904D01*
X256125225Y-56711904D02*
X256084749Y-56683333D01*
X256084749Y-56683333D02*
X256044272Y-56673809D01*
X256125225Y-56530952D02*
X255518082Y-56530952D01*
X255518082Y-56530952D02*
X255396653Y-56540475D01*
X255396653Y-56540475D02*
X255315701Y-56559523D01*
X255315701Y-56559523D02*
X255275225Y-56588094D01*
X255275225Y-56588094D02*
X255275225Y-56607142D01*
X255275225Y-56340475D02*
X255275225Y-56435713D01*
X255275225Y-56435713D02*
X256125225Y-56435713D01*
X255356177Y-56159523D02*
X255315701Y-56169047D01*
X255315701Y-56169047D02*
X255275225Y-56197618D01*
X255275225Y-56197618D02*
X255275225Y-56216666D01*
X255275225Y-56216666D02*
X255315701Y-56245237D01*
X255315701Y-56245237D02*
X255396653Y-56264285D01*
X255396653Y-56264285D02*
X255477606Y-56273808D01*
X255477606Y-56273808D02*
X255639510Y-56283332D01*
X255639510Y-56283332D02*
X255760939Y-56283332D01*
X255760939Y-56283332D02*
X255922844Y-56273808D01*
X255922844Y-56273808D02*
X256003796Y-56264285D01*
X256003796Y-56264285D02*
X256084749Y-56245237D01*
X256084749Y-56245237D02*
X256125225Y-56216666D01*
X256125225Y-56216666D02*
X256125225Y-56197618D01*
X256125225Y-56197618D02*
X256084749Y-56169047D01*
X256084749Y-56169047D02*
X256044272Y-56159523D01*
D10*
X247570333Y-117794761D02*
X247665571Y-117842380D01*
X247665571Y-117842380D02*
X247856047Y-117842380D01*
X247856047Y-117842380D02*
X247951285Y-117794761D01*
X247951285Y-117794761D02*
X247998904Y-117699523D01*
X247998904Y-117699523D02*
X247998904Y-117318571D01*
X247998904Y-117318571D02*
X247951285Y-117223333D01*
X247951285Y-117223333D02*
X247856047Y-117175714D01*
X247856047Y-117175714D02*
X247665571Y-117175714D01*
X247665571Y-117175714D02*
X247570333Y-117223333D01*
X247570333Y-117223333D02*
X247522714Y-117318571D01*
X247522714Y-117318571D02*
X247522714Y-117413809D01*
X247522714Y-117413809D02*
X247998904Y-117509047D01*
X247094142Y-117175714D02*
X247094142Y-117842380D01*
X247094142Y-117270952D02*
X247046523Y-117223333D01*
X247046523Y-117223333D02*
X246951285Y-117175714D01*
X246951285Y-117175714D02*
X246808428Y-117175714D01*
X246808428Y-117175714D02*
X246713190Y-117223333D01*
X246713190Y-117223333D02*
X246665571Y-117318571D01*
X246665571Y-117318571D02*
X246665571Y-117842380D01*
X245760809Y-117794761D02*
X245856047Y-117842380D01*
X245856047Y-117842380D02*
X246046523Y-117842380D01*
X246046523Y-117842380D02*
X246141761Y-117794761D01*
X246141761Y-117794761D02*
X246189380Y-117747142D01*
X246189380Y-117747142D02*
X246236999Y-117651904D01*
X246236999Y-117651904D02*
X246236999Y-117366190D01*
X246236999Y-117366190D02*
X246189380Y-117270952D01*
X246189380Y-117270952D02*
X246141761Y-117223333D01*
X246141761Y-117223333D02*
X246046523Y-117175714D01*
X246046523Y-117175714D02*
X245856047Y-117175714D01*
X245856047Y-117175714D02*
X245760809Y-117223333D01*
X245189380Y-117842380D02*
X245284618Y-117794761D01*
X245284618Y-117794761D02*
X245332237Y-117747142D01*
X245332237Y-117747142D02*
X245379856Y-117651904D01*
X245379856Y-117651904D02*
X245379856Y-117366190D01*
X245379856Y-117366190D02*
X245332237Y-117270952D01*
X245332237Y-117270952D02*
X245284618Y-117223333D01*
X245284618Y-117223333D02*
X245189380Y-117175714D01*
X245189380Y-117175714D02*
X245046523Y-117175714D01*
X245046523Y-117175714D02*
X244951285Y-117223333D01*
X244951285Y-117223333D02*
X244903666Y-117270952D01*
X244903666Y-117270952D02*
X244856047Y-117366190D01*
X244856047Y-117366190D02*
X244856047Y-117651904D01*
X244856047Y-117651904D02*
X244903666Y-117747142D01*
X244903666Y-117747142D02*
X244951285Y-117794761D01*
X244951285Y-117794761D02*
X245046523Y-117842380D01*
X245046523Y-117842380D02*
X245189380Y-117842380D01*
X243998904Y-117842380D02*
X243998904Y-116842380D01*
X243998904Y-117794761D02*
X244094142Y-117842380D01*
X244094142Y-117842380D02*
X244284618Y-117842380D01*
X244284618Y-117842380D02*
X244379856Y-117794761D01*
X244379856Y-117794761D02*
X244427475Y-117747142D01*
X244427475Y-117747142D02*
X244475094Y-117651904D01*
X244475094Y-117651904D02*
X244475094Y-117366190D01*
X244475094Y-117366190D02*
X244427475Y-117270952D01*
X244427475Y-117270952D02*
X244379856Y-117223333D01*
X244379856Y-117223333D02*
X244284618Y-117175714D01*
X244284618Y-117175714D02*
X244094142Y-117175714D01*
X244094142Y-117175714D02*
X243998904Y-117223333D01*
X243141761Y-117794761D02*
X243236999Y-117842380D01*
X243236999Y-117842380D02*
X243427475Y-117842380D01*
X243427475Y-117842380D02*
X243522713Y-117794761D01*
X243522713Y-117794761D02*
X243570332Y-117699523D01*
X243570332Y-117699523D02*
X243570332Y-117318571D01*
X243570332Y-117318571D02*
X243522713Y-117223333D01*
X243522713Y-117223333D02*
X243427475Y-117175714D01*
X243427475Y-117175714D02*
X243236999Y-117175714D01*
X243236999Y-117175714D02*
X243141761Y-117223333D01*
X243141761Y-117223333D02*
X243094142Y-117318571D01*
X243094142Y-117318571D02*
X243094142Y-117413809D01*
X243094142Y-117413809D02*
X243570332Y-117509047D01*
X242665570Y-117842380D02*
X242665570Y-117175714D01*
X242665570Y-117366190D02*
X242617951Y-117270952D01*
X242617951Y-117270952D02*
X242570332Y-117223333D01*
X242570332Y-117223333D02*
X242475094Y-117175714D01*
X242475094Y-117175714D02*
X242379856Y-117175714D01*
X138445832Y-116842380D02*
X137779166Y-116842380D01*
X137779166Y-116842380D02*
X138207737Y-117842380D01*
X24566476Y-61041714D02*
X24566476Y-61851238D01*
X24566476Y-61851238D02*
X24614095Y-61946476D01*
X24614095Y-61946476D02*
X24661714Y-61994095D01*
X24661714Y-61994095D02*
X24756952Y-62041714D01*
X24756952Y-62041714D02*
X24899809Y-62041714D01*
X24899809Y-62041714D02*
X24995047Y-61994095D01*
X24566476Y-61660761D02*
X24661714Y-61708380D01*
X24661714Y-61708380D02*
X24852190Y-61708380D01*
X24852190Y-61708380D02*
X24947428Y-61660761D01*
X24947428Y-61660761D02*
X24995047Y-61613142D01*
X24995047Y-61613142D02*
X25042666Y-61517904D01*
X25042666Y-61517904D02*
X25042666Y-61232190D01*
X25042666Y-61232190D02*
X24995047Y-61136952D01*
X24995047Y-61136952D02*
X24947428Y-61089333D01*
X24947428Y-61089333D02*
X24852190Y-61041714D01*
X24852190Y-61041714D02*
X24661714Y-61041714D01*
X24661714Y-61041714D02*
X24566476Y-61089333D01*
X24090285Y-61041714D02*
X24090285Y-61708380D01*
X24090285Y-61136952D02*
X24042666Y-61089333D01*
X24042666Y-61089333D02*
X23947428Y-61041714D01*
X23947428Y-61041714D02*
X23804571Y-61041714D01*
X23804571Y-61041714D02*
X23709333Y-61089333D01*
X23709333Y-61089333D02*
X23661714Y-61184571D01*
X23661714Y-61184571D02*
X23661714Y-61708380D01*
X22756952Y-61708380D02*
X22756952Y-60708380D01*
X22756952Y-61660761D02*
X22852190Y-61708380D01*
X22852190Y-61708380D02*
X23042666Y-61708380D01*
X23042666Y-61708380D02*
X23137904Y-61660761D01*
X23137904Y-61660761D02*
X23185523Y-61613142D01*
X23185523Y-61613142D02*
X23233142Y-61517904D01*
X23233142Y-61517904D02*
X23233142Y-61232190D01*
X23233142Y-61232190D02*
X23185523Y-61136952D01*
X23185523Y-61136952D02*
X23137904Y-61089333D01*
X23137904Y-61089333D02*
X23042666Y-61041714D01*
X23042666Y-61041714D02*
X22852190Y-61041714D01*
X22852190Y-61041714D02*
X22756952Y-61089333D01*
X24725190Y-63105380D02*
X24725190Y-62438714D01*
X24725190Y-62629190D02*
X24677571Y-62533952D01*
X24677571Y-62533952D02*
X24629952Y-62486333D01*
X24629952Y-62486333D02*
X24534714Y-62438714D01*
X24534714Y-62438714D02*
X24439476Y-62438714D01*
X23677571Y-62438714D02*
X23677571Y-63248238D01*
X23677571Y-63248238D02*
X23725190Y-63343476D01*
X23725190Y-63343476D02*
X23772809Y-63391095D01*
X23772809Y-63391095D02*
X23868047Y-63438714D01*
X23868047Y-63438714D02*
X24010904Y-63438714D01*
X24010904Y-63438714D02*
X24106142Y-63391095D01*
X23677571Y-63057761D02*
X23772809Y-63105380D01*
X23772809Y-63105380D02*
X23963285Y-63105380D01*
X23963285Y-63105380D02*
X24058523Y-63057761D01*
X24058523Y-63057761D02*
X24106142Y-63010142D01*
X24106142Y-63010142D02*
X24153761Y-62914904D01*
X24153761Y-62914904D02*
X24153761Y-62629190D01*
X24153761Y-62629190D02*
X24106142Y-62533952D01*
X24106142Y-62533952D02*
X24058523Y-62486333D01*
X24058523Y-62486333D02*
X23963285Y-62438714D01*
X23963285Y-62438714D02*
X23772809Y-62438714D01*
X23772809Y-62438714D02*
X23677571Y-62486333D01*
X23201380Y-63105380D02*
X23201380Y-62105380D01*
X23201380Y-62486333D02*
X23106142Y-62438714D01*
X23106142Y-62438714D02*
X22915666Y-62438714D01*
X22915666Y-62438714D02*
X22820428Y-62486333D01*
X22820428Y-62486333D02*
X22772809Y-62533952D01*
X22772809Y-62533952D02*
X22725190Y-62629190D01*
X22725190Y-62629190D02*
X22725190Y-62914904D01*
X22725190Y-62914904D02*
X22772809Y-63010142D01*
X22772809Y-63010142D02*
X22820428Y-63057761D01*
X22820428Y-63057761D02*
X22915666Y-63105380D01*
X22915666Y-63105380D02*
X23106142Y-63105380D01*
X23106142Y-63105380D02*
X23201380Y-63057761D01*
D13*
%TO.C,RZ1*%
X42503000Y-67041000D02*
X42503000Y-85041000D01*
X19003000Y-67041000D02*
X42503000Y-67041000D01*
X42503000Y-85041000D02*
X19003000Y-85041000D01*
X19003000Y-85041000D02*
X19003000Y-67041000D01*
D11*
%TO.C,D1*%
X38862000Y-54610000D02*
X37338000Y-54610000D01*
X37338000Y-54610000D02*
X37338000Y-59690000D01*
X37338000Y-58928000D02*
X38862000Y-58928000D01*
X37338000Y-59055000D02*
X38862000Y-59055000D01*
X38862000Y-59182000D02*
X37338000Y-59182000D01*
X37338000Y-59309000D02*
X38862000Y-59309000D01*
X38862000Y-59436000D02*
X37338000Y-59436000D01*
X37338000Y-59563000D02*
X38862000Y-59563000D01*
X38862000Y-59690000D02*
X38862000Y-54610000D01*
X37338000Y-59690000D02*
X38862000Y-59690000D01*
%TO.C,D41*%
X232537000Y-111760000D02*
X231013000Y-111760000D01*
X231013000Y-111760000D02*
X231013000Y-116840000D01*
X231013000Y-116078000D02*
X232537000Y-116078000D01*
X231013000Y-116205000D02*
X232537000Y-116205000D01*
X232537000Y-116332000D02*
X231013000Y-116332000D01*
X231013000Y-116459000D02*
X232537000Y-116459000D01*
X232537000Y-116586000D02*
X231013000Y-116586000D01*
X231013000Y-116713000D02*
X232537000Y-116713000D01*
X232537000Y-116840000D02*
X232537000Y-111760000D01*
X231013000Y-116840000D02*
X232537000Y-116840000D01*
%TO.C,D9*%
X43624500Y-111760000D02*
X42100500Y-111760000D01*
X42100500Y-111760000D02*
X42100500Y-116840000D01*
X42100500Y-116078000D02*
X43624500Y-116078000D01*
X42100500Y-116205000D02*
X43624500Y-116205000D01*
X43624500Y-116332000D02*
X42100500Y-116332000D01*
X42100500Y-116459000D02*
X43624500Y-116459000D01*
X43624500Y-116586000D02*
X42100500Y-116586000D01*
X42100500Y-116713000D02*
X43624500Y-116713000D01*
X43624500Y-116840000D02*
X43624500Y-111760000D01*
X42100500Y-116840000D02*
X43624500Y-116840000D01*
%TO.C,D21*%
X134112000Y-54610000D02*
X132588000Y-54610000D01*
X132588000Y-54610000D02*
X132588000Y-59690000D01*
X132588000Y-58928000D02*
X134112000Y-58928000D01*
X132588000Y-59055000D02*
X134112000Y-59055000D01*
X134112000Y-59182000D02*
X132588000Y-59182000D01*
X132588000Y-59309000D02*
X134112000Y-59309000D01*
X134112000Y-59436000D02*
X132588000Y-59436000D01*
X132588000Y-59563000D02*
X134112000Y-59563000D01*
X134112000Y-59690000D02*
X134112000Y-54610000D01*
X132588000Y-59690000D02*
X134112000Y-59690000D01*
%TO.C,D44*%
X254762000Y-73660000D02*
X253238000Y-73660000D01*
X253238000Y-73660000D02*
X253238000Y-78740000D01*
X253238000Y-77978000D02*
X254762000Y-77978000D01*
X253238000Y-78105000D02*
X254762000Y-78105000D01*
X254762000Y-78232000D02*
X253238000Y-78232000D01*
X253238000Y-78359000D02*
X254762000Y-78359000D01*
X254762000Y-78486000D02*
X253238000Y-78486000D01*
X253238000Y-78613000D02*
X254762000Y-78613000D01*
X254762000Y-78740000D02*
X254762000Y-73660000D01*
X253238000Y-78740000D02*
X254762000Y-78740000D01*
%TO.C,D28*%
X172212000Y-54610000D02*
X170688000Y-54610000D01*
X170688000Y-54610000D02*
X170688000Y-59690000D01*
X170688000Y-58928000D02*
X172212000Y-58928000D01*
X170688000Y-59055000D02*
X172212000Y-59055000D01*
X172212000Y-59182000D02*
X170688000Y-59182000D01*
X170688000Y-59309000D02*
X172212000Y-59309000D01*
X172212000Y-59436000D02*
X170688000Y-59436000D01*
X170688000Y-59563000D02*
X172212000Y-59563000D01*
X172212000Y-59690000D02*
X172212000Y-54610000D01*
X170688000Y-59690000D02*
X172212000Y-59690000D01*
%TO.C,D13*%
X96012000Y-54610000D02*
X94488000Y-54610000D01*
X94488000Y-54610000D02*
X94488000Y-59690000D01*
X94488000Y-58928000D02*
X96012000Y-58928000D01*
X94488000Y-59055000D02*
X96012000Y-59055000D01*
X96012000Y-59182000D02*
X94488000Y-59182000D01*
X94488000Y-59309000D02*
X96012000Y-59309000D01*
X96012000Y-59436000D02*
X94488000Y-59436000D01*
X94488000Y-59563000D02*
X96012000Y-59563000D01*
X96012000Y-59690000D02*
X96012000Y-54610000D01*
X94488000Y-59690000D02*
X96012000Y-59690000D01*
%TO.C,D33*%
X200787000Y-92710000D02*
X199263000Y-92710000D01*
X199263000Y-92710000D02*
X199263000Y-97790000D01*
X199263000Y-97028000D02*
X200787000Y-97028000D01*
X199263000Y-97155000D02*
X200787000Y-97155000D01*
X200787000Y-97282000D02*
X199263000Y-97282000D01*
X199263000Y-97409000D02*
X200787000Y-97409000D01*
X200787000Y-97536000D02*
X199263000Y-97536000D01*
X199263000Y-97663000D02*
X200787000Y-97663000D01*
X200787000Y-97790000D02*
X200787000Y-92710000D01*
X199263000Y-97790000D02*
X200787000Y-97790000D01*
%TO.C,D6*%
X57912000Y-54610000D02*
X56388000Y-54610000D01*
X56388000Y-54610000D02*
X56388000Y-59690000D01*
X56388000Y-58928000D02*
X57912000Y-58928000D01*
X56388000Y-59055000D02*
X57912000Y-59055000D01*
X57912000Y-59182000D02*
X56388000Y-59182000D01*
X56388000Y-59309000D02*
X57912000Y-59309000D01*
X57912000Y-59436000D02*
X56388000Y-59436000D01*
X56388000Y-59563000D02*
X57912000Y-59563000D01*
X57912000Y-59690000D02*
X57912000Y-54610000D01*
X56388000Y-59690000D02*
X57912000Y-59690000D01*
%TO.C,D37*%
X215074500Y-73660000D02*
X213550500Y-73660000D01*
X213550500Y-73660000D02*
X213550500Y-78740000D01*
X213550500Y-77978000D02*
X215074500Y-77978000D01*
X213550500Y-78105000D02*
X215074500Y-78105000D01*
X215074500Y-78232000D02*
X213550500Y-78232000D01*
X213550500Y-78359000D02*
X215074500Y-78359000D01*
X215074500Y-78486000D02*
X213550500Y-78486000D01*
X213550500Y-78613000D02*
X215074500Y-78613000D01*
X215074500Y-78740000D02*
X215074500Y-73660000D01*
X213550500Y-78740000D02*
X215074500Y-78740000D01*
%TO.C,D19*%
X153162000Y-54610000D02*
X151638000Y-54610000D01*
X151638000Y-54610000D02*
X151638000Y-59690000D01*
X151638000Y-58928000D02*
X153162000Y-58928000D01*
X151638000Y-59055000D02*
X153162000Y-59055000D01*
X153162000Y-59182000D02*
X151638000Y-59182000D01*
X151638000Y-59309000D02*
X153162000Y-59309000D01*
X153162000Y-59436000D02*
X151638000Y-59436000D01*
X151638000Y-59563000D02*
X153162000Y-59563000D01*
X153162000Y-59690000D02*
X153162000Y-54610000D01*
X151638000Y-59690000D02*
X153162000Y-59690000D01*
%TO.C,D39*%
X234124500Y-73660000D02*
X232600500Y-73660000D01*
X232600500Y-73660000D02*
X232600500Y-78740000D01*
X232600500Y-77978000D02*
X234124500Y-77978000D01*
X232600500Y-78105000D02*
X234124500Y-78105000D01*
X234124500Y-78232000D02*
X232600500Y-78232000D01*
X232600500Y-78359000D02*
X234124500Y-78359000D01*
X234124500Y-78486000D02*
X232600500Y-78486000D01*
X232600500Y-78613000D02*
X234124500Y-78613000D01*
X234124500Y-78740000D02*
X234124500Y-73660000D01*
X232600500Y-78740000D02*
X234124500Y-78740000D01*
%TO.C,D7*%
X62674500Y-73660000D02*
X61150500Y-73660000D01*
X61150500Y-73660000D02*
X61150500Y-78740000D01*
X61150500Y-77978000D02*
X62674500Y-77978000D01*
X61150500Y-78105000D02*
X62674500Y-78105000D01*
X62674500Y-78232000D02*
X61150500Y-78232000D01*
X61150500Y-78359000D02*
X62674500Y-78359000D01*
X62674500Y-78486000D02*
X61150500Y-78486000D01*
X61150500Y-78613000D02*
X62674500Y-78613000D01*
X62674500Y-78740000D02*
X62674500Y-73660000D01*
X61150500Y-78740000D02*
X62674500Y-78740000D01*
%TO.C,D36*%
X210312000Y-54610000D02*
X208788000Y-54610000D01*
X208788000Y-54610000D02*
X208788000Y-59690000D01*
X208788000Y-58928000D02*
X210312000Y-58928000D01*
X208788000Y-59055000D02*
X210312000Y-59055000D01*
X210312000Y-59182000D02*
X208788000Y-59182000D01*
X208788000Y-59309000D02*
X210312000Y-59309000D01*
X210312000Y-59436000D02*
X208788000Y-59436000D01*
X208788000Y-59563000D02*
X210312000Y-59563000D01*
X210312000Y-59690000D02*
X210312000Y-54610000D01*
X208788000Y-59690000D02*
X210312000Y-59690000D01*
%TO.C,D24*%
X130937000Y-111760000D02*
X129413000Y-111760000D01*
X129413000Y-111760000D02*
X129413000Y-116840000D01*
X129413000Y-116078000D02*
X130937000Y-116078000D01*
X129413000Y-116205000D02*
X130937000Y-116205000D01*
X130937000Y-116332000D02*
X129413000Y-116332000D01*
X129413000Y-116459000D02*
X130937000Y-116459000D01*
X130937000Y-116586000D02*
X129413000Y-116586000D01*
X129413000Y-116713000D02*
X130937000Y-116713000D01*
X130937000Y-116840000D02*
X130937000Y-111760000D01*
X129413000Y-116840000D02*
X130937000Y-116840000D01*
%TO.C,D22*%
X138874500Y-73660000D02*
X137350500Y-73660000D01*
X137350500Y-73660000D02*
X137350500Y-78740000D01*
X137350500Y-77978000D02*
X138874500Y-77978000D01*
X137350500Y-78105000D02*
X138874500Y-78105000D01*
X138874500Y-78232000D02*
X137350500Y-78232000D01*
X137350500Y-78359000D02*
X138874500Y-78359000D01*
X138874500Y-78486000D02*
X137350500Y-78486000D01*
X137350500Y-78613000D02*
X138874500Y-78613000D01*
X138874500Y-78740000D02*
X138874500Y-73660000D01*
X137350500Y-78740000D02*
X138874500Y-78740000D01*
%TO.C,D18*%
X124587000Y-92710000D02*
X123063000Y-92710000D01*
X123063000Y-92710000D02*
X123063000Y-97790000D01*
X123063000Y-97028000D02*
X124587000Y-97028000D01*
X123063000Y-97155000D02*
X124587000Y-97155000D01*
X124587000Y-97282000D02*
X123063000Y-97282000D01*
X123063000Y-97409000D02*
X124587000Y-97409000D01*
X124587000Y-97536000D02*
X123063000Y-97536000D01*
X123063000Y-97663000D02*
X124587000Y-97663000D01*
X124587000Y-97790000D02*
X124587000Y-92710000D01*
X123063000Y-97790000D02*
X124587000Y-97790000D01*
%TO.C,D31*%
X191262000Y-54610000D02*
X189738000Y-54610000D01*
X189738000Y-54610000D02*
X189738000Y-59690000D01*
X189738000Y-58928000D02*
X191262000Y-58928000D01*
X189738000Y-59055000D02*
X191262000Y-59055000D01*
X191262000Y-59182000D02*
X189738000Y-59182000D01*
X189738000Y-59309000D02*
X191262000Y-59309000D01*
X191262000Y-59436000D02*
X189738000Y-59436000D01*
X189738000Y-59563000D02*
X191262000Y-59563000D01*
X191262000Y-59690000D02*
X191262000Y-54610000D01*
X189738000Y-59690000D02*
X191262000Y-59690000D01*
%TO.C,D35*%
X186499500Y-111760000D02*
X184975500Y-111760000D01*
X184975500Y-111760000D02*
X184975500Y-116840000D01*
X184975500Y-116078000D02*
X186499500Y-116078000D01*
X184975500Y-116205000D02*
X186499500Y-116205000D01*
X186499500Y-116332000D02*
X184975500Y-116332000D01*
X184975500Y-116459000D02*
X186499500Y-116459000D01*
X186499500Y-116586000D02*
X184975500Y-116586000D01*
X184975500Y-116713000D02*
X186499500Y-116713000D01*
X186499500Y-116840000D02*
X186499500Y-111760000D01*
X184975500Y-116840000D02*
X186499500Y-116840000D01*
%TO.C,D16*%
X115062000Y-54610000D02*
X113538000Y-54610000D01*
X113538000Y-54610000D02*
X113538000Y-59690000D01*
X113538000Y-58928000D02*
X115062000Y-58928000D01*
X113538000Y-59055000D02*
X115062000Y-59055000D01*
X115062000Y-59182000D02*
X113538000Y-59182000D01*
X113538000Y-59309000D02*
X115062000Y-59309000D01*
X115062000Y-59436000D02*
X113538000Y-59436000D01*
X113538000Y-59563000D02*
X115062000Y-59563000D01*
X115062000Y-59690000D02*
X115062000Y-54610000D01*
X113538000Y-59690000D02*
X115062000Y-59690000D01*
%TO.C,D25*%
X157924500Y-73660000D02*
X156400500Y-73660000D01*
X156400500Y-73660000D02*
X156400500Y-78740000D01*
X156400500Y-77978000D02*
X157924500Y-77978000D01*
X156400500Y-78105000D02*
X157924500Y-78105000D01*
X157924500Y-78232000D02*
X156400500Y-78232000D01*
X156400500Y-78359000D02*
X157924500Y-78359000D01*
X157924500Y-78486000D02*
X156400500Y-78486000D01*
X156400500Y-78613000D02*
X157924500Y-78613000D01*
X157924500Y-78740000D02*
X157924500Y-73660000D01*
X156400500Y-78740000D02*
X157924500Y-78740000D01*
%TO.C,D8*%
X67437000Y-92710000D02*
X65913000Y-92710000D01*
X65913000Y-92710000D02*
X65913000Y-97790000D01*
X65913000Y-97028000D02*
X67437000Y-97028000D01*
X65913000Y-97155000D02*
X67437000Y-97155000D01*
X67437000Y-97282000D02*
X65913000Y-97282000D01*
X65913000Y-97409000D02*
X67437000Y-97409000D01*
X67437000Y-97536000D02*
X65913000Y-97536000D01*
X65913000Y-97663000D02*
X67437000Y-97663000D01*
X67437000Y-97790000D02*
X67437000Y-92710000D01*
X65913000Y-97790000D02*
X67437000Y-97790000D01*
%TO.C,D11*%
X86487000Y-92710000D02*
X84963000Y-92710000D01*
X84963000Y-92710000D02*
X84963000Y-97790000D01*
X84963000Y-97028000D02*
X86487000Y-97028000D01*
X84963000Y-97155000D02*
X86487000Y-97155000D01*
X86487000Y-97282000D02*
X84963000Y-97282000D01*
X84963000Y-97409000D02*
X86487000Y-97409000D01*
X86487000Y-97536000D02*
X84963000Y-97536000D01*
X84963000Y-97663000D02*
X86487000Y-97663000D01*
X86487000Y-97790000D02*
X86487000Y-92710000D01*
X84963000Y-97790000D02*
X86487000Y-97790000D01*
%TO.C,D4*%
X40449500Y-111760000D02*
X38925500Y-111760000D01*
X38925500Y-111760000D02*
X38925500Y-116840000D01*
X38925500Y-116078000D02*
X40449500Y-116078000D01*
X38925500Y-116205000D02*
X40449500Y-116205000D01*
X40449500Y-116332000D02*
X38925500Y-116332000D01*
X38925500Y-116459000D02*
X40449500Y-116459000D01*
X40449500Y-116586000D02*
X38925500Y-116586000D01*
X38925500Y-116713000D02*
X40449500Y-116713000D01*
X40449500Y-116840000D02*
X40449500Y-111760000D01*
X38925500Y-116840000D02*
X40449500Y-116840000D01*
%TO.C,D15*%
X105537000Y-92710000D02*
X104013000Y-92710000D01*
X104013000Y-92710000D02*
X104013000Y-97790000D01*
X104013000Y-97028000D02*
X105537000Y-97028000D01*
X104013000Y-97155000D02*
X105537000Y-97155000D01*
X105537000Y-97282000D02*
X104013000Y-97282000D01*
X104013000Y-97409000D02*
X105537000Y-97409000D01*
X105537000Y-97536000D02*
X104013000Y-97536000D01*
X104013000Y-97663000D02*
X105537000Y-97663000D01*
X105537000Y-97790000D02*
X105537000Y-92710000D01*
X104013000Y-97790000D02*
X105537000Y-97790000D01*
%TO.C,D30*%
X181737000Y-92710000D02*
X180213000Y-92710000D01*
X180213000Y-92710000D02*
X180213000Y-97790000D01*
X180213000Y-97028000D02*
X181737000Y-97028000D01*
X180213000Y-97155000D02*
X181737000Y-97155000D01*
X181737000Y-97282000D02*
X180213000Y-97282000D01*
X180213000Y-97409000D02*
X181737000Y-97409000D01*
X181737000Y-97536000D02*
X180213000Y-97536000D01*
X180213000Y-97663000D02*
X181737000Y-97663000D01*
X181737000Y-97790000D02*
X181737000Y-92710000D01*
X180213000Y-97790000D02*
X181737000Y-97790000D01*
%TO.C,D45*%
X256349500Y-92710000D02*
X254825500Y-92710000D01*
X254825500Y-92710000D02*
X254825500Y-97790000D01*
X254825500Y-97028000D02*
X256349500Y-97028000D01*
X254825500Y-97155000D02*
X256349500Y-97155000D01*
X256349500Y-97282000D02*
X254825500Y-97282000D01*
X254825500Y-97409000D02*
X256349500Y-97409000D01*
X256349500Y-97536000D02*
X254825500Y-97536000D01*
X254825500Y-97663000D02*
X256349500Y-97663000D01*
X256349500Y-97790000D02*
X256349500Y-92710000D01*
X254825500Y-97790000D02*
X256349500Y-97790000D01*
%TO.C,D14*%
X100774500Y-73660000D02*
X99250500Y-73660000D01*
X99250500Y-73660000D02*
X99250500Y-78740000D01*
X99250500Y-77978000D02*
X100774500Y-77978000D01*
X99250500Y-78105000D02*
X100774500Y-78105000D01*
X100774500Y-78232000D02*
X99250500Y-78232000D01*
X99250500Y-78359000D02*
X100774500Y-78359000D01*
X100774500Y-78486000D02*
X99250500Y-78486000D01*
X99250500Y-78613000D02*
X100774500Y-78613000D01*
X100774500Y-78740000D02*
X100774500Y-73660000D01*
X99250500Y-78740000D02*
X100774500Y-78740000D01*
%TO.C,D10*%
X81724500Y-73660000D02*
X80200500Y-73660000D01*
X80200500Y-73660000D02*
X80200500Y-78740000D01*
X80200500Y-77978000D02*
X81724500Y-77978000D01*
X80200500Y-78105000D02*
X81724500Y-78105000D01*
X81724500Y-78232000D02*
X80200500Y-78232000D01*
X80200500Y-78359000D02*
X81724500Y-78359000D01*
X81724500Y-78486000D02*
X80200500Y-78486000D01*
X80200500Y-78613000D02*
X81724500Y-78613000D01*
X81724500Y-78740000D02*
X81724500Y-73660000D01*
X80200500Y-78740000D02*
X81724500Y-78740000D01*
%TO.C,D5*%
X76962000Y-54610000D02*
X75438000Y-54610000D01*
X75438000Y-54610000D02*
X75438000Y-59690000D01*
X75438000Y-58928000D02*
X76962000Y-58928000D01*
X75438000Y-59055000D02*
X76962000Y-59055000D01*
X76962000Y-59182000D02*
X75438000Y-59182000D01*
X75438000Y-59309000D02*
X76962000Y-59309000D01*
X76962000Y-59436000D02*
X75438000Y-59436000D01*
X75438000Y-59563000D02*
X76962000Y-59563000D01*
X76962000Y-59690000D02*
X76962000Y-54610000D01*
X75438000Y-59690000D02*
X76962000Y-59690000D01*
%TO.C,D26*%
X162687000Y-92710000D02*
X161163000Y-92710000D01*
X161163000Y-92710000D02*
X161163000Y-97790000D01*
X161163000Y-97028000D02*
X162687000Y-97028000D01*
X161163000Y-97155000D02*
X162687000Y-97155000D01*
X162687000Y-97282000D02*
X161163000Y-97282000D01*
X161163000Y-97409000D02*
X162687000Y-97409000D01*
X162687000Y-97536000D02*
X161163000Y-97536000D01*
X161163000Y-97663000D02*
X162687000Y-97663000D01*
X162687000Y-97790000D02*
X162687000Y-92710000D01*
X161163000Y-97790000D02*
X162687000Y-97790000D01*
%TO.C,D29*%
X176974500Y-73660000D02*
X175450500Y-73660000D01*
X175450500Y-73660000D02*
X175450500Y-78740000D01*
X175450500Y-77978000D02*
X176974500Y-77978000D01*
X175450500Y-78105000D02*
X176974500Y-78105000D01*
X176974500Y-78232000D02*
X175450500Y-78232000D01*
X175450500Y-78359000D02*
X176974500Y-78359000D01*
X176974500Y-78486000D02*
X175450500Y-78486000D01*
X175450500Y-78613000D02*
X176974500Y-78613000D01*
X176974500Y-78740000D02*
X176974500Y-73660000D01*
X175450500Y-78740000D02*
X176974500Y-78740000D01*
%TO.C,D2*%
X45085000Y-72072500D02*
X43561000Y-72072500D01*
X43561000Y-72072500D02*
X43561000Y-77152500D01*
X43561000Y-76390500D02*
X45085000Y-76390500D01*
X43561000Y-76517500D02*
X45085000Y-76517500D01*
X45085000Y-76644500D02*
X43561000Y-76644500D01*
X43561000Y-76771500D02*
X45085000Y-76771500D01*
X45085000Y-76898500D02*
X43561000Y-76898500D01*
X43561000Y-77025500D02*
X45085000Y-77025500D01*
X45085000Y-77152500D02*
X45085000Y-72072500D01*
X43561000Y-77152500D02*
X45085000Y-77152500D01*
%TO.C,D12*%
X91249500Y-111760000D02*
X89725500Y-111760000D01*
X89725500Y-111760000D02*
X89725500Y-116840000D01*
X89725500Y-116078000D02*
X91249500Y-116078000D01*
X89725500Y-116205000D02*
X91249500Y-116205000D01*
X91249500Y-116332000D02*
X89725500Y-116332000D01*
X89725500Y-116459000D02*
X91249500Y-116459000D01*
X91249500Y-116586000D02*
X89725500Y-116586000D01*
X89725500Y-116713000D02*
X91249500Y-116713000D01*
X91249500Y-116840000D02*
X91249500Y-111760000D01*
X89725500Y-116840000D02*
X91249500Y-116840000D01*
%TO.C,D23*%
X143637000Y-92710000D02*
X142113000Y-92710000D01*
X142113000Y-92710000D02*
X142113000Y-97790000D01*
X142113000Y-97028000D02*
X143637000Y-97028000D01*
X142113000Y-97155000D02*
X143637000Y-97155000D01*
X143637000Y-97282000D02*
X142113000Y-97282000D01*
X142113000Y-97409000D02*
X143637000Y-97409000D01*
X143637000Y-97536000D02*
X142113000Y-97536000D01*
X142113000Y-97663000D02*
X143637000Y-97663000D01*
X143637000Y-97790000D02*
X143637000Y-92710000D01*
X142113000Y-97790000D02*
X143637000Y-97790000D01*
%TO.C,D34*%
X229362000Y-54610000D02*
X227838000Y-54610000D01*
X227838000Y-54610000D02*
X227838000Y-59690000D01*
X227838000Y-58928000D02*
X229362000Y-58928000D01*
X227838000Y-59055000D02*
X229362000Y-59055000D01*
X229362000Y-59182000D02*
X227838000Y-59182000D01*
X227838000Y-59309000D02*
X229362000Y-59309000D01*
X229362000Y-59436000D02*
X227838000Y-59436000D01*
X227838000Y-59563000D02*
X229362000Y-59563000D01*
X229362000Y-59690000D02*
X229362000Y-54610000D01*
X227838000Y-59690000D02*
X229362000Y-59690000D01*
%TO.C,D46*%
X237299500Y-111760000D02*
X235775500Y-111760000D01*
X235775500Y-111760000D02*
X235775500Y-116840000D01*
X235775500Y-116078000D02*
X237299500Y-116078000D01*
X235775500Y-116205000D02*
X237299500Y-116205000D01*
X237299500Y-116332000D02*
X235775500Y-116332000D01*
X235775500Y-116459000D02*
X237299500Y-116459000D01*
X237299500Y-116586000D02*
X235775500Y-116586000D01*
X235775500Y-116713000D02*
X237299500Y-116713000D01*
X237299500Y-116840000D02*
X237299500Y-111760000D01*
X235775500Y-116840000D02*
X237299500Y-116840000D01*
%TO.C,D17*%
X119824500Y-73660000D02*
X118300500Y-73660000D01*
X118300500Y-73660000D02*
X118300500Y-78740000D01*
X118300500Y-77978000D02*
X119824500Y-77978000D01*
X118300500Y-78105000D02*
X119824500Y-78105000D01*
X119824500Y-78232000D02*
X118300500Y-78232000D01*
X118300500Y-78359000D02*
X119824500Y-78359000D01*
X119824500Y-78486000D02*
X118300500Y-78486000D01*
X118300500Y-78613000D02*
X119824500Y-78613000D01*
X119824500Y-78740000D02*
X119824500Y-73660000D01*
X118300500Y-78740000D02*
X119824500Y-78740000D01*
%TO.C,D32*%
X196024500Y-73660000D02*
X194500500Y-73660000D01*
X194500500Y-73660000D02*
X194500500Y-78740000D01*
X194500500Y-77978000D02*
X196024500Y-77978000D01*
X194500500Y-78105000D02*
X196024500Y-78105000D01*
X196024500Y-78232000D02*
X194500500Y-78232000D01*
X194500500Y-78359000D02*
X196024500Y-78359000D01*
X196024500Y-78486000D02*
X194500500Y-78486000D01*
X194500500Y-78613000D02*
X196024500Y-78613000D01*
X196024500Y-78740000D02*
X196024500Y-73660000D01*
X194500500Y-78740000D02*
X196024500Y-78740000D01*
%TO.C,D27*%
X168275000Y-111760000D02*
X166751000Y-111760000D01*
X166751000Y-111760000D02*
X166751000Y-116840000D01*
X166751000Y-116078000D02*
X168275000Y-116078000D01*
X166751000Y-116205000D02*
X168275000Y-116205000D01*
X168275000Y-116332000D02*
X166751000Y-116332000D01*
X166751000Y-116459000D02*
X168275000Y-116459000D01*
X168275000Y-116586000D02*
X166751000Y-116586000D01*
X166751000Y-116713000D02*
X168275000Y-116713000D01*
X168275000Y-116840000D02*
X168275000Y-111760000D01*
X166751000Y-116840000D02*
X168275000Y-116840000D01*
%TO.C,D43*%
X253174500Y-54610000D02*
X251650500Y-54610000D01*
X251650500Y-54610000D02*
X251650500Y-59690000D01*
X251650500Y-58928000D02*
X253174500Y-58928000D01*
X251650500Y-59055000D02*
X253174500Y-59055000D01*
X253174500Y-59182000D02*
X251650500Y-59182000D01*
X251650500Y-59309000D02*
X253174500Y-59309000D01*
X253174500Y-59436000D02*
X251650500Y-59436000D01*
X251650500Y-59563000D02*
X253174500Y-59563000D01*
X253174500Y-59690000D02*
X253174500Y-54610000D01*
X251650500Y-59690000D02*
X253174500Y-59690000D01*
%TO.C,D20*%
X120650000Y-111760000D02*
X119126000Y-111760000D01*
X119126000Y-111760000D02*
X119126000Y-116840000D01*
X119126000Y-116078000D02*
X120650000Y-116078000D01*
X119126000Y-116205000D02*
X120650000Y-116205000D01*
X120650000Y-116332000D02*
X119126000Y-116332000D01*
X119126000Y-116459000D02*
X120650000Y-116459000D01*
X120650000Y-116586000D02*
X119126000Y-116586000D01*
X119126000Y-116713000D02*
X120650000Y-116713000D01*
X120650000Y-116840000D02*
X120650000Y-111760000D01*
X119126000Y-116840000D02*
X120650000Y-116840000D01*
%TO.C,D3*%
X45212000Y-92710000D02*
X43688000Y-92710000D01*
X43688000Y-92710000D02*
X43688000Y-97790000D01*
X43688000Y-97028000D02*
X45212000Y-97028000D01*
X43688000Y-97155000D02*
X45212000Y-97155000D01*
X45212000Y-97282000D02*
X43688000Y-97282000D01*
X43688000Y-97409000D02*
X45212000Y-97409000D01*
X45212000Y-97536000D02*
X43688000Y-97536000D01*
X43688000Y-97663000D02*
X45212000Y-97663000D01*
X45212000Y-97790000D02*
X45212000Y-92710000D01*
X43688000Y-97790000D02*
X45212000Y-97790000D01*
%TO.C,D38*%
X219837000Y-92710000D02*
X218313000Y-92710000D01*
X218313000Y-92710000D02*
X218313000Y-97790000D01*
X218313000Y-97028000D02*
X219837000Y-97028000D01*
X218313000Y-97155000D02*
X219837000Y-97155000D01*
X219837000Y-97282000D02*
X218313000Y-97282000D01*
X218313000Y-97409000D02*
X219837000Y-97409000D01*
X219837000Y-97536000D02*
X218313000Y-97536000D01*
X218313000Y-97663000D02*
X219837000Y-97663000D01*
X219837000Y-97790000D02*
X219837000Y-92710000D01*
X218313000Y-97790000D02*
X219837000Y-97790000D01*
%TO.C,D40*%
X238887000Y-92710000D02*
X237363000Y-92710000D01*
X237363000Y-92710000D02*
X237363000Y-97790000D01*
X237363000Y-97028000D02*
X238887000Y-97028000D01*
X237363000Y-97155000D02*
X238887000Y-97155000D01*
X238887000Y-97282000D02*
X237363000Y-97282000D01*
X237363000Y-97409000D02*
X238887000Y-97409000D01*
X238887000Y-97536000D02*
X237363000Y-97536000D01*
X237363000Y-97663000D02*
X238887000Y-97663000D01*
X238887000Y-97790000D02*
X238887000Y-92710000D01*
X237363000Y-97790000D02*
X238887000Y-97790000D01*
D13*
%TO.C,J1*%
X19879000Y-60741000D02*
X20901470Y-60741000D01*
X19879000Y-63341000D02*
X19879000Y-60741000D01*
X19879000Y-63341000D02*
X20449000Y-63341000D01*
X21209000Y-64736000D02*
X22539000Y-64736000D01*
X21516530Y-60741000D02*
X22539000Y-60741000D01*
X21969000Y-63341000D02*
X22539000Y-63341000D01*
X22539000Y-63341000D02*
X22539000Y-60741000D01*
X22539000Y-64736000D02*
X22539000Y-63976000D01*
%TD*%
D14*
X224161188Y-86836250D02*
X52314313Y-86836250D01*
D15*
X33287290Y-128781256D02*
X25917546Y-128781256D01*
D14*
X125459250Y-103505000D02*
X127840500Y-105886250D01*
X224161188Y-86836200D02*
G75*
G03*
X224161188Y-84455000I12J1190600D01*
G01*
X78199375Y-102314375D02*
X83755625Y-102314375D01*
X192532000Y-102314375D02*
X191341375Y-103505000D01*
X224161188Y-67786200D02*
G75*
G03*
X224161188Y-65405000I12J1190600D01*
G01*
D15*
X39350957Y-123825611D02*
X35178801Y-127997767D01*
X25855692Y-42668888D02*
G75*
G03*
X23964181Y-43452380I8J-2675012D01*
G01*
D14*
X52314313Y-103505000D02*
X77008750Y-103505000D01*
X193722625Y-103505000D02*
X191341375Y-105886250D01*
D15*
X19102418Y-121966128D02*
X19040564Y-49484019D01*
X236913960Y-123824293D02*
X39350957Y-123825611D01*
X252245970Y-43472322D02*
G75*
G03*
X250354482Y-42688810I-1891570J-1891578D01*
G01*
D14*
X52314313Y-84454950D02*
G75*
G03*
X52314313Y-86836250I-13J-1190650D01*
G01*
D15*
X242984738Y-42688823D02*
G75*
G03*
X241096372Y-43469515I-38J-2674077D01*
G01*
X252245993Y-43472299D02*
X256386121Y-47612427D01*
D14*
X191341375Y-105886250D02*
X175402875Y-105886250D01*
D15*
X39257075Y-47592508D02*
X236956244Y-47609643D01*
D14*
X103964500Y-103505000D02*
X119903000Y-103505000D01*
D15*
X236956244Y-47609643D02*
X241096372Y-43469515D01*
D14*
X96027000Y-105886250D02*
X84946250Y-105886250D01*
D15*
X30540436Y-45418891D02*
G75*
G03*
X30540436Y-45418891I-1000000J0D01*
G01*
D14*
X196897625Y-103505000D02*
X199278875Y-105886250D01*
D15*
X250315343Y-128747910D02*
X242945599Y-128747910D01*
X30602546Y-126031256D02*
G75*
G03*
X30602546Y-126031256I-1000000J0D01*
G01*
D14*
X97217625Y-102314375D02*
X96027000Y-103505000D01*
D15*
X25855692Y-42668891D02*
X33225436Y-42668891D01*
X257169610Y-49503938D02*
X257130471Y-121932782D01*
D14*
X121093625Y-102314375D02*
X126649875Y-102314375D01*
D15*
X247669482Y-45438810D02*
G75*
G03*
X247669482Y-45438810I-1000000J0D01*
G01*
D14*
X144786188Y-102314375D02*
X143595563Y-103505000D01*
X168656000Y-102314375D02*
X167465375Y-103505000D01*
X121093625Y-102314375D02*
X119903000Y-103505000D01*
D15*
X250315343Y-128747925D02*
G75*
G03*
X252206853Y-127964420I57J2674825D01*
G01*
X241054108Y-127964401D02*
G75*
G03*
X242945599Y-128747910I1891492J1891401D01*
G01*
D14*
X122284250Y-103505000D02*
X125459250Y-103505000D01*
X224161188Y-105886250D02*
X199278875Y-105886250D01*
X102773875Y-102314375D02*
X103964500Y-103505000D01*
X193722625Y-103505000D02*
X196897625Y-103505000D01*
X169846625Y-103505000D02*
X173021625Y-103505000D01*
X151533063Y-103505000D02*
X167465375Y-103505000D01*
X144786188Y-102314375D02*
X150342438Y-102314375D01*
D15*
X35116939Y-43452388D02*
G75*
G03*
X33225436Y-42668891I-1891439J-1891312D01*
G01*
D14*
X52314313Y-103504950D02*
G75*
G03*
X52314313Y-105886250I-13J-1190650D01*
G01*
X199278875Y-103505000D02*
X224161188Y-103505000D01*
X169846625Y-103505000D02*
X167465375Y-105886250D01*
X52314313Y-84455000D02*
X224161188Y-84455000D01*
X224161188Y-105886200D02*
G75*
G03*
X224161188Y-103505000I12J1190600D01*
G01*
D15*
X256346997Y-123824308D02*
G75*
G03*
X257130471Y-121932782I-1891797J1891608D01*
G01*
X256346982Y-123824293D02*
X252206854Y-127964421D01*
X33287290Y-128781220D02*
G75*
G03*
X35178800Y-127997766I110J2674820D01*
G01*
D14*
X101583250Y-103505000D02*
X103964500Y-105886250D01*
X79390000Y-103505000D02*
X82565000Y-103505000D01*
X126649875Y-102314375D02*
X127840500Y-103505000D01*
X145976813Y-103505000D02*
X149151813Y-103505000D01*
X143595563Y-105886250D02*
X127840500Y-105886250D01*
X83755625Y-102314375D02*
X84946250Y-103505000D01*
X173021625Y-103505000D02*
X175402875Y-105886250D01*
D15*
X24026035Y-127997767D02*
X19885907Y-123857639D01*
X242984738Y-42688810D02*
X250354482Y-42688810D01*
D14*
X97217625Y-102314375D02*
X102773875Y-102314375D01*
D15*
X241054088Y-127964421D02*
X236913960Y-123824293D01*
X24026051Y-127997751D02*
G75*
G03*
X25917546Y-128781256I1891549J1891551D01*
G01*
D14*
X78199375Y-102314375D02*
X77008750Y-103505000D01*
X174212250Y-102314375D02*
X175402875Y-103505000D01*
X175402875Y-103505000D02*
X191341375Y-103505000D01*
X149151813Y-103505000D02*
X151533063Y-105886250D01*
X224161188Y-67786250D02*
X52314313Y-67786250D01*
X119903000Y-105886250D02*
X103964500Y-105886250D01*
X79390000Y-103505000D02*
X77008750Y-105886250D01*
X98408250Y-103505000D02*
X96027000Y-105886250D01*
X198088250Y-102314375D02*
X199278875Y-103505000D01*
X84946250Y-103505000D02*
X96027000Y-103505000D01*
X52314313Y-65404950D02*
G75*
G03*
X52314313Y-67786250I-13J-1190650D01*
G01*
X168656000Y-102314375D02*
X174212250Y-102314375D01*
X122284250Y-103505000D02*
X119903000Y-105886250D01*
D15*
X19824057Y-47592512D02*
G75*
G03*
X19040564Y-49484019I1891443J-1891488D01*
G01*
D14*
X167465375Y-105886250D02*
X151533063Y-105886250D01*
D15*
X19824053Y-47592508D02*
X23964181Y-43452380D01*
D14*
X77008750Y-105886250D02*
X52314313Y-105886250D01*
X82565000Y-103505000D02*
X84946250Y-105886250D01*
X52314313Y-65405000D02*
X224161188Y-65405000D01*
D15*
X35116947Y-43452380D02*
X39257075Y-47592508D01*
D14*
X150342438Y-102314375D02*
X151533063Y-103505000D01*
D15*
X247630599Y-125997910D02*
G75*
G03*
X247630599Y-125997910I-1000000J0D01*
G01*
D14*
X192532000Y-102314375D02*
X198088250Y-102314375D01*
D15*
X257169604Y-49503938D02*
G75*
G03*
X256386120Y-47612428I-2675404J-162D01*
G01*
D14*
X127840500Y-103505000D02*
X143595563Y-103505000D01*
D15*
X19102451Y-121966128D02*
G75*
G03*
X19885907Y-123857639I2675149J28D01*
G01*
D14*
X145976813Y-103505000D02*
X143595563Y-105886250D01*
X98408250Y-103505000D02*
X101583250Y-103505000D01*
M02*
