%TF.GenerationSoftware,KiCad,Pcbnew,(6.0.7)*%
%TF.CreationDate,2023-01-05T12:39:30+01:00*%
%TF.ProjectId,lumpen,6c756d70-656e-42e6-9b69-6361645f7063,rev?*%
%TF.SameCoordinates,Original*%
%TF.FileFunction,Legend,Bot*%
%TF.FilePolarity,Positive*%
%FSLAX46Y46*%
G04 Gerber Fmt 4.6, Leading zero omitted, Abs format (unit mm)*
G04 Created by KiCad (PCBNEW (6.0.7)) date 2023-01-05 12:39:30*
%MOMM*%
%LPD*%
G01*
G04 APERTURE LIST*
%TA.AperFunction,Profile*%
%ADD10C,0.100000*%
%TD*%
%TA.AperFunction,Profile*%
%ADD11C,0.200000*%
%TD*%
%ADD12C,0.150000*%
%ADD13C,0.050000*%
%ADD14C,0.120000*%
G04 APERTURE END LIST*
D10*
X224161188Y-86836250D02*
X52314313Y-86836250D01*
D11*
X33287290Y-128781256D02*
X25917546Y-128781256D01*
D10*
X125459250Y-103505000D02*
X127840500Y-105886250D01*
X224161188Y-86836200D02*
G75*
G03*
X224161188Y-84455000I12J1190600D01*
G01*
X78199375Y-102314375D02*
X83755625Y-102314375D01*
X192532000Y-102314375D02*
X191341375Y-103505000D01*
X224161188Y-67786200D02*
G75*
G03*
X224161188Y-65405000I12J1190600D01*
G01*
D11*
X39350957Y-123825611D02*
X35178801Y-127997767D01*
X25855692Y-42668887D02*
G75*
G03*
X23964181Y-43452380I8J-2675013D01*
G01*
D10*
X52314313Y-103505000D02*
X77008750Y-103505000D01*
X193722625Y-103505000D02*
X191341375Y-105886250D01*
D11*
X19102418Y-121966128D02*
X19040564Y-49484019D01*
X236913960Y-123824293D02*
X39350957Y-123825611D01*
X252245970Y-43472322D02*
G75*
G03*
X250354482Y-42688810I-1891570J-1891578D01*
G01*
D10*
X52314313Y-84454950D02*
G75*
G03*
X52314313Y-86836250I-13J-1190650D01*
G01*
D11*
X242984738Y-42688823D02*
G75*
G03*
X241096372Y-43469515I-38J-2674077D01*
G01*
X252245993Y-43472299D02*
X256386121Y-47612427D01*
D10*
X191341375Y-105886250D02*
X175402875Y-105886250D01*
D11*
X39257075Y-47592508D02*
X236956244Y-47609643D01*
D10*
X103964500Y-103505000D02*
X119903000Y-103505000D01*
D11*
X236956244Y-47609643D02*
X241096372Y-43469515D01*
D10*
X96027000Y-105886250D02*
X84946250Y-105886250D01*
D11*
X30540436Y-45418891D02*
G75*
G03*
X30540436Y-45418891I-1000000J0D01*
G01*
D10*
X196897625Y-103505000D02*
X199278875Y-105886250D01*
D11*
X250315343Y-128747910D02*
X242945599Y-128747910D01*
X30602546Y-126031256D02*
G75*
G03*
X30602546Y-126031256I-1000000J0D01*
G01*
D10*
X97217625Y-102314375D02*
X96027000Y-103505000D01*
D11*
X25855692Y-42668891D02*
X33225436Y-42668891D01*
X257169610Y-49503938D02*
X257130471Y-121932782D01*
D10*
X121093625Y-102314375D02*
X126649875Y-102314375D01*
D11*
X247669482Y-45438810D02*
G75*
G03*
X247669482Y-45438810I-1000000J0D01*
G01*
D10*
X144786188Y-102314375D02*
X143595563Y-103505000D01*
X168656000Y-102314375D02*
X167465375Y-103505000D01*
X121093625Y-102314375D02*
X119903000Y-103505000D01*
D11*
X250315343Y-128747926D02*
G75*
G03*
X252206854Y-127964421I57J2674826D01*
G01*
X241054108Y-127964401D02*
G75*
G03*
X242945599Y-128747910I1891492J1891401D01*
G01*
D10*
X122284250Y-103505000D02*
X125459250Y-103505000D01*
X224161188Y-105886250D02*
X199278875Y-105886250D01*
X102773875Y-102314375D02*
X103964500Y-103505000D01*
X193722625Y-103505000D02*
X196897625Y-103505000D01*
X169846625Y-103505000D02*
X173021625Y-103505000D01*
X151533063Y-103505000D02*
X167465375Y-103505000D01*
X144786188Y-102314375D02*
X150342438Y-102314375D01*
D11*
X35116939Y-43452388D02*
G75*
G03*
X33225436Y-42668891I-1891439J-1891312D01*
G01*
D10*
X52314313Y-103504950D02*
G75*
G03*
X52314313Y-105886250I-13J-1190650D01*
G01*
X199278875Y-103505000D02*
X224161188Y-103505000D01*
X169846625Y-103505000D02*
X167465375Y-105886250D01*
X52314313Y-84455000D02*
X224161188Y-84455000D01*
X224161188Y-105886200D02*
G75*
G03*
X224161188Y-103505000I12J1190600D01*
G01*
D11*
X256346997Y-123824308D02*
G75*
G03*
X257130471Y-121932782I-1891797J1891608D01*
G01*
X256346982Y-123824293D02*
X252206854Y-127964421D01*
X33287290Y-128781221D02*
G75*
G03*
X35178801Y-127997767I110J2674821D01*
G01*
D10*
X101583250Y-103505000D02*
X103964500Y-105886250D01*
X79390000Y-103505000D02*
X82565000Y-103505000D01*
X126649875Y-102314375D02*
X127840500Y-103505000D01*
X145976813Y-103505000D02*
X149151813Y-103505000D01*
X143595563Y-105886250D02*
X127840500Y-105886250D01*
X83755625Y-102314375D02*
X84946250Y-103505000D01*
X173021625Y-103505000D02*
X175402875Y-105886250D01*
D11*
X24026035Y-127997767D02*
X19885907Y-123857639D01*
X242984738Y-42688810D02*
X250354482Y-42688810D01*
D10*
X97217625Y-102314375D02*
X102773875Y-102314375D01*
D11*
X241054088Y-127964421D02*
X236913960Y-123824293D01*
X24026051Y-127997751D02*
G75*
G03*
X25917546Y-128781256I1891549J1891551D01*
G01*
D10*
X78199375Y-102314375D02*
X77008750Y-103505000D01*
X174212250Y-102314375D02*
X175402875Y-103505000D01*
X175402875Y-103505000D02*
X191341375Y-103505000D01*
X149151813Y-103505000D02*
X151533063Y-105886250D01*
X224161188Y-67786250D02*
X52314313Y-67786250D01*
X119903000Y-105886250D02*
X103964500Y-105886250D01*
X79390000Y-103505000D02*
X77008750Y-105886250D01*
X98408250Y-103505000D02*
X96027000Y-105886250D01*
X198088250Y-102314375D02*
X199278875Y-103505000D01*
X84946250Y-103505000D02*
X96027000Y-103505000D01*
X52314313Y-65404950D02*
G75*
G03*
X52314313Y-67786250I-13J-1190650D01*
G01*
X168656000Y-102314375D02*
X174212250Y-102314375D01*
X122284250Y-103505000D02*
X119903000Y-105886250D01*
D11*
X19824057Y-47592512D02*
G75*
G03*
X19040564Y-49484019I1891443J-1891488D01*
G01*
D10*
X167465375Y-105886250D02*
X151533063Y-105886250D01*
D11*
X19824053Y-47592508D02*
X23964181Y-43452380D01*
D10*
X77008750Y-105886250D02*
X52314313Y-105886250D01*
X82565000Y-103505000D02*
X84946250Y-105886250D01*
X52314313Y-65405000D02*
X224161188Y-65405000D01*
D11*
X35116947Y-43452380D02*
X39257075Y-47592508D01*
D10*
X150342438Y-102314375D02*
X151533063Y-103505000D01*
D11*
X247630599Y-125997910D02*
G75*
G03*
X247630599Y-125997910I-1000000J0D01*
G01*
D10*
X192532000Y-102314375D02*
X198088250Y-102314375D01*
D11*
X257169605Y-49503938D02*
G75*
G03*
X256386121Y-47612427I-2675405J-162D01*
G01*
D10*
X127840500Y-103505000D02*
X143595563Y-103505000D01*
D11*
X19102451Y-121966128D02*
G75*
G03*
X19885907Y-123857639I2675149J28D01*
G01*
D10*
X145976813Y-103505000D02*
X143595563Y-105886250D01*
X98408250Y-103505000D02*
X101583250Y-103505000D01*
D12*
X21760571Y-87266857D02*
X21689142Y-87124000D01*
X21546285Y-87052571D01*
X20260571Y-87052571D01*
X20760571Y-88481142D02*
X21760571Y-88481142D01*
X20760571Y-87838285D02*
X21546285Y-87838285D01*
X21689142Y-87909714D01*
X21760571Y-88052571D01*
X21760571Y-88266857D01*
X21689142Y-88409714D01*
X21617714Y-88481142D01*
X21760571Y-89195428D02*
X20760571Y-89195428D01*
X20903428Y-89195428D02*
X20832000Y-89266857D01*
X20760571Y-89409714D01*
X20760571Y-89624000D01*
X20832000Y-89766857D01*
X20974857Y-89838285D01*
X21760571Y-89838285D01*
X20974857Y-89838285D02*
X20832000Y-89909714D01*
X20760571Y-90052571D01*
X20760571Y-90266857D01*
X20832000Y-90409714D01*
X20974857Y-90481142D01*
X21760571Y-90481142D01*
X20760571Y-91195428D02*
X22260571Y-91195428D01*
X20832000Y-91195428D02*
X20760571Y-91338285D01*
X20760571Y-91624000D01*
X20832000Y-91766857D01*
X20903428Y-91838285D01*
X21046285Y-91909714D01*
X21474857Y-91909714D01*
X21617714Y-91838285D01*
X21689142Y-91766857D01*
X21760571Y-91624000D01*
X21760571Y-91338285D01*
X21689142Y-91195428D01*
X21689142Y-93124000D02*
X21760571Y-92981142D01*
X21760571Y-92695428D01*
X21689142Y-92552571D01*
X21546285Y-92481142D01*
X20974857Y-92481142D01*
X20832000Y-92552571D01*
X20760571Y-92695428D01*
X20760571Y-92981142D01*
X20832000Y-93124000D01*
X20974857Y-93195428D01*
X21117714Y-93195428D01*
X21260571Y-92481142D01*
X20760571Y-93838285D02*
X21760571Y-93838285D01*
X20903428Y-93838285D02*
X20832000Y-93909714D01*
X20760571Y-94052571D01*
X20760571Y-94266857D01*
X20832000Y-94409714D01*
X20974857Y-94481142D01*
X21760571Y-94481142D01*
X20760571Y-96195428D02*
X21760571Y-96552571D01*
X20760571Y-96909714D01*
X21760571Y-98266857D02*
X21760571Y-97409714D01*
X21760571Y-97838285D02*
X20260571Y-97838285D01*
X20474857Y-97695428D01*
X20617714Y-97552571D01*
X20689142Y-97409714D01*
X21617714Y-98909714D02*
X21689142Y-98981142D01*
X21760571Y-98909714D01*
X21689142Y-98838285D01*
X21617714Y-98909714D01*
X21760571Y-98909714D01*
X20260571Y-99909714D02*
X20260571Y-100052571D01*
X20332000Y-100195428D01*
X20403428Y-100266857D01*
X20546285Y-100338285D01*
X20832000Y-100409714D01*
X21189142Y-100409714D01*
X21474857Y-100338285D01*
X21617714Y-100266857D01*
X21689142Y-100195428D01*
X21760571Y-100052571D01*
X21760571Y-99909714D01*
X21689142Y-99766857D01*
X21617714Y-99695428D01*
X21474857Y-99624000D01*
X21189142Y-99552571D01*
X20832000Y-99552571D01*
X20546285Y-99624000D01*
X20403428Y-99695428D01*
X20332000Y-99766857D01*
X20260571Y-99909714D01*
X21760571Y-102195428D02*
X20260571Y-102195428D01*
X20832000Y-102195428D02*
X20760571Y-102338285D01*
X20760571Y-102624000D01*
X20832000Y-102766857D01*
X20903428Y-102838285D01*
X21046285Y-102909714D01*
X21474857Y-102909714D01*
X21617714Y-102838285D01*
X21689142Y-102766857D01*
X21760571Y-102624000D01*
X21760571Y-102338285D01*
X21689142Y-102195428D01*
X20760571Y-103409714D02*
X21760571Y-103766857D01*
X20760571Y-104124000D02*
X21760571Y-103766857D01*
X22117714Y-103624000D01*
X22189142Y-103552571D01*
X22260571Y-103409714D01*
X21617714Y-106695428D02*
X21689142Y-106624000D01*
X21760571Y-106409714D01*
X21760571Y-106266857D01*
X21689142Y-106052571D01*
X21546285Y-105909714D01*
X21403428Y-105838285D01*
X21117714Y-105766857D01*
X20903428Y-105766857D01*
X20617714Y-105838285D01*
X20474857Y-105909714D01*
X20332000Y-106052571D01*
X20260571Y-106266857D01*
X20260571Y-106409714D01*
X20332000Y-106624000D01*
X20403428Y-106695428D01*
X21760571Y-107981142D02*
X20974857Y-107981142D01*
X20832000Y-107909714D01*
X20760571Y-107766857D01*
X20760571Y-107481142D01*
X20832000Y-107338285D01*
X21689142Y-107981142D02*
X21760571Y-107838285D01*
X21760571Y-107481142D01*
X21689142Y-107338285D01*
X21546285Y-107266857D01*
X21403428Y-107266857D01*
X21260571Y-107338285D01*
X21189142Y-107481142D01*
X21189142Y-107838285D01*
X21117714Y-107981142D01*
X21760571Y-108909714D02*
X21689142Y-108766857D01*
X21546285Y-108695428D01*
X20260571Y-108695428D01*
X20760571Y-109338285D02*
X21760571Y-109695428D01*
X20760571Y-110052571D01*
X21760571Y-110624000D02*
X20760571Y-110624000D01*
X20260571Y-110624000D02*
X20332000Y-110552571D01*
X20403428Y-110624000D01*
X20332000Y-110695428D01*
X20260571Y-110624000D01*
X20403428Y-110624000D01*
X20760571Y-111338285D02*
X21760571Y-111338285D01*
X20903428Y-111338285D02*
X20832000Y-111409714D01*
X20760571Y-111552571D01*
X20760571Y-111766857D01*
X20832000Y-111909714D01*
X20974857Y-111981142D01*
X21760571Y-111981142D01*
X20760571Y-112624000D02*
X20760571Y-113695428D01*
X20117714Y-113052571D02*
X22046285Y-112624000D01*
X21403428Y-113552571D02*
X21403428Y-112481142D01*
X22046285Y-113124000D02*
X20117714Y-113552571D01*
X20260571Y-114481142D02*
X20260571Y-114624000D01*
X20332000Y-114766857D01*
X20403428Y-114838285D01*
X20546285Y-114909714D01*
X20832000Y-114981142D01*
X21189142Y-114981142D01*
X21474857Y-114909714D01*
X21617714Y-114838285D01*
X21689142Y-114766857D01*
X21760571Y-114624000D01*
X21760571Y-114481142D01*
X21689142Y-114338285D01*
X21617714Y-114266857D01*
X21474857Y-114195428D01*
X21189142Y-114124000D01*
X20832000Y-114124000D01*
X20546285Y-114195428D01*
X20403428Y-114266857D01*
X20332000Y-114338285D01*
X20260571Y-114481142D01*
X20260571Y-116338285D02*
X20260571Y-115624000D01*
X20974857Y-115552571D01*
X20903428Y-115624000D01*
X20832000Y-115766857D01*
X20832000Y-116124000D01*
X20903428Y-116266857D01*
X20974857Y-116338285D01*
X21117714Y-116409714D01*
X21474857Y-116409714D01*
X21617714Y-116338285D01*
X21689142Y-116266857D01*
X21760571Y-116124000D01*
X21760571Y-115766857D01*
X21689142Y-115624000D01*
X21617714Y-115552571D01*
X20260571Y-117695428D02*
X20260571Y-117409714D01*
X20332000Y-117266857D01*
X20403428Y-117195428D01*
X20617714Y-117052571D01*
X20903428Y-116981142D01*
X21474857Y-116981142D01*
X21617714Y-117052571D01*
X21689142Y-117124000D01*
X21760571Y-117266857D01*
X21760571Y-117552571D01*
X21689142Y-117695428D01*
X21617714Y-117766857D01*
X21474857Y-117838285D01*
X21117714Y-117838285D01*
X20974857Y-117766857D01*
X20903428Y-117695428D01*
X20832000Y-117552571D01*
X20832000Y-117266857D01*
X20903428Y-117124000D01*
X20974857Y-117052571D01*
X21117714Y-116981142D01*
X20260571Y-118338285D02*
X20260571Y-119266857D01*
X20832000Y-118766857D01*
X20832000Y-118981142D01*
X20903428Y-119124000D01*
X20974857Y-119195428D01*
X21117714Y-119266857D01*
X21474857Y-119266857D01*
X21617714Y-119195428D01*
X21689142Y-119124000D01*
X21760571Y-118981142D01*
X21760571Y-118552571D01*
X21689142Y-118409714D01*
X21617714Y-118338285D01*
D13*
X256052976Y-58073809D02*
X255445833Y-58073809D01*
X255324404Y-58083333D01*
X255243452Y-58102380D01*
X255202976Y-58130952D01*
X255202976Y-58150000D01*
X255202976Y-57883333D02*
X255202976Y-57978571D01*
X256052976Y-57978571D01*
X255283928Y-57702380D02*
X255243452Y-57711904D01*
X255202976Y-57740476D01*
X255202976Y-57759523D01*
X255243452Y-57788095D01*
X255324404Y-57807142D01*
X255405357Y-57816666D01*
X255567261Y-57826190D01*
X255688690Y-57826190D01*
X255850595Y-57816666D01*
X255931547Y-57807142D01*
X256012500Y-57788095D01*
X256052976Y-57759523D01*
X256052976Y-57740476D01*
X256012500Y-57711904D01*
X255972023Y-57702380D01*
X256052976Y-57559523D02*
X255445833Y-57559523D01*
X255324404Y-57569047D01*
X255243452Y-57588095D01*
X255202976Y-57616666D01*
X255202976Y-57635714D01*
X255202976Y-57369047D02*
X255202976Y-57464285D01*
X256052976Y-57464285D01*
X255283928Y-57188095D02*
X255243452Y-57197619D01*
X255202976Y-57226190D01*
X255202976Y-57245238D01*
X255243452Y-57273809D01*
X255324404Y-57292857D01*
X255405357Y-57302380D01*
X255567261Y-57311904D01*
X255688690Y-57311904D01*
X255850595Y-57302380D01*
X255931547Y-57292857D01*
X256012500Y-57273809D01*
X256052976Y-57245238D01*
X256052976Y-57226190D01*
X256012500Y-57197619D01*
X255972023Y-57188095D01*
X256052976Y-57045238D02*
X255445833Y-57045238D01*
X255324404Y-57054761D01*
X255243452Y-57073809D01*
X255202976Y-57102380D01*
X255202976Y-57121428D01*
X255202976Y-56854761D02*
X255202976Y-56950000D01*
X256052976Y-56950000D01*
X255283928Y-56673809D02*
X255243452Y-56683333D01*
X255202976Y-56711904D01*
X255202976Y-56730952D01*
X255243452Y-56759523D01*
X255324404Y-56778571D01*
X255405357Y-56788095D01*
X255567261Y-56797619D01*
X255688690Y-56797619D01*
X255850595Y-56788095D01*
X255931547Y-56778571D01*
X256012500Y-56759523D01*
X256052976Y-56730952D01*
X256052976Y-56711904D01*
X256012500Y-56683333D01*
X255972023Y-56673809D01*
X256052976Y-56530952D02*
X255445833Y-56530952D01*
X255324404Y-56540476D01*
X255243452Y-56559523D01*
X255202976Y-56588095D01*
X255202976Y-56607142D01*
X255202976Y-56340476D02*
X255202976Y-56435714D01*
X256052976Y-56435714D01*
X255283928Y-56159523D02*
X255243452Y-56169047D01*
X255202976Y-56197619D01*
X255202976Y-56216666D01*
X255243452Y-56245238D01*
X255324404Y-56264285D01*
X255405357Y-56273809D01*
X255567261Y-56283333D01*
X255688690Y-56283333D01*
X255850595Y-56273809D01*
X255931547Y-56264285D01*
X256012500Y-56245238D01*
X256052976Y-56216666D01*
X256052976Y-56197619D01*
X256012500Y-56169047D01*
X255972023Y-56159523D01*
D12*
%TO.C,D1*%
X37338000Y-54610000D02*
X37338000Y-59690000D01*
X38862000Y-54610000D02*
X37338000Y-54610000D01*
X38862000Y-59690000D02*
X38862000Y-54610000D01*
X37338000Y-58928000D02*
X38862000Y-58928000D01*
X38862000Y-59182000D02*
X37338000Y-59182000D01*
X37338000Y-59309000D02*
X38862000Y-59309000D01*
X37338000Y-59690000D02*
X38862000Y-59690000D01*
X37338000Y-59055000D02*
X38862000Y-59055000D01*
X38862000Y-59436000D02*
X37338000Y-59436000D01*
X37338000Y-59563000D02*
X38862000Y-59563000D01*
%TO.C,D41*%
X231013000Y-116078000D02*
X232537000Y-116078000D01*
X231013000Y-116459000D02*
X232537000Y-116459000D01*
X232537000Y-116840000D02*
X232537000Y-111760000D01*
X231013000Y-116840000D02*
X232537000Y-116840000D01*
X231013000Y-116205000D02*
X232537000Y-116205000D01*
X232537000Y-116586000D02*
X231013000Y-116586000D01*
X232537000Y-116332000D02*
X231013000Y-116332000D01*
X232537000Y-111760000D02*
X231013000Y-111760000D01*
X231013000Y-111760000D02*
X231013000Y-116840000D01*
X231013000Y-116713000D02*
X232537000Y-116713000D01*
%TO.C,D9*%
X43624500Y-111760000D02*
X42100500Y-111760000D01*
X42100500Y-116205000D02*
X43624500Y-116205000D01*
X43624500Y-116840000D02*
X43624500Y-111760000D01*
X42100500Y-116713000D02*
X43624500Y-116713000D01*
X43624500Y-116332000D02*
X42100500Y-116332000D01*
X42100500Y-116459000D02*
X43624500Y-116459000D01*
X43624500Y-116586000D02*
X42100500Y-116586000D01*
X42100500Y-116078000D02*
X43624500Y-116078000D01*
X42100500Y-111760000D02*
X42100500Y-116840000D01*
X42100500Y-116840000D02*
X43624500Y-116840000D01*
%TO.C,D21*%
X132588000Y-59563000D02*
X134112000Y-59563000D01*
X134112000Y-59436000D02*
X132588000Y-59436000D01*
X134112000Y-54610000D02*
X132588000Y-54610000D01*
X132588000Y-58928000D02*
X134112000Y-58928000D01*
X134112000Y-59690000D02*
X134112000Y-54610000D01*
X132588000Y-59055000D02*
X134112000Y-59055000D01*
X132588000Y-54610000D02*
X132588000Y-59690000D01*
X134112000Y-59182000D02*
X132588000Y-59182000D01*
X132588000Y-59690000D02*
X134112000Y-59690000D01*
X132588000Y-59309000D02*
X134112000Y-59309000D01*
%TO.C,D44*%
X254762000Y-78740000D02*
X254762000Y-73660000D01*
X254762000Y-78486000D02*
X253238000Y-78486000D01*
X253238000Y-78613000D02*
X254762000Y-78613000D01*
X253238000Y-78359000D02*
X254762000Y-78359000D01*
X253238000Y-73660000D02*
X253238000Y-78740000D01*
X253238000Y-77978000D02*
X254762000Y-77978000D01*
X254762000Y-73660000D02*
X253238000Y-73660000D01*
X253238000Y-78105000D02*
X254762000Y-78105000D01*
X254762000Y-78232000D02*
X253238000Y-78232000D01*
X253238000Y-78740000D02*
X254762000Y-78740000D01*
%TO.C,D28*%
X172212000Y-59182000D02*
X170688000Y-59182000D01*
X172212000Y-59436000D02*
X170688000Y-59436000D01*
X170688000Y-59309000D02*
X172212000Y-59309000D01*
X170688000Y-58928000D02*
X172212000Y-58928000D01*
X170688000Y-59563000D02*
X172212000Y-59563000D01*
X170688000Y-54610000D02*
X170688000Y-59690000D01*
X172212000Y-59690000D02*
X172212000Y-54610000D01*
X172212000Y-54610000D02*
X170688000Y-54610000D01*
X170688000Y-59055000D02*
X172212000Y-59055000D01*
X170688000Y-59690000D02*
X172212000Y-59690000D01*
%TO.C,D13*%
X96012000Y-59182000D02*
X94488000Y-59182000D01*
X96012000Y-54610000D02*
X94488000Y-54610000D01*
X94488000Y-59055000D02*
X96012000Y-59055000D01*
X94488000Y-59690000D02*
X96012000Y-59690000D01*
X94488000Y-59309000D02*
X96012000Y-59309000D01*
X94488000Y-58928000D02*
X96012000Y-58928000D01*
X96012000Y-59690000D02*
X96012000Y-54610000D01*
X94488000Y-54610000D02*
X94488000Y-59690000D01*
X94488000Y-59563000D02*
X96012000Y-59563000D01*
X96012000Y-59436000D02*
X94488000Y-59436000D01*
%TO.C,D33*%
X199263000Y-97028000D02*
X200787000Y-97028000D01*
X199263000Y-97663000D02*
X200787000Y-97663000D01*
X200787000Y-97282000D02*
X199263000Y-97282000D01*
X200787000Y-97790000D02*
X200787000Y-92710000D01*
X200787000Y-92710000D02*
X199263000Y-92710000D01*
X199263000Y-97155000D02*
X200787000Y-97155000D01*
X199263000Y-97409000D02*
X200787000Y-97409000D01*
X199263000Y-92710000D02*
X199263000Y-97790000D01*
X200787000Y-97536000D02*
X199263000Y-97536000D01*
X199263000Y-97790000D02*
X200787000Y-97790000D01*
%TO.C,D6*%
X56388000Y-59309000D02*
X57912000Y-59309000D01*
X57912000Y-59182000D02*
X56388000Y-59182000D01*
X57912000Y-59690000D02*
X57912000Y-54610000D01*
X56388000Y-59690000D02*
X57912000Y-59690000D01*
X57912000Y-54610000D02*
X56388000Y-54610000D01*
X56388000Y-58928000D02*
X57912000Y-58928000D01*
X56388000Y-59055000D02*
X57912000Y-59055000D01*
X56388000Y-54610000D02*
X56388000Y-59690000D01*
X57912000Y-59436000D02*
X56388000Y-59436000D01*
X56388000Y-59563000D02*
X57912000Y-59563000D01*
%TO.C,D37*%
X213550500Y-77978000D02*
X215074500Y-77978000D01*
X213550500Y-78359000D02*
X215074500Y-78359000D01*
X213550500Y-78105000D02*
X215074500Y-78105000D01*
X213550500Y-78613000D02*
X215074500Y-78613000D01*
X215074500Y-78486000D02*
X213550500Y-78486000D01*
X213550500Y-78740000D02*
X215074500Y-78740000D01*
X215074500Y-73660000D02*
X213550500Y-73660000D01*
X215074500Y-78740000D02*
X215074500Y-73660000D01*
X215074500Y-78232000D02*
X213550500Y-78232000D01*
X213550500Y-73660000D02*
X213550500Y-78740000D01*
%TO.C,D19*%
X151638000Y-59309000D02*
X153162000Y-59309000D01*
X151638000Y-58928000D02*
X153162000Y-58928000D01*
X153162000Y-59690000D02*
X153162000Y-54610000D01*
X151638000Y-59690000D02*
X153162000Y-59690000D01*
X151638000Y-54610000D02*
X151638000Y-59690000D01*
X153162000Y-54610000D02*
X151638000Y-54610000D01*
X153162000Y-59436000D02*
X151638000Y-59436000D01*
X153162000Y-59182000D02*
X151638000Y-59182000D01*
X151638000Y-59563000D02*
X153162000Y-59563000D01*
X151638000Y-59055000D02*
X153162000Y-59055000D01*
%TO.C,D39*%
X232600500Y-78613000D02*
X234124500Y-78613000D01*
X232600500Y-73660000D02*
X232600500Y-78740000D01*
X234124500Y-78486000D02*
X232600500Y-78486000D01*
X234124500Y-78232000D02*
X232600500Y-78232000D01*
X232600500Y-78740000D02*
X234124500Y-78740000D01*
X234124500Y-78740000D02*
X234124500Y-73660000D01*
X234124500Y-73660000D02*
X232600500Y-73660000D01*
X232600500Y-78359000D02*
X234124500Y-78359000D01*
X232600500Y-78105000D02*
X234124500Y-78105000D01*
X232600500Y-77978000D02*
X234124500Y-77978000D01*
%TO.C,D7*%
X61150500Y-78613000D02*
X62674500Y-78613000D01*
X62674500Y-78740000D02*
X62674500Y-73660000D01*
X62674500Y-73660000D02*
X61150500Y-73660000D01*
X61150500Y-78105000D02*
X62674500Y-78105000D01*
X61150500Y-78740000D02*
X62674500Y-78740000D01*
X61150500Y-78359000D02*
X62674500Y-78359000D01*
X62674500Y-78232000D02*
X61150500Y-78232000D01*
X61150500Y-73660000D02*
X61150500Y-78740000D01*
X62674500Y-78486000D02*
X61150500Y-78486000D01*
X61150500Y-77978000D02*
X62674500Y-77978000D01*
%TO.C,D36*%
X210312000Y-59436000D02*
X208788000Y-59436000D01*
X208788000Y-54610000D02*
X208788000Y-59690000D01*
X208788000Y-59690000D02*
X210312000Y-59690000D01*
X210312000Y-59182000D02*
X208788000Y-59182000D01*
X208788000Y-58928000D02*
X210312000Y-58928000D01*
X210312000Y-54610000D02*
X208788000Y-54610000D01*
X208788000Y-59563000D02*
X210312000Y-59563000D01*
X208788000Y-59055000D02*
X210312000Y-59055000D01*
X210312000Y-59690000D02*
X210312000Y-54610000D01*
X208788000Y-59309000D02*
X210312000Y-59309000D01*
%TO.C,D24*%
X130937000Y-116332000D02*
X129413000Y-116332000D01*
X129413000Y-116840000D02*
X130937000Y-116840000D01*
X130937000Y-111760000D02*
X129413000Y-111760000D01*
X129413000Y-116078000D02*
X130937000Y-116078000D01*
X129413000Y-116713000D02*
X130937000Y-116713000D01*
X129413000Y-116205000D02*
X130937000Y-116205000D01*
X129413000Y-111760000D02*
X129413000Y-116840000D01*
X129413000Y-116459000D02*
X130937000Y-116459000D01*
X130937000Y-116586000D02*
X129413000Y-116586000D01*
X130937000Y-116840000D02*
X130937000Y-111760000D01*
%TO.C,D22*%
X137350500Y-78613000D02*
X138874500Y-78613000D01*
X137350500Y-78105000D02*
X138874500Y-78105000D01*
X138874500Y-78486000D02*
X137350500Y-78486000D01*
X137350500Y-78359000D02*
X138874500Y-78359000D01*
X138874500Y-73660000D02*
X137350500Y-73660000D01*
X138874500Y-78740000D02*
X138874500Y-73660000D01*
X138874500Y-78232000D02*
X137350500Y-78232000D01*
X137350500Y-77978000D02*
X138874500Y-77978000D01*
X137350500Y-73660000D02*
X137350500Y-78740000D01*
X137350500Y-78740000D02*
X138874500Y-78740000D01*
%TO.C,D18*%
X124587000Y-97790000D02*
X124587000Y-92710000D01*
X124587000Y-92710000D02*
X123063000Y-92710000D01*
X124587000Y-97536000D02*
X123063000Y-97536000D01*
X123063000Y-97409000D02*
X124587000Y-97409000D01*
X123063000Y-97663000D02*
X124587000Y-97663000D01*
X123063000Y-97155000D02*
X124587000Y-97155000D01*
X124587000Y-97282000D02*
X123063000Y-97282000D01*
X123063000Y-97028000D02*
X124587000Y-97028000D01*
X123063000Y-92710000D02*
X123063000Y-97790000D01*
X123063000Y-97790000D02*
X124587000Y-97790000D01*
%TO.C,D31*%
X189738000Y-59690000D02*
X191262000Y-59690000D01*
X191262000Y-59436000D02*
X189738000Y-59436000D01*
X191262000Y-59182000D02*
X189738000Y-59182000D01*
X189738000Y-58928000D02*
X191262000Y-58928000D01*
X189738000Y-59055000D02*
X191262000Y-59055000D01*
X189738000Y-54610000D02*
X189738000Y-59690000D01*
X189738000Y-59309000D02*
X191262000Y-59309000D01*
X191262000Y-59690000D02*
X191262000Y-54610000D01*
X189738000Y-59563000D02*
X191262000Y-59563000D01*
X191262000Y-54610000D02*
X189738000Y-54610000D01*
%TO.C,D35*%
X186499500Y-116840000D02*
X186499500Y-111760000D01*
X184975500Y-116459000D02*
X186499500Y-116459000D01*
X186499500Y-116332000D02*
X184975500Y-116332000D01*
X184975500Y-116713000D02*
X186499500Y-116713000D01*
X186499500Y-116586000D02*
X184975500Y-116586000D01*
X184975500Y-111760000D02*
X184975500Y-116840000D01*
X186499500Y-111760000D02*
X184975500Y-111760000D01*
X184975500Y-116840000D02*
X186499500Y-116840000D01*
X184975500Y-116078000D02*
X186499500Y-116078000D01*
X184975500Y-116205000D02*
X186499500Y-116205000D01*
%TO.C,D16*%
X115062000Y-59436000D02*
X113538000Y-59436000D01*
X115062000Y-54610000D02*
X113538000Y-54610000D01*
X113538000Y-59055000D02*
X115062000Y-59055000D01*
X113538000Y-58928000D02*
X115062000Y-58928000D01*
X113538000Y-54610000D02*
X113538000Y-59690000D01*
X113538000Y-59563000D02*
X115062000Y-59563000D01*
X115062000Y-59182000D02*
X113538000Y-59182000D01*
X115062000Y-59690000D02*
X115062000Y-54610000D01*
X113538000Y-59309000D02*
X115062000Y-59309000D01*
X113538000Y-59690000D02*
X115062000Y-59690000D01*
%TO.C,D25*%
X156400500Y-73660000D02*
X156400500Y-78740000D01*
X156400500Y-78105000D02*
X157924500Y-78105000D01*
X156400500Y-78740000D02*
X157924500Y-78740000D01*
X156400500Y-78359000D02*
X157924500Y-78359000D01*
X157924500Y-73660000D02*
X156400500Y-73660000D01*
X156400500Y-77978000D02*
X157924500Y-77978000D01*
X157924500Y-78740000D02*
X157924500Y-73660000D01*
X157924500Y-78486000D02*
X156400500Y-78486000D01*
X157924500Y-78232000D02*
X156400500Y-78232000D01*
X156400500Y-78613000D02*
X157924500Y-78613000D01*
%TO.C,D8*%
X67437000Y-97282000D02*
X65913000Y-97282000D01*
X65913000Y-97028000D02*
X67437000Y-97028000D01*
X65913000Y-97663000D02*
X67437000Y-97663000D01*
X65913000Y-97155000D02*
X67437000Y-97155000D01*
X67437000Y-92710000D02*
X65913000Y-92710000D01*
X65913000Y-92710000D02*
X65913000Y-97790000D01*
X65913000Y-97790000D02*
X67437000Y-97790000D01*
X67437000Y-97536000D02*
X65913000Y-97536000D01*
X67437000Y-97790000D02*
X67437000Y-92710000D01*
X65913000Y-97409000D02*
X67437000Y-97409000D01*
%TO.C,D11*%
X86487000Y-97790000D02*
X86487000Y-92710000D01*
X86487000Y-92710000D02*
X84963000Y-92710000D01*
X84963000Y-97663000D02*
X86487000Y-97663000D01*
X84963000Y-92710000D02*
X84963000Y-97790000D01*
X84963000Y-97409000D02*
X86487000Y-97409000D01*
X86487000Y-97282000D02*
X84963000Y-97282000D01*
X84963000Y-97155000D02*
X86487000Y-97155000D01*
X84963000Y-97028000D02*
X86487000Y-97028000D01*
X86487000Y-97536000D02*
X84963000Y-97536000D01*
X84963000Y-97790000D02*
X86487000Y-97790000D01*
%TO.C,D4*%
X38925500Y-116713000D02*
X40449500Y-116713000D01*
X38925500Y-116205000D02*
X40449500Y-116205000D01*
X38925500Y-111760000D02*
X38925500Y-116840000D01*
X40449500Y-116586000D02*
X38925500Y-116586000D01*
X40449500Y-116332000D02*
X38925500Y-116332000D01*
X38925500Y-116840000D02*
X40449500Y-116840000D01*
X40449500Y-111760000D02*
X38925500Y-111760000D01*
X38925500Y-116459000D02*
X40449500Y-116459000D01*
X38925500Y-116078000D02*
X40449500Y-116078000D01*
X40449500Y-116840000D02*
X40449500Y-111760000D01*
%TO.C,D15*%
X104013000Y-92710000D02*
X104013000Y-97790000D01*
X105537000Y-97790000D02*
X105537000Y-92710000D01*
X105537000Y-92710000D02*
X104013000Y-92710000D01*
X104013000Y-97155000D02*
X105537000Y-97155000D01*
X104013000Y-97028000D02*
X105537000Y-97028000D01*
X104013000Y-97663000D02*
X105537000Y-97663000D01*
X104013000Y-97790000D02*
X105537000Y-97790000D01*
X104013000Y-97409000D02*
X105537000Y-97409000D01*
X105537000Y-97536000D02*
X104013000Y-97536000D01*
X105537000Y-97282000D02*
X104013000Y-97282000D01*
%TO.C,D30*%
X180213000Y-97663000D02*
X181737000Y-97663000D01*
X180213000Y-92710000D02*
X180213000Y-97790000D01*
X181737000Y-97282000D02*
X180213000Y-97282000D01*
X181737000Y-97536000D02*
X180213000Y-97536000D01*
X180213000Y-97790000D02*
X181737000Y-97790000D01*
X180213000Y-97155000D02*
X181737000Y-97155000D01*
X180213000Y-97409000D02*
X181737000Y-97409000D01*
X180213000Y-97028000D02*
X181737000Y-97028000D01*
X181737000Y-92710000D02*
X180213000Y-92710000D01*
X181737000Y-97790000D02*
X181737000Y-92710000D01*
%TO.C,D45*%
X254825500Y-97028000D02*
X256349500Y-97028000D01*
X256349500Y-92710000D02*
X254825500Y-92710000D01*
X254825500Y-97409000D02*
X256349500Y-97409000D01*
X256349500Y-97282000D02*
X254825500Y-97282000D01*
X254825500Y-97155000D02*
X256349500Y-97155000D01*
X256349500Y-97790000D02*
X256349500Y-92710000D01*
X256349500Y-97536000D02*
X254825500Y-97536000D01*
X254825500Y-97663000D02*
X256349500Y-97663000D01*
X254825500Y-97790000D02*
X256349500Y-97790000D01*
X254825500Y-92710000D02*
X254825500Y-97790000D01*
%TO.C,D14*%
X99250500Y-73660000D02*
X99250500Y-78740000D01*
X100774500Y-78232000D02*
X99250500Y-78232000D01*
X100774500Y-78486000D02*
X99250500Y-78486000D01*
X100774500Y-73660000D02*
X99250500Y-73660000D01*
X99250500Y-77978000D02*
X100774500Y-77978000D01*
X99250500Y-78105000D02*
X100774500Y-78105000D01*
X100774500Y-78740000D02*
X100774500Y-73660000D01*
X99250500Y-78740000D02*
X100774500Y-78740000D01*
X99250500Y-78613000D02*
X100774500Y-78613000D01*
X99250500Y-78359000D02*
X100774500Y-78359000D01*
%TO.C,D10*%
X80200500Y-78359000D02*
X81724500Y-78359000D01*
X81724500Y-78232000D02*
X80200500Y-78232000D01*
X81724500Y-78740000D02*
X81724500Y-73660000D01*
X80200500Y-77978000D02*
X81724500Y-77978000D01*
X80200500Y-73660000D02*
X80200500Y-78740000D01*
X80200500Y-78613000D02*
X81724500Y-78613000D01*
X80200500Y-78740000D02*
X81724500Y-78740000D01*
X81724500Y-73660000D02*
X80200500Y-73660000D01*
X80200500Y-78105000D02*
X81724500Y-78105000D01*
X81724500Y-78486000D02*
X80200500Y-78486000D01*
%TO.C,D5*%
X75438000Y-59309000D02*
X76962000Y-59309000D01*
X75438000Y-54610000D02*
X75438000Y-59690000D01*
X76962000Y-59690000D02*
X76962000Y-54610000D01*
X76962000Y-59182000D02*
X75438000Y-59182000D01*
X75438000Y-58928000D02*
X76962000Y-58928000D01*
X75438000Y-59055000D02*
X76962000Y-59055000D01*
X76962000Y-59436000D02*
X75438000Y-59436000D01*
X76962000Y-54610000D02*
X75438000Y-54610000D01*
X75438000Y-59563000D02*
X76962000Y-59563000D01*
X75438000Y-59690000D02*
X76962000Y-59690000D01*
%TO.C,D26*%
X161163000Y-97663000D02*
X162687000Y-97663000D01*
X162687000Y-97282000D02*
X161163000Y-97282000D01*
X162687000Y-97790000D02*
X162687000Y-92710000D01*
X161163000Y-92710000D02*
X161163000Y-97790000D01*
X161163000Y-97409000D02*
X162687000Y-97409000D01*
X162687000Y-97536000D02*
X161163000Y-97536000D01*
X161163000Y-97790000D02*
X162687000Y-97790000D01*
X161163000Y-97028000D02*
X162687000Y-97028000D01*
X162687000Y-92710000D02*
X161163000Y-92710000D01*
X161163000Y-97155000D02*
X162687000Y-97155000D01*
%TO.C,D29*%
X175450500Y-78613000D02*
X176974500Y-78613000D01*
X175450500Y-78105000D02*
X176974500Y-78105000D01*
X175450500Y-77978000D02*
X176974500Y-77978000D01*
X176974500Y-78486000D02*
X175450500Y-78486000D01*
X176974500Y-78232000D02*
X175450500Y-78232000D01*
X176974500Y-78740000D02*
X176974500Y-73660000D01*
X176974500Y-73660000D02*
X175450500Y-73660000D01*
X175450500Y-73660000D02*
X175450500Y-78740000D01*
X175450500Y-78359000D02*
X176974500Y-78359000D01*
X175450500Y-78740000D02*
X176974500Y-78740000D01*
%TO.C,D2*%
X45085000Y-77152500D02*
X45085000Y-72072500D01*
X45085000Y-76898500D02*
X43561000Y-76898500D01*
X43561000Y-77152500D02*
X45085000Y-77152500D01*
X43561000Y-77025500D02*
X45085000Y-77025500D01*
X43561000Y-76771500D02*
X45085000Y-76771500D01*
X45085000Y-76644500D02*
X43561000Y-76644500D01*
X43561000Y-76517500D02*
X45085000Y-76517500D01*
X43561000Y-72072500D02*
X43561000Y-77152500D01*
X43561000Y-76390500D02*
X45085000Y-76390500D01*
X45085000Y-72072500D02*
X43561000Y-72072500D01*
%TO.C,D12*%
X89725500Y-116713000D02*
X91249500Y-116713000D01*
X91249500Y-116332000D02*
X89725500Y-116332000D01*
X89725500Y-116205000D02*
X91249500Y-116205000D01*
X89725500Y-116840000D02*
X91249500Y-116840000D01*
X91249500Y-116840000D02*
X91249500Y-111760000D01*
X89725500Y-111760000D02*
X89725500Y-116840000D01*
X91249500Y-111760000D02*
X89725500Y-111760000D01*
X89725500Y-116459000D02*
X91249500Y-116459000D01*
X89725500Y-116078000D02*
X91249500Y-116078000D01*
X91249500Y-116586000D02*
X89725500Y-116586000D01*
%TO.C,D23*%
X143637000Y-97282000D02*
X142113000Y-97282000D01*
X142113000Y-97409000D02*
X143637000Y-97409000D01*
X142113000Y-97790000D02*
X143637000Y-97790000D01*
X142113000Y-97663000D02*
X143637000Y-97663000D01*
X143637000Y-97790000D02*
X143637000Y-92710000D01*
X142113000Y-97155000D02*
X143637000Y-97155000D01*
X143637000Y-97536000D02*
X142113000Y-97536000D01*
X142113000Y-92710000D02*
X142113000Y-97790000D01*
X143637000Y-92710000D02*
X142113000Y-92710000D01*
X142113000Y-97028000D02*
X143637000Y-97028000D01*
%TO.C,D34*%
X229362000Y-59182000D02*
X227838000Y-59182000D01*
X227838000Y-59690000D02*
X229362000Y-59690000D01*
X229362000Y-54610000D02*
X227838000Y-54610000D01*
X227838000Y-58928000D02*
X229362000Y-58928000D01*
X227838000Y-59055000D02*
X229362000Y-59055000D01*
X227838000Y-59563000D02*
X229362000Y-59563000D01*
X229362000Y-59436000D02*
X227838000Y-59436000D01*
X227838000Y-54610000D02*
X227838000Y-59690000D01*
X227838000Y-59309000D02*
X229362000Y-59309000D01*
X229362000Y-59690000D02*
X229362000Y-54610000D01*
%TO.C,D46*%
X237299500Y-116840000D02*
X237299500Y-111760000D01*
X235775500Y-116713000D02*
X237299500Y-116713000D01*
X235775500Y-116078000D02*
X237299500Y-116078000D01*
X235775500Y-116840000D02*
X237299500Y-116840000D01*
X235775500Y-116205000D02*
X237299500Y-116205000D01*
X237299500Y-116332000D02*
X235775500Y-116332000D01*
X235775500Y-111760000D02*
X235775500Y-116840000D01*
X237299500Y-111760000D02*
X235775500Y-111760000D01*
X237299500Y-116586000D02*
X235775500Y-116586000D01*
X235775500Y-116459000D02*
X237299500Y-116459000D01*
%TO.C,D17*%
X119824500Y-78232000D02*
X118300500Y-78232000D01*
X118300500Y-77978000D02*
X119824500Y-77978000D01*
X118300500Y-78613000D02*
X119824500Y-78613000D01*
X118300500Y-73660000D02*
X118300500Y-78740000D01*
X118300500Y-78359000D02*
X119824500Y-78359000D01*
X119824500Y-78740000D02*
X119824500Y-73660000D01*
X119824500Y-73660000D02*
X118300500Y-73660000D01*
X118300500Y-78105000D02*
X119824500Y-78105000D01*
X118300500Y-78740000D02*
X119824500Y-78740000D01*
X119824500Y-78486000D02*
X118300500Y-78486000D01*
%TO.C,D32*%
X194500500Y-78740000D02*
X196024500Y-78740000D01*
X194500500Y-73660000D02*
X194500500Y-78740000D01*
X196024500Y-73660000D02*
X194500500Y-73660000D01*
X196024500Y-78232000D02*
X194500500Y-78232000D01*
X194500500Y-78359000D02*
X196024500Y-78359000D01*
X194500500Y-77978000D02*
X196024500Y-77978000D01*
X196024500Y-78486000D02*
X194500500Y-78486000D01*
X194500500Y-78613000D02*
X196024500Y-78613000D01*
X194500500Y-78105000D02*
X196024500Y-78105000D01*
X196024500Y-78740000D02*
X196024500Y-73660000D01*
%TO.C,D27*%
X166751000Y-116205000D02*
X168275000Y-116205000D01*
X166751000Y-116840000D02*
X168275000Y-116840000D01*
X168275000Y-111760000D02*
X166751000Y-111760000D01*
X166751000Y-111760000D02*
X166751000Y-116840000D01*
X166751000Y-116078000D02*
X168275000Y-116078000D01*
X168275000Y-116586000D02*
X166751000Y-116586000D01*
X168275000Y-116332000D02*
X166751000Y-116332000D01*
X168275000Y-116840000D02*
X168275000Y-111760000D01*
X166751000Y-116713000D02*
X168275000Y-116713000D01*
X166751000Y-116459000D02*
X168275000Y-116459000D01*
%TO.C,D43*%
X251650500Y-59563000D02*
X253174500Y-59563000D01*
X253174500Y-59436000D02*
X251650500Y-59436000D01*
X253174500Y-59182000D02*
X251650500Y-59182000D01*
X253174500Y-54610000D02*
X251650500Y-54610000D01*
X251650500Y-59690000D02*
X253174500Y-59690000D01*
X251650500Y-59309000D02*
X253174500Y-59309000D01*
X251650500Y-59055000D02*
X253174500Y-59055000D01*
X251650500Y-58928000D02*
X253174500Y-58928000D01*
X251650500Y-54610000D02*
X251650500Y-59690000D01*
X253174500Y-59690000D02*
X253174500Y-54610000D01*
%TO.C,D20*%
X119126000Y-116078000D02*
X120650000Y-116078000D01*
X120650000Y-116332000D02*
X119126000Y-116332000D01*
X119126000Y-116205000D02*
X120650000Y-116205000D01*
X119126000Y-116713000D02*
X120650000Y-116713000D01*
X119126000Y-116840000D02*
X120650000Y-116840000D01*
X120650000Y-116586000D02*
X119126000Y-116586000D01*
X120650000Y-116840000D02*
X120650000Y-111760000D01*
X119126000Y-111760000D02*
X119126000Y-116840000D01*
X120650000Y-111760000D02*
X119126000Y-111760000D01*
X119126000Y-116459000D02*
X120650000Y-116459000D01*
%TO.C,D3*%
X43688000Y-92710000D02*
X43688000Y-97790000D01*
X43688000Y-97028000D02*
X45212000Y-97028000D01*
X45212000Y-97790000D02*
X45212000Y-92710000D01*
X45212000Y-97282000D02*
X43688000Y-97282000D01*
X45212000Y-97536000D02*
X43688000Y-97536000D01*
X45212000Y-92710000D02*
X43688000Y-92710000D01*
X43688000Y-97409000D02*
X45212000Y-97409000D01*
X43688000Y-97663000D02*
X45212000Y-97663000D01*
X43688000Y-97155000D02*
X45212000Y-97155000D01*
X43688000Y-97790000D02*
X45212000Y-97790000D01*
%TO.C,D38*%
X219837000Y-97282000D02*
X218313000Y-97282000D01*
X219837000Y-97790000D02*
X219837000Y-92710000D01*
X218313000Y-97790000D02*
X219837000Y-97790000D01*
X219837000Y-92710000D02*
X218313000Y-92710000D01*
X218313000Y-97028000D02*
X219837000Y-97028000D01*
X219837000Y-97536000D02*
X218313000Y-97536000D01*
X218313000Y-97409000D02*
X219837000Y-97409000D01*
X218313000Y-92710000D02*
X218313000Y-97790000D01*
X218313000Y-97663000D02*
X219837000Y-97663000D01*
X218313000Y-97155000D02*
X219837000Y-97155000D01*
%TO.C,D40*%
X237363000Y-97155000D02*
X238887000Y-97155000D01*
X238887000Y-97790000D02*
X238887000Y-92710000D01*
X238887000Y-97536000D02*
X237363000Y-97536000D01*
X237363000Y-97409000D02*
X238887000Y-97409000D01*
X237363000Y-97790000D02*
X238887000Y-97790000D01*
X237363000Y-92710000D02*
X237363000Y-97790000D01*
X238887000Y-92710000D02*
X237363000Y-92710000D01*
X238887000Y-97282000D02*
X237363000Y-97282000D01*
X237363000Y-97028000D02*
X238887000Y-97028000D01*
X237363000Y-97663000D02*
X238887000Y-97663000D01*
D14*
%TO.C,RZ1*%
X42312500Y-65707500D02*
X42312500Y-83707500D01*
X42312500Y-83707500D02*
X18812500Y-83707500D01*
X18812500Y-65707500D02*
X42312500Y-65707500D01*
X18812500Y-83707500D02*
X18812500Y-65707500D01*
%TO.C,J1*%
X21209000Y-65022000D02*
X22539000Y-65022000D01*
X19879000Y-63627000D02*
X20449000Y-63627000D01*
X21516530Y-61027000D02*
X22539000Y-61027000D01*
X21969000Y-63627000D02*
X22539000Y-63627000D01*
X22539000Y-65022000D02*
X22539000Y-64262000D01*
X22539000Y-63627000D02*
X22539000Y-61027000D01*
X19879000Y-63627000D02*
X19879000Y-61027000D01*
X19879000Y-61027000D02*
X20901470Y-61027000D01*
%TD*%
M02*
