M48
; DRILL file {KiCad (6.0.7)} date Sun Jan 22 01:12:50 2023
; FORMAT={-:-/ absolute / inch / decimal}
; #@! TF.CreationDate,2023-01-22T01:12:50+01:00
; #@! TF.GenerationSoftware,Kicad,Pcbnew,(6.0.7)
; #@! TF.FileFunction,NonPlated,1,2,NPTH
FMAT,2
INCH
; #@! TA.AperFunction,NonPlated,NPTH,ComponentDrill
T1C0.0689
; #@! TA.AperFunction,NonPlated,NPTH,ComponentDrill
T2C0.1200
; #@! TA.AperFunction,NonPlated,NPTH,ComponentDrill
T3C0.1570
%
G90
G05
T1
X0.925Y-2.25
X1.02Y-3.0
X1.02Y-4.5
X1.1125Y-3.75
X1.325Y-2.25
X1.42Y-3.0
X1.42Y-4.5
X1.5125Y-3.75
X1.675Y-2.25
X1.8625Y-3.0
X1.8625Y-4.5
X2.05Y-3.75
X2.075Y-2.25
X2.2625Y-3.0
X2.2625Y-4.5
X2.425Y-2.25
X2.45Y-3.75
X2.6125Y-3.0
X2.8Y-3.75
X2.825Y-2.25
X2.9875Y-4.5
X3.0125Y-3.0
X3.175Y-2.25
X3.2Y-3.75
X3.3625Y-3.0
X3.3875Y-4.5
X3.55Y-3.75
X3.575Y-2.25
X3.7625Y-3.0
X3.925Y-2.25
X3.95Y-3.75
X4.1125Y-3.0
X4.205Y-4.5
X4.3Y-3.75
X4.325Y-2.25
X4.5125Y-3.0
X4.605Y-4.5
X4.675Y-2.25
X4.7Y-3.75
X4.8625Y-3.0
X5.05Y-3.75
X5.075Y-2.25
X5.2375Y-4.5
X5.2625Y-3.0
X5.425Y-2.25
X5.45Y-3.75
X5.6125Y-3.0
X5.6375Y-4.5
X5.8Y-3.75
X5.825Y-2.25
X6.0125Y-3.0
X6.08Y-4.5
X6.175Y-2.25
X6.2Y-3.75
X6.3625Y-3.0
X6.48Y-4.5
X6.55Y-3.75
X6.575Y-2.25
X6.7625Y-3.0
X6.925Y-2.25
X6.95Y-3.75
X7.1125Y-3.0
X7.3Y-3.75
X7.325Y-2.25
X7.4875Y-4.5
X7.5125Y-3.0
X7.675Y-2.25
X7.7Y-3.75
X7.8625Y-3.0
X7.8875Y-4.5
X8.05Y-3.75
X8.075Y-2.25
X8.2625Y-3.0
X8.425Y-2.25
X8.45Y-3.75
X8.6125Y-3.0
X8.6125Y-4.5
X8.8Y-3.75
X8.825Y-2.25
X9.0125Y-3.0
X9.0125Y-4.5
X9.2Y-3.75
X9.3625Y-2.25
X9.455Y-3.0
X9.455Y-4.5
X9.55Y-3.75
X9.7625Y-2.25
X9.855Y-3.0
X9.855Y-4.5
X9.95Y-3.75
T2
X3.1875Y-4.775
X3.9362Y-4.775
X4.8738Y-4.775
X5.8113Y-4.775
X6.7488Y-4.775
X7.6875Y-4.775
T3
X1.125Y-2.25
X1.22Y-3.0
X1.22Y-4.5
X1.3125Y-3.75
X1.875Y-2.25
X2.0625Y-3.0
X2.0625Y-4.5
X2.25Y-3.75
X2.625Y-2.25
X2.8125Y-3.0
X3.0Y-3.75
X3.1875Y-4.175
X3.1875Y-4.5
X3.375Y-2.25
X3.5625Y-3.0
X3.75Y-3.75
X3.9362Y-4.175
X4.125Y-2.25
X4.3125Y-3.0
X4.405Y-4.5
X4.5Y-3.75
X4.8738Y-4.175
X4.875Y-2.25
X5.0625Y-3.0
X5.25Y-3.75
X5.4375Y-4.5
X5.625Y-2.25
X5.8113Y-4.175
X5.8125Y-3.0
X6.0Y-3.75
X6.28Y-4.5
X6.375Y-2.25
X6.5625Y-3.0
X6.7488Y-4.175
X6.75Y-3.75
X7.125Y-2.25
X7.3125Y-3.0
X7.5Y-3.75
X7.6875Y-4.175
X7.6875Y-4.5
X7.875Y-2.25
X8.0625Y-3.0
X8.25Y-3.75
X8.625Y-2.25
X8.8125Y-3.0
X8.8125Y-4.5
X9.0Y-3.75
X9.5625Y-2.25
X9.655Y-3.0
X9.655Y-4.5
X9.75Y-3.75
T0
M30
