%TF.GenerationSoftware,KiCad,Pcbnew,(6.0.7)*%
%TF.CreationDate,2023-02-09T20:59:43+01:00*%
%TF.ProjectId,lumpen,6c756d70-656e-42e6-9b69-6361645f7063,rev?*%
%TF.SameCoordinates,Original*%
%TF.FileFunction,Legend,Top*%
%TF.FilePolarity,Positive*%
%FSLAX46Y46*%
G04 Gerber Fmt 4.6, Leading zero omitted, Abs format (unit mm)*
G04 Created by KiCad (PCBNEW (6.0.7)) date 2023-02-09 20:59:43*
%MOMM*%
%LPD*%
G01*
G04 APERTURE LIST*
%TA.AperFunction,Profile*%
%ADD10C,0.100000*%
%TD*%
%TA.AperFunction,Profile*%
%ADD11C,0.200000*%
%TD*%
%ADD12C,0.120000*%
%ADD13R,1.600000X1.600000*%
%ADD14C,1.600000*%
G04 APERTURE END LIST*
D10*
X224161188Y-86836250D02*
X52314313Y-86836250D01*
D11*
X33287290Y-128781256D02*
X25917546Y-128781256D01*
D10*
X125459250Y-103505000D02*
X127840500Y-105886250D01*
X224161188Y-86836200D02*
G75*
G03*
X224161188Y-84455000I12J1190600D01*
G01*
X78199375Y-102314375D02*
X83755625Y-102314375D01*
X192532000Y-102314375D02*
X191341375Y-103505000D01*
X224161188Y-67786200D02*
G75*
G03*
X224161188Y-65405000I12J1190600D01*
G01*
D11*
X39350957Y-123825611D02*
X35178801Y-127997767D01*
X25855692Y-42668887D02*
G75*
G03*
X23964181Y-43452380I8J-2675013D01*
G01*
D10*
X52314313Y-103505000D02*
X77008750Y-103505000D01*
X193722625Y-103505000D02*
X191341375Y-105886250D01*
D11*
X19102418Y-121966128D02*
X19040564Y-49484019D01*
X236913960Y-123824293D02*
X39350957Y-123825611D01*
X252245970Y-43472322D02*
G75*
G03*
X250354482Y-42688810I-1891570J-1891578D01*
G01*
D10*
X52314313Y-84454950D02*
G75*
G03*
X52314313Y-86836250I-13J-1190650D01*
G01*
D11*
X242984738Y-42688823D02*
G75*
G03*
X241096372Y-43469515I-38J-2674077D01*
G01*
X252245993Y-43472299D02*
X256386121Y-47612427D01*
D10*
X191341375Y-105886250D02*
X175402875Y-105886250D01*
D11*
X39257075Y-47592508D02*
X236956244Y-47609643D01*
D10*
X103964500Y-103505000D02*
X119903000Y-103505000D01*
D11*
X236956244Y-47609643D02*
X241096372Y-43469515D01*
D10*
X96027000Y-105886250D02*
X84946250Y-105886250D01*
D11*
X30540436Y-45418891D02*
G75*
G03*
X30540436Y-45418891I-1000000J0D01*
G01*
D10*
X196897625Y-103505000D02*
X199278875Y-105886250D01*
D11*
X250315343Y-128747910D02*
X242945599Y-128747910D01*
X30602546Y-126031256D02*
G75*
G03*
X30602546Y-126031256I-1000000J0D01*
G01*
D10*
X97217625Y-102314375D02*
X96027000Y-103505000D01*
D11*
X25855692Y-42668891D02*
X33225436Y-42668891D01*
X257169610Y-49503938D02*
X257130471Y-121932782D01*
D10*
X121093625Y-102314375D02*
X126649875Y-102314375D01*
D11*
X247669482Y-45438810D02*
G75*
G03*
X247669482Y-45438810I-1000000J0D01*
G01*
D10*
X144786188Y-102314375D02*
X143595563Y-103505000D01*
X168656000Y-102314375D02*
X167465375Y-103505000D01*
X121093625Y-102314375D02*
X119903000Y-103505000D01*
D11*
X250315343Y-128747926D02*
G75*
G03*
X252206854Y-127964421I57J2674826D01*
G01*
X241054108Y-127964401D02*
G75*
G03*
X242945599Y-128747910I1891492J1891401D01*
G01*
D10*
X122284250Y-103505000D02*
X125459250Y-103505000D01*
X224161188Y-105886250D02*
X199278875Y-105886250D01*
X102773875Y-102314375D02*
X103964500Y-103505000D01*
X193722625Y-103505000D02*
X196897625Y-103505000D01*
X169846625Y-103505000D02*
X173021625Y-103505000D01*
X151533063Y-103505000D02*
X167465375Y-103505000D01*
X144786188Y-102314375D02*
X150342438Y-102314375D01*
D11*
X35116939Y-43452388D02*
G75*
G03*
X33225436Y-42668891I-1891439J-1891312D01*
G01*
D10*
X52314313Y-103504950D02*
G75*
G03*
X52314313Y-105886250I-13J-1190650D01*
G01*
X199278875Y-103505000D02*
X224161188Y-103505000D01*
X169846625Y-103505000D02*
X167465375Y-105886250D01*
X52314313Y-84455000D02*
X224161188Y-84455000D01*
X224161188Y-105886200D02*
G75*
G03*
X224161188Y-103505000I12J1190600D01*
G01*
D11*
X256346997Y-123824308D02*
G75*
G03*
X257130471Y-121932782I-1891797J1891608D01*
G01*
X256346982Y-123824293D02*
X252206854Y-127964421D01*
X33287290Y-128781221D02*
G75*
G03*
X35178801Y-127997767I110J2674821D01*
G01*
D10*
X101583250Y-103505000D02*
X103964500Y-105886250D01*
X79390000Y-103505000D02*
X82565000Y-103505000D01*
X126649875Y-102314375D02*
X127840500Y-103505000D01*
X145976813Y-103505000D02*
X149151813Y-103505000D01*
X143595563Y-105886250D02*
X127840500Y-105886250D01*
X83755625Y-102314375D02*
X84946250Y-103505000D01*
X173021625Y-103505000D02*
X175402875Y-105886250D01*
D11*
X24026035Y-127997767D02*
X19885907Y-123857639D01*
X242984738Y-42688810D02*
X250354482Y-42688810D01*
D10*
X97217625Y-102314375D02*
X102773875Y-102314375D01*
D11*
X241054088Y-127964421D02*
X236913960Y-123824293D01*
X24026051Y-127997751D02*
G75*
G03*
X25917546Y-128781256I1891549J1891551D01*
G01*
D10*
X78199375Y-102314375D02*
X77008750Y-103505000D01*
X174212250Y-102314375D02*
X175402875Y-103505000D01*
X175402875Y-103505000D02*
X191341375Y-103505000D01*
X149151813Y-103505000D02*
X151533063Y-105886250D01*
X224161188Y-67786250D02*
X52314313Y-67786250D01*
X119903000Y-105886250D02*
X103964500Y-105886250D01*
X79390000Y-103505000D02*
X77008750Y-105886250D01*
X98408250Y-103505000D02*
X96027000Y-105886250D01*
X198088250Y-102314375D02*
X199278875Y-103505000D01*
X84946250Y-103505000D02*
X96027000Y-103505000D01*
X52314313Y-65404950D02*
G75*
G03*
X52314313Y-67786250I-13J-1190650D01*
G01*
X168656000Y-102314375D02*
X174212250Y-102314375D01*
X122284250Y-103505000D02*
X119903000Y-105886250D01*
D11*
X19824057Y-47592512D02*
G75*
G03*
X19040564Y-49484019I1891443J-1891488D01*
G01*
D10*
X167465375Y-105886250D02*
X151533063Y-105886250D01*
D11*
X19824053Y-47592508D02*
X23964181Y-43452380D01*
D10*
X77008750Y-105886250D02*
X52314313Y-105886250D01*
X82565000Y-103505000D02*
X84946250Y-105886250D01*
X52314313Y-65405000D02*
X224161188Y-65405000D01*
D11*
X35116947Y-43452380D02*
X39257075Y-47592508D01*
D10*
X150342438Y-102314375D02*
X151533063Y-103505000D01*
D11*
X247630599Y-125997910D02*
G75*
G03*
X247630599Y-125997910I-1000000J0D01*
G01*
D10*
X192532000Y-102314375D02*
X198088250Y-102314375D01*
D11*
X257169605Y-49503938D02*
G75*
G03*
X256386121Y-47612427I-2675405J-162D01*
G01*
D10*
X127840500Y-103505000D02*
X143595563Y-103505000D01*
D11*
X19102451Y-121966128D02*
G75*
G03*
X19885907Y-123857639I2675149J28D01*
G01*
D10*
X145976813Y-103505000D02*
X143595563Y-105886250D01*
X98408250Y-103505000D02*
X101583250Y-103505000D01*
D12*
%TO.C,SW1*%
X241437000Y-121800000D02*
X241137000Y-122100000D01*
X241137000Y-122100000D02*
X241137000Y-121500000D01*
X241137000Y-121500000D02*
X241437000Y-121800000D01*
X251137000Y-116300000D02*
X251137000Y-120400000D01*
X251137000Y-108200000D02*
X251137000Y-112300000D01*
X239337000Y-120400000D02*
X251137000Y-120400000D01*
X243937000Y-108200000D02*
X246537000Y-108200000D01*
X244737000Y-114300000D02*
X245737000Y-114300000D01*
X248737000Y-108200000D02*
X251137000Y-108200000D01*
X239337000Y-112300000D02*
X239337000Y-108200000D01*
X245237000Y-114800000D02*
X245237000Y-113800000D01*
X239337000Y-116300000D02*
X239337000Y-120400000D01*
X239337000Y-108200000D02*
X241737000Y-108200000D01*
X248237000Y-114300000D02*
G75*
G03*
X248237000Y-114300000I-3000000J0D01*
G01*
%TO.C,G\u002A\u002A\u002A*%
G36*
X178062701Y-48130583D02*
G01*
X178524905Y-48347104D01*
X179011794Y-48547768D01*
X179439079Y-48698589D01*
X179555055Y-48732277D01*
X179925419Y-48826419D01*
X180164210Y-48864045D01*
X180359030Y-48850531D01*
X180582730Y-48795341D01*
X181061861Y-48595763D01*
X181345336Y-48327655D01*
X181409600Y-48014390D01*
X181403028Y-47981332D01*
X181336692Y-47699478D01*
X195052699Y-47699478D01*
X195129498Y-47948173D01*
X195191799Y-48475446D01*
X195030319Y-48953773D01*
X194637457Y-49395530D01*
X194005614Y-49813091D01*
X193973468Y-49830426D01*
X193277807Y-50148171D01*
X192455072Y-50418773D01*
X191475276Y-50649358D01*
X190308431Y-50847055D01*
X189013902Y-51009310D01*
X188509789Y-51061870D01*
X187830751Y-51128999D01*
X187017850Y-51206966D01*
X186112146Y-51292041D01*
X185154702Y-51380493D01*
X184186579Y-51468590D01*
X183248839Y-51552601D01*
X182382544Y-51628797D01*
X181628754Y-51693445D01*
X181028532Y-51742816D01*
X180622939Y-51773177D01*
X180568869Y-51776635D01*
X179731485Y-51782861D01*
X178852132Y-51713897D01*
X178040704Y-51580497D01*
X177707214Y-51496618D01*
X177378831Y-51376523D01*
X176910621Y-51170012D01*
X176327368Y-50889814D01*
X175653856Y-50548656D01*
X174914871Y-50159266D01*
X174135196Y-49734374D01*
X173339616Y-49286708D01*
X172827450Y-48990565D01*
X172334104Y-48709161D01*
X171846213Y-48443307D01*
X171411865Y-48218397D01*
X171079150Y-48059822D01*
X171006256Y-48028946D01*
X170697130Y-47896509D01*
X170488537Y-47792389D01*
X170432368Y-47749217D01*
X170549951Y-47736197D01*
X170883672Y-47724451D01*
X171401870Y-47714441D01*
X172072881Y-47706635D01*
X172865045Y-47701496D01*
X173746698Y-47699489D01*
X173819042Y-47699478D01*
X177209548Y-47699478D01*
X178062701Y-48130583D01*
G37*
G36*
X129812591Y-107545171D02*
G01*
X129921944Y-107996340D01*
X129989547Y-108358048D01*
X130016470Y-108650833D01*
X130003784Y-108895233D01*
X129952561Y-109111789D01*
X129863872Y-109321039D01*
X129789418Y-109458056D01*
X129379673Y-109962298D01*
X128775884Y-110387320D01*
X127973237Y-110735691D01*
X126966915Y-111009983D01*
X126827923Y-111038915D01*
X126092406Y-111146657D01*
X125239288Y-111208535D01*
X124379962Y-111219915D01*
X123625821Y-111176166D01*
X123599336Y-111173194D01*
X123207998Y-111116479D01*
X122637364Y-111018406D01*
X121936716Y-110888848D01*
X121155330Y-110737679D01*
X120342488Y-110574770D01*
X119547468Y-110409995D01*
X118819550Y-110253226D01*
X118208013Y-110114337D01*
X117770000Y-110005326D01*
X117051092Y-109792021D01*
X116324612Y-109535444D01*
X115576933Y-109228138D01*
X114794427Y-108862647D01*
X113963468Y-108431513D01*
X113070429Y-107927280D01*
X112101681Y-107342490D01*
X111043599Y-106669688D01*
X109882554Y-105901415D01*
X108604921Y-105030216D01*
X108327505Y-104838325D01*
X107636302Y-104362674D01*
X107065422Y-103987575D01*
X106585486Y-103707879D01*
X106167118Y-103518440D01*
X105780938Y-103414109D01*
X105397569Y-103389739D01*
X104987632Y-103440182D01*
X104521751Y-103560291D01*
X103970546Y-103744918D01*
X103360834Y-103968071D01*
X102668445Y-104228041D01*
X102121044Y-104448233D01*
X101690339Y-104650554D01*
X101348040Y-104856911D01*
X101065854Y-105089211D01*
X100815490Y-105369362D01*
X100568657Y-105719272D01*
X100297062Y-106160847D01*
X100104007Y-106489962D01*
X99796751Y-106999710D01*
X99476949Y-107491336D01*
X99132866Y-107978214D01*
X98752766Y-108473718D01*
X98324915Y-108991221D01*
X97837577Y-109544098D01*
X97279016Y-110145723D01*
X96637498Y-110809468D01*
X95901287Y-111548710D01*
X95058647Y-112376820D01*
X94254835Y-113155875D01*
X93648509Y-113743310D01*
X93049088Y-114328974D01*
X92473873Y-114895626D01*
X91940160Y-115426024D01*
X91465250Y-115902926D01*
X91066441Y-116309091D01*
X90761032Y-116627277D01*
X90628501Y-116770235D01*
X89383903Y-117997920D01*
X87926586Y-119177162D01*
X86280429Y-120293105D01*
X84469312Y-121330891D01*
X82517115Y-122275663D01*
X80447716Y-123112563D01*
X80416334Y-123124062D01*
X78839689Y-123700931D01*
X59314992Y-123684148D01*
X39790296Y-123667363D01*
X39309994Y-123037337D01*
X39092557Y-122745768D01*
X38956098Y-122530533D01*
X38885294Y-122345753D01*
X38864821Y-122145550D01*
X38879358Y-121884046D01*
X38889150Y-121777285D01*
X38968168Y-121301141D01*
X39120225Y-120921447D01*
X39369456Y-120604622D01*
X39739995Y-120317088D01*
X40083171Y-120115964D01*
X40574930Y-119878049D01*
X41066286Y-119709037D01*
X41609570Y-119600532D01*
X42257112Y-119544135D01*
X43061246Y-119531449D01*
X43660760Y-119541834D01*
X44304259Y-119565639D01*
X44954846Y-119606672D01*
X45669353Y-119670007D01*
X46504609Y-119760717D01*
X47517446Y-119883876D01*
X47579268Y-119891671D01*
X48630579Y-120017909D01*
X49581338Y-120119238D01*
X50389011Y-120191538D01*
X51011062Y-120230687D01*
X51116726Y-120234384D01*
X51580977Y-120243973D01*
X51957983Y-120238481D01*
X52317706Y-120211317D01*
X52730110Y-120155893D01*
X53265157Y-120065619D01*
X53656726Y-119995154D01*
X54282790Y-119883253D01*
X55098561Y-119740236D01*
X56056975Y-119574134D01*
X57110973Y-119392976D01*
X58213492Y-119204790D01*
X59317471Y-119017606D01*
X60375849Y-118839454D01*
X61341564Y-118678363D01*
X62167555Y-118542362D01*
X62261707Y-118527026D01*
X63475009Y-118300952D01*
X64519498Y-118039081D01*
X65472668Y-117720181D01*
X66026162Y-117495572D01*
X66994020Y-117126010D01*
X67971449Y-116842045D01*
X68927909Y-116648645D01*
X69832863Y-116550777D01*
X70655773Y-116553411D01*
X71279589Y-116640959D01*
X71799169Y-116808495D01*
X72351989Y-117074307D01*
X72895086Y-117410465D01*
X73385494Y-117789036D01*
X73780248Y-118182088D01*
X73912906Y-118352908D01*
X74274838Y-118754795D01*
X74745898Y-119061445D01*
X75352841Y-119281760D01*
X76122424Y-119424641D01*
X77081404Y-119498990D01*
X77386857Y-119508725D01*
X78491020Y-119495095D01*
X79566636Y-119394537D01*
X80683974Y-119199027D01*
X81271527Y-119065278D01*
X82572985Y-118682587D01*
X83843992Y-118177050D01*
X85066094Y-117558306D01*
X86220836Y-116835992D01*
X87289764Y-116019743D01*
X87571415Y-115775457D01*
X87905728Y-115489082D01*
X88334897Y-115138679D01*
X88805961Y-114766677D01*
X89265961Y-114415505D01*
X89309195Y-114383255D01*
X90508291Y-113429049D01*
X91486077Y-112516212D01*
X92175814Y-111730026D01*
X92425172Y-111418003D01*
X92737450Y-111039614D01*
X93068322Y-110648068D01*
X93308394Y-110370496D01*
X93818598Y-109736833D01*
X94172959Y-109169391D01*
X94386125Y-108638139D01*
X94472742Y-108113042D01*
X94476341Y-107975685D01*
X94463172Y-107636025D01*
X94414985Y-107333277D01*
X94318761Y-107037979D01*
X94161481Y-106720670D01*
X93930125Y-106351887D01*
X93611676Y-105902168D01*
X93483189Y-105728199D01*
X93207712Y-105349154D01*
X92880557Y-104885256D01*
X92529852Y-104377218D01*
X92183730Y-103865756D01*
X91895985Y-103430951D01*
X91812982Y-103303268D01*
X112929024Y-103303268D01*
X112982072Y-103831484D01*
X113114003Y-104319942D01*
X113187872Y-104491295D01*
X113629900Y-105177377D01*
X114274423Y-105873878D01*
X115087151Y-106552100D01*
X116033796Y-107183345D01*
X117052624Y-107726011D01*
X117581125Y-107972760D01*
X118028524Y-108170164D01*
X118435600Y-108328385D01*
X118843132Y-108457585D01*
X119291899Y-108567926D01*
X119822681Y-108669567D01*
X120476256Y-108772671D01*
X121293405Y-108887398D01*
X122200421Y-109008727D01*
X123150741Y-109127278D01*
X123909990Y-109202209D01*
X124520596Y-109234312D01*
X125024989Y-109224379D01*
X125465598Y-109173201D01*
X125884853Y-109081570D01*
X125899314Y-109077733D01*
X126422109Y-108897729D01*
X126839753Y-108658879D01*
X127156314Y-108351442D01*
X127375860Y-107965680D01*
X127502461Y-107491852D01*
X127540183Y-106920218D01*
X127493095Y-106241038D01*
X127381466Y-105529243D01*
X127249113Y-104861125D01*
X127121436Y-104306548D01*
X126989604Y-103846614D01*
X126844785Y-103462424D01*
X126678146Y-103135081D01*
X126480857Y-102845686D01*
X126244086Y-102575340D01*
X125959000Y-102305145D01*
X125817585Y-102182798D01*
X125044995Y-101640687D01*
X124136962Y-101203612D01*
X123110473Y-100877709D01*
X121982512Y-100669114D01*
X121487073Y-100618316D01*
X120931567Y-100571913D01*
X120250062Y-100511784D01*
X119560207Y-100448392D01*
X119318781Y-100425473D01*
X118462235Y-100350704D01*
X117784508Y-100311274D01*
X117225992Y-100306373D01*
X116727084Y-100335192D01*
X116312413Y-100384586D01*
X115337510Y-100584492D01*
X114525738Y-100883523D01*
X113875873Y-101282420D01*
X113386692Y-101781921D01*
X113071435Y-102345953D01*
X112957824Y-102789891D01*
X112929024Y-103303268D01*
X91812982Y-103303268D01*
X91643717Y-103042889D01*
X91440965Y-102721852D01*
X91277402Y-102443819D01*
X91142699Y-102184766D01*
X91026528Y-101920671D01*
X90918562Y-101627511D01*
X90808471Y-101281265D01*
X90685928Y-100857909D01*
X90540605Y-100333422D01*
X90498862Y-100181343D01*
X90297428Y-99417521D01*
X90145382Y-98772529D01*
X90040545Y-98235462D01*
X89980736Y-97795416D01*
X89963829Y-97504700D01*
X89963795Y-97166949D01*
X89981102Y-96926587D01*
X90026314Y-96748414D01*
X90109997Y-96597232D01*
X90242713Y-96437841D01*
X90303600Y-96372654D01*
X90642104Y-96058252D01*
X91111152Y-95682378D01*
X91666086Y-95277363D01*
X92262248Y-94875536D01*
X92854981Y-94509228D01*
X92968076Y-94443708D01*
X93365047Y-94204852D01*
X93604152Y-94027648D01*
X93715236Y-93887152D01*
X93732927Y-93804496D01*
X93679623Y-93664827D01*
X93535087Y-93440253D01*
X93322381Y-93163557D01*
X93103997Y-92910534D01*
X92747545Y-92495279D01*
X92519072Y-92164997D01*
X92409374Y-91894200D01*
X92409248Y-91657404D01*
X92509492Y-91429120D01*
X92548307Y-91371583D01*
X92846255Y-91082511D01*
X93314267Y-90833730D01*
X93988890Y-90606446D01*
X94091322Y-90578135D01*
X94448641Y-90488826D01*
X94844560Y-90406393D01*
X95297766Y-90329173D01*
X95826945Y-90255502D01*
X96450785Y-90183714D01*
X97187972Y-90112145D01*
X98057193Y-90039130D01*
X99077134Y-89963004D01*
X100266484Y-89882104D01*
X101643928Y-89794764D01*
X103228154Y-89699319D01*
X105037849Y-89594105D01*
X105317805Y-89578070D01*
X106278430Y-89522061D01*
X107037710Y-89474121D01*
X107640981Y-89429708D01*
X108133581Y-89384279D01*
X108560845Y-89333291D01*
X108968111Y-89272203D01*
X109400715Y-89196471D01*
X109716341Y-89137360D01*
X112319944Y-88648946D01*
X114727310Y-88210005D01*
X116933765Y-87821319D01*
X118934634Y-87483670D01*
X120725241Y-87197841D01*
X122300911Y-86964613D01*
X123656968Y-86784768D01*
X124089024Y-86733410D01*
X125874555Y-86556839D01*
X127699899Y-86428753D01*
X129499768Y-86351936D01*
X131208875Y-86329176D01*
X132761931Y-86363259D01*
X132762195Y-86363271D01*
X133375315Y-86388660D01*
X133985614Y-86411632D01*
X134489200Y-86428346D01*
X134620732Y-86431999D01*
X134942724Y-86441165D01*
X135075478Y-86449996D01*
X135003885Y-86461910D01*
X134712837Y-86480327D01*
X134310976Y-86502084D01*
X133806830Y-86526961D01*
X133137417Y-86557253D01*
X132384702Y-86589378D01*
X131630651Y-86619753D01*
X131523171Y-86623911D01*
X130244615Y-86690246D01*
X128767080Y-86797059D01*
X127125296Y-86940734D01*
X125353996Y-87117656D01*
X123487910Y-87324210D01*
X121561770Y-87556779D01*
X119610308Y-87811750D01*
X118141707Y-88016836D01*
X116166364Y-88313570D01*
X114291547Y-88623746D01*
X112413648Y-88965382D01*
X110429058Y-89356494D01*
X110378325Y-89366829D01*
X108291463Y-89792219D01*
X105503659Y-89938115D01*
X104132856Y-90017512D01*
X102836819Y-90107458D01*
X101648276Y-90204963D01*
X100599955Y-90307035D01*
X99724584Y-90410682D01*
X99054891Y-90512912D01*
X98908080Y-90540999D01*
X98184398Y-90730283D01*
X97615904Y-90965740D01*
X97247594Y-91228518D01*
X97235371Y-91241889D01*
X97117058Y-91408510D01*
X97109572Y-91561246D01*
X97195284Y-91749267D01*
X97294902Y-91906757D01*
X97422496Y-92054983D01*
X97603231Y-92212315D01*
X97862272Y-92397125D01*
X98224784Y-92627783D01*
X98715931Y-92922659D01*
X99156994Y-93181349D01*
X99689938Y-93497944D01*
X100089948Y-93753451D01*
X100399596Y-93980419D01*
X100661456Y-94211395D01*
X100918099Y-94478930D01*
X101052609Y-94630663D01*
X101296435Y-94924186D01*
X101493910Y-95188631D01*
X101623042Y-95392755D01*
X101662683Y-95497427D01*
X101621243Y-95643457D01*
X101512646Y-95864793D01*
X101361727Y-96111461D01*
X101181452Y-96425415D01*
X101021617Y-96783034D01*
X100935280Y-97042732D01*
X100870425Y-97389291D01*
X100904781Y-97644926D01*
X101069499Y-97839549D01*
X101395727Y-98003067D01*
X101914617Y-98165392D01*
X102177125Y-98235143D01*
X102762784Y-98376907D01*
X103241100Y-98459831D01*
X103691745Y-98487441D01*
X104194394Y-98463262D01*
X104828719Y-98390820D01*
X105043601Y-98361982D01*
X105891680Y-98257532D01*
X106902655Y-98151261D01*
X108008396Y-98048794D01*
X109140777Y-97955753D01*
X110231670Y-97877764D01*
X111212948Y-97820451D01*
X111963425Y-97790738D01*
X113163885Y-97780442D01*
X114496284Y-97810026D01*
X115680499Y-97862347D01*
X116505507Y-97905371D01*
X117358286Y-97949881D01*
X118160907Y-97991807D01*
X118835442Y-98027081D01*
X119110327Y-98041475D01*
X120593141Y-98163645D01*
X122006924Y-98366767D01*
X123318241Y-98642543D01*
X124493661Y-98982675D01*
X125499751Y-99378863D01*
X126303077Y-99822810D01*
X126312434Y-99829127D01*
X127148498Y-100493600D01*
X127840554Y-101258182D01*
X128390058Y-102125267D01*
X128798467Y-103097252D01*
X129067236Y-104176532D01*
X129107554Y-104427130D01*
X129188052Y-104907516D01*
X129298347Y-105467522D01*
X129427369Y-106055947D01*
X129564045Y-106621591D01*
X129643456Y-106920218D01*
X129660417Y-106984000D01*
X129812591Y-107545171D01*
G37*
G36*
X138700652Y-74013065D02*
G01*
X138588402Y-74239601D01*
X138150074Y-74788846D01*
X137519723Y-75255239D01*
X136703676Y-75635434D01*
X135708260Y-75926086D01*
X135211266Y-76025413D01*
X134782722Y-76094111D01*
X134382990Y-76139520D01*
X133942085Y-76165921D01*
X133390019Y-76177592D01*
X132700244Y-76178936D01*
X131413890Y-76145217D01*
X130144209Y-76047044D01*
X128849359Y-75878287D01*
X127487496Y-75632812D01*
X126016779Y-75304487D01*
X125018293Y-75053072D01*
X123508441Y-74588661D01*
X122116463Y-74020032D01*
X120875154Y-73363310D01*
X119817309Y-72634625D01*
X119427531Y-72303656D01*
X119001853Y-71900135D01*
X118701644Y-71565918D01*
X118591016Y-71394932D01*
X121266928Y-71394932D01*
X121287047Y-71681847D01*
X121443183Y-72118940D01*
X121726568Y-72535799D01*
X122158659Y-72952432D01*
X122760915Y-73388851D01*
X123554792Y-73865067D01*
X123735624Y-73965297D01*
X124173905Y-74200064D01*
X124546253Y-74380597D01*
X124914069Y-74530022D01*
X125338755Y-74671467D01*
X125881714Y-74828059D01*
X126396241Y-74967418D01*
X127366795Y-75215552D01*
X128198631Y-75398051D01*
X128957818Y-75523965D01*
X129710426Y-75602346D01*
X130522523Y-75642242D01*
X131399268Y-75652742D01*
X132061769Y-75650638D01*
X132540276Y-75640831D01*
X132898560Y-75618073D01*
X133200389Y-75577119D01*
X133509533Y-75512721D01*
X133720495Y-75461776D01*
X134577087Y-75185591D01*
X135236521Y-74836072D01*
X135691399Y-74425189D01*
X135934325Y-73964908D01*
X135957901Y-73467199D01*
X135754732Y-72944028D01*
X135494139Y-72592078D01*
X135254444Y-72302376D01*
X134989793Y-71955112D01*
X134752138Y-71618810D01*
X134722428Y-71574152D01*
X134145098Y-70867171D01*
X133396213Y-70224885D01*
X132541198Y-69692527D01*
X131655883Y-69266694D01*
X130799863Y-68948354D01*
X129917814Y-68720336D01*
X128954407Y-68565468D01*
X128881921Y-68556857D01*
X128117118Y-68485773D01*
X127439084Y-68470001D01*
X126726475Y-68509546D01*
X126257317Y-68556950D01*
X125261687Y-68714369D01*
X124294723Y-68950892D01*
X123436254Y-69244431D01*
X122934870Y-69476153D01*
X122260673Y-69909608D01*
X121744505Y-70391887D01*
X121406534Y-70895994D01*
X121266928Y-71394932D01*
X118591016Y-71394932D01*
X118505870Y-71263332D01*
X118393499Y-70954707D01*
X118343498Y-70602370D01*
X118334602Y-70346097D01*
X118335875Y-70017346D01*
X118355784Y-69782762D01*
X118407230Y-69603909D01*
X118503112Y-69442354D01*
X118656331Y-69259660D01*
X118724126Y-69185522D01*
X119349173Y-68657495D01*
X120194112Y-68189318D01*
X121256698Y-67782060D01*
X122270799Y-67498687D01*
X123076164Y-67320842D01*
X123887778Y-67181808D01*
X124783633Y-67070313D01*
X125841718Y-66975089D01*
X125954535Y-66966402D01*
X126622321Y-66917296D01*
X127118180Y-66888311D01*
X127515104Y-66879374D01*
X127886083Y-66890413D01*
X128304108Y-66921358D01*
X128754995Y-66963652D01*
X130355643Y-67184507D01*
X131855872Y-67523449D01*
X133245873Y-67975110D01*
X134515837Y-68534124D01*
X135655956Y-69195126D01*
X136656421Y-69952749D01*
X137507423Y-70801626D01*
X138199153Y-71736392D01*
X138518054Y-72304865D01*
X138760525Y-72930947D01*
X138818401Y-73467199D01*
X138821092Y-73492131D01*
X138700652Y-74013065D01*
G37*
G36*
X144279422Y-74062507D02*
G01*
X143952561Y-74443649D01*
X143943580Y-74452894D01*
X143500891Y-74828326D01*
X142899990Y-75227751D01*
X142199793Y-75619557D01*
X141459219Y-75972135D01*
X140737183Y-76253874D01*
X140382195Y-76363658D01*
X139633132Y-76558134D01*
X138960185Y-76701971D01*
X138301541Y-76802173D01*
X137595385Y-76865743D01*
X136779900Y-76899686D01*
X135793272Y-76911004D01*
X135550000Y-76911156D01*
X134660199Y-76906137D01*
X133897728Y-76889355D01*
X133203276Y-76855952D01*
X132517535Y-76801071D01*
X131781194Y-76719855D01*
X130934944Y-76607445D01*
X129919475Y-76458985D01*
X129788537Y-76439286D01*
X128728398Y-76265928D01*
X127587151Y-76055536D01*
X126409985Y-75818324D01*
X125242092Y-75564503D01*
X124128660Y-75304286D01*
X123114879Y-75047885D01*
X122245940Y-74805513D01*
X121567032Y-74587381D01*
X121521775Y-74571099D01*
X120616570Y-74216958D01*
X119662821Y-73799401D01*
X118704307Y-73341038D01*
X117784809Y-72864477D01*
X116948109Y-72392328D01*
X116237985Y-71947200D01*
X115738360Y-71584418D01*
X115027819Y-70941722D01*
X114475929Y-70292692D01*
X114279521Y-69968268D01*
X116472776Y-69968268D01*
X116650757Y-70595036D01*
X117070236Y-71245663D01*
X117730546Y-71918859D01*
X117964101Y-72115780D01*
X118350177Y-72394512D01*
X118884360Y-72731728D01*
X119522888Y-73103996D01*
X120221997Y-73487884D01*
X120937923Y-73859958D01*
X121626905Y-74196788D01*
X122245179Y-74474940D01*
X122713223Y-74658628D01*
X123586586Y-74934020D01*
X124645294Y-75218969D01*
X125830348Y-75500954D01*
X127082745Y-75767454D01*
X128343483Y-76005948D01*
X129553563Y-76203916D01*
X130653980Y-76348837D01*
X130703868Y-76354335D01*
X132389920Y-76495821D01*
X133922833Y-76534919D01*
X135308317Y-76471045D01*
X136552082Y-76303612D01*
X137659838Y-76032034D01*
X138637296Y-75655727D01*
X138927596Y-75510923D01*
X139711621Y-75017338D01*
X140259311Y-74489854D01*
X140577195Y-73920920D01*
X140665865Y-73501391D01*
X140646056Y-72927257D01*
X140477115Y-72364470D01*
X140144778Y-71777707D01*
X139774695Y-71294654D01*
X138815839Y-70279442D01*
X137730421Y-69368614D01*
X136524798Y-68565185D01*
X135205323Y-67872167D01*
X133778351Y-67292574D01*
X132250235Y-66829417D01*
X130627330Y-66485711D01*
X129230976Y-66295192D01*
X128628486Y-66254301D01*
X127844253Y-66233580D01*
X126941218Y-66232215D01*
X125982321Y-66249391D01*
X125030504Y-66284291D01*
X124148706Y-66336102D01*
X123779268Y-66365802D01*
X122148603Y-66555527D01*
X120715146Y-66815966D01*
X119482414Y-67145662D01*
X118453924Y-67543158D01*
X117633192Y-68006996D01*
X117023737Y-68535719D01*
X116629075Y-69127870D01*
X116536962Y-69366643D01*
X116472776Y-69968268D01*
X114279521Y-69968268D01*
X114088529Y-69652790D01*
X113871460Y-69037475D01*
X113830564Y-68462207D01*
X113971681Y-67942447D01*
X114222973Y-67573237D01*
X114711973Y-67176215D01*
X115422794Y-66799455D01*
X116330552Y-66450741D01*
X117410361Y-66137855D01*
X118637338Y-65868583D01*
X119986598Y-65650708D01*
X120619945Y-65572303D01*
X120985791Y-65540482D01*
X121528533Y-65504997D01*
X122194011Y-65468212D01*
X122928066Y-65432490D01*
X123676536Y-65400197D01*
X124385262Y-65373696D01*
X125000083Y-65355352D01*
X125466839Y-65347529D01*
X125699756Y-65350556D01*
X125894209Y-65358636D01*
X126276584Y-65373411D01*
X126787565Y-65392618D01*
X127248537Y-65409635D01*
X129158421Y-65524367D01*
X130914314Y-65726610D01*
X132559093Y-66023320D01*
X134135633Y-66421453D01*
X134863134Y-66644910D01*
X136263215Y-67160337D01*
X137658039Y-67793223D01*
X139017764Y-68529045D01*
X140017376Y-69153525D01*
X140426955Y-69435723D01*
X140898179Y-69777322D01*
X141411839Y-70162732D01*
X141948729Y-70576363D01*
X142489642Y-71002626D01*
X143015368Y-71425932D01*
X143506703Y-71830690D01*
X143944437Y-72201311D01*
X144309364Y-72522206D01*
X144582275Y-72777785D01*
X144743965Y-72952458D01*
X144780732Y-73019675D01*
X144717150Y-73310044D01*
X144624427Y-73501391D01*
X144542166Y-73671147D01*
X144279422Y-74062507D01*
G37*
G36*
X169780241Y-79844911D02*
G01*
X170242683Y-79944583D01*
X170743144Y-80161272D01*
X171039801Y-80425834D01*
X171148324Y-80724558D01*
X171084381Y-81043731D01*
X170863641Y-81369641D01*
X170501773Y-81688574D01*
X170014445Y-81986818D01*
X169417327Y-82250661D01*
X168726087Y-82466391D01*
X167956394Y-82620294D01*
X167123917Y-82698658D01*
X167094348Y-82699845D01*
X166266239Y-82685590D01*
X165607319Y-82579347D01*
X165129491Y-82390300D01*
X164844657Y-82127633D01*
X164764719Y-81800531D01*
X164901582Y-81418180D01*
X165098459Y-81159693D01*
X165533270Y-80794558D01*
X166116655Y-80471857D01*
X166806272Y-80201592D01*
X167559779Y-79993763D01*
X168334837Y-79858373D01*
X169089105Y-79805422D01*
X169780241Y-79844911D01*
G37*
G36*
X218706162Y-47701292D02*
G01*
X220441716Y-47701881D01*
X221958006Y-47702865D01*
X223269302Y-47704386D01*
X224389875Y-47706591D01*
X225333995Y-47709623D01*
X226115931Y-47713626D01*
X226749955Y-47718745D01*
X227250337Y-47725124D01*
X227631347Y-47732908D01*
X227907255Y-47742241D01*
X228092332Y-47753268D01*
X228200849Y-47766131D01*
X228247074Y-47780977D01*
X228245279Y-47797950D01*
X228210159Y-47817010D01*
X228034892Y-47891180D01*
X227697539Y-48032949D01*
X227231425Y-48228353D01*
X226669873Y-48463424D01*
X226046207Y-48724196D01*
X225856013Y-48803665D01*
X225220731Y-49074183D01*
X224641870Y-49330313D01*
X224152403Y-49556692D01*
X223785300Y-49737962D01*
X223573534Y-49858759D01*
X223546659Y-49879568D01*
X223414974Y-50064150D01*
X223294479Y-50349977D01*
X223193726Y-50705664D01*
X223121262Y-51099828D01*
X223085638Y-51501084D01*
X223083691Y-51579113D01*
X222964989Y-52352236D01*
X222629375Y-53061757D01*
X222075624Y-53709380D01*
X221302511Y-54296807D01*
X220999203Y-54477644D01*
X220785424Y-54596597D01*
X220580644Y-54704915D01*
X220364211Y-54810412D01*
X220115471Y-54920902D01*
X219813770Y-55044199D01*
X219438454Y-55188118D01*
X218968870Y-55360471D01*
X218384364Y-55569074D01*
X217664283Y-55821740D01*
X216787973Y-56126284D01*
X215734779Y-56490519D01*
X215095366Y-56711280D01*
X213559358Y-57277786D01*
X212095884Y-57895403D01*
X210667144Y-58582380D01*
X209235340Y-59356968D01*
X207762676Y-60237415D01*
X207662634Y-60300000D01*
X206739258Y-60925925D01*
X205902898Y-61584978D01*
X205183694Y-62249534D01*
X204611787Y-62891968D01*
X204246385Y-63431164D01*
X204111522Y-63642077D01*
X203939669Y-63835887D01*
X203696550Y-64042181D01*
X203347891Y-64290540D01*
X202940218Y-64558579D01*
X202106448Y-65115015D01*
X201438065Y-65608223D01*
X200912347Y-66061319D01*
X200506571Y-66497418D01*
X200198016Y-66939635D01*
X199963959Y-67411087D01*
X199857628Y-67694517D01*
X199534784Y-68521285D01*
X199160731Y-69230810D01*
X198718804Y-69837188D01*
X198192342Y-70354520D01*
X197564682Y-70796901D01*
X196819161Y-71178432D01*
X195939116Y-71513208D01*
X195023171Y-71784881D01*
X194396792Y-71954027D01*
X193759576Y-72129157D01*
X193195060Y-72287157D01*
X192854878Y-72384827D01*
X192387508Y-72513631D01*
X191912325Y-72625033D01*
X191392519Y-72724456D01*
X190791285Y-72817325D01*
X190071814Y-72909063D01*
X189197299Y-73005095D01*
X188130931Y-73110845D01*
X187565411Y-73164286D01*
X186134255Y-73301783D01*
X184901063Y-73430854D01*
X183817975Y-73559809D01*
X182837128Y-73696954D01*
X181910661Y-73850600D01*
X180990715Y-74029053D01*
X180029427Y-74240622D01*
X178978937Y-74493617D01*
X177791384Y-74796343D01*
X177057317Y-74988407D01*
X176174833Y-75220391D01*
X175298438Y-75450146D01*
X174472518Y-75666082D01*
X173741461Y-75856608D01*
X173149654Y-76010135D01*
X172782683Y-76104565D01*
X171381331Y-76490000D01*
X170022212Y-76922574D01*
X168673534Y-77414879D01*
X167303507Y-77979505D01*
X165880339Y-78629044D01*
X164372240Y-79376089D01*
X163880509Y-79630486D01*
X163249736Y-79966237D01*
X162710996Y-80270298D01*
X162218759Y-80571728D01*
X161727496Y-80899587D01*
X161191677Y-81282934D01*
X160605312Y-81720888D01*
X159212601Y-82708801D01*
X157808632Y-83569265D01*
X156378652Y-84307454D01*
X154907908Y-84928543D01*
X153381649Y-85437707D01*
X151785121Y-85840119D01*
X150103573Y-86140955D01*
X148322252Y-86345390D01*
X147196829Y-86424072D01*
X146646211Y-86448012D01*
X145957915Y-86468393D01*
X145163332Y-86485169D01*
X144293851Y-86498292D01*
X143380862Y-86507716D01*
X142455755Y-86513392D01*
X141549919Y-86515275D01*
X140694744Y-86513316D01*
X139921620Y-86507468D01*
X139261937Y-86497685D01*
X138747083Y-86483919D01*
X138408450Y-86466123D01*
X138277426Y-86444249D01*
X138282049Y-86437471D01*
X138433472Y-86417156D01*
X138797467Y-86390699D01*
X139339251Y-86359942D01*
X140024042Y-86326732D01*
X140817056Y-86292912D01*
X141497317Y-86266971D01*
X143333557Y-86195976D01*
X144946340Y-86123393D01*
X146360015Y-86047363D01*
X147598930Y-85966030D01*
X148687432Y-85877534D01*
X149649871Y-85780019D01*
X150510593Y-85671626D01*
X151293947Y-85550497D01*
X151603369Y-85495814D01*
X152714818Y-85256586D01*
X153896191Y-84939848D01*
X155060656Y-84570818D01*
X156043985Y-84206159D01*
X156861142Y-83865539D01*
X157574568Y-83539924D01*
X158220362Y-83207961D01*
X158834624Y-82848299D01*
X159453453Y-82439586D01*
X160112949Y-81960471D01*
X160849210Y-81389602D01*
X160974672Y-81289818D01*
X161318608Y-81019352D01*
X161636531Y-80780816D01*
X161954039Y-80559054D01*
X162296728Y-80338911D01*
X162690195Y-80105229D01*
X163160036Y-79842854D01*
X163731850Y-79536629D01*
X164431232Y-79171397D01*
X165283780Y-78732004D01*
X165364805Y-78690404D01*
X166380032Y-78173200D01*
X167273805Y-77729030D01*
X168083563Y-77342901D01*
X168846741Y-76999820D01*
X169600776Y-76684796D01*
X170383106Y-76382837D01*
X171231167Y-76078949D01*
X172182395Y-75758140D01*
X173274228Y-75405419D01*
X174544103Y-75005793D01*
X174641220Y-74975492D01*
X175512926Y-74700514D01*
X176454126Y-74398308D01*
X177396169Y-74091274D01*
X178270405Y-73801811D01*
X179008182Y-73552318D01*
X179101707Y-73520116D01*
X179899283Y-73247935D01*
X180802419Y-72944978D01*
X181720150Y-72641449D01*
X182561512Y-72367555D01*
X182880732Y-72265278D01*
X183737872Y-71984189D01*
X184423468Y-71738751D01*
X184990397Y-71508374D01*
X185491536Y-71272466D01*
X185677315Y-71176241D01*
X186306610Y-70817952D01*
X186749038Y-70500452D01*
X187030403Y-70196449D01*
X187176512Y-69878652D01*
X187213661Y-69551436D01*
X187180742Y-69237384D01*
X187070264Y-68960628D01*
X186857930Y-68696362D01*
X186519443Y-68419775D01*
X186030505Y-68106059D01*
X185503983Y-67805757D01*
X184882464Y-67452109D01*
X184427581Y-67163357D01*
X184118084Y-66917913D01*
X183932719Y-66694191D01*
X183850236Y-66470607D01*
X183849382Y-66225572D01*
X183862921Y-66138873D01*
X183896479Y-65883421D01*
X183870238Y-65700572D01*
X183765669Y-65532147D01*
X183619757Y-65375318D01*
X183236614Y-65049215D01*
X182675037Y-64657378D01*
X181955906Y-64212885D01*
X181100105Y-63728813D01*
X180386140Y-63350244D01*
X179766124Y-63036880D01*
X179037607Y-62680388D01*
X178230445Y-62294373D01*
X177374495Y-61892442D01*
X176499610Y-61488199D01*
X175635646Y-61095250D01*
X174812460Y-60727202D01*
X174059906Y-60397659D01*
X173407840Y-60120227D01*
X172886117Y-59908513D01*
X172596829Y-59800517D01*
X172226257Y-59677412D01*
X171676844Y-59503046D01*
X170987582Y-59289394D01*
X170197465Y-59048427D01*
X169345482Y-58792120D01*
X168470628Y-58532443D01*
X168384146Y-58506975D01*
X167035785Y-58108635D01*
X165883610Y-57764539D01*
X164904388Y-57467290D01*
X164074884Y-57209493D01*
X163371864Y-56983752D01*
X162772095Y-56782671D01*
X162252344Y-56598854D01*
X161789375Y-56424906D01*
X161561438Y-56335128D01*
X160891730Y-56045003D01*
X160181867Y-55699748D01*
X159489218Y-55330296D01*
X158871151Y-54967580D01*
X158385035Y-54642531D01*
X158294476Y-54573640D01*
X158030764Y-54349531D01*
X157702225Y-54045302D01*
X157333049Y-53686073D01*
X156947426Y-53296964D01*
X156569546Y-52903095D01*
X156223600Y-52529586D01*
X155933777Y-52201557D01*
X155724267Y-51944128D01*
X155632797Y-51809648D01*
X155442283Y-51245609D01*
X155459629Y-50650858D01*
X155670350Y-50053245D01*
X156059964Y-49480620D01*
X156613986Y-48960833D01*
X157317933Y-48521734D01*
X157351342Y-48505088D01*
X157866947Y-48278390D01*
X158410032Y-48104687D01*
X159053397Y-47964828D01*
X159869843Y-47839662D01*
X159892225Y-47836673D01*
X160492722Y-47761834D01*
X160978158Y-47719910D01*
X161419825Y-47712314D01*
X161889012Y-47740460D01*
X162457009Y-47805759D01*
X163135691Y-47900966D01*
X164579564Y-48152024D01*
X165823225Y-48459543D01*
X166898774Y-48833823D01*
X167838311Y-49285161D01*
X168280550Y-49551638D01*
X169544585Y-50474274D01*
X170630156Y-51488311D01*
X171537979Y-52594431D01*
X171664343Y-52776401D01*
X172019989Y-53266265D01*
X172352728Y-53645218D01*
X172684027Y-53932839D01*
X173035358Y-54148710D01*
X173295523Y-54264070D01*
X173738216Y-54418329D01*
X174188649Y-54532110D01*
X174694915Y-54611007D01*
X175305104Y-54660610D01*
X176067310Y-54686513D01*
X176995366Y-54694281D01*
X177708039Y-54692161D01*
X178319688Y-54682028D01*
X178893456Y-54660430D01*
X179492488Y-54623914D01*
X180179928Y-54569029D01*
X181018919Y-54492322D01*
X181455854Y-54450431D01*
X182603594Y-54340079D01*
X183549611Y-54251925D01*
X184335837Y-54183990D01*
X185004205Y-54134298D01*
X185596645Y-54100871D01*
X186155090Y-54081734D01*
X186721472Y-54074908D01*
X187337722Y-54078416D01*
X188045772Y-54090282D01*
X188765545Y-54105786D01*
X190428597Y-54136198D01*
X191961260Y-54150387D01*
X193341655Y-54148563D01*
X194547901Y-54130932D01*
X195558118Y-54097703D01*
X196350427Y-54049083D01*
X196537822Y-54031983D01*
X198208430Y-53805361D01*
X199733501Y-53477731D01*
X201103280Y-53053866D01*
X202308012Y-52538536D01*
X203337940Y-51936514D01*
X204183309Y-51252571D01*
X204834364Y-50491477D01*
X205230799Y-49780303D01*
X205422207Y-49239862D01*
X205482512Y-48791476D01*
X205411892Y-48414705D01*
X205245122Y-48130549D01*
X205102356Y-47941096D01*
X205012797Y-47800736D01*
X204997317Y-47760298D01*
X205119271Y-47750390D01*
X205477347Y-47741210D01*
X206059863Y-47732817D01*
X206855141Y-47725271D01*
X207851498Y-47718630D01*
X209037256Y-47712954D01*
X210400733Y-47708301D01*
X211930250Y-47704731D01*
X213614126Y-47702302D01*
X215440680Y-47701074D01*
X216737073Y-47700953D01*
X218706162Y-47701292D01*
G37*
G36*
X212798135Y-107536539D02*
G01*
X213502612Y-107559524D01*
X214124671Y-107591278D01*
X214491014Y-107619611D01*
X215875055Y-107785229D01*
X217145878Y-107996709D01*
X218286208Y-108247747D01*
X219278768Y-108532040D01*
X220106282Y-108843285D01*
X220751475Y-109175178D01*
X221197069Y-109521416D01*
X221425789Y-109875696D01*
X221442068Y-110155742D01*
X221261831Y-110447180D01*
X220860691Y-110736608D01*
X220265186Y-111014842D01*
X219501855Y-111272697D01*
X218597236Y-111500988D01*
X217577868Y-111690532D01*
X216653724Y-111812932D01*
X216354273Y-111842413D01*
X216029725Y-111866567D01*
X215653054Y-111885899D01*
X215197230Y-111900915D01*
X214635225Y-111912121D01*
X213940011Y-111920021D01*
X213084559Y-111925122D01*
X212041841Y-111927929D01*
X210784828Y-111928948D01*
X210449024Y-111928982D01*
X209018470Y-111927819D01*
X207810953Y-111923634D01*
X206801733Y-111915381D01*
X205966070Y-111902016D01*
X205279223Y-111882494D01*
X204716453Y-111855769D01*
X204253019Y-111820798D01*
X203864182Y-111776534D01*
X203525201Y-111721933D01*
X203211335Y-111655950D01*
X203048258Y-111616397D01*
X202520524Y-111440102D01*
X202198332Y-111217022D01*
X202057110Y-110923781D01*
X202052268Y-110668930D01*
X202223048Y-110194305D01*
X202619371Y-109737660D01*
X203219880Y-109305673D01*
X204003213Y-108905023D01*
X204948012Y-108542388D01*
X206032917Y-108224446D01*
X207236569Y-107957876D01*
X208537608Y-107749357D01*
X209914674Y-107605566D01*
X211346408Y-107533182D01*
X212104371Y-107525974D01*
X212798135Y-107536539D01*
G37*
G36*
X19289811Y-50516114D02*
G01*
X19562817Y-50594545D01*
X19935409Y-50704429D01*
X19949024Y-50708486D01*
X21359665Y-51128561D01*
X22578508Y-51490236D01*
X23629829Y-51800047D01*
X24537904Y-52064532D01*
X25327010Y-52290227D01*
X26021423Y-52483671D01*
X26645418Y-52651400D01*
X27223272Y-52799952D01*
X27779261Y-52935864D01*
X28337660Y-53065672D01*
X28922747Y-53195915D01*
X29558798Y-53333130D01*
X30202210Y-53469534D01*
X31569333Y-53763218D01*
X32764457Y-54034665D01*
X33817322Y-54295687D01*
X34757667Y-54558100D01*
X35615232Y-54833717D01*
X36419757Y-55134353D01*
X37200980Y-55471822D01*
X37988643Y-55857939D01*
X38812485Y-56304517D01*
X39702245Y-56823371D01*
X40687663Y-57426316D01*
X41591461Y-57993989D01*
X42352159Y-58474193D01*
X42983422Y-58866836D01*
X43515097Y-59185965D01*
X43977028Y-59445627D01*
X44399062Y-59659870D01*
X44811044Y-59842740D01*
X45242820Y-60008286D01*
X45724237Y-60170554D01*
X46285139Y-60343591D01*
X46955372Y-60541445D01*
X47083659Y-60578946D01*
X48159401Y-60888028D01*
X49231278Y-61184559D01*
X50329454Y-61475930D01*
X51484096Y-61769531D01*
X52725368Y-62072752D01*
X54083437Y-62392984D01*
X55588466Y-62737619D01*
X57270623Y-63114045D01*
X58854390Y-63462804D01*
X60338666Y-63784569D01*
X61650288Y-64061338D01*
X62841938Y-64303308D01*
X63966293Y-64520674D01*
X65076033Y-64723633D01*
X66223837Y-64922382D01*
X67403659Y-65117583D01*
X68918702Y-65372181D01*
X70391753Y-65638187D01*
X71876875Y-65926384D01*
X73428132Y-66247552D01*
X75099585Y-66612473D01*
X76571246Y-66945826D01*
X78264590Y-67322952D01*
X79997239Y-67687441D01*
X81682215Y-68021480D01*
X83139268Y-68290801D01*
X84064513Y-68455594D01*
X84997216Y-68623492D01*
X85885155Y-68784964D01*
X86676112Y-68930480D01*
X87317866Y-69050511D01*
X87631502Y-69110592D01*
X89096215Y-69381981D01*
X90558470Y-69623615D01*
X92071662Y-69842878D01*
X93689181Y-70047151D01*
X95464421Y-70243815D01*
X96797328Y-70377783D01*
X99494390Y-70639526D01*
X102096341Y-71332946D01*
X103038117Y-71590713D01*
X104090122Y-71889940D01*
X105168744Y-72206118D01*
X106190370Y-72514738D01*
X107070721Y-72791075D01*
X108402188Y-73212779D01*
X109593386Y-73572424D01*
X110703910Y-73886363D01*
X111793357Y-74170952D01*
X112921321Y-74442542D01*
X113867073Y-74656070D01*
X114618419Y-74822444D01*
X115424212Y-75002127D01*
X116193631Y-75174798D01*
X116835857Y-75320132D01*
X116902683Y-75335368D01*
X117553262Y-75469389D01*
X118399719Y-75621127D01*
X119394784Y-75782706D01*
X120491184Y-75946252D01*
X120991463Y-76016522D01*
X123383456Y-76372975D01*
X125536673Y-76750496D01*
X127457428Y-77150562D01*
X129152033Y-77574649D01*
X130626800Y-78024233D01*
X131888041Y-78500793D01*
X132205454Y-78640023D01*
X133641946Y-79360980D01*
X134837571Y-80110769D01*
X135793791Y-80890496D01*
X136512069Y-81701267D01*
X136763381Y-82085640D01*
X137130315Y-82842222D01*
X137305643Y-83542963D01*
X137290293Y-84215525D01*
X137085194Y-84887569D01*
X136871420Y-85302089D01*
X136661633Y-85661767D01*
X136505626Y-85912923D01*
X136385142Y-86052742D01*
X136281924Y-86078406D01*
X136177715Y-85987098D01*
X136054259Y-85776001D01*
X135893298Y-85442298D01*
X135745767Y-85128407D01*
X135110987Y-83933359D01*
X134388157Y-82852304D01*
X133564979Y-81872949D01*
X132629154Y-80982997D01*
X131568383Y-80170156D01*
X130370367Y-79422130D01*
X129649821Y-79034563D01*
X128805555Y-78626808D01*
X128005912Y-78298058D01*
X127162402Y-78015443D01*
X126186535Y-77746093D01*
X126169357Y-77741711D01*
X125346812Y-77551012D01*
X124521529Y-77402313D01*
X123648798Y-77291474D01*
X122683911Y-77214355D01*
X121582158Y-77166814D01*
X120298831Y-77144713D01*
X119693738Y-77142018D01*
X118578238Y-77138552D01*
X117659531Y-77128326D01*
X116886623Y-77106228D01*
X116208520Y-77067142D01*
X115574230Y-77005954D01*
X114932759Y-76917550D01*
X114233113Y-76796815D01*
X113424300Y-76638635D01*
X112455326Y-76437895D01*
X112256341Y-76396086D01*
X111250625Y-76184028D01*
X110370596Y-75996906D01*
X109579177Y-75826234D01*
X108839289Y-75663524D01*
X108113854Y-75500291D01*
X107365792Y-75328048D01*
X106558026Y-75138309D01*
X105653477Y-74922587D01*
X104615066Y-74672396D01*
X103405715Y-74379249D01*
X102777805Y-74226669D01*
X101440461Y-73903030D01*
X100297003Y-73630142D01*
X99317608Y-73401700D01*
X98472458Y-73211399D01*
X97731733Y-73052933D01*
X97065611Y-72919998D01*
X96444272Y-72806287D01*
X95837897Y-72705495D01*
X95216665Y-72611318D01*
X94971951Y-72576159D01*
X93985024Y-72443169D01*
X93082281Y-72339014D01*
X92197057Y-72258444D01*
X91262687Y-72196210D01*
X90212503Y-72147065D01*
X89007872Y-72106575D01*
X88121581Y-72079723D01*
X87072318Y-72046416D01*
X85944314Y-72009421D01*
X84821802Y-71971504D01*
X83789014Y-71935432D01*
X83696829Y-71932137D01*
X81947917Y-71881693D01*
X80397343Y-71863940D01*
X79003169Y-71879126D01*
X77723456Y-71927498D01*
X77006098Y-71971635D01*
X76499059Y-72002849D01*
X75860418Y-72035750D01*
X75205982Y-72064507D01*
X75023659Y-72071462D01*
X74155673Y-72112947D01*
X73359127Y-72175283D01*
X72570951Y-72266568D01*
X71728077Y-72394894D01*
X70767433Y-72568358D01*
X70040481Y-72711056D01*
X68801212Y-72963940D01*
X67754744Y-73187342D01*
X66857459Y-73391521D01*
X66065738Y-73586738D01*
X65335964Y-73783252D01*
X64719354Y-73962703D01*
X64279734Y-74097033D01*
X63844577Y-74235549D01*
X63378441Y-74390434D01*
X62845882Y-74573871D01*
X62211459Y-74798042D01*
X61439730Y-75075131D01*
X60631053Y-75367997D01*
X60130096Y-75532452D01*
X59587083Y-75671695D01*
X58954073Y-75794710D01*
X58183127Y-75910479D01*
X57226303Y-76027985D01*
X56933902Y-76060731D01*
X55325045Y-76198462D01*
X53845996Y-76244000D01*
X52507464Y-76198234D01*
X51320154Y-76062051D01*
X50294775Y-75836341D01*
X49442032Y-75521990D01*
X49244394Y-75422898D01*
X48711928Y-75059312D01*
X48389545Y-74643913D01*
X48264682Y-74159341D01*
X48262202Y-74065863D01*
X48295124Y-73738391D01*
X48402143Y-73412600D01*
X48599353Y-73057641D01*
X48902847Y-72642669D01*
X49177753Y-72310923D01*
X49595987Y-71789383D01*
X49880524Y-71350004D01*
X50043176Y-70967585D01*
X50095753Y-70616923D01*
X50076387Y-70393467D01*
X49878381Y-69895892D01*
X49468205Y-69463482D01*
X48843965Y-69095200D01*
X48003767Y-68790013D01*
X46945714Y-68546886D01*
X46582757Y-68485458D01*
X45828818Y-68406634D01*
X44871667Y-68371906D01*
X43741581Y-68380942D01*
X42468837Y-68433410D01*
X41083714Y-68528977D01*
X40853772Y-68548239D01*
X39959011Y-68619595D01*
X38932080Y-68692934D01*
X37887945Y-68760512D01*
X36941575Y-68814589D01*
X36764992Y-68823556D01*
X35988597Y-68862910D01*
X35218531Y-68903727D01*
X34523185Y-68942260D01*
X33970946Y-68974761D01*
X33764146Y-68987960D01*
X33281904Y-69016756D01*
X32633201Y-69050738D01*
X31898789Y-69085892D01*
X31159414Y-69118204D01*
X31073710Y-69121719D01*
X30441352Y-69145634D01*
X29902150Y-69158807D01*
X29416400Y-69157876D01*
X28944394Y-69139480D01*
X28446426Y-69100255D01*
X27882788Y-69036840D01*
X27213775Y-68945873D01*
X26399679Y-68823992D01*
X25400795Y-68667835D01*
X25040947Y-68610917D01*
X24144316Y-68469928D01*
X23437431Y-68362585D01*
X22873062Y-68283759D01*
X22403977Y-68228319D01*
X21982944Y-68191134D01*
X21562732Y-68167074D01*
X21096111Y-68151009D01*
X20723415Y-68141925D01*
X19143659Y-68106528D01*
X19143659Y-59295692D01*
X19143887Y-58226202D01*
X19144555Y-57193902D01*
X19145635Y-56206496D01*
X19147100Y-55271685D01*
X19148923Y-54397171D01*
X19151077Y-53590656D01*
X19153535Y-52859842D01*
X19156269Y-52212430D01*
X19159253Y-51656122D01*
X19162460Y-51198621D01*
X19165862Y-50847627D01*
X19169432Y-50610844D01*
X19173144Y-50495972D01*
X19174634Y-50485879D01*
X19289811Y-50516114D01*
G37*
G36*
X136270254Y-86791612D02*
G01*
X136366316Y-86949814D01*
X136497739Y-87201667D01*
X136655346Y-87529256D01*
X136829955Y-87914667D01*
X136898333Y-88071349D01*
X137098900Y-88518489D01*
X137308639Y-88956193D01*
X137512622Y-89355384D01*
X137695924Y-89686984D01*
X137843619Y-89921916D01*
X137859828Y-89944387D01*
X138120664Y-90255660D01*
X138494835Y-90645661D01*
X138950805Y-91085512D01*
X139457036Y-91546331D01*
X139981990Y-91999240D01*
X140494130Y-92415359D01*
X140864650Y-92695983D01*
X141805553Y-93313784D01*
X142857626Y-93887442D01*
X143978353Y-94398278D01*
X145125216Y-94827613D01*
X146255698Y-95156768D01*
X146690915Y-95255602D01*
X147295338Y-95375687D01*
X147846866Y-95470567D01*
X148385629Y-95542783D01*
X148951757Y-95594875D01*
X149585379Y-95629387D01*
X150326625Y-95648857D01*
X151215625Y-95655828D01*
X152292508Y-95652841D01*
X152896341Y-95648549D01*
X154568100Y-95635655D01*
X156014169Y-95625889D01*
X157256606Y-95619499D01*
X158317470Y-95616734D01*
X159218817Y-95617844D01*
X159982706Y-95623076D01*
X160631192Y-95632681D01*
X161186335Y-95646908D01*
X161670192Y-95666004D01*
X162104819Y-95690220D01*
X162512275Y-95719805D01*
X162914618Y-95755006D01*
X162994390Y-95762550D01*
X165655130Y-95977262D01*
X168316090Y-96116182D01*
X169561220Y-96153840D01*
X170204161Y-96164812D01*
X170814679Y-96166243D01*
X171442740Y-96156725D01*
X172138312Y-96134850D01*
X172951364Y-96099209D01*
X173931865Y-96048393D01*
X174579268Y-96012413D01*
X176247788Y-95929520D01*
X177754361Y-95882375D01*
X179142534Y-95874255D01*
X180455851Y-95908437D01*
X181737856Y-95988199D01*
X183032094Y-96116817D01*
X184382110Y-96297569D01*
X185831448Y-96533732D01*
X187423653Y-96828583D01*
X188642195Y-97070774D01*
X189829632Y-97309808D01*
X190838119Y-97507867D01*
X191717882Y-97674430D01*
X192519150Y-97818975D01*
X193292148Y-97950982D01*
X193406901Y-97969980D01*
X193876336Y-98062994D01*
X194472769Y-98203522D01*
X195110976Y-98370593D01*
X195575194Y-98503518D01*
X196399311Y-98742204D01*
X197156565Y-98940021D01*
X197883662Y-99101310D01*
X198617305Y-99230408D01*
X199394201Y-99331657D01*
X200251054Y-99409394D01*
X201224570Y-99467961D01*
X202351454Y-99511696D01*
X203668410Y-99544939D01*
X204518601Y-99560863D01*
X205456416Y-99578073D01*
X206315137Y-99596109D01*
X207063200Y-99614127D01*
X207669041Y-99631284D01*
X208101095Y-99646735D01*
X208327796Y-99659639D01*
X208352546Y-99663315D01*
X208590933Y-99695358D01*
X209026537Y-99710471D01*
X209611105Y-99709889D01*
X210296383Y-99694846D01*
X211034118Y-99666577D01*
X211776058Y-99626316D01*
X212473948Y-99575297D01*
X212741220Y-99551064D01*
X213844784Y-99455755D01*
X214747660Y-99405522D01*
X215482194Y-99400331D01*
X216080729Y-99440149D01*
X216575612Y-99524941D01*
X216663730Y-99546959D01*
X216984353Y-99650087D01*
X217465613Y-99830095D01*
X218082033Y-100076292D01*
X218808133Y-100377988D01*
X219618436Y-100724492D01*
X220487463Y-101105113D01*
X221389735Y-101509160D01*
X221962409Y-101770301D01*
X222833533Y-102157098D01*
X223632858Y-102478805D01*
X224432824Y-102760487D01*
X225305869Y-103027210D01*
X226324435Y-103304040D01*
X226601384Y-103375482D01*
X227811480Y-103665388D01*
X229049952Y-103920231D01*
X230358443Y-104146414D01*
X231778597Y-104350340D01*
X233352057Y-104538409D01*
X235120467Y-104717026D01*
X235634685Y-104764275D01*
X237518849Y-104916520D01*
X239263967Y-105016844D01*
X240907853Y-105062719D01*
X242488323Y-105051622D01*
X244043189Y-104981025D01*
X245610266Y-104848404D01*
X247227368Y-104651234D01*
X248932311Y-104386988D01*
X250762907Y-104053140D01*
X252756971Y-103647167D01*
X252938230Y-103608609D01*
X254002889Y-103391016D01*
X254875173Y-103234835D01*
X255579039Y-103136788D01*
X256138447Y-103093596D01*
X256577355Y-103101983D01*
X256615347Y-103105513D01*
X257036341Y-103147786D01*
X257036341Y-112495695D01*
X257035675Y-113597839D01*
X257033726Y-114663030D01*
X257030572Y-115683789D01*
X257026289Y-116652638D01*
X257020954Y-117562098D01*
X257014643Y-118404691D01*
X257007434Y-119172938D01*
X256999401Y-119859360D01*
X256990623Y-120456480D01*
X256981176Y-120956819D01*
X256971136Y-121352898D01*
X256960581Y-121637239D01*
X256949585Y-121802364D01*
X256940587Y-121843603D01*
X256792168Y-121838251D01*
X256437394Y-121823370D01*
X255916814Y-121800724D01*
X255270979Y-121772076D01*
X254555465Y-121739871D01*
X253645029Y-121702214D01*
X252584231Y-121664096D01*
X251470423Y-121628670D01*
X250400955Y-121599089D01*
X249726098Y-121583450D01*
X247186098Y-121530760D01*
X243257510Y-120694306D01*
X242272293Y-120486537D01*
X241310525Y-120287429D01*
X240409139Y-120104354D01*
X239605068Y-119944684D01*
X238935245Y-119815792D01*
X238436602Y-119725050D01*
X238239462Y-119692665D01*
X237675636Y-119607742D01*
X236967254Y-119501872D01*
X236208768Y-119389135D01*
X235556433Y-119292711D01*
X234399072Y-119106046D01*
X233457425Y-118916715D01*
X232699592Y-118716834D01*
X232093673Y-118498519D01*
X231813369Y-118367606D01*
X231461790Y-118149622D01*
X231292593Y-117940233D01*
X231314335Y-117729435D01*
X231535571Y-117507225D01*
X231964859Y-117263598D01*
X232610755Y-116988550D01*
X233170144Y-116781283D01*
X233775450Y-116568308D01*
X234312223Y-116387679D01*
X234816873Y-116230497D01*
X235325811Y-116087863D01*
X235875445Y-115950878D01*
X236502188Y-115810644D01*
X237242448Y-115658262D01*
X238132635Y-115484833D01*
X239209161Y-115281458D01*
X239624308Y-115203869D01*
X240564711Y-115026186D01*
X241305685Y-114880008D01*
X241883922Y-114756586D01*
X242336112Y-114647173D01*
X242698946Y-114543021D01*
X243009113Y-114435381D01*
X243244190Y-114340792D01*
X243826093Y-114028627D01*
X244168400Y-113685400D01*
X244273755Y-113331694D01*
X244220601Y-113031384D01*
X244038596Y-112766039D01*
X243695873Y-112502039D01*
X243249509Y-112251066D01*
X242889475Y-112081277D01*
X242353111Y-111849609D01*
X241670230Y-111567790D01*
X240870646Y-111247549D01*
X239984171Y-110900616D01*
X239040619Y-110538719D01*
X238069803Y-110173587D01*
X237101537Y-109816948D01*
X236612976Y-109640195D01*
X235915102Y-109387230D01*
X235189882Y-109120598D01*
X234503627Y-108864924D01*
X233922648Y-108644834D01*
X233680732Y-108551286D01*
X233017892Y-108306943D01*
X232299373Y-108073100D01*
X231495369Y-107842172D01*
X230576077Y-107606574D01*
X229511692Y-107358721D01*
X228272409Y-107091028D01*
X226828424Y-106795910D01*
X226618293Y-106753975D01*
X225382314Y-106508672D01*
X224346984Y-106305356D01*
X223481439Y-106138711D01*
X222754821Y-106003420D01*
X222136268Y-105894164D01*
X221594920Y-105805626D01*
X221099915Y-105732488D01*
X220620393Y-105669433D01*
X220125494Y-105611143D01*
X219741707Y-105569074D01*
X218943506Y-105487234D01*
X218192596Y-105419711D01*
X217453379Y-105365175D01*
X216690255Y-105322296D01*
X215867626Y-105289742D01*
X214949892Y-105266184D01*
X213901453Y-105250289D01*
X212686712Y-105240729D01*
X211270068Y-105236170D01*
X210820732Y-105235598D01*
X206174390Y-105231240D01*
X204968262Y-105409320D01*
X203974488Y-105576332D01*
X202895772Y-105791771D01*
X201833277Y-106033672D01*
X200888167Y-106280071D01*
X200680425Y-106340293D01*
X200386422Y-106432399D01*
X199920178Y-106584222D01*
X199317861Y-106783721D01*
X198615635Y-107018851D01*
X197849666Y-107277570D01*
X197129512Y-107522740D01*
X195976399Y-107913703D01*
X194993623Y-108238289D01*
X194147285Y-108505241D01*
X193403485Y-108723297D01*
X192728325Y-108901199D01*
X192087905Y-109047686D01*
X191448326Y-109171498D01*
X190775689Y-109281376D01*
X190036094Y-109386061D01*
X189762779Y-109422098D01*
X188183722Y-109561302D01*
X186520816Y-109581793D01*
X184797180Y-109484501D01*
X183035928Y-109270357D01*
X182119332Y-109114337D01*
X181480782Y-109010090D01*
X180726092Y-108909257D01*
X179985655Y-108828670D01*
X179740789Y-108807305D01*
X178845070Y-108719653D01*
X178017577Y-108607752D01*
X177290608Y-108478655D01*
X176696464Y-108339412D01*
X176267442Y-108197075D01*
X176035841Y-108058697D01*
X176004146Y-107991523D01*
X176052913Y-107901702D01*
X176211974Y-107785837D01*
X176500471Y-107634865D01*
X176937545Y-107439719D01*
X177542337Y-107191335D01*
X178333988Y-106880649D01*
X178420244Y-106847319D01*
X180031595Y-106174575D01*
X181398306Y-105493793D01*
X182523321Y-104802518D01*
X183409587Y-104098296D01*
X184060047Y-103378672D01*
X184477647Y-102641191D01*
X184665332Y-101883399D01*
X184677317Y-101631993D01*
X184594150Y-100946151D01*
X184333205Y-100330381D01*
X183877318Y-99763233D01*
X183209321Y-99223256D01*
X182329846Y-98698434D01*
X181654201Y-98365407D01*
X180965266Y-98084998D01*
X180206950Y-97839293D01*
X179323161Y-97610377D01*
X178257807Y-97380337D01*
X178110488Y-97350891D01*
X177315672Y-97199630D01*
X176618193Y-97085317D01*
X175965144Y-97004498D01*
X175303620Y-96953718D01*
X174580714Y-96929521D01*
X173743519Y-96928453D01*
X172739128Y-96947058D01*
X172163171Y-96962502D01*
X170623468Y-96996588D01*
X169300477Y-97004197D01*
X168168120Y-96985410D01*
X167888537Y-96975700D01*
X166516318Y-96933286D01*
X165117206Y-96910760D01*
X163726649Y-96907297D01*
X162380098Y-96922076D01*
X161113000Y-96954271D01*
X159960806Y-97003061D01*
X158958965Y-97067621D01*
X158142925Y-97147129D01*
X157694368Y-97212450D01*
X157191534Y-97313870D01*
X156515824Y-97468122D01*
X155711228Y-97663863D01*
X154821737Y-97889750D01*
X153891340Y-98134437D01*
X152964028Y-98386582D01*
X152083792Y-98634841D01*
X151409512Y-98833114D01*
X150410626Y-99121267D01*
X149534317Y-99340327D01*
X148719238Y-99498198D01*
X147904042Y-99602787D01*
X147027379Y-99662000D01*
X146027904Y-99683742D01*
X144866887Y-99676266D01*
X143952294Y-99657798D01*
X143215354Y-99628792D01*
X142586002Y-99582141D01*
X141994170Y-99510736D01*
X141369789Y-99407470D01*
X140642794Y-99265233D01*
X140475387Y-99230753D01*
X139284699Y-98914549D01*
X138208373Y-98482627D01*
X137245797Y-97934500D01*
X136396361Y-97269683D01*
X135659456Y-96487690D01*
X135034470Y-95588036D01*
X134520795Y-94570236D01*
X134472289Y-94454047D01*
X134305769Y-93903973D01*
X134207193Y-93255450D01*
X134174392Y-92537248D01*
X134205195Y-91778137D01*
X134297432Y-91006884D01*
X134448935Y-90252260D01*
X134657531Y-89543033D01*
X134884970Y-88982768D01*
X135017553Y-88718237D01*
X135188816Y-88400335D01*
X135384005Y-88053816D01*
X135588367Y-87703431D01*
X135787149Y-87373933D01*
X135965599Y-87090074D01*
X136108964Y-86876607D01*
X136202491Y-86758284D01*
X136218733Y-86744978D01*
X136270254Y-86791612D01*
G37*
G36*
X97979607Y-48174467D02*
G01*
X98382992Y-48342703D01*
X98787470Y-48506283D01*
X99220027Y-48675162D01*
X99707646Y-48859293D01*
X100277311Y-49068631D01*
X100956005Y-49313129D01*
X101770714Y-49602743D01*
X102748421Y-49947427D01*
X103521220Y-50218727D01*
X104626933Y-50617111D01*
X105551044Y-50977550D01*
X106334107Y-51320862D01*
X107016673Y-51667869D01*
X107639296Y-52039390D01*
X108242527Y-52456248D01*
X108866921Y-52939262D01*
X108948027Y-53004961D01*
X109909845Y-53729028D01*
X110944933Y-54387896D01*
X112101924Y-55008866D01*
X113429450Y-55619240D01*
X114114878Y-55905645D01*
X114690559Y-56145330D01*
X115392728Y-56446177D01*
X116161408Y-56781988D01*
X116936622Y-57126565D01*
X117646098Y-57448071D01*
X118739957Y-57944493D01*
X119699988Y-58367638D01*
X120571471Y-58735890D01*
X121399687Y-59067633D01*
X122229919Y-59381251D01*
X123107447Y-59695129D01*
X123600757Y-59865672D01*
X125020655Y-60328403D01*
X126369663Y-60721590D01*
X127618099Y-61037345D01*
X128736281Y-61267777D01*
X129107073Y-61329223D01*
X129526042Y-61383446D01*
X130150879Y-61450909D01*
X130941682Y-61527907D01*
X131858545Y-61610732D01*
X132861565Y-61695678D01*
X133910836Y-61779037D01*
X134125122Y-61795373D01*
X135555151Y-61905189D01*
X136768597Y-62002835D01*
X137794883Y-62092077D01*
X138663437Y-62176682D01*
X139403684Y-62260418D01*
X140045048Y-62347050D01*
X140616957Y-62440345D01*
X141148835Y-62544070D01*
X141670107Y-62661992D01*
X142210200Y-62797878D01*
X142448066Y-62860768D01*
X143044118Y-63029084D01*
X143455010Y-63175455D01*
X143726374Y-63326232D01*
X143903842Y-63507765D01*
X144033048Y-63746406D01*
X144049818Y-63785718D01*
X144132327Y-64195992D01*
X144005222Y-64541645D01*
X143673483Y-64826566D01*
X143459673Y-64940581D01*
X143241458Y-65007230D01*
X142937428Y-65042470D01*
X142472076Y-65062085D01*
X142145008Y-65068272D01*
X141828822Y-65063581D01*
X141492361Y-65043991D01*
X141104470Y-65005480D01*
X140633992Y-64944026D01*
X140049771Y-64855608D01*
X139320652Y-64736204D01*
X138415477Y-64581792D01*
X137446151Y-64413340D01*
X136110980Y-64184398D01*
X134954702Y-63996172D01*
X133925265Y-63841287D01*
X132970619Y-63712366D01*
X132038715Y-63602034D01*
X131077501Y-63502917D01*
X130903659Y-63486295D01*
X130209051Y-63427667D01*
X129312164Y-63362939D01*
X128258002Y-63294601D01*
X127091569Y-63225144D01*
X125857870Y-63157059D01*
X124601910Y-63092835D01*
X123368694Y-63034963D01*
X122203226Y-62985933D01*
X121222053Y-62950535D01*
X120305235Y-62918663D01*
X119274264Y-62879365D01*
X118238359Y-62837001D01*
X117306740Y-62795935D01*
X117055526Y-62784118D01*
X116247291Y-62752188D01*
X115279873Y-62724706D01*
X114241849Y-62703560D01*
X113221796Y-62690633D01*
X112515972Y-62687468D01*
X111602361Y-62684823D01*
X110828306Y-62672901D01*
X110153327Y-62645719D01*
X109536949Y-62597297D01*
X108938694Y-62521651D01*
X108318083Y-62412801D01*
X107634640Y-62264764D01*
X106847886Y-62071559D01*
X105917345Y-61827203D01*
X104978495Y-61573565D01*
X104133196Y-61348194D01*
X103295771Y-61132871D01*
X102511218Y-60938577D01*
X101824539Y-60776292D01*
X101280734Y-60656999D01*
X101009021Y-60604926D01*
X100019234Y-60453870D01*
X98908953Y-60313615D01*
X97771760Y-60194227D01*
X96701239Y-60105775D01*
X95996998Y-60065735D01*
X95408760Y-60053618D01*
X94632412Y-60055843D01*
X93725810Y-60070636D01*
X92746814Y-60096220D01*
X91753280Y-60130819D01*
X90803066Y-60172659D01*
X89954031Y-60219963D01*
X89264031Y-60270955D01*
X89239641Y-60273129D01*
X87973305Y-60423125D01*
X86770267Y-60635203D01*
X85658430Y-60899986D01*
X84665697Y-61208096D01*
X83819972Y-61550155D01*
X83149160Y-61916786D01*
X82681163Y-62298611D01*
X82506713Y-62535872D01*
X82373669Y-63013103D01*
X82473883Y-63508903D01*
X82796967Y-64017640D01*
X83332534Y-64533685D01*
X84070196Y-65051405D01*
X84999566Y-65565171D01*
X86110255Y-66069352D01*
X87391876Y-66558317D01*
X88834042Y-67026435D01*
X90426364Y-67468076D01*
X92158455Y-67877608D01*
X92493902Y-67949512D01*
X93559494Y-68161109D01*
X94591353Y-68335757D01*
X95640180Y-68479145D01*
X96756674Y-68596963D01*
X97991537Y-68694902D01*
X99395469Y-68778651D01*
X100256331Y-68820646D01*
X101247508Y-68868789D01*
X102031583Y-68914739D01*
X102648956Y-68962879D01*
X103140026Y-69017592D01*
X103545190Y-69083263D01*
X103904848Y-69164273D01*
X104208227Y-69249454D01*
X104774289Y-69428891D01*
X105494641Y-69670827D01*
X106324269Y-69958940D01*
X107218158Y-70276910D01*
X108131295Y-70608414D01*
X109018664Y-70937132D01*
X109835253Y-71246742D01*
X110536045Y-71520924D01*
X111017317Y-71718283D01*
X111730234Y-72013019D01*
X112563710Y-72344605D01*
X113484782Y-72701012D01*
X114460485Y-73070209D01*
X115457855Y-73440167D01*
X116443926Y-73798855D01*
X117385736Y-74134244D01*
X118250318Y-74434303D01*
X119004710Y-74687003D01*
X119615946Y-74880314D01*
X119930445Y-74971016D01*
X120198849Y-75036408D01*
X120671266Y-75143650D01*
X121320499Y-75286871D01*
X122119352Y-75460198D01*
X123040627Y-75657759D01*
X124057129Y-75873682D01*
X125141660Y-76102096D01*
X126006333Y-76282861D01*
X127715379Y-76639254D01*
X129211045Y-76952023D01*
X130511135Y-77225307D01*
X131633452Y-77463241D01*
X132595799Y-77669964D01*
X133415979Y-77849612D01*
X134111794Y-78006323D01*
X134701048Y-78144234D01*
X135201543Y-78267481D01*
X135631083Y-78380203D01*
X136007471Y-78486536D01*
X136348509Y-78590618D01*
X136672000Y-78696585D01*
X136995748Y-78808576D01*
X137222683Y-78889404D01*
X137720517Y-79085253D01*
X138297862Y-79338673D01*
X138866097Y-79609798D01*
X139155632Y-79758949D01*
X139657398Y-80041576D01*
X140039990Y-80300401D01*
X140332871Y-80567074D01*
X140565506Y-80873245D01*
X140767359Y-81250565D01*
X140951200Y-81687729D01*
X141103737Y-82136165D01*
X141169409Y-82505929D01*
X141149491Y-82842311D01*
X141045258Y-83190601D01*
X140996778Y-83306361D01*
X140817385Y-83648002D01*
X140583296Y-83954400D01*
X140266025Y-84248201D01*
X139837087Y-84552054D01*
X139267998Y-84888604D01*
X138530273Y-85280499D01*
X138483700Y-85304385D01*
X137983208Y-85564589D01*
X137557876Y-85793201D01*
X137235236Y-85974798D01*
X137042821Y-86093958D01*
X137001853Y-86134456D01*
X137124529Y-86112387D01*
X137410108Y-86022915D01*
X137824436Y-85879063D01*
X138333364Y-85693855D01*
X138902740Y-85480312D01*
X139498413Y-85251459D01*
X140086233Y-85020317D01*
X140632047Y-84799909D01*
X141101705Y-84603259D01*
X141461056Y-84443389D01*
X141555489Y-84398019D01*
X141996043Y-84156695D01*
X142465726Y-83863490D01*
X142865864Y-83580155D01*
X142880166Y-83569009D01*
X143479756Y-83099312D01*
X143479756Y-82459839D01*
X143470400Y-82163416D01*
X143432746Y-81915741D01*
X143352414Y-81673814D01*
X143215023Y-81394635D01*
X143006195Y-81035202D01*
X142999770Y-81024543D01*
X142788497Y-80690732D01*
X142572312Y-80377115D01*
X142377172Y-80119799D01*
X142234133Y-79959632D01*
X141759605Y-79619462D01*
X141066571Y-79276810D01*
X140183064Y-78942584D01*
X139137117Y-78627691D01*
X138240216Y-78405610D01*
X137911436Y-78336283D01*
X137381584Y-78231028D01*
X136684421Y-78096264D01*
X135853710Y-77938414D01*
X134923210Y-77763900D01*
X133926685Y-77579142D01*
X133036313Y-77415805D01*
X130933389Y-77029267D01*
X129053011Y-76677604D01*
X127380327Y-76357664D01*
X125900479Y-76066296D01*
X124598613Y-75800350D01*
X123459874Y-75556674D01*
X122469407Y-75332117D01*
X121612355Y-75123528D01*
X120873865Y-74927756D01*
X120239081Y-74741649D01*
X119871969Y-74623338D01*
X117994253Y-73958197D01*
X116175661Y-73239530D01*
X114368372Y-72447056D01*
X112524564Y-71560493D01*
X111883810Y-71235543D01*
X111207313Y-70896597D01*
X110475510Y-70544119D01*
X109747834Y-70205802D01*
X109083717Y-69909338D01*
X108600395Y-69705599D01*
X107987165Y-69452417D01*
X107351707Y-69180880D01*
X106766537Y-68922502D01*
X106304171Y-68708800D01*
X106279879Y-68697102D01*
X105897853Y-68517519D01*
X105553638Y-68374326D01*
X105212383Y-68262843D01*
X104839235Y-68178392D01*
X104399344Y-68116295D01*
X103857858Y-68071872D01*
X103179927Y-68040446D01*
X102330697Y-68017338D01*
X101275318Y-67997869D01*
X101043171Y-67994108D01*
X99865654Y-67971889D01*
X98890009Y-67944259D01*
X98070326Y-67907601D01*
X97360694Y-67858296D01*
X96715204Y-67792726D01*
X96087944Y-67707274D01*
X95433005Y-67598323D01*
X94992486Y-67517305D01*
X93660000Y-67231761D01*
X92454189Y-66905724D01*
X91388140Y-66547034D01*
X90474941Y-66163529D01*
X89727679Y-65763051D01*
X89159441Y-65353439D01*
X88783316Y-64942534D01*
X88612390Y-64538175D01*
X88659751Y-64148203D01*
X88867323Y-63848042D01*
X89353340Y-63481479D01*
X90057921Y-63136418D01*
X90953049Y-62821191D01*
X92010709Y-62544126D01*
X93202885Y-62313553D01*
X94501561Y-62137803D01*
X94683704Y-62118711D01*
X95822927Y-62043847D01*
X97102859Y-62028203D01*
X98445650Y-62068491D01*
X99773449Y-62161419D01*
X101008406Y-62303701D01*
X101690635Y-62414760D01*
X102280011Y-62539648D01*
X103005169Y-62716521D01*
X103793213Y-62925828D01*
X104571249Y-63148022D01*
X105266382Y-63363553D01*
X105425031Y-63416253D01*
X106537408Y-63756704D01*
X107563452Y-63993433D01*
X108546104Y-64135875D01*
X108805797Y-64159100D01*
X109227656Y-64188656D01*
X109585182Y-64201488D01*
X109942352Y-64195097D01*
X110363143Y-64166979D01*
X110911532Y-64114635D01*
X111474752Y-64054757D01*
X112848782Y-63933786D01*
X114428769Y-63843628D01*
X116179700Y-63784160D01*
X118066561Y-63755260D01*
X120054339Y-63756805D01*
X122108020Y-63788674D01*
X124192591Y-63850744D01*
X126273039Y-63942892D01*
X128314349Y-64064996D01*
X129030811Y-64116108D01*
X131475218Y-64361750D01*
X133857971Y-64727252D01*
X135915177Y-65153660D01*
X136350341Y-65257301D01*
X136745471Y-65355645D01*
X137134227Y-65458579D01*
X137550269Y-65575989D01*
X138027256Y-65717765D01*
X138598848Y-65893792D01*
X139298706Y-66113960D01*
X140160488Y-66388155D01*
X140648042Y-66543940D01*
X141399611Y-66780984D01*
X142156041Y-67013697D01*
X142864211Y-67226157D01*
X143470996Y-67402441D01*
X143923272Y-67526627D01*
X143948394Y-67533118D01*
X145050548Y-67772792D01*
X146036104Y-67895574D01*
X146905777Y-67901403D01*
X147660284Y-67790220D01*
X148300340Y-67561965D01*
X148826660Y-67216577D01*
X148937904Y-67114517D01*
X149204152Y-66741525D01*
X149346486Y-66283271D01*
X149362190Y-65770186D01*
X149248548Y-65232699D01*
X149131842Y-64941749D01*
X148791723Y-64355891D01*
X148358949Y-63824587D01*
X147857616Y-63372711D01*
X147311820Y-63025136D01*
X147240990Y-62989934D01*
X146257713Y-62585809D01*
X145039427Y-62205370D01*
X143595786Y-61851247D01*
X141936443Y-61526074D01*
X141757246Y-61494946D01*
X140789853Y-61335758D01*
X139854092Y-61197975D01*
X138902226Y-61076323D01*
X137886514Y-60965527D01*
X136759219Y-60860313D01*
X135472601Y-60755406D01*
X134233134Y-60663615D01*
X132905137Y-60562536D01*
X131786894Y-60463308D01*
X130840618Y-60361692D01*
X130028521Y-60253445D01*
X129312813Y-60134326D01*
X129029391Y-60079534D01*
X127806769Y-59798456D01*
X126496082Y-59435442D01*
X125164834Y-59011802D01*
X123880530Y-58548843D01*
X122850000Y-58128973D01*
X122515973Y-57974276D01*
X122042205Y-57741316D01*
X121461608Y-57446977D01*
X120807097Y-57108141D01*
X120111583Y-56741690D01*
X119407980Y-56364507D01*
X119369010Y-56343411D01*
X118568611Y-55908092D01*
X117922945Y-55549347D01*
X117410874Y-55250311D01*
X117011257Y-54994118D01*
X116702955Y-54763902D01*
X116464828Y-54542799D01*
X116275736Y-54313943D01*
X116114539Y-54060467D01*
X115960098Y-53765507D01*
X115849513Y-53535511D01*
X115685533Y-53161408D01*
X115605748Y-52872812D01*
X115616955Y-52629231D01*
X115725951Y-52390169D01*
X115939534Y-52115133D01*
X116121519Y-51915136D01*
X116437285Y-51589102D01*
X116750125Y-51296472D01*
X117085080Y-51020634D01*
X117467192Y-50744976D01*
X117921501Y-50452885D01*
X118473048Y-50127750D01*
X119146874Y-49752956D01*
X119968020Y-49311893D01*
X120351755Y-49108747D01*
X123021684Y-47699478D01*
X144683693Y-47699478D01*
X144600751Y-47881854D01*
X144443291Y-48102733D01*
X144161726Y-48385135D01*
X143799381Y-48692800D01*
X143399577Y-48989468D01*
X143005638Y-49238876D01*
X142928694Y-49281328D01*
X142437108Y-49504027D01*
X141767653Y-49739209D01*
X140910657Y-49989233D01*
X139856447Y-50256461D01*
X138595354Y-50543251D01*
X137117706Y-50851963D01*
X135413830Y-51184958D01*
X134187073Y-51414319D01*
X133027975Y-51629226D01*
X132068462Y-51810964D01*
X131272336Y-51967173D01*
X130603399Y-52105496D01*
X130025453Y-52233573D01*
X129502300Y-52359046D01*
X128997743Y-52489557D01*
X128664911Y-52580073D01*
X127431286Y-52978018D01*
X126422781Y-53428719D01*
X125635694Y-53934023D01*
X125251115Y-54282003D01*
X124971447Y-54660563D01*
X124873056Y-55039808D01*
X124948228Y-55462310D01*
X125009173Y-55617031D01*
X125416273Y-56270285D01*
X126040693Y-56860906D01*
X126883451Y-57389605D01*
X127945567Y-57857095D01*
X128484907Y-58044312D01*
X129412768Y-58325621D01*
X130338609Y-58564513D01*
X131310605Y-58769937D01*
X132376932Y-58950840D01*
X133585765Y-59116172D01*
X134985282Y-59274881D01*
X135266437Y-59303975D01*
X137959858Y-59608829D01*
X140479658Y-59954431D01*
X142816065Y-60338664D01*
X144959305Y-60759410D01*
X146899607Y-61214553D01*
X148627198Y-61701975D01*
X150132306Y-62219561D01*
X151405157Y-62765193D01*
X151531387Y-62827240D01*
X151927949Y-63034155D01*
X152234276Y-63223051D01*
X152498181Y-63430761D01*
X152767477Y-63694115D01*
X153028751Y-63980679D01*
X153713939Y-64832594D01*
X154206456Y-65636066D01*
X154517585Y-66417990D01*
X154658607Y-67205259D01*
X154656275Y-67860314D01*
X154614142Y-68224385D01*
X154548389Y-68582713D01*
X154468439Y-68891287D01*
X154393582Y-69087207D01*
X154049212Y-69624471D01*
X153572501Y-70152004D01*
X153007197Y-70626930D01*
X152480257Y-70962384D01*
X151615278Y-71354308D01*
X150705006Y-71616193D01*
X149755242Y-71747786D01*
X148771790Y-71748833D01*
X147760450Y-71619084D01*
X146727025Y-71358284D01*
X146343149Y-71229570D01*
X146080012Y-71119745D01*
X145667949Y-70927525D01*
X145131491Y-70665242D01*
X144495167Y-70345227D01*
X143783506Y-69979812D01*
X143021037Y-69581328D01*
X142257382Y-69175555D01*
X141097280Y-68559822D01*
X140078956Y-68033024D01*
X139179568Y-67584950D01*
X138376277Y-67205393D01*
X137646244Y-66884145D01*
X136966629Y-66610996D01*
X136314592Y-66375739D01*
X135667293Y-66168165D01*
X135268191Y-66051676D01*
X133310348Y-65569652D01*
X131268617Y-65201531D01*
X129186883Y-64954552D01*
X128162859Y-64879794D01*
X127357842Y-64841205D01*
X126424024Y-64809365D01*
X125410654Y-64784762D01*
X124366981Y-64767882D01*
X123342253Y-64759214D01*
X122385718Y-64759245D01*
X121546627Y-64768464D01*
X120874226Y-64787357D01*
X120557805Y-64804487D01*
X118549792Y-64971763D01*
X116778893Y-65170778D01*
X115241215Y-65402414D01*
X113932865Y-65667552D01*
X112849952Y-65967075D01*
X111988582Y-66301865D01*
X111344864Y-66672802D01*
X111009518Y-66967609D01*
X110824085Y-67194525D01*
X110733196Y-67392313D01*
X110715012Y-67624161D01*
X110727512Y-67783640D01*
X110764001Y-67999472D01*
X110837453Y-68196662D01*
X110968763Y-68409463D01*
X111178830Y-68672130D01*
X111466217Y-68994501D01*
X111970661Y-69503922D01*
X112597074Y-70070215D01*
X113299559Y-70656196D01*
X114032221Y-71224679D01*
X114749162Y-71738481D01*
X115282320Y-72086254D01*
X116059091Y-72530401D01*
X116976664Y-72997452D01*
X117988084Y-73467566D01*
X119046392Y-73920898D01*
X120104632Y-74337606D01*
X121115846Y-74697847D01*
X122033079Y-74981777D01*
X122310447Y-75056193D01*
X124116447Y-75495935D01*
X125978637Y-75907577D01*
X127856203Y-76283936D01*
X129708332Y-76617826D01*
X131494210Y-76902060D01*
X133173023Y-77129452D01*
X134703959Y-77292818D01*
X135280185Y-77339678D01*
X136095536Y-77381096D01*
X137087047Y-77403144D01*
X138185842Y-77406223D01*
X139323045Y-77390728D01*
X140429779Y-77357060D01*
X141437166Y-77305616D01*
X141463423Y-77303914D01*
X142587076Y-77242667D01*
X143509143Y-77222589D01*
X144265603Y-77247117D01*
X144892437Y-77319690D01*
X145425625Y-77443744D01*
X145901148Y-77622718D01*
X146164794Y-77753089D01*
X146438185Y-77925210D01*
X146657168Y-78132496D01*
X146859637Y-78414287D01*
X146952768Y-78571158D01*
X147222991Y-78977130D01*
X147535390Y-79284312D01*
X147930987Y-79510140D01*
X148450806Y-79672049D01*
X149135870Y-79787475D01*
X150015691Y-79872964D01*
X150377897Y-79898113D01*
X150717732Y-79912819D01*
X151077730Y-79915953D01*
X151500425Y-79906384D01*
X152028351Y-79882984D01*
X152704043Y-79844621D01*
X153570034Y-79790166D01*
X153874008Y-79770477D01*
X154953093Y-79703371D01*
X155823625Y-79657675D01*
X156521672Y-79633606D01*
X157083300Y-79631376D01*
X157544576Y-79651203D01*
X157941569Y-79693299D01*
X158310346Y-79757880D01*
X158492477Y-79797985D01*
X158980714Y-79948634D01*
X159267821Y-80140554D01*
X159381252Y-80400412D01*
X159369862Y-80650136D01*
X159170756Y-81125454D01*
X158748532Y-81599581D01*
X158126514Y-82057433D01*
X157328027Y-82483925D01*
X156376394Y-82863973D01*
X155560800Y-83113622D01*
X154727773Y-83318937D01*
X153883312Y-83483441D01*
X152976815Y-83613626D01*
X151957679Y-83715987D01*
X150775302Y-83797016D01*
X149887280Y-83841680D01*
X148678646Y-83911047D01*
X147508303Y-84011910D01*
X146342436Y-84150062D01*
X145147228Y-84331296D01*
X143888862Y-84561406D01*
X142533522Y-84846183D01*
X141047392Y-85191421D01*
X139396653Y-85602913D01*
X138980267Y-85710092D01*
X138326582Y-85875004D01*
X137748383Y-86012859D01*
X137282592Y-86115502D01*
X136966129Y-86174781D01*
X136837145Y-86183355D01*
X136856710Y-86108389D01*
X136986412Y-85945491D01*
X137204565Y-85719041D01*
X137474679Y-85466634D01*
X137935676Y-85040704D01*
X138272601Y-84688904D01*
X138506320Y-84377780D01*
X138657701Y-84073879D01*
X138747610Y-83743746D01*
X138796913Y-83353929D01*
X138797595Y-83345692D01*
X138792355Y-82688192D01*
X138650484Y-82104675D01*
X138357536Y-81553732D01*
X138025253Y-81131642D01*
X137284485Y-80440689D01*
X136312518Y-79771259D01*
X135124799Y-79132057D01*
X133736775Y-78531788D01*
X132810076Y-78192504D01*
X131948673Y-77922166D01*
X130868384Y-77626810D01*
X129591675Y-77311494D01*
X128141010Y-76981276D01*
X126538854Y-76641217D01*
X124807670Y-76296374D01*
X122969925Y-75951806D01*
X122416341Y-75851956D01*
X121546177Y-75692606D01*
X120688196Y-75528633D01*
X119892468Y-75370115D01*
X119209063Y-75227133D01*
X118688050Y-75109764D01*
X118513415Y-75066290D01*
X117325134Y-74748510D01*
X116048833Y-74396204D01*
X114729406Y-74022525D01*
X113411749Y-73640628D01*
X112140758Y-73263663D01*
X110961328Y-72904786D01*
X109918354Y-72577149D01*
X109096829Y-72307492D01*
X108076043Y-71964701D01*
X107179947Y-71670077D01*
X106339456Y-71401955D01*
X105485486Y-71138668D01*
X104548952Y-70858552D01*
X103460768Y-70539940D01*
X103459268Y-70539504D01*
X102696852Y-70321768D01*
X102069166Y-70155970D01*
X101512395Y-70031004D01*
X100962724Y-69935769D01*
X100356340Y-69859160D01*
X99629428Y-69790074D01*
X98747141Y-69719618D01*
X97258333Y-69599929D01*
X95914766Y-69477169D01*
X94676080Y-69344863D01*
X93501914Y-69196538D01*
X92351909Y-69025717D01*
X91185704Y-68825927D01*
X89962939Y-68590693D01*
X88643253Y-68313539D01*
X87186286Y-67987992D01*
X85551677Y-67607576D01*
X85487981Y-67592533D01*
X84438746Y-67342900D01*
X83522719Y-67120153D01*
X82696477Y-66912362D01*
X81916600Y-66707593D01*
X81139667Y-66493914D01*
X80322257Y-66259393D01*
X79420950Y-65992098D01*
X78392323Y-65680097D01*
X77239478Y-65325811D01*
X76282905Y-65033059D01*
X75226895Y-64713913D01*
X74141603Y-64389307D01*
X73097178Y-64080173D01*
X72163773Y-63807445D01*
X71787236Y-63698899D01*
X70775706Y-63403889D01*
X69692538Y-63078925D01*
X68562136Y-62732032D01*
X67408904Y-62371239D01*
X66257246Y-62004572D01*
X65131567Y-61640058D01*
X64056271Y-61285724D01*
X63055763Y-60949598D01*
X62154445Y-60639706D01*
X61376724Y-60364076D01*
X60747003Y-60130734D01*
X60289686Y-59947708D01*
X60064823Y-59843155D01*
X59701312Y-59612913D01*
X59342281Y-59328256D01*
X59117798Y-59107217D01*
X58812757Y-58615659D01*
X58743340Y-58122684D01*
X58898048Y-57636707D01*
X59265384Y-57166142D01*
X59833848Y-56719406D01*
X60591942Y-56304913D01*
X61528167Y-55931079D01*
X62631025Y-55606319D01*
X63889017Y-55339048D01*
X64376384Y-55258720D01*
X64888553Y-55201471D01*
X65610235Y-55150784D01*
X66503404Y-55107082D01*
X67530032Y-55070786D01*
X68652094Y-55042318D01*
X69831564Y-55022100D01*
X71030414Y-55010553D01*
X72210619Y-55008100D01*
X73334152Y-55015162D01*
X74362987Y-55032162D01*
X75259097Y-55059521D01*
X75984456Y-55097660D01*
X76324634Y-55126174D01*
X76795077Y-55182827D01*
X77392191Y-55266583D01*
X78007911Y-55362035D01*
X78183171Y-55391168D01*
X78992794Y-55511795D01*
X79840534Y-55602522D01*
X80767091Y-55665352D01*
X81813166Y-55702287D01*
X83019459Y-55715332D01*
X84426672Y-55706488D01*
X84555810Y-55704806D01*
X85617718Y-55684312D01*
X86747153Y-55651594D01*
X87901878Y-55608777D01*
X89039656Y-55557987D01*
X90118251Y-55501349D01*
X91095425Y-55440988D01*
X91928942Y-55379029D01*
X92576566Y-55317598D01*
X92801969Y-55289889D01*
X93433330Y-55185640D01*
X93876745Y-55065034D01*
X94192045Y-54909718D01*
X94299926Y-54830319D01*
X94419169Y-54616913D01*
X94306968Y-54365182D01*
X93966563Y-54079387D01*
X93541602Y-53833956D01*
X92770529Y-53503931D01*
X91780048Y-53188796D01*
X90598040Y-52894903D01*
X89252388Y-52628603D01*
X87770974Y-52396245D01*
X86570532Y-52246158D01*
X85803419Y-52154810D01*
X85198316Y-52065212D01*
X84672088Y-51959730D01*
X84141603Y-51820726D01*
X83523727Y-51630565D01*
X83250727Y-51541877D01*
X81686559Y-51073572D01*
X79933809Y-50628392D01*
X78051137Y-50220530D01*
X76854182Y-49994374D01*
X76113524Y-49864776D01*
X75175344Y-49704810D01*
X74080093Y-49521102D01*
X72868223Y-49320276D01*
X71580183Y-49108956D01*
X70256425Y-48893766D01*
X68937400Y-48681332D01*
X67663558Y-48478278D01*
X66475350Y-48291229D01*
X66050459Y-48225066D01*
X65234340Y-48097531D01*
X64499303Y-47980947D01*
X63878201Y-47880666D01*
X63403889Y-47802040D01*
X63109221Y-47750418D01*
X63025174Y-47732317D01*
X63139277Y-47728389D01*
X63487068Y-47724595D01*
X64054432Y-47720962D01*
X64827253Y-47717519D01*
X65791414Y-47714292D01*
X66932800Y-47711308D01*
X68237294Y-47708597D01*
X69690781Y-47706184D01*
X71279144Y-47704097D01*
X72988267Y-47702364D01*
X74804035Y-47701012D01*
X76712331Y-47700069D01*
X78699040Y-47699562D01*
X79909218Y-47699478D01*
X96854615Y-47699478D01*
X97979607Y-48174467D01*
G37*
G36*
X114320303Y-86607053D02*
G01*
X112884769Y-87084055D01*
X111511651Y-87489363D01*
X110165056Y-87831228D01*
X108809093Y-88117905D01*
X107407867Y-88357646D01*
X105925486Y-88558705D01*
X104326056Y-88729336D01*
X102573685Y-88877792D01*
X102344146Y-88895049D01*
X101412358Y-88945427D01*
X100303415Y-88975021D01*
X99084749Y-88984364D01*
X97823789Y-88973990D01*
X96587964Y-88944433D01*
X95444703Y-88896227D01*
X94497387Y-88832943D01*
X93785877Y-88778031D01*
X93089414Y-88732441D01*
X92479294Y-88700315D01*
X92026812Y-88685795D01*
X91957387Y-88685372D01*
X91341603Y-88701346D01*
X90506330Y-88746808D01*
X89472951Y-88820101D01*
X88262854Y-88919565D01*
X86897422Y-89043543D01*
X85398042Y-89190376D01*
X85245610Y-89205840D01*
X84196421Y-89308191D01*
X83178407Y-89397443D01*
X82144330Y-89476739D01*
X81046951Y-89549223D01*
X79839032Y-89618038D01*
X78473333Y-89686329D01*
X77068049Y-89750036D01*
X75925257Y-89817027D01*
X74811577Y-89913675D01*
X73954543Y-90014511D01*
X73263230Y-90107289D01*
X72440173Y-90214972D01*
X71595364Y-90323296D01*
X70932365Y-90406453D01*
X70175028Y-90506134D01*
X69362698Y-90622924D01*
X68598053Y-90741554D01*
X68036602Y-90837075D01*
X66550569Y-91072339D01*
X65198199Y-91212327D01*
X63946671Y-91260011D01*
X63438781Y-91253096D01*
X62577121Y-91205750D01*
X61810934Y-91110416D01*
X61105109Y-90955458D01*
X60424537Y-90729241D01*
X59734109Y-90420130D01*
X58998713Y-90016489D01*
X58197908Y-89516262D01*
X57238756Y-88907519D01*
X56376901Y-88400890D01*
X55584322Y-87984059D01*
X54832999Y-87644713D01*
X54094912Y-87370539D01*
X53342040Y-87149221D01*
X52546362Y-86968447D01*
X52287561Y-86918886D01*
X51836154Y-86840752D01*
X51440700Y-86788325D01*
X51029559Y-86756513D01*
X50531088Y-86740222D01*
X49873647Y-86734362D01*
X49685610Y-86733944D01*
X48919778Y-86737746D01*
X48324549Y-86754679D01*
X47823260Y-86789122D01*
X47339248Y-86845455D01*
X47083659Y-86882606D01*
X46591271Y-86972079D01*
X45918810Y-87115347D01*
X45103946Y-87302886D01*
X44184353Y-87525174D01*
X43197702Y-87772690D01*
X42181667Y-88035909D01*
X41173920Y-88305310D01*
X40212133Y-88571370D01*
X39333978Y-88824566D01*
X38972339Y-88932923D01*
X38338659Y-89120388D01*
X37748296Y-89285631D01*
X37247949Y-89416279D01*
X36884320Y-89499960D01*
X36744223Y-89523224D01*
X36409085Y-89533438D01*
X35931325Y-89519738D01*
X35410971Y-89485112D01*
X35381296Y-89482499D01*
X34684809Y-89435380D01*
X33807271Y-89398931D01*
X32814734Y-89373858D01*
X31773252Y-89360868D01*
X30748879Y-89360668D01*
X29807668Y-89373966D01*
X29015672Y-89401468D01*
X28822131Y-89412277D01*
X27330503Y-89533537D01*
X25909028Y-89711438D01*
X24504312Y-89955771D01*
X23062958Y-90276327D01*
X21531569Y-90682897D01*
X20913037Y-90862544D01*
X20344179Y-91029607D01*
X19852672Y-91170909D01*
X19478814Y-91275100D01*
X19262900Y-91330830D01*
X19228170Y-91337076D01*
X19216585Y-91272210D01*
X19205469Y-91083425D01*
X19194928Y-90779436D01*
X19185069Y-90368960D01*
X19176000Y-89860715D01*
X19167827Y-89263417D01*
X19160658Y-88585784D01*
X19154599Y-87836531D01*
X19149759Y-87024376D01*
X19146243Y-86158035D01*
X19144160Y-85246226D01*
X19143596Y-84456528D01*
X19143593Y-84081204D01*
X66121762Y-84081204D01*
X66143720Y-84308524D01*
X66205668Y-84549561D01*
X66410302Y-85046184D01*
X66734426Y-85485279D01*
X67210356Y-85898410D01*
X67870406Y-86317144D01*
X68198044Y-86495823D01*
X69099542Y-86928784D01*
X70058369Y-87301137D01*
X71112348Y-87623044D01*
X72299305Y-87904669D01*
X73657064Y-88156175D01*
X75223449Y-88387724D01*
X75254806Y-88391907D01*
X76873050Y-88577236D01*
X78489522Y-88698531D01*
X80146893Y-88756299D01*
X81887834Y-88751049D01*
X83755015Y-88683287D01*
X85791108Y-88553520D01*
X86198731Y-88522044D01*
X87667527Y-88406894D01*
X88919910Y-88312208D01*
X89984123Y-88237377D01*
X90888409Y-88181790D01*
X91661012Y-88144838D01*
X92330176Y-88125913D01*
X92924144Y-88124404D01*
X93471160Y-88139703D01*
X93999467Y-88171199D01*
X94537309Y-88218283D01*
X95112929Y-88280346D01*
X95467561Y-88322047D01*
X96513182Y-88440970D01*
X97385887Y-88523002D01*
X98149368Y-88570671D01*
X98867318Y-88586503D01*
X99603429Y-88573026D01*
X100421394Y-88532768D01*
X100561441Y-88524178D01*
X102193843Y-88392303D01*
X103642309Y-88209918D01*
X104957111Y-87969847D01*
X105744548Y-87784442D01*
X106891564Y-87456165D01*
X107887426Y-87102463D01*
X108709265Y-86733768D01*
X109334211Y-86360510D01*
X109739395Y-85993118D01*
X109774685Y-85946402D01*
X109926462Y-85566351D01*
X109899176Y-85145904D01*
X109710409Y-84725374D01*
X109377746Y-84345076D01*
X108952740Y-84061890D01*
X108597916Y-83925518D01*
X108043892Y-83763907D01*
X107330745Y-83586310D01*
X106498557Y-83401978D01*
X105587404Y-83220162D01*
X104637369Y-83050113D01*
X104396858Y-83010260D01*
X103709804Y-82896689D01*
X103073299Y-82788456D01*
X102540124Y-82694756D01*
X102163061Y-82624788D01*
X102042712Y-82600059D01*
X101647223Y-82497971D01*
X101170864Y-82348397D01*
X100595567Y-82144453D01*
X99903266Y-81879258D01*
X99075895Y-81545927D01*
X98095384Y-81137580D01*
X97158594Y-80739435D01*
X96396489Y-80413935D01*
X95650459Y-80096518D01*
X94956166Y-79802264D01*
X94349268Y-79546256D01*
X93865428Y-79343574D01*
X93547712Y-79212314D01*
X92737091Y-78916708D01*
X91837719Y-78646005D01*
X90931408Y-78422178D01*
X90099970Y-78267203D01*
X89953057Y-78246815D01*
X89157334Y-78178215D01*
X88187689Y-78150291D01*
X87105877Y-78162736D01*
X85973656Y-78215242D01*
X85245610Y-78270211D01*
X83350602Y-78479637D01*
X81361693Y-78778681D01*
X79342403Y-79154526D01*
X77356250Y-79594353D01*
X75466751Y-80085344D01*
X73908537Y-80558027D01*
X73311967Y-80753650D01*
X72681610Y-80960297D01*
X72113692Y-81146422D01*
X71864146Y-81228179D01*
X71371995Y-81374041D01*
X70740953Y-81539378D01*
X70066153Y-81700050D01*
X69642976Y-81791822D01*
X68588226Y-82049574D01*
X67749976Y-82348484D01*
X67102061Y-82702832D01*
X66618318Y-83126897D01*
X66275196Y-83629892D01*
X66164083Y-83874899D01*
X66121762Y-84081204D01*
X19143593Y-84081204D01*
X19143533Y-77575979D01*
X20289694Y-77595595D01*
X21296507Y-77626157D01*
X22379440Y-77681844D01*
X23457559Y-77757010D01*
X24449928Y-77846013D01*
X25275611Y-77943209D01*
X25276829Y-77943378D01*
X25957562Y-78051955D01*
X26817553Y-78213740D01*
X27866481Y-78430749D01*
X29114023Y-78704993D01*
X30569857Y-79038488D01*
X30816492Y-79096014D01*
X31753998Y-79310104D01*
X32531967Y-79472359D01*
X33212217Y-79590566D01*
X33856570Y-79672511D01*
X34526845Y-79725981D01*
X35284862Y-79758762D01*
X36192441Y-79778642D01*
X36242195Y-79779427D01*
X37808103Y-79784497D01*
X39196928Y-79746850D01*
X39835366Y-79712165D01*
X40524563Y-79672294D01*
X41111676Y-79651453D01*
X41655958Y-79651916D01*
X42216663Y-79675957D01*
X42853044Y-79725849D01*
X43624356Y-79803866D01*
X44357805Y-79885711D01*
X46101382Y-80068075D01*
X47700347Y-80196847D01*
X49210863Y-80272236D01*
X50689096Y-80294449D01*
X52191208Y-80263695D01*
X53773364Y-80180183D01*
X55491727Y-80044120D01*
X56671040Y-79931358D01*
X57707114Y-79826586D01*
X58536426Y-79741413D01*
X59195913Y-79671389D01*
X59722511Y-79612067D01*
X60153157Y-79559000D01*
X60524788Y-79507738D01*
X60874341Y-79453834D01*
X61238752Y-79392840D01*
X61456341Y-79355106D01*
X62415240Y-79164145D01*
X63367955Y-78931635D01*
X64262494Y-78673258D01*
X65046867Y-78404699D01*
X65669082Y-78141641D01*
X65914611Y-78010245D01*
X66428197Y-77761231D01*
X67178952Y-77486609D01*
X68161603Y-77188221D01*
X68665375Y-77050061D01*
X69357188Y-76868706D01*
X69960598Y-76720009D01*
X70531833Y-76592824D01*
X71127123Y-76476008D01*
X71802697Y-76358414D01*
X72614785Y-76228898D01*
X73448998Y-76101923D01*
X74193874Y-75991102D01*
X74772468Y-75910928D01*
X75254330Y-75855946D01*
X75709008Y-75820703D01*
X76206053Y-75799745D01*
X76815014Y-75787620D01*
X77563659Y-75779283D01*
X78719798Y-75776622D01*
X79725466Y-75795212D01*
X80675526Y-75837624D01*
X81342683Y-75881711D01*
X82014714Y-75934428D01*
X82855175Y-76005296D01*
X83789049Y-76087707D01*
X84741317Y-76175055D01*
X85555366Y-76252749D01*
X86897518Y-76373499D01*
X88090623Y-76455413D01*
X89211314Y-76500228D01*
X90336224Y-76509680D01*
X91541987Y-76485506D01*
X92905235Y-76429445D01*
X93045520Y-76422534D01*
X94955907Y-76363473D01*
X96831702Y-76381957D01*
X98715164Y-76481106D01*
X100648547Y-76664036D01*
X102674108Y-76933865D01*
X104822195Y-77291558D01*
X106097577Y-77527139D01*
X107168216Y-77737008D01*
X108068607Y-77930019D01*
X108833248Y-78115031D01*
X109496636Y-78300901D01*
X110093265Y-78496485D01*
X110657633Y-78710640D01*
X111133264Y-78911914D01*
X111473731Y-79061920D01*
X111760280Y-79181165D01*
X112026294Y-79273453D01*
X112305158Y-79342586D01*
X112630255Y-79392367D01*
X113034969Y-79426601D01*
X113552683Y-79449091D01*
X114216782Y-79463639D01*
X115060648Y-79474051D01*
X116117666Y-79484128D01*
X116159268Y-79484524D01*
X117450941Y-79499834D01*
X118535978Y-79520517D01*
X119455491Y-79549069D01*
X120250590Y-79587983D01*
X120962387Y-79639754D01*
X121631993Y-79706875D01*
X122300518Y-79791840D01*
X123009073Y-79897144D01*
X123039549Y-79901928D01*
X123715507Y-80006572D01*
X124475275Y-80121702D01*
X125168778Y-80224606D01*
X125252043Y-80236745D01*
X126122444Y-80379296D01*
X126872973Y-80543296D01*
X127559329Y-80747083D01*
X128237212Y-81008993D01*
X128962321Y-81347362D01*
X129551701Y-81652243D01*
X130179889Y-81999142D01*
X130776403Y-82356753D01*
X131381713Y-82751380D01*
X132036289Y-83209324D01*
X132718512Y-83710444D01*
X133604813Y-84375931D01*
X134343570Y-84937958D01*
X134937337Y-85398605D01*
X135388663Y-85759953D01*
X135700101Y-86024079D01*
X135874202Y-86193064D01*
X135913516Y-86268988D01*
X135852444Y-86265003D01*
X135694274Y-86213394D01*
X135362825Y-86103485D01*
X134894714Y-85947478D01*
X134326558Y-85757575D01*
X133717186Y-85553429D01*
X132044637Y-85015526D01*
X130516668Y-84574298D01*
X129114525Y-84226669D01*
X127819456Y-83969565D01*
X126612708Y-83799911D01*
X125475529Y-83714634D01*
X124389167Y-83710658D01*
X123334867Y-83784909D01*
X123097805Y-83812374D01*
X122269620Y-83950303D01*
X121307619Y-84170709D01*
X120252582Y-84461943D01*
X119145287Y-84812357D01*
X118026515Y-85210303D01*
X117522195Y-85404947D01*
X117104885Y-85566351D01*
X115854148Y-86050101D01*
X114320303Y-86607053D01*
G37*
G36*
X135797428Y-86777991D02*
G01*
X135623927Y-86936810D01*
X135359473Y-87172117D01*
X135024289Y-87465927D01*
X134638597Y-87800257D01*
X134616826Y-87819027D01*
X134040986Y-88326030D01*
X133583650Y-88758979D01*
X133217910Y-89151224D01*
X132916856Y-89536110D01*
X132653581Y-89946986D01*
X132401175Y-90417198D01*
X132223119Y-90785504D01*
X131888478Y-91549233D01*
X131648973Y-92222314D01*
X131497419Y-92834903D01*
X131426631Y-93417154D01*
X131429421Y-93999220D01*
X131435814Y-94089295D01*
X131501354Y-94649382D01*
X131613193Y-95162136D01*
X131784349Y-95650627D01*
X132027840Y-96137920D01*
X132356687Y-96647083D01*
X132783908Y-97201182D01*
X133322522Y-97823284D01*
X133887484Y-98433160D01*
X134662064Y-99226823D01*
X135378095Y-99904002D01*
X136052619Y-100474526D01*
X136702679Y-100948226D01*
X137345318Y-101334932D01*
X137997579Y-101644475D01*
X138676504Y-101886685D01*
X139399136Y-102071391D01*
X140182517Y-102208426D01*
X140506098Y-102250819D01*
X141004364Y-102318465D01*
X141459416Y-102393163D01*
X141757454Y-102455198D01*
X141995802Y-102543817D01*
X142371706Y-102716352D01*
X142857466Y-102957885D01*
X143425381Y-103253494D01*
X144047751Y-103588261D01*
X144696875Y-103947267D01*
X145345054Y-104315590D01*
X145964587Y-104678312D01*
X146527774Y-105020513D01*
X146575304Y-105050141D01*
X147979265Y-105857365D01*
X149494084Y-106600332D01*
X150491662Y-107026146D01*
X151719962Y-107517793D01*
X152778809Y-107937181D01*
X153694181Y-108293605D01*
X154492056Y-108596357D01*
X155198411Y-108854732D01*
X155839224Y-109078023D01*
X156440473Y-109275522D01*
X157028135Y-109456525D01*
X157628189Y-109630323D01*
X158250476Y-109801850D01*
X159529747Y-110129361D01*
X160830377Y-110423350D01*
X162179967Y-110687653D01*
X163606120Y-110926107D01*
X165136436Y-111142550D01*
X166798518Y-111340819D01*
X168619965Y-111524750D01*
X170628380Y-111698180D01*
X172851364Y-111864947D01*
X173331475Y-111898343D01*
X174083418Y-111955518D01*
X175001171Y-112033885D01*
X176008413Y-112126419D01*
X177028821Y-112226096D01*
X177986072Y-112325889D01*
X178039768Y-112331720D01*
X179598522Y-112500911D01*
X180937078Y-112644961D01*
X182077717Y-112766075D01*
X183042721Y-112866462D01*
X183854372Y-112948328D01*
X184534951Y-113013880D01*
X185106740Y-113065326D01*
X185592020Y-113104871D01*
X186013073Y-113134723D01*
X186350000Y-113154827D01*
X187519205Y-113230823D01*
X188729091Y-113332069D01*
X189935998Y-113453234D01*
X191096264Y-113588982D01*
X192166231Y-113733979D01*
X193102238Y-113882892D01*
X193860624Y-114030387D01*
X194207931Y-114114816D01*
X194718967Y-114275435D01*
X195209298Y-114479958D01*
X195705640Y-114743876D01*
X196234708Y-115082680D01*
X196823215Y-115511862D01*
X197393777Y-115962247D01*
X198174164Y-116585829D01*
X198859036Y-117112809D01*
X199474931Y-117562019D01*
X200048389Y-117952289D01*
X200605950Y-118302450D01*
X201085327Y-118581561D01*
X202610814Y-119345625D01*
X204291928Y-120009222D01*
X206110971Y-120566678D01*
X208050243Y-121012320D01*
X209385366Y-121242127D01*
X209843902Y-121307253D01*
X210324864Y-121366791D01*
X210858697Y-121423247D01*
X211475847Y-121479129D01*
X212206759Y-121536943D01*
X213081877Y-121599194D01*
X214131646Y-121668390D01*
X215386511Y-121747038D01*
X215900732Y-121778538D01*
X216790045Y-121835555D01*
X217500081Y-121889493D01*
X218098574Y-121947859D01*
X218653260Y-122018163D01*
X219231876Y-122107912D01*
X219865610Y-122218060D01*
X220579769Y-122341882D01*
X221446201Y-122485670D01*
X222377694Y-122635311D01*
X223287035Y-122776693D01*
X223731990Y-122843719D01*
X224794977Y-123004691D01*
X225652144Y-123142036D01*
X226338993Y-123262277D01*
X226891024Y-123371933D01*
X227343738Y-123477526D01*
X227671463Y-123567333D01*
X227721975Y-123583093D01*
X227754715Y-123597501D01*
X227759244Y-123610619D01*
X227725121Y-123622510D01*
X227641908Y-123633234D01*
X227499163Y-123642855D01*
X227286446Y-123651434D01*
X226993318Y-123659034D01*
X226609339Y-123665716D01*
X226124068Y-123671543D01*
X225527066Y-123676577D01*
X224807892Y-123680880D01*
X223956107Y-123684515D01*
X222961270Y-123687542D01*
X221812942Y-123690025D01*
X220500681Y-123692025D01*
X219014050Y-123693604D01*
X217342606Y-123694826D01*
X215475911Y-123695751D01*
X213403524Y-123696442D01*
X211115005Y-123696961D01*
X208599915Y-123697369D01*
X205847812Y-123697731D01*
X205750488Y-123697743D01*
X202919005Y-123697956D01*
X200325562Y-123697836D01*
X197960395Y-123697345D01*
X195813739Y-123696448D01*
X193875830Y-123695107D01*
X192136904Y-123693284D01*
X190587196Y-123690943D01*
X189216942Y-123688047D01*
X188016378Y-123684559D01*
X186975738Y-123680441D01*
X186085260Y-123675658D01*
X185335179Y-123670171D01*
X184715729Y-123663944D01*
X184217148Y-123656940D01*
X183829670Y-123649122D01*
X183543532Y-123640452D01*
X183348969Y-123630895D01*
X183236216Y-123620412D01*
X183200244Y-123612286D01*
X183028468Y-123548129D01*
X182686526Y-123430578D01*
X182217259Y-123274017D01*
X181663505Y-123092832D01*
X181393902Y-123005727D01*
X178590275Y-122064533D01*
X175876507Y-121072037D01*
X173214940Y-120012808D01*
X170567917Y-118871412D01*
X167897781Y-117632417D01*
X165954869Y-116678788D01*
X164021201Y-115709139D01*
X162485601Y-115384078D01*
X161454126Y-115155915D01*
X160382508Y-114898667D01*
X159256110Y-114607807D01*
X158060296Y-114278806D01*
X156780429Y-113907138D01*
X155401872Y-113488276D01*
X153909989Y-113017690D01*
X152290144Y-112490855D01*
X150527700Y-111903243D01*
X148608019Y-111250325D01*
X146516467Y-110527576D01*
X144457808Y-109807603D01*
X143338161Y-109419170D01*
X142259342Y-109054534D01*
X141255490Y-108724778D01*
X140360742Y-108440980D01*
X139609235Y-108214224D01*
X139165109Y-108089583D01*
X138263547Y-107838485D01*
X137558053Y-107615076D01*
X137011138Y-107402720D01*
X136585312Y-107184779D01*
X136243087Y-106944615D01*
X135946974Y-106665593D01*
X135940262Y-106658429D01*
X135741355Y-106426514D01*
X135581013Y-106188726D01*
X135453539Y-105925589D01*
X135353238Y-105617626D01*
X135274415Y-105245359D01*
X135211371Y-104789312D01*
X135158413Y-104230009D01*
X135133533Y-103899859D01*
X135034586Y-102502589D01*
X133630940Y-100749728D01*
X133183395Y-100198224D01*
X132684693Y-99596180D01*
X132166467Y-98980962D01*
X131660353Y-98389936D01*
X131197986Y-97860468D01*
X130943655Y-97575616D01*
X130559683Y-97145631D01*
X130194593Y-96727820D01*
X129868625Y-96346037D01*
X129602019Y-96024135D01*
X129415012Y-95785971D01*
X129359683Y-95708721D01*
X128971243Y-94974625D01*
X128739983Y-94181509D01*
X128674131Y-93376357D01*
X128781914Y-92606149D01*
X128803166Y-92530810D01*
X129028387Y-91957325D01*
X129364993Y-91347108D01*
X129790301Y-90727611D01*
X130281623Y-90126281D01*
X130816275Y-89570568D01*
X131371570Y-89087921D01*
X131924823Y-88705789D01*
X132000560Y-88662023D01*
X132261269Y-88520118D01*
X132631620Y-88325058D01*
X133080840Y-88092377D01*
X133578156Y-87837612D01*
X134092796Y-87576299D01*
X134593988Y-87323974D01*
X135050959Y-87096173D01*
X135432937Y-86908432D01*
X135709148Y-86776287D01*
X135848821Y-86715274D01*
X135859756Y-86713644D01*
X135797428Y-86777991D01*
G37*
G36*
X45687462Y-92724371D02*
G01*
X46017524Y-92764115D01*
X46949699Y-92949142D01*
X47752296Y-93213380D01*
X48493077Y-93580413D01*
X48671019Y-93687550D01*
X49247213Y-94074106D01*
X49646884Y-94419393D01*
X49896726Y-94758042D01*
X50023435Y-95124685D01*
X50054257Y-95481985D01*
X50040483Y-95796726D01*
X49985642Y-96074800D01*
X49874206Y-96366026D01*
X49690646Y-96720223D01*
X49640862Y-96808355D01*
X49384001Y-97240127D01*
X49160385Y-97566614D01*
X48947860Y-97811812D01*
X48724278Y-97999716D01*
X48467487Y-98154321D01*
X48340610Y-98216883D01*
X47720838Y-98437677D01*
X47024291Y-98544431D01*
X46281462Y-98548291D01*
X45375113Y-98439051D01*
X44486724Y-98204435D01*
X43634422Y-97851705D01*
X42836332Y-97388122D01*
X42228418Y-96924656D01*
X41645700Y-96368817D01*
X41264784Y-95859961D01*
X41081523Y-95371306D01*
X41091772Y-94876068D01*
X41291385Y-94347466D01*
X41676216Y-93758717D01*
X41727926Y-93691384D01*
X42027735Y-93350783D01*
X42334018Y-93110413D01*
X42692181Y-92939514D01*
X42964189Y-92853866D01*
X43513696Y-92753014D01*
X44209921Y-92696074D01*
X44964098Y-92685657D01*
X45687462Y-92724371D01*
G37*
G36*
X135488049Y-86727938D02*
G01*
X135426098Y-86761097D01*
X135364146Y-86727938D01*
X135426098Y-86694778D01*
X135488049Y-86727938D01*
G37*
G36*
X103341953Y-86027382D02*
G01*
X103637835Y-86325557D01*
X103652598Y-86350390D01*
X103730385Y-86524134D01*
X103718491Y-86664646D01*
X103602111Y-86831619D01*
X103507377Y-86935925D01*
X103052332Y-87281770D01*
X102401093Y-87554152D01*
X101549997Y-87753956D01*
X100495382Y-87882069D01*
X99370488Y-87936779D01*
X98666197Y-87945751D01*
X98088338Y-87933933D01*
X97526655Y-87895711D01*
X96870890Y-87825471D01*
X96644634Y-87797971D01*
X95992616Y-87722698D01*
X95332467Y-87655425D01*
X94758074Y-87605314D01*
X94476341Y-87586348D01*
X93974833Y-87576809D01*
X93258793Y-87588447D01*
X92357874Y-87619844D01*
X91301727Y-87669580D01*
X90120003Y-87736234D01*
X88842354Y-87818388D01*
X87498431Y-87914622D01*
X87290000Y-87930409D01*
X85612183Y-88043261D01*
X84094798Y-88114222D01*
X82757732Y-88142783D01*
X81620872Y-88128432D01*
X80959010Y-88092898D01*
X79392694Y-87933747D01*
X78008559Y-87709501D01*
X76815755Y-87422828D01*
X75823432Y-87076395D01*
X75040741Y-86672869D01*
X74476834Y-86214918D01*
X74462514Y-86199407D01*
X74286740Y-85990271D01*
X74207145Y-85841384D01*
X86935573Y-85841384D01*
X86939793Y-85875469D01*
X87089135Y-86034192D01*
X87429246Y-86155045D01*
X87911297Y-86234008D01*
X88486460Y-86267063D01*
X89105905Y-86250188D01*
X89720803Y-86179366D01*
X89992329Y-86126751D01*
X90545718Y-85961479D01*
X90885822Y-85770613D01*
X91008555Y-85569663D01*
X90909830Y-85374142D01*
X90585558Y-85199558D01*
X90261111Y-85106733D01*
X89861134Y-85061696D01*
X89324153Y-85059625D01*
X88744431Y-85095844D01*
X88216231Y-85165676D01*
X87967819Y-85220506D01*
X87397138Y-85416017D01*
X87049186Y-85625442D01*
X86935573Y-85841384D01*
X74207145Y-85841384D01*
X74191986Y-85813029D01*
X74161282Y-85614519D01*
X74177658Y-85341576D01*
X74180418Y-85315638D01*
X74308508Y-84856808D01*
X74602983Y-84428227D01*
X75085337Y-84007585D01*
X75777068Y-83572568D01*
X75952286Y-83476580D01*
X77159323Y-82913825D01*
X78555629Y-82410974D01*
X80103429Y-81974786D01*
X81764947Y-81612023D01*
X83502409Y-81329443D01*
X85278038Y-81133807D01*
X87054061Y-81031874D01*
X88792700Y-81030405D01*
X89461752Y-81059041D01*
X90448214Y-81142934D01*
X91468501Y-81279320D01*
X92418874Y-81452627D01*
X92992500Y-81589058D01*
X93585059Y-81772008D01*
X94317284Y-82034976D01*
X95154801Y-82363560D01*
X96063238Y-82743358D01*
X97008221Y-83159970D01*
X97955378Y-83598993D01*
X98870335Y-84046026D01*
X98937460Y-84079859D01*
X99450468Y-84320882D01*
X100080531Y-84590328D01*
X100732228Y-84848367D01*
X101110989Y-84987158D01*
X102069326Y-85353245D01*
X102533190Y-85569663D01*
X102816049Y-85701632D01*
X103341953Y-86027382D01*
G37*
G36*
X153457312Y-47703658D02*
G01*
X153914313Y-47715018D01*
X154218438Y-47731795D01*
X154321220Y-47750932D01*
X154259767Y-47827317D01*
X154096071Y-47985987D01*
X153861127Y-48197393D01*
X153769569Y-48276855D01*
X152999877Y-48992157D01*
X152428271Y-49645368D01*
X152069496Y-50200252D01*
X151972985Y-50397365D01*
X151903143Y-50583164D01*
X151856409Y-50783647D01*
X151829221Y-51024815D01*
X151818019Y-51332666D01*
X151819242Y-51733200D01*
X151823760Y-51994429D01*
X151853967Y-52684092D01*
X151918656Y-53266119D01*
X152024129Y-53764652D01*
X152176687Y-54203830D01*
X152382631Y-54607795D01*
X152586661Y-54917131D01*
X152995371Y-55427231D01*
X153451317Y-55871972D01*
X154001583Y-56289170D01*
X154693252Y-56716641D01*
X155125087Y-56955892D01*
X155858418Y-57329102D01*
X156625844Y-57672787D01*
X157457035Y-57996413D01*
X158381662Y-58309446D01*
X159429395Y-58621349D01*
X160629903Y-58941589D01*
X162012859Y-59279631D01*
X163428049Y-59604673D01*
X164771082Y-59906442D01*
X165905472Y-60162290D01*
X166851561Y-60376997D01*
X167629694Y-60555341D01*
X168260212Y-60702101D01*
X168763460Y-60822057D01*
X169159781Y-60919988D01*
X169469517Y-61000673D01*
X169713012Y-61068891D01*
X169889255Y-61122600D01*
X170240354Y-61250236D01*
X170737351Y-61452997D01*
X171345951Y-61714956D01*
X172031855Y-62020188D01*
X172760767Y-62352768D01*
X173498389Y-62696770D01*
X174210424Y-63036268D01*
X174862575Y-63355338D01*
X175420545Y-63638053D01*
X175850036Y-63868489D01*
X176030381Y-63974154D01*
X176687625Y-64398195D01*
X177172051Y-64755451D01*
X177498240Y-65065921D01*
X177680773Y-65349603D01*
X177734232Y-65626497D01*
X177673198Y-65916601D01*
X177586246Y-66108079D01*
X177448108Y-66415062D01*
X177335014Y-66743405D01*
X177281379Y-66970007D01*
X177267879Y-67171511D01*
X177306747Y-67360555D01*
X177414844Y-67554067D01*
X177609032Y-67768978D01*
X177906172Y-68022218D01*
X178323125Y-68330716D01*
X178876752Y-68711402D01*
X179290937Y-68987729D01*
X179766436Y-69308515D01*
X180197350Y-69610002D01*
X180554600Y-69870997D01*
X180809107Y-70070305D01*
X180926700Y-70179944D01*
X181031654Y-70472704D01*
X180937428Y-70820863D01*
X180651944Y-71206984D01*
X180324721Y-71504892D01*
X179886374Y-71809001D01*
X179273596Y-72165770D01*
X178522106Y-72557574D01*
X177667623Y-72966784D01*
X176745865Y-73375774D01*
X175792553Y-73766917D01*
X175549831Y-73861250D01*
X173924771Y-74490328D01*
X172467553Y-75064712D01*
X171187095Y-75580780D01*
X170092313Y-76034911D01*
X169192127Y-76423480D01*
X168747810Y-76624256D01*
X168195592Y-76888545D01*
X167545592Y-77214679D01*
X166823264Y-77588557D01*
X166054060Y-77996073D01*
X165263435Y-78423124D01*
X164476842Y-78855606D01*
X163719734Y-79279415D01*
X163017564Y-79680446D01*
X162395786Y-80044597D01*
X161879853Y-80357762D01*
X161495218Y-80605839D01*
X161285365Y-80759269D01*
X160692159Y-81250567D01*
X160199270Y-81648765D01*
X159778527Y-81974179D01*
X159401759Y-82247124D01*
X159040794Y-82487915D01*
X158667463Y-82716868D01*
X158253595Y-82954297D01*
X158200088Y-82984200D01*
X156762351Y-83690836D01*
X155167574Y-84296305D01*
X153424039Y-84798250D01*
X151540027Y-85194310D01*
X149523819Y-85482125D01*
X149378015Y-85498150D01*
X148830559Y-85551421D01*
X148113070Y-85612920D01*
X147301868Y-85676533D01*
X146473272Y-85736147D01*
X146081707Y-85762195D01*
X145308064Y-85812231D01*
X144362503Y-85873671D01*
X143319051Y-85941687D01*
X142251732Y-86011452D01*
X141234573Y-86078141D01*
X141004321Y-86093271D01*
X140176763Y-86146922D01*
X139435287Y-86193536D01*
X138813856Y-86231100D01*
X138346430Y-86257597D01*
X138066973Y-86271012D01*
X138001331Y-86271513D01*
X138092282Y-86246720D01*
X138401049Y-86202885D01*
X138901007Y-86142745D01*
X139565529Y-86069032D01*
X140367989Y-85984481D01*
X141281762Y-85891826D01*
X142280219Y-85793802D01*
X143336737Y-85693142D01*
X144424688Y-85592580D01*
X145517446Y-85494851D01*
X145833902Y-85467217D01*
X146876845Y-85375242D01*
X147885765Y-85283597D01*
X148823262Y-85195878D01*
X149651937Y-85115679D01*
X150334389Y-85046596D01*
X150833221Y-84992225D01*
X151037805Y-84966948D01*
X152951773Y-84647528D01*
X154700514Y-84230045D01*
X156290273Y-83711878D01*
X157727295Y-83090409D01*
X159017824Y-82363016D01*
X160168105Y-81527081D01*
X160969847Y-80800147D01*
X161678948Y-80208076D01*
X162494947Y-79698173D01*
X162955867Y-79438449D01*
X163386009Y-79188313D01*
X163810849Y-78931425D01*
X164255867Y-78651445D01*
X164746541Y-78332034D01*
X165308349Y-77956853D01*
X165966769Y-77509562D01*
X166747279Y-76973822D01*
X166804162Y-76934640D01*
X167709489Y-76297584D01*
X168448500Y-75745960D01*
X169028929Y-75270786D01*
X169458513Y-74863083D01*
X169744988Y-74513871D01*
X169896090Y-74214168D01*
X169919555Y-73954995D01*
X169823118Y-73727372D01*
X169690574Y-73583891D01*
X169442001Y-73409210D01*
X169166525Y-73273036D01*
X169149510Y-73266874D01*
X168900107Y-73214913D01*
X168483671Y-73162007D01*
X167973349Y-73113735D01*
X167442289Y-73075679D01*
X166963638Y-73053421D01*
X166610543Y-73052541D01*
X166491791Y-73064088D01*
X166200946Y-73077006D01*
X165891912Y-73030249D01*
X165686526Y-72944140D01*
X165670750Y-72927143D01*
X165678956Y-72828890D01*
X165752795Y-72634446D01*
X165879456Y-72373439D01*
X166019459Y-72120726D01*
X166226252Y-71760996D01*
X166439948Y-71379796D01*
X166628448Y-71034772D01*
X166711577Y-70877807D01*
X166860196Y-70619955D01*
X167077502Y-70278629D01*
X167337585Y-69892950D01*
X167614532Y-69502036D01*
X167699956Y-69385640D01*
X168306740Y-68538050D01*
X168806284Y-67772886D01*
X169216476Y-67058090D01*
X169555204Y-66361603D01*
X169840358Y-65651366D01*
X169935977Y-65378350D01*
X170070320Y-64960883D01*
X170148355Y-64646326D01*
X170166821Y-64408026D01*
X170122457Y-64219330D01*
X170012001Y-64053585D01*
X169832191Y-63884139D01*
X169744406Y-63812761D01*
X169427893Y-63585113D01*
X168991932Y-63304481D01*
X168476370Y-62993297D01*
X167921054Y-62673995D01*
X167365834Y-62369007D01*
X166850555Y-62100765D01*
X166415065Y-61891703D01*
X166114818Y-61769444D01*
X165846015Y-61691414D01*
X165384783Y-61571968D01*
X164767957Y-61420028D01*
X164032373Y-61244516D01*
X163214866Y-61054356D01*
X162374878Y-60863541D01*
X160793630Y-60506714D01*
X159419803Y-60192076D01*
X158229961Y-59913610D01*
X157200669Y-59665297D01*
X156308490Y-59441119D01*
X155529989Y-59235056D01*
X154841730Y-59041092D01*
X154220276Y-58853206D01*
X153642192Y-58665380D01*
X153144146Y-58493021D01*
X151862032Y-57996642D01*
X150807135Y-57495419D01*
X149959378Y-56976012D01*
X149298684Y-56425079D01*
X148804974Y-55829280D01*
X148592876Y-55468968D01*
X148436042Y-55039991D01*
X148345098Y-54512803D01*
X148319921Y-53917037D01*
X148360390Y-53282324D01*
X148466384Y-52638298D01*
X148606645Y-52109661D01*
X148923003Y-51224042D01*
X149281666Y-50444314D01*
X149698357Y-49744493D01*
X150188802Y-49098598D01*
X150768726Y-48480647D01*
X150850688Y-48401791D01*
X151110578Y-48149261D01*
X151316994Y-47938894D01*
X151443888Y-47797821D01*
X151471463Y-47755185D01*
X151587199Y-47733254D01*
X151901800Y-47715387D01*
X152366361Y-47703497D01*
X152896341Y-47699478D01*
X153457312Y-47703658D01*
G37*
G36*
X135209626Y-86573537D02*
G01*
X135164540Y-86626151D01*
X135111916Y-86653757D01*
X134957766Y-86701940D01*
X134604778Y-86796055D01*
X134081296Y-86929054D01*
X133415660Y-87093891D01*
X132636213Y-87283518D01*
X131771295Y-87490886D01*
X131213415Y-87623181D01*
X130233105Y-87856198D01*
X129252589Y-88092031D01*
X128314382Y-88320253D01*
X127460997Y-88530437D01*
X126734952Y-88712157D01*
X126178761Y-88854987D01*
X126032541Y-88893739D01*
X124583694Y-89262943D01*
X123071378Y-89612929D01*
X121584408Y-89924097D01*
X120240443Y-90171969D01*
X119485097Y-90304455D01*
X118923344Y-90415366D01*
X118508722Y-90516043D01*
X118194773Y-90617827D01*
X117935034Y-90732057D01*
X117924878Y-90737165D01*
X117700212Y-90885652D01*
X117650516Y-91031369D01*
X117787802Y-91191750D01*
X118124079Y-91384233D01*
X118482439Y-91546608D01*
X118711051Y-91645436D01*
X118912703Y-91736695D01*
X119104954Y-91831784D01*
X119305361Y-91942100D01*
X119531481Y-92079043D01*
X119800872Y-92254011D01*
X120131090Y-92478402D01*
X120539693Y-92763615D01*
X121044239Y-93121048D01*
X121662285Y-93562100D01*
X122398992Y-94089295D01*
X123006138Y-94518077D01*
X123634043Y-94951092D01*
X124247596Y-95364868D01*
X124811689Y-95735934D01*
X125291212Y-96040820D01*
X125573473Y-96211489D01*
X126858337Y-96988037D01*
X127955642Y-97713084D01*
X128887247Y-98406043D01*
X129675009Y-99086326D01*
X130340783Y-99773345D01*
X130906427Y-100486514D01*
X131393799Y-101245243D01*
X131544154Y-101514438D01*
X131723445Y-101862896D01*
X131863637Y-102181672D01*
X131970684Y-102496990D01*
X132050543Y-102835073D01*
X132109171Y-103222145D01*
X132152524Y-103684428D01*
X132186557Y-104248145D01*
X132192452Y-104368669D01*
X132237376Y-105034846D01*
X132311198Y-105597280D01*
X132426358Y-106084570D01*
X132595299Y-106525317D01*
X132830459Y-106948121D01*
X133144280Y-107381582D01*
X133549204Y-107854301D01*
X133849112Y-108177165D01*
X134387139Y-108726409D01*
X134887348Y-109190381D01*
X135391956Y-109599745D01*
X135943178Y-109985170D01*
X136583231Y-110377322D01*
X137354330Y-110806869D01*
X137784370Y-111035848D01*
X138370265Y-111351548D01*
X139072270Y-111741167D01*
X139859941Y-112186859D01*
X140702833Y-112670777D01*
X141570504Y-113175076D01*
X142432509Y-113681910D01*
X143258405Y-114173433D01*
X144017749Y-114631797D01*
X144680095Y-115039158D01*
X145215001Y-115377669D01*
X145417137Y-115510183D01*
X145972815Y-115899313D01*
X146571891Y-116350710D01*
X147172996Y-116830555D01*
X147734761Y-117305028D01*
X148215818Y-117740307D01*
X148534801Y-118058982D01*
X148866324Y-118465697D01*
X149028450Y-118812365D01*
X149024673Y-119133960D01*
X148858487Y-119465458D01*
X148695583Y-119668685D01*
X148185634Y-120091623D01*
X147459463Y-120450866D01*
X146516547Y-120746603D01*
X145356362Y-120979019D01*
X144809688Y-121057090D01*
X144318816Y-121115010D01*
X143878355Y-121151860D01*
X143417225Y-121170190D01*
X142864346Y-121172552D01*
X142148636Y-121161496D01*
X141992927Y-121158188D01*
X140709640Y-121109686D01*
X139437646Y-121017223D01*
X138122691Y-120874814D01*
X136710522Y-120676474D01*
X135146884Y-120416218D01*
X134951089Y-120381366D01*
X132974993Y-120042708D01*
X131201329Y-119771189D01*
X129620097Y-119565654D01*
X128221299Y-119424949D01*
X126994935Y-119347920D01*
X125931004Y-119333411D01*
X125882612Y-119334292D01*
X125283197Y-119349840D01*
X124865120Y-119373337D01*
X124561913Y-119412399D01*
X124307109Y-119474640D01*
X124122251Y-119535973D01*
X123597006Y-119797817D01*
X123243502Y-120141341D01*
X123059844Y-120553594D01*
X123044135Y-121021625D01*
X123194480Y-121532484D01*
X123508982Y-122073219D01*
X123985745Y-122630881D01*
X124622873Y-123192518D01*
X124662042Y-123222890D01*
X124919910Y-123425299D01*
X125111260Y-123582605D01*
X125201340Y-123666062D01*
X125204146Y-123671358D01*
X125084816Y-123677907D01*
X124745089Y-123683052D01*
X124212361Y-123686714D01*
X123514028Y-123688810D01*
X122677485Y-123689261D01*
X121730129Y-123687985D01*
X120699356Y-123684901D01*
X120662181Y-123684760D01*
X116120215Y-123667363D01*
X115844522Y-123236293D01*
X115680281Y-122992927D01*
X115453022Y-122673901D01*
X115196313Y-122325703D01*
X115006455Y-122075718D01*
X114463616Y-121310426D01*
X113967355Y-120493387D01*
X113551331Y-119683389D01*
X113312854Y-119117579D01*
X113136349Y-118718229D01*
X112933493Y-118377891D01*
X112726659Y-118133727D01*
X112361837Y-117858568D01*
X111823393Y-117531182D01*
X111147619Y-117169827D01*
X110370810Y-116792764D01*
X109529257Y-116418252D01*
X108659255Y-116064551D01*
X108470710Y-115992501D01*
X107841606Y-115750128D01*
X107225294Y-115504082D01*
X106676708Y-115276887D01*
X106250785Y-115091065D01*
X106103647Y-115022010D01*
X105638162Y-114774142D01*
X105116938Y-114464375D01*
X104590482Y-114125944D01*
X104109303Y-113792085D01*
X103723909Y-113496035D01*
X103552195Y-113343079D01*
X103323688Y-112987594D01*
X103275044Y-112570575D01*
X103395221Y-112115053D01*
X103673176Y-111644059D01*
X104097867Y-111180625D01*
X104658251Y-110747781D01*
X104855517Y-110624762D01*
X105347871Y-110360964D01*
X105816912Y-110183012D01*
X106356236Y-110059801D01*
X106727794Y-110002579D01*
X107438937Y-109944591D01*
X108175353Y-109967809D01*
X108963859Y-110076983D01*
X109831278Y-110276862D01*
X110804427Y-110572197D01*
X111670446Y-110877920D01*
X112767420Y-111282693D01*
X113690970Y-111619195D01*
X114468412Y-111896922D01*
X115127063Y-112125370D01*
X115694240Y-112314038D01*
X116197259Y-112472420D01*
X116602681Y-112592601D01*
X117227494Y-112775903D01*
X117914647Y-112982859D01*
X118541560Y-113176420D01*
X118699268Y-113226245D01*
X119582220Y-113501027D01*
X120364704Y-113727697D01*
X121099615Y-113917513D01*
X121839848Y-114081732D01*
X122638299Y-114231612D01*
X123547863Y-114378409D01*
X124621437Y-114533381D01*
X125236014Y-114617418D01*
X126216972Y-114751272D01*
X126994750Y-114861961D01*
X127607344Y-114956788D01*
X128092752Y-115043056D01*
X128488972Y-115128068D01*
X128834001Y-115219125D01*
X129165837Y-115323533D01*
X129478781Y-115432852D01*
X131030054Y-115919604D01*
X132608446Y-116274664D01*
X134215115Y-116498247D01*
X135688635Y-116587296D01*
X136497103Y-116596916D01*
X137115305Y-116577368D01*
X137596986Y-116522604D01*
X137995892Y-116426573D01*
X138357800Y-116286823D01*
X138798197Y-116004552D01*
X139036798Y-115645354D01*
X139073606Y-115209279D01*
X138908625Y-114696378D01*
X138541859Y-114106703D01*
X138156461Y-113638660D01*
X137541053Y-113012586D01*
X136855141Y-112443143D01*
X136029531Y-111873588D01*
X135916342Y-111801629D01*
X135653894Y-111628220D01*
X135414414Y-111449151D01*
X135184896Y-111249472D01*
X134952334Y-111014229D01*
X134703720Y-110728470D01*
X134426050Y-110377244D01*
X134106317Y-109945598D01*
X133731515Y-109418579D01*
X133288637Y-108781235D01*
X133286993Y-108778851D01*
X132849451Y-108139753D01*
X132492795Y-107602018D01*
X132207912Y-107143428D01*
X131985689Y-106741768D01*
X131817012Y-106374818D01*
X131692769Y-106020363D01*
X131603846Y-105656186D01*
X131541130Y-105260068D01*
X131495509Y-104809793D01*
X131460654Y-104326345D01*
X131401124Y-103628612D01*
X131315692Y-103034321D01*
X131196420Y-102514625D01*
X131035368Y-102040677D01*
X130824599Y-101583630D01*
X130593565Y-101175584D01*
X130120055Y-100476008D01*
X129570441Y-99820546D01*
X128930109Y-99201732D01*
X128184444Y-98612101D01*
X127318833Y-98044187D01*
X126318662Y-97490525D01*
X125169316Y-96943648D01*
X123856183Y-96396092D01*
X122364648Y-95840390D01*
X120680097Y-95269078D01*
X118787915Y-94674690D01*
X116673490Y-94049759D01*
X116607510Y-94030760D01*
X115164635Y-93605104D01*
X113945475Y-93220588D01*
X112941951Y-92871444D01*
X112145987Y-92551908D01*
X111549504Y-92256213D01*
X111144426Y-91978592D01*
X110922675Y-91713280D01*
X110876173Y-91454509D01*
X110996842Y-91196515D01*
X111276605Y-90933529D01*
X111707385Y-90659788D01*
X111808189Y-90604719D01*
X112610857Y-90252857D01*
X113648442Y-89931123D01*
X114922533Y-89639175D01*
X116434717Y-89376671D01*
X118186583Y-89143271D01*
X119038645Y-89049195D01*
X119804351Y-88969318D01*
X120632072Y-88882849D01*
X121415692Y-88800882D01*
X121982683Y-88741475D01*
X123312058Y-88588547D01*
X124752685Y-88399522D01*
X126187932Y-88190410D01*
X127300185Y-88011599D01*
X128958948Y-87729756D01*
X130388759Y-87484226D01*
X131598156Y-87273448D01*
X132595673Y-87095858D01*
X133389848Y-86949896D01*
X133989215Y-86833998D01*
X134402311Y-86746603D01*
X134637672Y-86686148D01*
X134703327Y-86656739D01*
X134867859Y-86579861D01*
X135032246Y-86562141D01*
X135209626Y-86573537D01*
G37*
G36*
X135054390Y-86876433D02*
G01*
X134921293Y-86934286D01*
X134621996Y-87058710D01*
X134188429Y-87236613D01*
X133652526Y-87454905D01*
X133046218Y-87700493D01*
X132922497Y-87750452D01*
X132254652Y-88026097D01*
X131606363Y-88304730D01*
X131022836Y-88566105D01*
X130549274Y-88789971D01*
X130230884Y-88956081D01*
X130230745Y-88956162D01*
X129514967Y-89413393D01*
X128840013Y-89926108D01*
X128236556Y-90464948D01*
X127735269Y-91000556D01*
X127366823Y-91503575D01*
X127185419Y-91870915D01*
X127073148Y-92285032D01*
X127000561Y-92756395D01*
X126970142Y-93240124D01*
X126984375Y-93691339D01*
X127045746Y-94065159D01*
X127061044Y-94117780D01*
X127175315Y-94433079D01*
X127321877Y-94738420D01*
X127515493Y-95052910D01*
X127770925Y-95395655D01*
X128102934Y-95785762D01*
X128526282Y-96242338D01*
X129055731Y-96784488D01*
X129344754Y-97073630D01*
X130069350Y-97798293D01*
X130685891Y-98424524D01*
X131208768Y-98969206D01*
X131652370Y-99449220D01*
X132031085Y-99881450D01*
X132359304Y-100282777D01*
X132651415Y-100670083D01*
X132921808Y-101060252D01*
X133184872Y-101470165D01*
X133414557Y-101848564D01*
X133550778Y-102079862D01*
X133655753Y-102273172D01*
X133734409Y-102451284D01*
X133791671Y-102636983D01*
X133832468Y-102853058D01*
X133861725Y-103122295D01*
X133884368Y-103467482D01*
X133905325Y-103911407D01*
X133916379Y-104169713D01*
X133946164Y-104758776D01*
X133984641Y-105236972D01*
X134038588Y-105626065D01*
X134114786Y-105947823D01*
X134220012Y-106224010D01*
X134361048Y-106476391D01*
X134544671Y-106726734D01*
X134777662Y-106996802D01*
X134806976Y-107029066D01*
X135197526Y-107394877D01*
X135706836Y-107757315D01*
X136358366Y-108129080D01*
X137175578Y-108522871D01*
X138181933Y-108951387D01*
X138842083Y-109213290D01*
X139613245Y-109515437D01*
X140467800Y-109854379D01*
X141326622Y-110198477D01*
X142110586Y-110516093D01*
X142513000Y-110681153D01*
X143921116Y-111260028D01*
X145181683Y-111772522D01*
X146339260Y-112236039D01*
X147438404Y-112667982D01*
X148523674Y-113085753D01*
X149639628Y-113506756D01*
X150830824Y-113948393D01*
X151609042Y-114233753D01*
X153026735Y-114752019D01*
X154254500Y-115201453D01*
X155307320Y-115587808D01*
X156200182Y-115916838D01*
X156948069Y-116194296D01*
X157565967Y-116425936D01*
X158068860Y-116617510D01*
X158471733Y-116774773D01*
X158789572Y-116903477D01*
X159037360Y-117009376D01*
X159230082Y-117098224D01*
X159382724Y-117175774D01*
X159510270Y-117247779D01*
X159597161Y-117300784D01*
X159810811Y-117442524D01*
X160144274Y-117674109D01*
X160572607Y-117977729D01*
X161070868Y-118335576D01*
X161614111Y-118729841D01*
X162177394Y-119142715D01*
X162188814Y-119151130D01*
X163373622Y-120013377D01*
X164495347Y-120808053D01*
X165540707Y-121526198D01*
X166496420Y-122158857D01*
X167349202Y-122697073D01*
X168085773Y-123131888D01*
X168122442Y-123152509D01*
X169099762Y-123700522D01*
X153419992Y-123700522D01*
X153983012Y-123378349D01*
X154544664Y-123006564D01*
X154948914Y-122609713D01*
X155246255Y-122137389D01*
X155265353Y-122098145D01*
X155387562Y-121726926D01*
X155451375Y-121278759D01*
X155455406Y-120805774D01*
X155398273Y-120360102D01*
X155318783Y-120086162D01*
X155157602Y-119754188D01*
X154919294Y-119367478D01*
X154631936Y-118963389D01*
X154323603Y-118579278D01*
X154022372Y-118252503D01*
X153778663Y-118036890D01*
X153529757Y-117871392D01*
X153143655Y-117647701D01*
X152612221Y-117361661D01*
X151927320Y-117009121D01*
X151080814Y-116585927D01*
X150064569Y-116087924D01*
X148870447Y-115510960D01*
X148218060Y-115198227D01*
X147495149Y-114849254D01*
X146647437Y-114434784D01*
X145728544Y-113981363D01*
X144792096Y-113515539D01*
X143891714Y-113063858D01*
X143232327Y-112729984D01*
X142450313Y-112334811D01*
X141635047Y-111927864D01*
X140828952Y-111529967D01*
X140074454Y-111161942D01*
X139413976Y-110844612D01*
X138895366Y-110601294D01*
X137859626Y-110112521D01*
X136997838Y-109677054D01*
X136276311Y-109275812D01*
X135661351Y-108889713D01*
X135119267Y-108499674D01*
X134951989Y-108367939D01*
X134191086Y-107690985D01*
X133613838Y-107023170D01*
X133246637Y-106446187D01*
X133157621Y-106265039D01*
X133086808Y-106071626D01*
X133030564Y-105844815D01*
X132985252Y-105563473D01*
X132947235Y-105206468D01*
X132912880Y-104752667D01*
X132889211Y-104368669D01*
X132840286Y-103684178D01*
X132779701Y-103124235D01*
X132706308Y-102680872D01*
X132618958Y-102346119D01*
X132584083Y-102251176D01*
X132024499Y-101159235D01*
X131222399Y-100048069D01*
X130179780Y-98920009D01*
X128898636Y-97777385D01*
X128433720Y-97405222D01*
X127922639Y-97005873D01*
X127376641Y-96578981D01*
X126843152Y-96161645D01*
X126369598Y-95790959D01*
X126102178Y-95581462D01*
X125194856Y-94792378D01*
X124518753Y-94024436D01*
X124065553Y-93264796D01*
X123826943Y-92500620D01*
X123782996Y-92000261D01*
X123787236Y-91677839D01*
X123810656Y-91452375D01*
X123864893Y-91288248D01*
X123961586Y-91149842D01*
X124108036Y-91005483D01*
X124578259Y-90647222D01*
X125236079Y-90248445D01*
X126046363Y-89826775D01*
X126973980Y-89399837D01*
X127983798Y-88985255D01*
X128579007Y-88762563D01*
X128917957Y-88646938D01*
X129390072Y-88495345D01*
X129966265Y-88316256D01*
X130617446Y-88118145D01*
X131314528Y-87909484D01*
X132028422Y-87698747D01*
X132730040Y-87494405D01*
X133390293Y-87304932D01*
X133980093Y-87138800D01*
X134470351Y-87004483D01*
X134831979Y-86910453D01*
X135035889Y-86865183D01*
X135054390Y-86876433D01*
G37*
G36*
X127567060Y-85067745D02*
G01*
X128137383Y-85079526D01*
X128542778Y-85098248D01*
X128611463Y-85103981D01*
X129103892Y-85162218D01*
X129737751Y-85252776D01*
X130475108Y-85368704D01*
X131278031Y-85503048D01*
X132108588Y-85648859D01*
X132928848Y-85799185D01*
X133700878Y-85947073D01*
X134386746Y-86085573D01*
X134948520Y-86207733D01*
X135348269Y-86306602D01*
X135548002Y-86375193D01*
X135587824Y-86420708D01*
X135426098Y-86399660D01*
X135219284Y-86370748D01*
X134819079Y-86324802D01*
X134276296Y-86267313D01*
X133641747Y-86203774D01*
X133381707Y-86178667D01*
X132747389Y-86120661D01*
X132188118Y-86077131D01*
X131648922Y-86046019D01*
X131074829Y-86025266D01*
X130410865Y-86012814D01*
X129602058Y-86006605D01*
X128735366Y-86004677D01*
X127959775Y-86005142D01*
X127258591Y-86009788D01*
X126610881Y-86021446D01*
X125995712Y-86042950D01*
X125392151Y-86077132D01*
X124779265Y-86126826D01*
X124136121Y-86194863D01*
X123441787Y-86284079D01*
X122675330Y-86397304D01*
X121815816Y-86537372D01*
X120842313Y-86707116D01*
X119733888Y-86909369D01*
X118469608Y-87146963D01*
X117028540Y-87422732D01*
X115389751Y-87739509D01*
X114176829Y-87974915D01*
X112846747Y-88232631D01*
X111724475Y-88448349D01*
X110785536Y-88626263D01*
X110005449Y-88770569D01*
X109359735Y-88885461D01*
X108823914Y-88975134D01*
X108373506Y-89043783D01*
X107984031Y-89095603D01*
X107631011Y-89134789D01*
X107289964Y-89165535D01*
X107176341Y-89174508D01*
X105940607Y-89262462D01*
X104477453Y-89354407D01*
X102807082Y-89449234D01*
X100949695Y-89545833D01*
X98925494Y-89643092D01*
X97388049Y-89712382D01*
X96380441Y-89758439D01*
X95402319Y-89806520D01*
X94494871Y-89854349D01*
X93699284Y-89899648D01*
X93056747Y-89940140D01*
X92608446Y-89973546D01*
X92522412Y-89981411D01*
X91477150Y-90105071D01*
X90449416Y-90265959D01*
X89480802Y-90454645D01*
X88612899Y-90661702D01*
X87887301Y-90877699D01*
X87345598Y-91093207D01*
X87156636Y-91197875D01*
X86896493Y-91393609D01*
X86718935Y-91603873D01*
X86614714Y-91855198D01*
X86574582Y-92174114D01*
X86589291Y-92587151D01*
X86607286Y-92773844D01*
X86639101Y-93183721D01*
X86625074Y-93521154D01*
X86548339Y-93815182D01*
X86392031Y-94094847D01*
X86139287Y-94389188D01*
X85773241Y-94727246D01*
X85277027Y-95138059D01*
X85196843Y-95202524D01*
X84494768Y-95782664D01*
X83863797Y-96337660D01*
X83320368Y-96851348D01*
X82880921Y-97307562D01*
X82561897Y-97690137D01*
X82388444Y-97964087D01*
X82300187Y-98206256D01*
X82270532Y-98461635D01*
X82305179Y-98748449D01*
X82409828Y-99084927D01*
X82590178Y-99489295D01*
X82851932Y-99979780D01*
X83200787Y-100574609D01*
X83209186Y-100588512D01*
X83653177Y-101285650D01*
X84079448Y-101874800D01*
X84505430Y-102379270D01*
X84703310Y-102586516D01*
X85186860Y-103091446D01*
X85548762Y-103518308D01*
X85807141Y-103898559D01*
X85980120Y-104263656D01*
X86085823Y-104645057D01*
X86142372Y-105074218D01*
X86143322Y-105085940D01*
X86166161Y-105436488D01*
X86163570Y-105695855D01*
X86127242Y-105905176D01*
X86048867Y-106105589D01*
X85920137Y-106338232D01*
X85875424Y-106412310D01*
X85590784Y-106827847D01*
X85253325Y-107237919D01*
X84888885Y-107617275D01*
X84523302Y-107940663D01*
X84182418Y-108182829D01*
X83941470Y-108302352D01*
X83580460Y-108401048D01*
X83164913Y-108445211D01*
X82663675Y-108432325D01*
X82045591Y-108359873D01*
X81279504Y-108225340D01*
X80334260Y-108026208D01*
X80227561Y-108002394D01*
X79250859Y-107788564D01*
X78444709Y-107626432D01*
X77757151Y-107509316D01*
X77136224Y-107430537D01*
X76529968Y-107383415D01*
X75886424Y-107361268D01*
X75209512Y-107357229D01*
X73650249Y-107414027D01*
X72060175Y-107578373D01*
X70402205Y-107854463D01*
X69888443Y-107959195D01*
X68977376Y-108164841D01*
X68178808Y-108376910D01*
X67446066Y-108612975D01*
X66732474Y-108890611D01*
X65991358Y-109227390D01*
X65176043Y-109640887D01*
X64600653Y-109950130D01*
X63925447Y-110329380D01*
X63388011Y-110660958D01*
X62936875Y-110982821D01*
X62520565Y-111332927D01*
X62087611Y-111749235D01*
X61897464Y-111943598D01*
X61603381Y-112219100D01*
X61280957Y-112476069D01*
X60986634Y-112670690D01*
X60905399Y-112713715D01*
X60523280Y-112857822D01*
X59923623Y-113024995D01*
X59102136Y-113216130D01*
X58054531Y-113432124D01*
X56776520Y-113673874D01*
X55263812Y-113942276D01*
X54000455Y-114156962D01*
X53012249Y-114321140D01*
X52221080Y-114449060D01*
X51588432Y-114545658D01*
X51075792Y-114615870D01*
X50644644Y-114664631D01*
X50256473Y-114696878D01*
X49872767Y-114717545D01*
X49534274Y-114729319D01*
X48267919Y-114722515D01*
X47112454Y-114618125D01*
X46017460Y-114407681D01*
X44932521Y-114082717D01*
X44329702Y-113855278D01*
X43896085Y-113667577D01*
X43458887Y-113448458D01*
X42991689Y-113182024D01*
X42468070Y-112852378D01*
X41861612Y-112443622D01*
X41145894Y-111939861D01*
X41143222Y-111937952D01*
X40471623Y-111481287D01*
X39879202Y-111134705D01*
X39337498Y-110888818D01*
X38818047Y-110734241D01*
X38292389Y-110661584D01*
X37732059Y-110661461D01*
X37366638Y-110692381D01*
X36617262Y-110826317D01*
X35814850Y-111058774D01*
X35012096Y-111368313D01*
X34261693Y-111733495D01*
X33616335Y-112132882D01*
X33377518Y-112315340D01*
X33111649Y-112568449D01*
X32789440Y-112930685D01*
X32424451Y-113383927D01*
X32030238Y-113910051D01*
X31620360Y-114490934D01*
X31208375Y-115108452D01*
X30807841Y-115744484D01*
X30788960Y-115775457D01*
X30291722Y-116569656D01*
X29840295Y-117241335D01*
X29428769Y-117797692D01*
X29051234Y-118245923D01*
X28701777Y-118593226D01*
X28374490Y-118846796D01*
X28168625Y-118965867D01*
X27978119Y-119040507D01*
X27607242Y-119168096D01*
X27084207Y-119339988D01*
X26437228Y-119547536D01*
X25694517Y-119782093D01*
X24884288Y-120035013D01*
X24034754Y-120297648D01*
X23174129Y-120561352D01*
X22330625Y-120817477D01*
X21532455Y-121057378D01*
X20807834Y-121272408D01*
X20184974Y-121453919D01*
X19692088Y-121593265D01*
X19357389Y-121681799D01*
X19211763Y-121710966D01*
X19203556Y-121645922D01*
X19195632Y-121455887D01*
X19188048Y-121148508D01*
X19180864Y-120731431D01*
X19174138Y-120212301D01*
X19167927Y-119598766D01*
X19162289Y-118898472D01*
X19157284Y-118119064D01*
X19152970Y-117268190D01*
X19149404Y-116353496D01*
X19146645Y-115382627D01*
X19144750Y-114363230D01*
X19143780Y-113302952D01*
X19143659Y-112768837D01*
X19143659Y-103826707D01*
X19876268Y-103717686D01*
X20165715Y-103670212D01*
X20414125Y-103613058D01*
X20648883Y-103531673D01*
X20897369Y-103411505D01*
X21186968Y-103238003D01*
X21545061Y-102996615D01*
X21999032Y-102672789D01*
X22421799Y-102364949D01*
X23345820Y-101737684D01*
X24226763Y-101238707D01*
X25068350Y-100866058D01*
X25604969Y-100688096D01*
X26669399Y-100441205D01*
X27732616Y-100312286D01*
X28812547Y-100302343D01*
X29927113Y-100412380D01*
X31094241Y-100643400D01*
X32331853Y-100996407D01*
X32580571Y-101078746D01*
X33519036Y-101376883D01*
X34444081Y-101627721D01*
X35389136Y-101835571D01*
X36387630Y-102004744D01*
X37472994Y-102139549D01*
X38678655Y-102244298D01*
X40038043Y-102323301D01*
X41584588Y-102380869D01*
X42931446Y-102413449D01*
X43868471Y-102433782D01*
X44775524Y-102456704D01*
X45607286Y-102480823D01*
X46318440Y-102504748D01*
X46863668Y-102527089D01*
X47151028Y-102542962D01*
X48369208Y-102598481D01*
X49647178Y-102596560D01*
X51042897Y-102536123D01*
X52241617Y-102448421D01*
X53826958Y-102301108D01*
X55183766Y-102142240D01*
X56330985Y-101967059D01*
X57287562Y-101770809D01*
X58072440Y-101548735D01*
X58704567Y-101296080D01*
X59202887Y-101008087D01*
X59586344Y-100680002D01*
X59673769Y-100582600D01*
X59842082Y-100394385D01*
X60004791Y-100257235D01*
X60214669Y-100144100D01*
X60524492Y-100027930D01*
X60987035Y-99881677D01*
X61121138Y-99840767D01*
X62326664Y-99451479D01*
X63568614Y-99009695D01*
X64793745Y-98536753D01*
X65948812Y-98053987D01*
X66980572Y-97582733D01*
X67797333Y-97165523D01*
X68511149Y-96763534D01*
X69129819Y-96389041D01*
X69685861Y-96017657D01*
X70211794Y-95624999D01*
X70740136Y-95186679D01*
X71303403Y-94678315D01*
X71934116Y-94075519D01*
X71987957Y-94022977D01*
X72725440Y-93324200D01*
X73395820Y-92738197D01*
X74016775Y-92253110D01*
X74605986Y-91857082D01*
X75181132Y-91538254D01*
X75759893Y-91284769D01*
X76359950Y-91084767D01*
X76375256Y-91080385D01*
X76664640Y-91016587D01*
X77166448Y-90926906D01*
X77851700Y-90815405D01*
X78691416Y-90686152D01*
X79656615Y-90543212D01*
X80718318Y-90390650D01*
X81847544Y-90232533D01*
X83015312Y-90072927D01*
X84192643Y-89915896D01*
X85350556Y-89765507D01*
X86460071Y-89625826D01*
X87492207Y-89500917D01*
X88281220Y-89410048D01*
X89150457Y-89320322D01*
X89966932Y-89254317D01*
X90777167Y-89211124D01*
X91627690Y-89189833D01*
X92565026Y-89189536D01*
X93635699Y-89209324D01*
X94886236Y-89248287D01*
X95464112Y-89269683D01*
X96721774Y-89308602D01*
X97901399Y-89323489D01*
X99074985Y-89313379D01*
X100314531Y-89277311D01*
X101692034Y-89214319D01*
X102370386Y-89177257D01*
X103245734Y-89122865D01*
X104194226Y-89055972D01*
X105167570Y-88980714D01*
X106117470Y-88901232D01*
X106995631Y-88821662D01*
X107753760Y-88746144D01*
X108343562Y-88678815D01*
X108601220Y-88643354D01*
X109035267Y-88565341D01*
X109666415Y-88435987D01*
X110468407Y-88261403D01*
X111414991Y-88047696D01*
X112479911Y-87800976D01*
X113636913Y-87527354D01*
X114859744Y-87232937D01*
X116122148Y-86923835D01*
X117397872Y-86606157D01*
X117900304Y-86479497D01*
X119172185Y-86159321D01*
X120251610Y-85892730D01*
X121168380Y-85674655D01*
X121952299Y-85500028D01*
X122633169Y-85363781D01*
X123240793Y-85260846D01*
X123804974Y-85186154D01*
X124355515Y-85134637D01*
X124922218Y-85101226D01*
X125534886Y-85080855D01*
X126195366Y-85068841D01*
X126897743Y-85063863D01*
X127567060Y-85067745D01*
G37*
G36*
X255146829Y-69834105D02*
G01*
X254396207Y-70109319D01*
X253537829Y-70439841D01*
X252651190Y-70794102D01*
X251815785Y-71140537D01*
X251336829Y-71347041D01*
X249838063Y-71994533D01*
X248484220Y-72552945D01*
X247251007Y-73030097D01*
X246114132Y-73433807D01*
X245049304Y-73771895D01*
X244032231Y-74052178D01*
X243038620Y-74282478D01*
X242044180Y-74470612D01*
X241251788Y-74593189D01*
X239625597Y-74771231D01*
X237870893Y-74871239D01*
X236043597Y-74894879D01*
X234199632Y-74843820D01*
X232394921Y-74719729D01*
X230685384Y-74524271D01*
X229126944Y-74259116D01*
X228973535Y-74227126D01*
X227319982Y-73809369D01*
X225774228Y-73286837D01*
X224362638Y-72672109D01*
X223111573Y-71977767D01*
X222047395Y-71216391D01*
X221384522Y-70605554D01*
X220688591Y-69840724D01*
X220131953Y-69133850D01*
X219689623Y-68443587D01*
X219336616Y-67728588D01*
X219047947Y-66947509D01*
X218924048Y-66533943D01*
X218789681Y-66077369D01*
X218671878Y-65739389D01*
X218559754Y-65506776D01*
X218442427Y-65366302D01*
X218309011Y-65304741D01*
X218148623Y-65308865D01*
X217959813Y-65362118D01*
X217518632Y-65579859D01*
X217092612Y-65908545D01*
X216701752Y-66326510D01*
X216366048Y-66812085D01*
X216105499Y-67343604D01*
X216087085Y-67391191D01*
X215950379Y-67850750D01*
X215843170Y-68410712D01*
X215766729Y-69039704D01*
X215722329Y-69706357D01*
X215711242Y-70379297D01*
X215734738Y-71027154D01*
X215794091Y-71618557D01*
X215890572Y-72122134D01*
X215894657Y-72137859D01*
X215980001Y-72614051D01*
X216010309Y-73154745D01*
X215990078Y-73735003D01*
X215923803Y-74329887D01*
X215815983Y-74914459D01*
X215671112Y-75463783D01*
X215493688Y-75952919D01*
X215288207Y-76356931D01*
X215085700Y-76624365D01*
X214833229Y-76809224D01*
X214392884Y-77047976D01*
X213793065Y-77329763D01*
X213062172Y-77643728D01*
X212228602Y-77979016D01*
X211320756Y-78324769D01*
X210367032Y-78670130D01*
X209395830Y-79004243D01*
X208435547Y-79316252D01*
X207514585Y-79595299D01*
X206780537Y-79799350D01*
X206296190Y-79915986D01*
X205613423Y-80064072D01*
X204770599Y-80235945D01*
X203806083Y-80423942D01*
X202758239Y-80620397D01*
X201824439Y-80789427D01*
X200866282Y-80960837D01*
X199942712Y-81127660D01*
X199091281Y-81282991D01*
X198349546Y-81419929D01*
X197755060Y-81531567D01*
X197345376Y-81611004D01*
X197253415Y-81629750D01*
X196781398Y-81719501D01*
X196354240Y-81774894D01*
X195879919Y-81804014D01*
X195266410Y-81814945D01*
X195138211Y-81815590D01*
X194562183Y-81815527D01*
X194170628Y-81805573D01*
X193900285Y-81778999D01*
X193687892Y-81729072D01*
X193470188Y-81649061D01*
X193433565Y-81634212D01*
X193088037Y-81459262D01*
X192677154Y-81187460D01*
X192192940Y-80812612D01*
X191627419Y-80328528D01*
X190972616Y-79729015D01*
X190939806Y-79698173D01*
X189931549Y-78800802D01*
X188951110Y-78033103D01*
X187995387Y-77393149D01*
X187061280Y-76879010D01*
X186145687Y-76488757D01*
X185413816Y-76261711D01*
X184001524Y-75966265D01*
X182570703Y-75802833D01*
X181115440Y-75770966D01*
X179907073Y-75842001D01*
X179434107Y-75896254D01*
X178772115Y-75985902D01*
X177966665Y-76103611D01*
X177063324Y-76242046D01*
X176107658Y-76393872D01*
X175145236Y-76551752D01*
X174221625Y-76708353D01*
X173382390Y-76856338D01*
X172673101Y-76988372D01*
X172224669Y-77078687D01*
X170208025Y-77568279D01*
X168253992Y-78161637D01*
X166409052Y-78842075D01*
X164719688Y-79592907D01*
X163637153Y-80161289D01*
X163078168Y-80485793D01*
X162540175Y-80817525D01*
X161996042Y-81175195D01*
X161418639Y-81577514D01*
X160780833Y-82043195D01*
X160055493Y-82590949D01*
X159548682Y-82980940D01*
X158758551Y-83585445D01*
X158066094Y-84098361D01*
X157439172Y-84541082D01*
X156845646Y-84935000D01*
X156253374Y-85301509D01*
X155630219Y-85662000D01*
X155006458Y-86004335D01*
X154443294Y-86302579D01*
X153992534Y-86526067D01*
X153598707Y-86697608D01*
X153206341Y-86840010D01*
X152759963Y-86976079D01*
X152400732Y-87075688D01*
X151456289Y-87318851D01*
X150643355Y-87494298D01*
X149892075Y-87611618D01*
X149132594Y-87680399D01*
X148295056Y-87710232D01*
X147754390Y-87713481D01*
X146595470Y-87688188D01*
X145276230Y-87619834D01*
X143855457Y-87514409D01*
X142391936Y-87377902D01*
X140944451Y-87216302D01*
X139571787Y-87035597D01*
X138332731Y-86841777D01*
X137340130Y-86652499D01*
X137056156Y-86568721D01*
X136876280Y-86474508D01*
X136834739Y-86396975D01*
X136965768Y-86363241D01*
X136974878Y-86363186D01*
X137070702Y-86412195D01*
X137067805Y-86439077D01*
X137093947Y-86488284D01*
X137232461Y-86532227D01*
X137508867Y-86573699D01*
X137948687Y-86615489D01*
X138577440Y-86660387D01*
X139420646Y-86711184D01*
X139700732Y-86726960D01*
X140888484Y-86784643D01*
X142129234Y-86829672D01*
X143375831Y-86861437D01*
X144581124Y-86879326D01*
X145697959Y-86882726D01*
X146679187Y-86871028D01*
X147477653Y-86843619D01*
X147698208Y-86830674D01*
X149512131Y-86661442D01*
X151162006Y-86405291D01*
X152681522Y-86055246D01*
X154104369Y-85604329D01*
X154673924Y-85386137D01*
X156008048Y-84808714D01*
X157231275Y-84191200D01*
X158390563Y-83507136D01*
X159532868Y-82730060D01*
X159995089Y-82387610D01*
X161102630Y-81574180D01*
X162148992Y-80861454D01*
X163170276Y-80228148D01*
X164202584Y-79652977D01*
X165282017Y-79114656D01*
X166401707Y-78610373D01*
X167712754Y-78066871D01*
X168960462Y-77597510D01*
X170207168Y-77182830D01*
X171515209Y-76803368D01*
X172946922Y-76439663D01*
X174455366Y-76096031D01*
X175228119Y-75926282D01*
X176014577Y-75751474D01*
X176748426Y-75586486D01*
X177363353Y-75446198D01*
X177676829Y-75373189D01*
X179042033Y-75066567D01*
X180259676Y-74829439D01*
X181383289Y-74653790D01*
X182466399Y-74531604D01*
X183562538Y-74454866D01*
X183916045Y-74438946D01*
X184920118Y-74415122D01*
X185953614Y-74424854D01*
X187064068Y-74470304D01*
X188299015Y-74553635D01*
X189705992Y-74677008D01*
X190190976Y-74724366D01*
X191390359Y-74836997D01*
X192412988Y-74915343D01*
X193320542Y-74961247D01*
X194174702Y-74976556D01*
X195037147Y-74963112D01*
X195969557Y-74922760D01*
X196266243Y-74906031D01*
X197975917Y-74760008D01*
X199555224Y-74525994D01*
X201037558Y-74195232D01*
X202456312Y-73758968D01*
X203844880Y-73208445D01*
X205163904Y-72572979D01*
X206159336Y-72019129D01*
X206947690Y-71500133D01*
X207550718Y-70999943D01*
X207990174Y-70502510D01*
X208012757Y-70471072D01*
X208261773Y-70110071D01*
X208569934Y-69647946D01*
X208921244Y-69109967D01*
X209299704Y-68521401D01*
X209689316Y-67907517D01*
X210074085Y-67293584D01*
X210438012Y-66704870D01*
X210765100Y-66166643D01*
X211039351Y-65704173D01*
X211129800Y-65547585D01*
X211528113Y-64866369D01*
X211886581Y-64291695D01*
X212223432Y-63801159D01*
X212556894Y-63372361D01*
X212905194Y-62982897D01*
X213286561Y-62610367D01*
X213719222Y-62232368D01*
X214041266Y-61969382D01*
X215029088Y-61277237D01*
X216223303Y-60607767D01*
X216728558Y-60374740D01*
X227175854Y-60374740D01*
X227272094Y-60499669D01*
X227454634Y-60593064D01*
X227812562Y-60667182D01*
X228348063Y-60716119D01*
X228994772Y-60738033D01*
X229686325Y-60731083D01*
X230356355Y-60693427D01*
X230521220Y-60678139D01*
X231767812Y-60552221D01*
X232815062Y-60449132D01*
X233706447Y-60365230D01*
X234485444Y-60296876D01*
X235195532Y-60240432D01*
X235880190Y-60192257D01*
X236582895Y-60148713D01*
X237347125Y-60106160D01*
X237367089Y-60105094D01*
X238479855Y-60039678D01*
X239368195Y-59970072D01*
X240055415Y-59888882D01*
X240564822Y-59788712D01*
X240919722Y-59662168D01*
X241143423Y-59501855D01*
X241259229Y-59300379D01*
X241290449Y-59050345D01*
X241277169Y-58864496D01*
X241205606Y-58566397D01*
X241045592Y-58336997D01*
X240757020Y-58147098D01*
X240299780Y-57967498D01*
X239860342Y-57832978D01*
X238662027Y-57554939D01*
X237449426Y-57408571D01*
X236209400Y-57392909D01*
X235105610Y-57483914D01*
X234471300Y-57589330D01*
X233689063Y-57760794D01*
X232807740Y-57983728D01*
X231876174Y-58243558D01*
X230943208Y-58525706D01*
X230057684Y-58815597D01*
X229268444Y-59098655D01*
X228624332Y-59360304D01*
X228302432Y-59514189D01*
X227891016Y-59750752D01*
X227541330Y-59989107D01*
X227291240Y-60200328D01*
X227178609Y-60355495D01*
X227175854Y-60374740D01*
X216728558Y-60374740D01*
X217582552Y-59980872D01*
X219065477Y-59416451D01*
X219927561Y-59137197D01*
X220542627Y-58945152D01*
X221313164Y-58696717D01*
X222209047Y-58402222D01*
X223200151Y-58071992D01*
X224256349Y-57716357D01*
X225347516Y-57345643D01*
X226443526Y-56970179D01*
X227514253Y-56600291D01*
X228529571Y-56246309D01*
X229459355Y-55918558D01*
X230273480Y-55627367D01*
X230941818Y-55383064D01*
X231434245Y-55195976D01*
X231499445Y-55170145D01*
X233074197Y-54572880D01*
X234551952Y-54082545D01*
X235964190Y-53692652D01*
X237342389Y-53396713D01*
X238718025Y-53188239D01*
X240122578Y-53060743D01*
X241587525Y-53007734D01*
X242001658Y-53005352D01*
X242962772Y-53016209D01*
X243897059Y-53051055D01*
X244858671Y-53114032D01*
X245901763Y-53209283D01*
X247080490Y-53340950D01*
X248176301Y-53477714D01*
X248952632Y-53572309D01*
X249728988Y-53656883D01*
X250438970Y-53724892D01*
X251016182Y-53769795D01*
X251274878Y-53783050D01*
X251729115Y-53796087D01*
X252115783Y-53796861D01*
X252466268Y-53777817D01*
X252811958Y-53731403D01*
X253184242Y-53650064D01*
X253614508Y-53526248D01*
X254134141Y-53352401D01*
X254774532Y-53120970D01*
X255567066Y-52824401D01*
X256107364Y-52620119D01*
X257036341Y-52268436D01*
X257036341Y-69165862D01*
X255146829Y-69834105D01*
G37*
G36*
X185037519Y-81077938D02*
G01*
X184848092Y-81477013D01*
X184559589Y-81874081D01*
X184158565Y-82281234D01*
X183631574Y-82710566D01*
X182965171Y-83174168D01*
X182145911Y-83684133D01*
X181160349Y-84252555D01*
X179995039Y-84891524D01*
X179969662Y-84905185D01*
X179262490Y-85275111D01*
X178471029Y-85671525D01*
X177660053Y-86063108D01*
X176894334Y-86418542D01*
X176281703Y-86688315D01*
X175337848Y-87099414D01*
X174578797Y-87456194D01*
X173978025Y-87773600D01*
X173509007Y-88066580D01*
X173145217Y-88350082D01*
X172899305Y-88594338D01*
X172610281Y-89028370D01*
X172546154Y-89421022D01*
X172694281Y-89768686D01*
X173042015Y-90067756D01*
X173576711Y-90314622D01*
X174285725Y-90505679D01*
X175156409Y-90637319D01*
X176176119Y-90705933D01*
X177332210Y-90707915D01*
X178612035Y-90639656D01*
X179698765Y-90534101D01*
X181270980Y-90323762D01*
X182853302Y-90051807D01*
X184476257Y-89711188D01*
X186170369Y-89294861D01*
X187966162Y-88795780D01*
X189894162Y-88206897D01*
X190190976Y-88112204D01*
X191019580Y-87848002D01*
X191996823Y-87538832D01*
X193056235Y-87205571D01*
X194131342Y-86869099D01*
X195155675Y-86550294D01*
X195704634Y-86380380D01*
X198740244Y-85443148D01*
X200448891Y-85235284D01*
X202396235Y-84967811D01*
X204141628Y-84660457D01*
X205724443Y-84303466D01*
X207184056Y-83887082D01*
X208559843Y-83401550D01*
X209602662Y-82967417D01*
X209929824Y-82816697D01*
X210396942Y-82594056D01*
X210964193Y-82318857D01*
X211591749Y-82010463D01*
X212239786Y-81688237D01*
X212436335Y-81589709D01*
X213379799Y-81117063D01*
X214170169Y-80725178D01*
X214833256Y-80403040D01*
X215394870Y-80139633D01*
X215880821Y-79923941D01*
X216316920Y-79744951D01*
X216728977Y-79591646D01*
X217142803Y-79453012D01*
X217584207Y-79318032D01*
X218079000Y-79175692D01*
X218119559Y-79164250D01*
X218647471Y-79013047D01*
X219008040Y-78897143D01*
X219254188Y-78791073D01*
X219438840Y-78669369D01*
X219614921Y-78506566D01*
X219726665Y-78390929D01*
X219894936Y-78207098D01*
X220015477Y-78045637D01*
X220100262Y-77875468D01*
X220161267Y-77665512D01*
X220210467Y-77384691D01*
X220258911Y-77009613D01*
X220333316Y-76522310D01*
X220431752Y-76149592D01*
X220566083Y-75873565D01*
X220748171Y-75676338D01*
X220989881Y-75540018D01*
X221293808Y-75448770D01*
X221712843Y-75378397D01*
X222135643Y-75368414D01*
X222668405Y-75416895D01*
X222716793Y-75422966D01*
X223228573Y-75510804D01*
X223909851Y-75662727D01*
X224723547Y-75869564D01*
X225632580Y-76122143D01*
X226107636Y-76261638D01*
X227380072Y-76656725D01*
X228434169Y-77019139D01*
X229286775Y-77357981D01*
X229954742Y-77682355D01*
X230454921Y-78001363D01*
X230804163Y-78324110D01*
X231019318Y-78659699D01*
X231109690Y-78963868D01*
X231253165Y-79376818D01*
X231558666Y-79748205D01*
X232054515Y-80105648D01*
X232557760Y-80376003D01*
X233603158Y-80804130D01*
X234780512Y-81137986D01*
X236047036Y-81371891D01*
X237359942Y-81500165D01*
X238676442Y-81517128D01*
X239953749Y-81417100D01*
X240172193Y-81386828D01*
X240774304Y-81291375D01*
X241242501Y-81196574D01*
X241661516Y-81079475D01*
X242116078Y-80917129D01*
X242560728Y-80739876D01*
X243068661Y-80541136D01*
X243628117Y-80335010D01*
X244088537Y-80176028D01*
X244468796Y-80064255D01*
X245033900Y-79914879D01*
X245737906Y-79738598D01*
X246534867Y-79546113D01*
X247378841Y-79348120D01*
X248223882Y-79155320D01*
X249024047Y-78978411D01*
X249733391Y-78828092D01*
X250305971Y-78715061D01*
X250541001Y-78673481D01*
X250877852Y-78628498D01*
X251406943Y-78570583D01*
X252079901Y-78503887D01*
X252848355Y-78432561D01*
X253663932Y-78360759D01*
X254478260Y-78292631D01*
X255242967Y-78232330D01*
X255909681Y-78184007D01*
X256430029Y-78151815D01*
X256755639Y-78139905D01*
X256757561Y-78139903D01*
X257036341Y-78139687D01*
X257036341Y-97085941D01*
X255580488Y-97881354D01*
X254357396Y-98508667D01*
X253091916Y-99072562D01*
X251759037Y-99579624D01*
X250333747Y-100036437D01*
X248791034Y-100449586D01*
X247105888Y-100825655D01*
X245253297Y-101171231D01*
X243208249Y-101492898D01*
X240945734Y-101797240D01*
X240495366Y-101852899D01*
X239443160Y-101967678D01*
X238513057Y-102041970D01*
X237724641Y-102075868D01*
X237097500Y-102069462D01*
X236651219Y-102022844D01*
X236405384Y-101936105D01*
X236367617Y-101833664D01*
X236473214Y-101752735D01*
X236745713Y-101663904D01*
X237203148Y-101563349D01*
X237863549Y-101447242D01*
X238744950Y-101311760D01*
X239008537Y-101273465D01*
X240598227Y-100996546D01*
X242085001Y-100634058D01*
X243501415Y-100175148D01*
X244880027Y-99608969D01*
X246253393Y-98924668D01*
X246556903Y-98757840D01*
X247671323Y-98077923D01*
X248704609Y-97335068D01*
X249628428Y-96555004D01*
X250414446Y-95763464D01*
X251034330Y-94986178D01*
X251413725Y-94347145D01*
X251695805Y-93516282D01*
X251764282Y-92639021D01*
X251623403Y-91732181D01*
X251277412Y-90812583D01*
X250730554Y-89897045D01*
X250093296Y-89115405D01*
X249425210Y-88466196D01*
X248659416Y-87872360D01*
X247741857Y-87294283D01*
X247193274Y-86990217D01*
X245977932Y-86422137D01*
X244663861Y-85969564D01*
X243210912Y-85619244D01*
X242814281Y-85544845D01*
X241721646Y-85367095D01*
X240697335Y-85239583D01*
X239663113Y-85155954D01*
X238540744Y-85109856D01*
X237273902Y-85094963D01*
X236026304Y-85106972D01*
X234863673Y-85150007D01*
X233733121Y-85229406D01*
X232581760Y-85350508D01*
X231356702Y-85518651D01*
X230005058Y-85739173D01*
X228871029Y-85943154D01*
X227419027Y-86229723D01*
X226106691Y-86529352D01*
X224900946Y-86854629D01*
X223768716Y-87218140D01*
X222676924Y-87632471D01*
X221592497Y-88110209D01*
X220482357Y-88663941D01*
X219313429Y-89306254D01*
X218052637Y-90049733D01*
X218007213Y-90077273D01*
X216825871Y-90768958D01*
X215647872Y-91410640D01*
X214513554Y-91981204D01*
X213463258Y-92459538D01*
X213422683Y-92476828D01*
X212761889Y-92730699D01*
X212035327Y-92952677D01*
X211185921Y-93157955D01*
X210156591Y-93361727D01*
X209974605Y-93394631D01*
X209535973Y-93471136D01*
X209129244Y-93535264D01*
X208732607Y-93586793D01*
X208324250Y-93625501D01*
X207882363Y-93651168D01*
X207385134Y-93663569D01*
X206810751Y-93662485D01*
X206137404Y-93647693D01*
X205343280Y-93618971D01*
X204406569Y-93576098D01*
X203305460Y-93518851D01*
X202018140Y-93447009D01*
X200522799Y-93360350D01*
X199253286Y-93285594D01*
X198655092Y-93249981D01*
X198175100Y-93223590D01*
X197770790Y-93208066D01*
X197399645Y-93205054D01*
X197019143Y-93216199D01*
X196586767Y-93243144D01*
X196059996Y-93287535D01*
X195396311Y-93351015D01*
X194553194Y-93435231D01*
X194031951Y-93487542D01*
X193117074Y-93572236D01*
X192180047Y-93643877D01*
X191178140Y-93704672D01*
X190068625Y-93756825D01*
X188808771Y-93802540D01*
X187355847Y-93844024D01*
X186907561Y-93855207D01*
X186188403Y-93873930D01*
X185546201Y-93894653D01*
X184950115Y-93920154D01*
X184369300Y-93953211D01*
X183772915Y-93996603D01*
X183130118Y-94053108D01*
X182410065Y-94125503D01*
X181581914Y-94216568D01*
X180614823Y-94329079D01*
X179477949Y-94465815D01*
X178140450Y-94629555D01*
X177676829Y-94686655D01*
X176410142Y-94842217D01*
X175355316Y-94969908D01*
X174483089Y-95072448D01*
X173764199Y-95152559D01*
X173169384Y-95212961D01*
X172669383Y-95256378D01*
X172234933Y-95285528D01*
X171836772Y-95303135D01*
X171445638Y-95311918D01*
X171032270Y-95314601D01*
X170924146Y-95314638D01*
X168692302Y-95272477D01*
X166579620Y-95144175D01*
X164507847Y-94923758D01*
X163056341Y-94714055D01*
X162547782Y-94635681D01*
X162076002Y-94570276D01*
X161599814Y-94514203D01*
X161078027Y-94463824D01*
X160469452Y-94415503D01*
X159732899Y-94365600D01*
X158827179Y-94310479D01*
X157852439Y-94254480D01*
X156460679Y-94172808D01*
X155282784Y-94096458D01*
X154285315Y-94022332D01*
X153434832Y-93947331D01*
X152697894Y-93868354D01*
X152041064Y-93782303D01*
X151430900Y-93686078D01*
X151116379Y-93630148D01*
X150124177Y-93415718D01*
X149046051Y-93127969D01*
X147964937Y-92790654D01*
X147092532Y-92477688D01*
X146460162Y-92223844D01*
X145722723Y-91910543D01*
X144910405Y-91552144D01*
X144053396Y-91163006D01*
X143181883Y-90757488D01*
X142326055Y-90349948D01*
X141516101Y-89954744D01*
X140782209Y-89586236D01*
X140154566Y-89258782D01*
X139663362Y-88986740D01*
X139363120Y-88801308D01*
X139076580Y-88599039D01*
X138728087Y-88342354D01*
X138342447Y-88050788D01*
X137944466Y-87743877D01*
X137558950Y-87441155D01*
X137210705Y-87162156D01*
X136924539Y-86926415D01*
X136725257Y-86753468D01*
X136637666Y-86662849D01*
X136637039Y-86654544D01*
X136756955Y-86673760D01*
X137020756Y-86748733D01*
X137293559Y-86837236D01*
X138184679Y-87120472D01*
X139167817Y-87394200D01*
X140274020Y-87665662D01*
X141534339Y-87942100D01*
X142979819Y-88230758D01*
X144405065Y-88496180D01*
X145841017Y-88747792D01*
X147082519Y-88945093D01*
X148158774Y-89090889D01*
X149098984Y-89187985D01*
X149932352Y-89239186D01*
X150688080Y-89247299D01*
X151395370Y-89215129D01*
X151657317Y-89192945D01*
X152599765Y-89074618D01*
X153374376Y-88906392D01*
X154054623Y-88668530D01*
X154606485Y-88400673D01*
X154806117Y-88287988D01*
X154991854Y-88170148D01*
X155178369Y-88033323D01*
X155380336Y-87863684D01*
X155612428Y-87647402D01*
X155889320Y-87370645D01*
X156225686Y-87019586D01*
X156636198Y-86580393D01*
X157135531Y-86039238D01*
X157287211Y-85874146D01*
X158006322Y-85095904D01*
X158640132Y-84423189D01*
X159174033Y-83874148D01*
X160917407Y-83874148D01*
X161050069Y-84247134D01*
X161374573Y-84564770D01*
X161891442Y-84815572D01*
X162164735Y-84897884D01*
X162371621Y-84946113D01*
X162593560Y-84981817D01*
X162870941Y-85006957D01*
X163244150Y-85023491D01*
X163753575Y-85033380D01*
X164439603Y-85038582D01*
X165106553Y-85040613D01*
X165973190Y-85040911D01*
X166643907Y-85036213D01*
X167170538Y-85024243D01*
X167604914Y-85002725D01*
X167998870Y-84969383D01*
X168404238Y-84921940D01*
X168693902Y-84883084D01*
X170375917Y-84597997D01*
X171867597Y-84234266D01*
X173165256Y-83793516D01*
X174265204Y-83277375D01*
X175163753Y-82687469D01*
X175857215Y-82025424D01*
X176181147Y-81581699D01*
X176408692Y-81140706D01*
X176553159Y-80699804D01*
X176609668Y-80290506D01*
X176573340Y-79944324D01*
X176468410Y-79726509D01*
X176047345Y-79355615D01*
X175428257Y-79047618D01*
X174640038Y-78812111D01*
X173711580Y-78658689D01*
X173107571Y-78610448D01*
X172418308Y-78585589D01*
X171785074Y-78588895D01*
X171116629Y-78623475D01*
X170321736Y-78692439D01*
X170125278Y-78712082D01*
X168919673Y-78885150D01*
X167711299Y-79150609D01*
X166596524Y-79485419D01*
X166093594Y-79676063D01*
X165547372Y-79927802D01*
X164937840Y-80250263D01*
X164335824Y-80602647D01*
X163812150Y-80944149D01*
X163538684Y-81147925D01*
X163154329Y-81445710D01*
X162708233Y-81772227D01*
X162296628Y-82057049D01*
X162294651Y-82058360D01*
X161665207Y-82537916D01*
X161225501Y-83008055D01*
X160976059Y-83457294D01*
X160917407Y-83874148D01*
X159174033Y-83874148D01*
X159206363Y-83840901D01*
X159722739Y-83333937D01*
X160206983Y-82887194D01*
X160676816Y-82485571D01*
X161149963Y-82113964D01*
X161644146Y-81757272D01*
X162177088Y-81400391D01*
X162766511Y-81028221D01*
X163430139Y-80625658D01*
X163484627Y-80593084D01*
X164309123Y-80115421D01*
X165045013Y-79723957D01*
X165741602Y-79394694D01*
X166448195Y-79103632D01*
X166855129Y-78952509D01*
X167988954Y-78567100D01*
X169111119Y-78234028D01*
X170260897Y-77945673D01*
X171477560Y-77694413D01*
X172800383Y-77472629D01*
X174268638Y-77272699D01*
X175921598Y-77087002D01*
X177029732Y-76978179D01*
X178012048Y-76892662D01*
X178808838Y-76840756D01*
X179473850Y-76821569D01*
X180060831Y-76834212D01*
X180623530Y-76877792D01*
X180933169Y-76913492D01*
X181813165Y-77057690D01*
X182552274Y-77261178D01*
X183250781Y-77552762D01*
X183377804Y-77615745D01*
X184097823Y-78070888D01*
X184637066Y-78613642D01*
X184992056Y-79238950D01*
X185159314Y-79941756D01*
X185172927Y-80225396D01*
X185168243Y-80290506D01*
X185141316Y-80664763D01*
X185037519Y-81077938D01*
G37*
G36*
X138090000Y-86131071D02*
G01*
X138028049Y-86164230D01*
X137966098Y-86131071D01*
X138028049Y-86097912D01*
X138090000Y-86131071D01*
G37*
G36*
X180247798Y-101267954D02*
G01*
X179943106Y-101869512D01*
X179647514Y-102228878D01*
X178900412Y-102887791D01*
X177995048Y-103447846D01*
X176944455Y-103906033D01*
X175761665Y-104259341D01*
X174459708Y-104504759D01*
X173051617Y-104639277D01*
X171550423Y-104659884D01*
X169969158Y-104563569D01*
X169673457Y-104533193D01*
X167770169Y-104277995D01*
X165933703Y-103938517D01*
X164197174Y-103523799D01*
X162593698Y-103042880D01*
X161156388Y-102504801D01*
X159918360Y-101918601D01*
X159743875Y-101822575D01*
X159070982Y-101417217D01*
X158576588Y-101050795D01*
X158227630Y-100693184D01*
X157991045Y-100314258D01*
X157927199Y-100167290D01*
X157898701Y-100038365D01*
X165653219Y-100038365D01*
X165830888Y-100358670D01*
X166254325Y-100683415D01*
X166922629Y-101011928D01*
X167834897Y-101343538D01*
X167945812Y-101378827D01*
X168833436Y-101647794D01*
X169572136Y-101845717D01*
X170210260Y-101981821D01*
X170796157Y-102065335D01*
X171378175Y-102105483D01*
X171791463Y-102112718D01*
X172380174Y-102105724D01*
X172818735Y-102076920D01*
X173203732Y-102016793D01*
X173531751Y-101941336D01*
X174378242Y-101676065D01*
X175018448Y-101352738D01*
X175438253Y-101003607D01*
X175702090Y-100590242D01*
X175739758Y-100184245D01*
X175572613Y-99799263D01*
X175222013Y-99448943D01*
X174709317Y-99146934D01*
X174055880Y-98906883D01*
X173283060Y-98742438D01*
X172412216Y-98667246D01*
X171791463Y-98673266D01*
X171412443Y-98696721D01*
X170858667Y-98738123D01*
X170199294Y-98791997D01*
X169503479Y-98852868D01*
X169375366Y-98864543D01*
X168317193Y-98970090D01*
X167479951Y-99074804D01*
X166837117Y-99184919D01*
X166362171Y-99306668D01*
X166028589Y-99446284D01*
X165809849Y-99610002D01*
X165722217Y-99723170D01*
X165653219Y-100038365D01*
X157898701Y-100038365D01*
X157851402Y-99824389D01*
X157936189Y-99530721D01*
X158203012Y-99252003D01*
X158673323Y-98953955D01*
X158693315Y-98942980D01*
X159427130Y-98593703D01*
X160234316Y-98319951D01*
X161194400Y-98095548D01*
X161369144Y-98062171D01*
X161883702Y-97969491D01*
X162357216Y-97893407D01*
X162823233Y-97831811D01*
X163315300Y-97782595D01*
X163866963Y-97743652D01*
X164511768Y-97712872D01*
X165283264Y-97688147D01*
X166214995Y-97667370D01*
X167340510Y-97648432D01*
X168136341Y-97636885D01*
X169143309Y-97622288D01*
X170078553Y-97607750D01*
X170911364Y-97593823D01*
X171611034Y-97581060D01*
X172146854Y-97570014D01*
X172488116Y-97561237D01*
X172596829Y-97556573D01*
X172872790Y-97547378D01*
X173264346Y-97550189D01*
X173402195Y-97554012D01*
X174018852Y-97592519D01*
X174738840Y-97664084D01*
X175463045Y-97756686D01*
X176092350Y-97858301D01*
X176356254Y-97912328D01*
X177037570Y-98104750D01*
X177759489Y-98368162D01*
X178432373Y-98666196D01*
X178966581Y-98962486D01*
X179001274Y-98985450D01*
X179682113Y-99534578D01*
X180117009Y-100099018D01*
X180144813Y-100184245D01*
X180305668Y-100677300D01*
X180247798Y-101267954D01*
G37*
G36*
X128732738Y-71014812D02*
G01*
X129015275Y-71081223D01*
X129769052Y-71352245D01*
X130369122Y-71724157D01*
X130729355Y-72079159D01*
X131057926Y-72379377D01*
X131520385Y-72610745D01*
X131590631Y-72637277D01*
X132177924Y-72912501D01*
X132618397Y-73239267D01*
X132889766Y-73590943D01*
X132969748Y-73940893D01*
X132888989Y-74189044D01*
X132624431Y-74441141D01*
X132192532Y-74670749D01*
X131672113Y-74840117D01*
X131433631Y-74886091D01*
X130726099Y-74946104D01*
X129903560Y-74943910D01*
X129068599Y-74880774D01*
X128861177Y-74854399D01*
X128066649Y-74706816D01*
X127317612Y-74499828D01*
X126658908Y-74251512D01*
X126135382Y-73979943D01*
X125791878Y-73703199D01*
X125708985Y-73583786D01*
X125548427Y-73357075D01*
X125319981Y-73127825D01*
X125281209Y-73096199D01*
X124891140Y-72701478D01*
X124744733Y-72318220D01*
X124816820Y-71984099D01*
X125108369Y-71603633D01*
X125573932Y-71307413D01*
X126216229Y-71083619D01*
X127041720Y-70934223D01*
X127895033Y-70911275D01*
X128732738Y-71014812D01*
G37*
G36*
X137718293Y-86232630D02*
G01*
X137617878Y-86289631D01*
X137532439Y-86296867D01*
X137367127Y-86282678D01*
X137346585Y-86270803D01*
X137443472Y-86228041D01*
X137532439Y-86206566D01*
X137691983Y-86205188D01*
X137718293Y-86232630D01*
G37*
G36*
X134018892Y-86669093D02*
G01*
X133883330Y-86703132D01*
X133557117Y-86762066D01*
X133064786Y-86841541D01*
X132430872Y-86937202D01*
X132266585Y-86961187D01*
X130168715Y-87262666D01*
X128280563Y-87527490D01*
X126575656Y-87759134D01*
X125027522Y-87961075D01*
X123609690Y-88136789D01*
X122295688Y-88289753D01*
X121425122Y-88384980D01*
X119758455Y-88566954D01*
X118305983Y-88736519D01*
X117036205Y-88898545D01*
X115917622Y-89057899D01*
X114918734Y-89219451D01*
X114008042Y-89388068D01*
X113154046Y-89568620D01*
X112325246Y-89765974D01*
X112070488Y-89830817D01*
X111411998Y-90009541D01*
X110900928Y-90174239D01*
X110452126Y-90356675D01*
X109980439Y-90588609D01*
X109840244Y-90662700D01*
X109347149Y-90908342D01*
X108868663Y-91115697D01*
X108467222Y-91258465D01*
X108353415Y-91289026D01*
X107755432Y-91458021D01*
X107392441Y-91640084D01*
X107251736Y-91852240D01*
X107320615Y-92111513D01*
X107536495Y-92383798D01*
X107821328Y-92640930D01*
X108159094Y-92849462D01*
X108601755Y-93032671D01*
X109201273Y-93213830D01*
X109643973Y-93327785D01*
X110225281Y-93483842D01*
X110813709Y-93662142D01*
X111308659Y-93831608D01*
X111440176Y-93882670D01*
X112146716Y-94155349D01*
X112880123Y-94405406D01*
X113676707Y-94642384D01*
X114572778Y-94875820D01*
X115604647Y-95115257D01*
X116808625Y-95370232D01*
X118017805Y-95610854D01*
X120097432Y-96044834D01*
X121944602Y-96494744D01*
X123574103Y-96967618D01*
X125000724Y-97470487D01*
X126239254Y-98010382D01*
X127304483Y-98594336D01*
X128211198Y-99229382D01*
X128974190Y-99922550D01*
X129608246Y-100680873D01*
X130020455Y-101318016D01*
X130256791Y-101759845D01*
X130446381Y-102193277D01*
X130596484Y-102645145D01*
X130714360Y-103142282D01*
X130807267Y-103711521D01*
X130882464Y-104379695D01*
X130899546Y-104567624D01*
X130957893Y-105138963D01*
X131031437Y-105628885D01*
X131131229Y-106069838D01*
X131268319Y-106494273D01*
X131453756Y-106934639D01*
X131698589Y-107423387D01*
X132013869Y-107992965D01*
X132141589Y-108215144D01*
X132551115Y-108971473D01*
X132850390Y-109643629D01*
X133049858Y-110263284D01*
X133159961Y-110862107D01*
X133191229Y-111398434D01*
X133188890Y-111764202D01*
X133172347Y-112027879D01*
X133134179Y-112219960D01*
X133066967Y-112370942D01*
X132963292Y-112511320D01*
X132904390Y-112577391D01*
X132517793Y-112891002D01*
X131982792Y-113140505D01*
X131276719Y-113332241D01*
X130376908Y-113472549D01*
X129393702Y-113559377D01*
X128342160Y-113599875D01*
X127156112Y-113597909D01*
X125907669Y-113557120D01*
X124668939Y-113481149D01*
X123512034Y-113373639D01*
X122509064Y-113238231D01*
X122292439Y-113200742D01*
X121864755Y-113110633D01*
X121262818Y-112967205D01*
X120528613Y-112781923D01*
X119704124Y-112566250D01*
X118831336Y-112331650D01*
X117952232Y-112089587D01*
X117108798Y-111851525D01*
X116343016Y-111628928D01*
X115696871Y-111433261D01*
X115212349Y-111275986D01*
X115106098Y-111238482D01*
X114716351Y-111091399D01*
X114184847Y-110883066D01*
X113564198Y-110634505D01*
X112907020Y-110366738D01*
X112422315Y-110166164D01*
X111792444Y-109907038D01*
X111178293Y-109660614D01*
X110626569Y-109445179D01*
X110183978Y-109279022D01*
X109935860Y-109192569D01*
X108989133Y-108936497D01*
X108001852Y-108758681D01*
X107029653Y-108665356D01*
X106128174Y-108662758D01*
X105627561Y-108709672D01*
X105169944Y-108824313D01*
X104629816Y-109042532D01*
X104029920Y-109347829D01*
X103392999Y-109723703D01*
X102741797Y-110153654D01*
X102099055Y-110621182D01*
X101487518Y-111109787D01*
X100929928Y-111602968D01*
X100449028Y-112084226D01*
X100067562Y-112537060D01*
X99819088Y-112923760D01*
X99718149Y-113233504D01*
X99686424Y-113599770D01*
X99722156Y-113966226D01*
X99823587Y-114276544D01*
X99863449Y-114345591D01*
X100035908Y-114513385D01*
X100369919Y-114754166D01*
X100840603Y-115053540D01*
X101423079Y-115397116D01*
X102092466Y-115770501D01*
X102823883Y-116159305D01*
X103592449Y-116549134D01*
X104100089Y-116796226D01*
X104897785Y-117202456D01*
X105503051Y-117564902D01*
X105834724Y-117814139D01*
X106309024Y-118229243D01*
X106312582Y-120583551D01*
X106314902Y-121223341D01*
X106320515Y-121745271D01*
X106330590Y-122164116D01*
X106346298Y-122494648D01*
X106368810Y-122751640D01*
X106399294Y-122949865D01*
X106438922Y-123104097D01*
X106488862Y-123229108D01*
X106527941Y-123302611D01*
X106642377Y-123501918D01*
X106719879Y-123641165D01*
X106741212Y-123683943D01*
X106620969Y-123686778D01*
X106273335Y-123689461D01*
X105718724Y-123691948D01*
X104977549Y-123694201D01*
X104070224Y-123696175D01*
X103017162Y-123697832D01*
X101838779Y-123699128D01*
X100555486Y-123700023D01*
X99187699Y-123700475D01*
X98565122Y-123700522D01*
X97166610Y-123700019D01*
X95843585Y-123698565D01*
X94616464Y-123696246D01*
X93505667Y-123693147D01*
X92531612Y-123689354D01*
X91714717Y-123684952D01*
X91075402Y-123680026D01*
X90634084Y-123674662D01*
X90411182Y-123668945D01*
X90387561Y-123666343D01*
X90439958Y-123597551D01*
X90583331Y-123433519D01*
X90796957Y-123197405D01*
X91060111Y-122912365D01*
X91114603Y-122853941D01*
X91420762Y-122514308D01*
X91711084Y-122171122D01*
X91952058Y-121865266D01*
X92105897Y-121644648D01*
X92218690Y-121426678D01*
X92361210Y-121098350D01*
X92526298Y-120680467D01*
X92706792Y-120193831D01*
X92895534Y-119659243D01*
X93085363Y-119097506D01*
X93269120Y-118529421D01*
X93439644Y-117975791D01*
X93589776Y-117457417D01*
X93712357Y-116995102D01*
X93727751Y-116932589D01*
X93846629Y-116500262D01*
X93986068Y-116082679D01*
X94132227Y-115717340D01*
X94271267Y-115441747D01*
X94287950Y-115414698D01*
X94549686Y-115051474D01*
X94924795Y-114600454D01*
X95397803Y-114075920D01*
X95953233Y-113492153D01*
X96575608Y-112863435D01*
X97249454Y-112204048D01*
X97959293Y-111528274D01*
X98689650Y-110850394D01*
X99425049Y-110184692D01*
X100150014Y-109545447D01*
X100849068Y-108946942D01*
X101506735Y-108403460D01*
X102107540Y-107929281D01*
X102636006Y-107538687D01*
X103076658Y-107245961D01*
X103246079Y-107147848D01*
X103986078Y-106812647D01*
X104751554Y-106601108D01*
X105555711Y-106513032D01*
X106411751Y-106548220D01*
X107332880Y-106706473D01*
X108332301Y-106987592D01*
X108568933Y-107067625D01*
X108995962Y-107219718D01*
X109398263Y-107372345D01*
X109807402Y-107539500D01*
X110254938Y-107735180D01*
X110772436Y-107973379D01*
X111391457Y-108268094D01*
X112143564Y-108633319D01*
X112562572Y-108838497D01*
X113572994Y-109327550D01*
X114437825Y-109730889D01*
X115181817Y-110059128D01*
X115829722Y-110322882D01*
X116406293Y-110532767D01*
X116826777Y-110667215D01*
X117267103Y-110789942D01*
X117880754Y-110948576D01*
X118616645Y-111131089D01*
X119423692Y-111325451D01*
X120250809Y-111519633D01*
X121046912Y-111701606D01*
X121760915Y-111859343D01*
X122341734Y-111980812D01*
X122664146Y-112041732D01*
X123375679Y-112132227D01*
X124226043Y-112190918D01*
X125128356Y-112215929D01*
X125995735Y-112205385D01*
X126741298Y-112157410D01*
X126938781Y-112134007D01*
X128122458Y-111924009D01*
X129107886Y-111641507D01*
X129912107Y-111279673D01*
X130552164Y-110831681D01*
X130804924Y-110585299D01*
X130972265Y-110398056D01*
X131086264Y-110243787D01*
X131157150Y-110089749D01*
X131195152Y-109903201D01*
X131210496Y-109651400D01*
X131213412Y-109301605D01*
X131213415Y-109277635D01*
X131201505Y-108841650D01*
X131158198Y-108482479D01*
X131072130Y-108144733D01*
X130931934Y-107773023D01*
X130879737Y-107651436D01*
X130653331Y-107068315D01*
X130440235Y-106396505D01*
X130251687Y-105679951D01*
X130098920Y-104962597D01*
X129993173Y-104288387D01*
X129972525Y-104103395D01*
X129782506Y-103050237D01*
X129432366Y-102069494D01*
X128927457Y-101168841D01*
X128273134Y-100355955D01*
X127474752Y-99638512D01*
X126537663Y-99024188D01*
X126364144Y-98930136D01*
X125560597Y-98542965D01*
X124710797Y-98210384D01*
X123776359Y-97922271D01*
X122718897Y-97668506D01*
X121500025Y-97438968D01*
X120081358Y-97223538D01*
X119690488Y-97170634D01*
X119058852Y-97088060D01*
X118449715Y-97011310D01*
X117835107Y-96937461D01*
X117187064Y-96863592D01*
X116477617Y-96786779D01*
X115678799Y-96704100D01*
X114762643Y-96612633D01*
X113701182Y-96509455D01*
X112466448Y-96391643D01*
X111030476Y-96256275D01*
X110158877Y-96174600D01*
X109314613Y-96092274D01*
X108521434Y-96008722D01*
X107822532Y-95928979D01*
X107261101Y-95858080D01*
X106880334Y-95801059D01*
X106774456Y-95780105D01*
X106236053Y-95606033D01*
X105653824Y-95340114D01*
X105081014Y-95012541D01*
X104570863Y-94653506D01*
X104203349Y-94322118D01*
X103939884Y-94070972D01*
X103611903Y-93818441D01*
X103182117Y-93539030D01*
X102613239Y-93207243D01*
X102393000Y-93084333D01*
X101624279Y-92644862D01*
X101041030Y-92278971D01*
X100632898Y-91978959D01*
X100389527Y-91737129D01*
X100300562Y-91545781D01*
X100299756Y-91528136D01*
X100421128Y-91285880D01*
X100780658Y-91064902D01*
X101371467Y-90866715D01*
X102186673Y-90692831D01*
X103219399Y-90544762D01*
X104462763Y-90424020D01*
X105689512Y-90343500D01*
X106631014Y-90291694D01*
X107369357Y-90246260D01*
X107948277Y-90202213D01*
X108411509Y-90154565D01*
X108802789Y-90098334D01*
X109165853Y-90028532D01*
X109544437Y-89940176D01*
X109803527Y-89874561D01*
X111161330Y-89547888D01*
X112627224Y-89240666D01*
X114228031Y-88948377D01*
X115990576Y-88666503D01*
X117941680Y-88390528D01*
X120108167Y-88115933D01*
X120579922Y-88059569D01*
X122985686Y-87777387D01*
X125158258Y-87527977D01*
X127104234Y-87310648D01*
X128830212Y-87124713D01*
X130342789Y-86969481D01*
X131648563Y-86844264D01*
X132754131Y-86748374D01*
X133666090Y-86681120D01*
X133939268Y-86664305D01*
X134018892Y-86669093D01*
G37*
G36*
X149337031Y-47703320D02*
G01*
X149725930Y-47713336D01*
X149950698Y-47727910D01*
X149984634Y-47736943D01*
X149929535Y-47807409D01*
X149780696Y-47968249D01*
X149562801Y-48193326D01*
X149373943Y-48383549D01*
X148802593Y-49002344D01*
X148253571Y-49699357D01*
X147719738Y-50485755D01*
X147193955Y-51372703D01*
X146669083Y-52371367D01*
X146213654Y-53326607D01*
X145874460Y-54130702D01*
X145648398Y-54828790D01*
X145539376Y-55433919D01*
X145551300Y-55959140D01*
X145688075Y-56417502D01*
X145953609Y-56822055D01*
X146351808Y-57185848D01*
X146886578Y-57521932D01*
X147561826Y-57843355D01*
X147566312Y-57845267D01*
X148089571Y-58057712D01*
X148671299Y-58272548D01*
X149327641Y-58494130D01*
X150074738Y-58726814D01*
X150928735Y-58974953D01*
X151905773Y-59242904D01*
X153021997Y-59535020D01*
X154293549Y-59855658D01*
X155736572Y-60209172D01*
X157367209Y-60599918D01*
X159201603Y-61032250D01*
X160516341Y-61338901D01*
X161479825Y-61564404D01*
X162245757Y-61748531D01*
X162845469Y-61900737D01*
X163310293Y-62030482D01*
X163671560Y-62147222D01*
X163960601Y-62260415D01*
X164208747Y-62379518D01*
X164447329Y-62513990D01*
X164486110Y-62537203D01*
X164881630Y-62790016D01*
X165153842Y-63013047D01*
X165319411Y-63238885D01*
X165395004Y-63500124D01*
X165397286Y-63829353D01*
X165348455Y-64223617D01*
X165193640Y-65069767D01*
X164992933Y-65862986D01*
X164735173Y-66625326D01*
X164409202Y-67378838D01*
X164003858Y-68145576D01*
X163507984Y-68947592D01*
X162910419Y-69806937D01*
X162200002Y-70745665D01*
X161779694Y-71275718D01*
X160985919Y-72197742D01*
X160170163Y-73006850D01*
X159306791Y-73722748D01*
X158370164Y-74365142D01*
X157334647Y-74953740D01*
X156411880Y-75401825D01*
X155969937Y-75612567D01*
X155602756Y-75805669D01*
X155350930Y-75958583D01*
X155256230Y-76043813D01*
X155214067Y-76190277D01*
X155164957Y-76406295D01*
X155141045Y-76528419D01*
X155122995Y-76755996D01*
X155187808Y-76924849D01*
X155369353Y-77051295D01*
X155701502Y-77151649D01*
X156218127Y-77242227D01*
X156779525Y-77317670D01*
X158052588Y-77478350D01*
X158881782Y-77286325D01*
X159301664Y-77188258D01*
X159880119Y-77052018D01*
X160549512Y-76893590D01*
X161242207Y-76728955D01*
X161445610Y-76680467D01*
X162234426Y-76498162D01*
X162852666Y-76370203D01*
X163347938Y-76288055D01*
X163767854Y-76243182D01*
X163941361Y-76233031D01*
X164367293Y-76218647D01*
X164621554Y-76229906D01*
X164778667Y-76277351D01*
X164911704Y-76370346D01*
X165025698Y-76485851D01*
X165060746Y-76610134D01*
X165021997Y-76790150D01*
X164972615Y-76925983D01*
X164730835Y-77425851D01*
X164395338Y-77882806D01*
X163937599Y-78323703D01*
X163329096Y-78775400D01*
X162541307Y-79264752D01*
X162404866Y-79343662D01*
X161941435Y-79620533D01*
X161565087Y-79876286D01*
X161226996Y-80149434D01*
X160878338Y-80478493D01*
X160589488Y-80775725D01*
X160239463Y-81128906D01*
X159865232Y-81481109D01*
X159508380Y-81794660D01*
X159210495Y-82031887D01*
X159173276Y-82058695D01*
X158087628Y-82717762D01*
X156806539Y-83301965D01*
X155345739Y-83805844D01*
X153720958Y-84223940D01*
X152029024Y-84538376D01*
X151637359Y-84591335D01*
X151039471Y-84662272D01*
X150273495Y-84747127D01*
X149377569Y-84841841D01*
X148389830Y-84942354D01*
X147348415Y-85044606D01*
X146639268Y-85112100D01*
X144680981Y-85302916D01*
X142872939Y-85493110D01*
X141238313Y-85680015D01*
X139800271Y-85860960D01*
X138581981Y-86033277D01*
X138399756Y-86061308D01*
X138242878Y-86080570D01*
X138283482Y-86060133D01*
X138487498Y-86007544D01*
X138820854Y-85930344D01*
X139249480Y-85836080D01*
X139739304Y-85732294D01*
X140256256Y-85626531D01*
X140766263Y-85526334D01*
X141092200Y-85465142D01*
X142776882Y-85180224D01*
X144558328Y-84927264D01*
X146484832Y-84700069D01*
X148604685Y-84492444D01*
X148837964Y-84471746D01*
X150127020Y-84354489D01*
X151209388Y-84246073D01*
X152124678Y-84140743D01*
X152912502Y-84032743D01*
X153612470Y-83916318D01*
X154264195Y-83785713D01*
X154907288Y-83635172D01*
X155312439Y-83531047D01*
X155915673Y-83367293D01*
X156385734Y-83224424D01*
X156788367Y-83076823D01*
X157189319Y-82898874D01*
X157654333Y-82664960D01*
X157990671Y-82487501D01*
X158538925Y-82188819D01*
X158945744Y-81946827D01*
X159255618Y-81730531D01*
X159513040Y-81508933D01*
X159757386Y-81256658D01*
X160190416Y-80702890D01*
X160433850Y-80205374D01*
X160488317Y-79770324D01*
X160354443Y-79403953D01*
X160032857Y-79112472D01*
X159524187Y-78902096D01*
X159519300Y-78900739D01*
X159207731Y-78837408D01*
X158747348Y-78781499D01*
X158118274Y-78731706D01*
X157300629Y-78686720D01*
X156274533Y-78645235D01*
X155048348Y-78606739D01*
X153952367Y-78568243D01*
X153074752Y-78518743D01*
X152386424Y-78454415D01*
X151858306Y-78371430D01*
X151461322Y-78265965D01*
X151166395Y-78134193D01*
X151088679Y-78085748D01*
X150949863Y-77974958D01*
X150880175Y-77854143D01*
X150867521Y-77682134D01*
X150897252Y-77434185D01*
X150908877Y-77211086D01*
X150896036Y-76883951D01*
X150862125Y-76480539D01*
X150810536Y-76028610D01*
X150744663Y-75555922D01*
X150667899Y-75090236D01*
X150583638Y-74659311D01*
X150528860Y-74420715D01*
X150453992Y-74117147D01*
X151372160Y-73937906D01*
X152485744Y-73668630D01*
X153509549Y-73307392D01*
X154494599Y-72835663D01*
X154661517Y-72743349D01*
X155602640Y-72136169D01*
X156381056Y-71461963D01*
X157012475Y-70704453D01*
X157512608Y-69847360D01*
X157565936Y-69734024D01*
X157655330Y-69507866D01*
X157726393Y-69251178D01*
X157779509Y-68951981D01*
X157815066Y-68598294D01*
X157833447Y-68178137D01*
X157835040Y-67679530D01*
X157820230Y-67090493D01*
X157789403Y-66399045D01*
X157742945Y-65593205D01*
X157713815Y-65141254D01*
X157674055Y-64548276D01*
X157634068Y-64071068D01*
X157582305Y-63692898D01*
X157507215Y-63397038D01*
X157397251Y-63166757D01*
X157240862Y-62985326D01*
X157026499Y-62836016D01*
X156742613Y-62702095D01*
X156377653Y-62566835D01*
X155920072Y-62413506D01*
X155804234Y-62375160D01*
X155091369Y-62149497D01*
X154327382Y-61930380D01*
X153465785Y-61705663D01*
X152460086Y-61463200D01*
X151313230Y-61201872D01*
X150650684Y-61053233D01*
X149820272Y-60865774D01*
X148881787Y-60653062D01*
X147895021Y-60428662D01*
X146919769Y-60206139D01*
X146391463Y-60085230D01*
X145432066Y-59870112D01*
X144308358Y-59625927D01*
X143089989Y-59367324D01*
X141846607Y-59108949D01*
X140647863Y-58865451D01*
X139700732Y-58678132D01*
X138750755Y-58491494D01*
X137833176Y-58308011D01*
X136985739Y-58135473D01*
X136246187Y-57981668D01*
X135652262Y-57854384D01*
X135241707Y-57761410D01*
X135154189Y-57739914D01*
X134259970Y-57462058D01*
X133527529Y-57130547D01*
X132978490Y-56759895D01*
X132634475Y-56364612D01*
X132517111Y-55970074D01*
X132544640Y-55753279D01*
X132640930Y-55546296D01*
X132820783Y-55342840D01*
X133099002Y-55136622D01*
X133490389Y-54921355D01*
X134009747Y-54690753D01*
X134671879Y-54438529D01*
X135491586Y-54158394D01*
X136483673Y-53844063D01*
X137662940Y-53489248D01*
X139044191Y-53087662D01*
X139836599Y-52861275D01*
X140634175Y-52633459D01*
X141323862Y-52430189D01*
X141923189Y-52240268D01*
X142449686Y-52052501D01*
X142920882Y-51855691D01*
X143354307Y-51638643D01*
X143767490Y-51390160D01*
X144177960Y-51099046D01*
X144603247Y-50754106D01*
X145060881Y-50344143D01*
X145568391Y-49857961D01*
X146143307Y-49284365D01*
X146803157Y-48612157D01*
X147321055Y-48080967D01*
X147692439Y-47699793D01*
X148838537Y-47699636D01*
X149337031Y-47703320D01*
G37*
G36*
X236438396Y-86655282D02*
G01*
X237187332Y-86710940D01*
X237521707Y-86753800D01*
X238478264Y-86937528D01*
X239194640Y-87153125D01*
X239671294Y-87400795D01*
X239908685Y-87680743D01*
X239937805Y-87831011D01*
X239919554Y-87995707D01*
X239823847Y-88095803D01*
X239589253Y-88175769D01*
X239396034Y-88223199D01*
X239073368Y-88285319D01*
X238571346Y-88365091D01*
X237953221Y-88453149D01*
X237282247Y-88540125D01*
X237134815Y-88558065D01*
X235743811Y-88741813D01*
X234552404Y-88938537D01*
X233512402Y-89159612D01*
X232575615Y-89416410D01*
X231693851Y-89720306D01*
X230985239Y-90009505D01*
X230544138Y-90207967D01*
X230148896Y-90404235D01*
X229763535Y-90619826D01*
X229352081Y-90876256D01*
X228878557Y-91195043D01*
X228306987Y-91597702D01*
X228190984Y-91680699D01*
X227531838Y-92128849D01*
X226947357Y-92470376D01*
X226408605Y-92719149D01*
X225886647Y-92889034D01*
X225497613Y-92971540D01*
X224946237Y-93033278D01*
X224480824Y-93007445D01*
X224069214Y-92883745D01*
X223679244Y-92651879D01*
X223278751Y-92301550D01*
X223219773Y-92242222D01*
X222940061Y-91877296D01*
X222844830Y-91519160D01*
X222932002Y-91132622D01*
X223133266Y-90776946D01*
X223511767Y-90299315D01*
X223983881Y-89864008D01*
X224593068Y-89435976D01*
X225317317Y-89015561D01*
X226623777Y-88389195D01*
X228071604Y-87844892D01*
X229625063Y-87390947D01*
X231248420Y-87035650D01*
X232905940Y-86787294D01*
X234561888Y-86654171D01*
X235583931Y-86633185D01*
X236438396Y-86655282D01*
G37*
%TD*%
D13*
%TO.C,D1*%
X38100000Y-61050000D03*
D14*
X38100000Y-53250000D03*
%TD*%
D13*
%TO.C,D41*%
X231775000Y-118200000D03*
D14*
X231775000Y-110400000D03*
%TD*%
D13*
%TO.C,D9*%
X42862500Y-118200000D03*
D14*
X42862500Y-110400000D03*
%TD*%
D13*
%TO.C,D21*%
X133350000Y-61050000D03*
D14*
X133350000Y-53250000D03*
%TD*%
D13*
%TO.C,D44*%
X254000000Y-80100000D03*
D14*
X254000000Y-72300000D03*
%TD*%
D13*
%TO.C,D28*%
X171450000Y-61050000D03*
D14*
X171450000Y-53250000D03*
%TD*%
D13*
%TO.C,D13*%
X95250000Y-61050000D03*
D14*
X95250000Y-53250000D03*
%TD*%
D13*
%TO.C,D33*%
X200025000Y-99150000D03*
D14*
X200025000Y-91350000D03*
%TD*%
D13*
%TO.C,D6*%
X57150000Y-61050000D03*
D14*
X57150000Y-53250000D03*
%TD*%
D13*
%TO.C,D37*%
X214312500Y-80100000D03*
D14*
X214312500Y-72300000D03*
%TD*%
D13*
%TO.C,D19*%
X152400000Y-61050000D03*
D14*
X152400000Y-53250000D03*
%TD*%
D13*
%TO.C,D39*%
X233362500Y-80100000D03*
D14*
X233362500Y-72300000D03*
%TD*%
D13*
%TO.C,D7*%
X61912500Y-80100000D03*
D14*
X61912500Y-72300000D03*
%TD*%
D13*
%TO.C,D36*%
X209550000Y-61050000D03*
D14*
X209550000Y-53250000D03*
%TD*%
D13*
%TO.C,D24*%
X130175000Y-118200000D03*
D14*
X130175000Y-110400000D03*
%TD*%
D13*
%TO.C,D22*%
X138112500Y-80100000D03*
D14*
X138112500Y-72300000D03*
%TD*%
D13*
%TO.C,D18*%
X123825000Y-99150000D03*
D14*
X123825000Y-91350000D03*
%TD*%
D13*
%TO.C,D31*%
X190500000Y-61050000D03*
D14*
X190500000Y-53250000D03*
%TD*%
D13*
%TO.C,D35*%
X185737500Y-118200000D03*
D14*
X185737500Y-110400000D03*
%TD*%
D13*
%TO.C,D16*%
X114300000Y-61050000D03*
D14*
X114300000Y-53250000D03*
%TD*%
D13*
%TO.C,D25*%
X157162500Y-80100000D03*
D14*
X157162500Y-72300000D03*
%TD*%
D13*
%TO.C,D8*%
X66675000Y-99150000D03*
D14*
X66675000Y-91350000D03*
%TD*%
D13*
%TO.C,D11*%
X85725000Y-99150000D03*
D14*
X85725000Y-91350000D03*
%TD*%
D13*
%TO.C,D4*%
X39687500Y-118200000D03*
D14*
X39687500Y-110400000D03*
%TD*%
D13*
%TO.C,D15*%
X104775000Y-99150000D03*
D14*
X104775000Y-91350000D03*
%TD*%
D13*
%TO.C,D30*%
X180975000Y-99150000D03*
D14*
X180975000Y-91350000D03*
%TD*%
D13*
%TO.C,D45*%
X255587500Y-99150000D03*
D14*
X255587500Y-91350000D03*
%TD*%
D13*
%TO.C,D14*%
X100012500Y-80100000D03*
D14*
X100012500Y-72300000D03*
%TD*%
D13*
%TO.C,D10*%
X80962500Y-80100000D03*
D14*
X80962500Y-72300000D03*
%TD*%
D13*
%TO.C,D5*%
X76200000Y-61050000D03*
D14*
X76200000Y-53250000D03*
%TD*%
D13*
%TO.C,D26*%
X161925000Y-99150000D03*
D14*
X161925000Y-91350000D03*
%TD*%
D13*
%TO.C,D29*%
X176212500Y-80100000D03*
D14*
X176212500Y-72300000D03*
%TD*%
D13*
%TO.C,D2*%
X44323000Y-78512500D03*
D14*
X44323000Y-70712500D03*
%TD*%
D13*
%TO.C,D12*%
X90487500Y-118200000D03*
D14*
X90487500Y-110400000D03*
%TD*%
D13*
%TO.C,D23*%
X142875000Y-99150000D03*
D14*
X142875000Y-91350000D03*
%TD*%
D13*
%TO.C,D34*%
X228600000Y-61050000D03*
D14*
X228600000Y-53250000D03*
%TD*%
D13*
%TO.C,D46*%
X236537500Y-118200000D03*
D14*
X236537500Y-110400000D03*
%TD*%
D13*
%TO.C,D17*%
X119062500Y-80100000D03*
D14*
X119062500Y-72300000D03*
%TD*%
D13*
%TO.C,D32*%
X195262500Y-80100000D03*
D14*
X195262500Y-72300000D03*
%TD*%
D13*
%TO.C,D27*%
X167513000Y-118200000D03*
D14*
X167513000Y-110400000D03*
%TD*%
D13*
%TO.C,D43*%
X252412500Y-61050000D03*
D14*
X252412500Y-53250000D03*
%TD*%
D13*
%TO.C,D20*%
X119888000Y-118200000D03*
D14*
X119888000Y-110400000D03*
%TD*%
D13*
%TO.C,D3*%
X44450000Y-99150000D03*
D14*
X44450000Y-91350000D03*
%TD*%
D13*
%TO.C,D38*%
X219075000Y-99150000D03*
D14*
X219075000Y-91350000D03*
%TD*%
D13*
%TO.C,D40*%
X238125000Y-99150000D03*
D14*
X238125000Y-91350000D03*
%TD*%
M02*
