%TF.GenerationSoftware,KiCad,Pcbnew,(6.0.7)*%
%TF.CreationDate,2023-02-09T20:59:43+01:00*%
%TF.ProjectId,lumpen,6c756d70-656e-42e6-9b69-6361645f7063,rev?*%
%TF.SameCoordinates,Original*%
%TF.FileFunction,Soldermask,Top*%
%TF.FilePolarity,Negative*%
%FSLAX46Y46*%
G04 Gerber Fmt 4.6, Leading zero omitted, Abs format (unit mm)*
G04 Created by KiCad (PCBNEW (6.0.7)) date 2023-02-09 20:59:43*
%MOMM*%
%LPD*%
G01*
G04 APERTURE LIST*
%TA.AperFunction,Profile*%
%ADD10C,0.100000*%
%TD*%
%TA.AperFunction,Profile*%
%ADD11C,0.200000*%
%TD*%
%ADD12C,3.987800*%
%ADD13C,1.750000*%
%ADD14R,1.600000X1.600000*%
%ADD15C,1.600000*%
%ADD16C,3.048000*%
%ADD17O,2.000000X3.200000*%
%ADD18R,2.000000X2.000000*%
%ADD19C,2.000000*%
%ADD20R,1.000000X1.000000*%
%ADD21O,1.000000X1.000000*%
G04 APERTURE END LIST*
D10*
X224161188Y-86836250D02*
X52314313Y-86836250D01*
D11*
X33287290Y-128781256D02*
X25917546Y-128781256D01*
D10*
X125459250Y-103505000D02*
X127840500Y-105886250D01*
X224161188Y-86836200D02*
G75*
G03*
X224161188Y-84455000I12J1190600D01*
G01*
X78199375Y-102314375D02*
X83755625Y-102314375D01*
X192532000Y-102314375D02*
X191341375Y-103505000D01*
X224161188Y-67786200D02*
G75*
G03*
X224161188Y-65405000I12J1190600D01*
G01*
D11*
X39350957Y-123825611D02*
X35178801Y-127997767D01*
X25855692Y-42668887D02*
G75*
G03*
X23964181Y-43452380I8J-2675013D01*
G01*
D10*
X52314313Y-103505000D02*
X77008750Y-103505000D01*
X193722625Y-103505000D02*
X191341375Y-105886250D01*
D11*
X19102418Y-121966128D02*
X19040564Y-49484019D01*
X236913960Y-123824293D02*
X39350957Y-123825611D01*
X252245970Y-43472322D02*
G75*
G03*
X250354482Y-42688810I-1891570J-1891578D01*
G01*
D10*
X52314313Y-84454950D02*
G75*
G03*
X52314313Y-86836250I-13J-1190650D01*
G01*
D11*
X242984738Y-42688823D02*
G75*
G03*
X241096372Y-43469515I-38J-2674077D01*
G01*
X252245993Y-43472299D02*
X256386121Y-47612427D01*
D10*
X191341375Y-105886250D02*
X175402875Y-105886250D01*
D11*
X39257075Y-47592508D02*
X236956244Y-47609643D01*
D10*
X103964500Y-103505000D02*
X119903000Y-103505000D01*
D11*
X236956244Y-47609643D02*
X241096372Y-43469515D01*
D10*
X96027000Y-105886250D02*
X84946250Y-105886250D01*
D11*
X30540436Y-45418891D02*
G75*
G03*
X30540436Y-45418891I-1000000J0D01*
G01*
D10*
X196897625Y-103505000D02*
X199278875Y-105886250D01*
D11*
X250315343Y-128747910D02*
X242945599Y-128747910D01*
X30602546Y-126031256D02*
G75*
G03*
X30602546Y-126031256I-1000000J0D01*
G01*
D10*
X97217625Y-102314375D02*
X96027000Y-103505000D01*
D11*
X25855692Y-42668891D02*
X33225436Y-42668891D01*
X257169610Y-49503938D02*
X257130471Y-121932782D01*
D10*
X121093625Y-102314375D02*
X126649875Y-102314375D01*
D11*
X247669482Y-45438810D02*
G75*
G03*
X247669482Y-45438810I-1000000J0D01*
G01*
D10*
X144786188Y-102314375D02*
X143595563Y-103505000D01*
X168656000Y-102314375D02*
X167465375Y-103505000D01*
X121093625Y-102314375D02*
X119903000Y-103505000D01*
D11*
X250315343Y-128747926D02*
G75*
G03*
X252206854Y-127964421I57J2674826D01*
G01*
X241054108Y-127964401D02*
G75*
G03*
X242945599Y-128747910I1891492J1891401D01*
G01*
D10*
X122284250Y-103505000D02*
X125459250Y-103505000D01*
X224161188Y-105886250D02*
X199278875Y-105886250D01*
X102773875Y-102314375D02*
X103964500Y-103505000D01*
X193722625Y-103505000D02*
X196897625Y-103505000D01*
X169846625Y-103505000D02*
X173021625Y-103505000D01*
X151533063Y-103505000D02*
X167465375Y-103505000D01*
X144786188Y-102314375D02*
X150342438Y-102314375D01*
D11*
X35116939Y-43452388D02*
G75*
G03*
X33225436Y-42668891I-1891439J-1891312D01*
G01*
D10*
X52314313Y-103504950D02*
G75*
G03*
X52314313Y-105886250I-13J-1190650D01*
G01*
X199278875Y-103505000D02*
X224161188Y-103505000D01*
X169846625Y-103505000D02*
X167465375Y-105886250D01*
X52314313Y-84455000D02*
X224161188Y-84455000D01*
X224161188Y-105886200D02*
G75*
G03*
X224161188Y-103505000I12J1190600D01*
G01*
D11*
X256346997Y-123824308D02*
G75*
G03*
X257130471Y-121932782I-1891797J1891608D01*
G01*
X256346982Y-123824293D02*
X252206854Y-127964421D01*
X33287290Y-128781221D02*
G75*
G03*
X35178801Y-127997767I110J2674821D01*
G01*
D10*
X101583250Y-103505000D02*
X103964500Y-105886250D01*
X79390000Y-103505000D02*
X82565000Y-103505000D01*
X126649875Y-102314375D02*
X127840500Y-103505000D01*
X145976813Y-103505000D02*
X149151813Y-103505000D01*
X143595563Y-105886250D02*
X127840500Y-105886250D01*
X83755625Y-102314375D02*
X84946250Y-103505000D01*
X173021625Y-103505000D02*
X175402875Y-105886250D01*
D11*
X24026035Y-127997767D02*
X19885907Y-123857639D01*
X242984738Y-42688810D02*
X250354482Y-42688810D01*
D10*
X97217625Y-102314375D02*
X102773875Y-102314375D01*
D11*
X241054088Y-127964421D02*
X236913960Y-123824293D01*
X24026051Y-127997751D02*
G75*
G03*
X25917546Y-128781256I1891549J1891551D01*
G01*
D10*
X78199375Y-102314375D02*
X77008750Y-103505000D01*
X174212250Y-102314375D02*
X175402875Y-103505000D01*
X175402875Y-103505000D02*
X191341375Y-103505000D01*
X149151813Y-103505000D02*
X151533063Y-105886250D01*
X224161188Y-67786250D02*
X52314313Y-67786250D01*
X119903000Y-105886250D02*
X103964500Y-105886250D01*
X79390000Y-103505000D02*
X77008750Y-105886250D01*
X98408250Y-103505000D02*
X96027000Y-105886250D01*
X198088250Y-102314375D02*
X199278875Y-103505000D01*
X84946250Y-103505000D02*
X96027000Y-103505000D01*
X52314313Y-65404950D02*
G75*
G03*
X52314313Y-67786250I-13J-1190650D01*
G01*
X168656000Y-102314375D02*
X174212250Y-102314375D01*
X122284250Y-103505000D02*
X119903000Y-105886250D01*
D11*
X19824057Y-47592512D02*
G75*
G03*
X19040564Y-49484019I1891443J-1891488D01*
G01*
D10*
X167465375Y-105886250D02*
X151533063Y-105886250D01*
D11*
X19824053Y-47592508D02*
X23964181Y-43452380D01*
D10*
X77008750Y-105886250D02*
X52314313Y-105886250D01*
X82565000Y-103505000D02*
X84946250Y-105886250D01*
X52314313Y-65405000D02*
X224161188Y-65405000D01*
D11*
X35116947Y-43452380D02*
X39257075Y-47592508D01*
D10*
X150342438Y-102314375D02*
X151533063Y-103505000D01*
D11*
X247630599Y-125997910D02*
G75*
G03*
X247630599Y-125997910I-1000000J0D01*
G01*
D10*
X192532000Y-102314375D02*
X198088250Y-102314375D01*
D11*
X257169605Y-49503938D02*
G75*
G03*
X256386121Y-47612427I-2675405J-162D01*
G01*
D10*
X127840500Y-103505000D02*
X143595563Y-103505000D01*
D11*
X19102451Y-121966128D02*
G75*
G03*
X19885907Y-123857639I2675149J28D01*
G01*
D10*
X145976813Y-103505000D02*
X143595563Y-105886250D01*
X98408250Y-103505000D02*
X101583250Y-103505000D01*
D12*
%TO.C,MX32*%
X171450000Y-95250000D03*
D13*
X166370000Y-95250000D03*
X176530000Y-95250000D03*
%TD*%
D12*
%TO.C,MX37*%
X30988000Y-114300000D03*
D13*
X36068000Y-114300000D03*
X25908000Y-114300000D03*
%TD*%
%TO.C,MX30*%
X128270000Y-95250000D03*
X138430000Y-95250000D03*
D12*
X133350000Y-95250000D03*
%TD*%
%TO.C,MX45*%
X245237000Y-114300000D03*
D13*
X250317000Y-114300000D03*
X240157000Y-114300000D03*
%TD*%
D14*
%TO.C,D1*%
X38100000Y-61050000D03*
D15*
X38100000Y-53250000D03*
%TD*%
D13*
%TO.C,MX11*%
X224155000Y-57150000D03*
D12*
X219075000Y-57150000D03*
D13*
X213995000Y-57150000D03*
%TD*%
D14*
%TO.C,D41*%
X231775000Y-118200000D03*
D15*
X231775000Y-110400000D03*
%TD*%
D13*
%TO.C,MX34*%
X204470000Y-95250000D03*
X214630000Y-95250000D03*
D12*
X209550000Y-95250000D03*
%TD*%
D14*
%TO.C,D9*%
X42862500Y-118200000D03*
D15*
X42862500Y-110400000D03*
%TD*%
D14*
%TO.C,D21*%
X133350000Y-61050000D03*
D15*
X133350000Y-53250000D03*
%TD*%
D13*
%TO.C,MX35*%
X233680000Y-95250000D03*
X223520000Y-95250000D03*
D12*
X228600000Y-95250000D03*
%TD*%
D13*
%TO.C,MX12*%
X237807500Y-57150000D03*
X247967500Y-57150000D03*
D12*
X242887500Y-57150000D03*
%TD*%
D14*
%TO.C,D44*%
X254000000Y-80100000D03*
D15*
X254000000Y-72300000D03*
%TD*%
D13*
%TO.C,MX43*%
X200342500Y-114300000D03*
X190182500Y-114300000D03*
D12*
X195262500Y-114300000D03*
%TD*%
D14*
%TO.C,D28*%
X171450000Y-61050000D03*
D15*
X171450000Y-53250000D03*
%TD*%
D13*
%TO.C,MX24*%
X240157000Y-76200000D03*
D12*
X245237000Y-76200000D03*
D13*
X250317000Y-76200000D03*
%TD*%
%TO.C,MX10*%
X205105000Y-57150000D03*
X194945000Y-57150000D03*
D12*
X200025000Y-57150000D03*
%TD*%
D14*
%TO.C,D13*%
X95250000Y-61050000D03*
D15*
X95250000Y-53250000D03*
%TD*%
D12*
%TO.C,MX17*%
X109537500Y-76200000D03*
D13*
X114617500Y-76200000D03*
X104457500Y-76200000D03*
%TD*%
D14*
%TO.C,D33*%
X200025000Y-99150000D03*
D15*
X200025000Y-91350000D03*
%TD*%
D13*
%TO.C,MX42*%
X154432000Y-114300000D03*
D12*
X159512000Y-114300000D03*
X147605750Y-106045000D03*
D13*
X164592000Y-114300000D03*
D16*
X171418250Y-121285000D03*
D12*
X171418250Y-106045000D03*
D16*
X147605750Y-121285000D03*
%TD*%
D13*
%TO.C,MX23*%
X228917500Y-76200000D03*
D12*
X223837500Y-76200000D03*
D13*
X218757500Y-76200000D03*
%TD*%
D12*
%TO.C,MX14*%
X52387500Y-76200000D03*
D13*
X57467500Y-76200000D03*
X47307500Y-76200000D03*
%TD*%
D14*
%TO.C,D6*%
X57150000Y-61050000D03*
D15*
X57150000Y-53250000D03*
%TD*%
D17*
%TO.C,SW1*%
X239637000Y-114300000D03*
X250837000Y-114300000D03*
D18*
X242737000Y-121800000D03*
D19*
X247737000Y-121800000D03*
X245237000Y-121800000D03*
X247737000Y-107300000D03*
X242737000Y-107300000D03*
%TD*%
D13*
%TO.C,MX27*%
X81280000Y-95250000D03*
D12*
X76200000Y-95250000D03*
D13*
X71120000Y-95250000D03*
%TD*%
D12*
%TO.C,MX29*%
X114300000Y-95250000D03*
D13*
X109220000Y-95250000D03*
X119380000Y-95250000D03*
%TD*%
D14*
%TO.C,D37*%
X214312500Y-80100000D03*
D15*
X214312500Y-72300000D03*
%TD*%
D14*
%TO.C,D19*%
X152400000Y-61050000D03*
D15*
X152400000Y-53250000D03*
%TD*%
D14*
%TO.C,D39*%
X233362500Y-80100000D03*
D15*
X233362500Y-72300000D03*
%TD*%
D13*
%TO.C,MX26*%
X62230000Y-95250000D03*
X52070000Y-95250000D03*
D12*
X57150000Y-95250000D03*
%TD*%
D13*
%TO.C,MX22*%
X199707500Y-76200000D03*
D12*
X204787500Y-76200000D03*
D13*
X209867500Y-76200000D03*
%TD*%
D14*
%TO.C,D7*%
X61912500Y-80100000D03*
D15*
X61912500Y-72300000D03*
%TD*%
D13*
%TO.C,MX36*%
X252730000Y-95250000D03*
D12*
X247650000Y-95250000D03*
D13*
X242570000Y-95250000D03*
%TD*%
%TO.C,MX20*%
X161607500Y-76200000D03*
D12*
X166687500Y-76200000D03*
D13*
X171767500Y-76200000D03*
%TD*%
D12*
%TO.C,MX13*%
X30988000Y-76200000D03*
D13*
X25908000Y-76200000D03*
X36068000Y-76200000D03*
%TD*%
D14*
%TO.C,D36*%
X209550000Y-61050000D03*
D15*
X209550000Y-53250000D03*
%TD*%
D14*
%TO.C,D24*%
X130175000Y-118200000D03*
D15*
X130175000Y-110400000D03*
%TD*%
D14*
%TO.C,D22*%
X138112500Y-80100000D03*
D15*
X138112500Y-72300000D03*
%TD*%
D14*
%TO.C,D18*%
X123825000Y-99150000D03*
D15*
X123825000Y-91350000D03*
%TD*%
D14*
%TO.C,D31*%
X190500000Y-61050000D03*
D15*
X190500000Y-53250000D03*
%TD*%
D14*
%TO.C,D35*%
X185737500Y-118200000D03*
D15*
X185737500Y-110400000D03*
%TD*%
D13*
%TO.C,MX5*%
X109855000Y-57150000D03*
X99695000Y-57150000D03*
D12*
X104775000Y-57150000D03*
%TD*%
D13*
%TO.C,MX39*%
X86042500Y-114300000D03*
X75882500Y-114300000D03*
D12*
X80962500Y-114300000D03*
%TD*%
%TO.C,MX41*%
X195262500Y-106045000D03*
D13*
X133032500Y-114300000D03*
X143192500Y-114300000D03*
D12*
X80962500Y-106045000D03*
X138112500Y-114300000D03*
D16*
X80962500Y-121285000D03*
X195262500Y-121285000D03*
%TD*%
D14*
%TO.C,D16*%
X114300000Y-61050000D03*
D15*
X114300000Y-53250000D03*
%TD*%
D14*
%TO.C,D25*%
X157162500Y-80100000D03*
D15*
X157162500Y-72300000D03*
%TD*%
D14*
%TO.C,D8*%
X66675000Y-99150000D03*
D15*
X66675000Y-91350000D03*
%TD*%
D12*
%TO.C,MX8*%
X161925000Y-57150000D03*
D13*
X167005000Y-57150000D03*
X156845000Y-57150000D03*
%TD*%
D14*
%TO.C,D11*%
X85725000Y-99150000D03*
D15*
X85725000Y-91350000D03*
%TD*%
D14*
%TO.C,D4*%
X39687500Y-118200000D03*
D15*
X39687500Y-110400000D03*
%TD*%
D14*
%TO.C,D15*%
X104775000Y-99150000D03*
D15*
X104775000Y-91350000D03*
%TD*%
D14*
%TO.C,D30*%
X180975000Y-99150000D03*
D15*
X180975000Y-91350000D03*
%TD*%
D14*
%TO.C,D45*%
X255587500Y-99150000D03*
D15*
X255587500Y-91350000D03*
%TD*%
D14*
%TO.C,D14*%
X100012500Y-80100000D03*
D15*
X100012500Y-72300000D03*
%TD*%
D14*
%TO.C,D10*%
X80962500Y-80100000D03*
D15*
X80962500Y-72300000D03*
%TD*%
D14*
%TO.C,D5*%
X76200000Y-61050000D03*
D15*
X76200000Y-53250000D03*
%TD*%
D13*
%TO.C,MX28*%
X100330000Y-95250000D03*
D12*
X95250000Y-95250000D03*
D13*
X90170000Y-95250000D03*
%TD*%
%TO.C,MX44*%
X218757500Y-114300000D03*
D12*
X223837500Y-114300000D03*
D13*
X228917500Y-114300000D03*
%TD*%
D14*
%TO.C,D26*%
X161925000Y-99150000D03*
D15*
X161925000Y-91350000D03*
%TD*%
D14*
%TO.C,D29*%
X176212500Y-80100000D03*
D15*
X176212500Y-72300000D03*
%TD*%
D12*
%TO.C,MX40*%
X111887000Y-114300000D03*
D16*
X99980750Y-121285000D03*
D12*
X99980750Y-106045000D03*
D13*
X106807000Y-114300000D03*
X116967000Y-114300000D03*
D16*
X123793250Y-121285000D03*
D12*
X123793250Y-106045000D03*
%TD*%
D13*
%TO.C,MX33*%
X195580000Y-95250000D03*
D12*
X190500000Y-95250000D03*
D13*
X185420000Y-95250000D03*
%TD*%
D14*
%TO.C,D2*%
X44323000Y-78512500D03*
D15*
X44323000Y-70712500D03*
%TD*%
D14*
%TO.C,D12*%
X90487500Y-118200000D03*
D15*
X90487500Y-110400000D03*
%TD*%
D13*
%TO.C,MX6*%
X128905000Y-57150000D03*
D12*
X123825000Y-57150000D03*
D13*
X118745000Y-57150000D03*
%TD*%
%TO.C,MX9*%
X186055000Y-57150000D03*
D12*
X180975000Y-57150000D03*
D13*
X175895000Y-57150000D03*
%TD*%
D12*
%TO.C,MX2*%
X47625000Y-57150000D03*
D13*
X52705000Y-57150000D03*
X42545000Y-57150000D03*
%TD*%
D14*
%TO.C,D23*%
X142875000Y-99150000D03*
D15*
X142875000Y-91350000D03*
%TD*%
D14*
%TO.C,D34*%
X228600000Y-61050000D03*
D15*
X228600000Y-53250000D03*
%TD*%
D13*
%TO.C,MX21*%
X190817500Y-76200000D03*
X180657500Y-76200000D03*
D12*
X185737500Y-76200000D03*
%TD*%
D13*
%TO.C,MX7*%
X137795000Y-57150000D03*
X147955000Y-57150000D03*
D12*
X142875000Y-57150000D03*
%TD*%
D13*
%TO.C,MX15*%
X76517500Y-76200000D03*
D12*
X71437500Y-76200000D03*
D13*
X66357500Y-76200000D03*
%TD*%
D14*
%TO.C,D46*%
X236537500Y-118200000D03*
D15*
X236537500Y-110400000D03*
%TD*%
D14*
%TO.C,D17*%
X119062500Y-80100000D03*
D15*
X119062500Y-72300000D03*
%TD*%
D14*
%TO.C,D32*%
X195262500Y-80100000D03*
D15*
X195262500Y-72300000D03*
%TD*%
D12*
%TO.C,MX1*%
X28575000Y-57150000D03*
D13*
X23495000Y-57150000D03*
X33655000Y-57150000D03*
%TD*%
%TO.C,MX16*%
X95567500Y-76200000D03*
X85407500Y-76200000D03*
D12*
X90487500Y-76200000D03*
%TD*%
%TO.C,MX25*%
X33337500Y-95250000D03*
D13*
X28257500Y-95250000D03*
X38417500Y-95250000D03*
%TD*%
%TO.C,MX19*%
X142557500Y-76200000D03*
X152717500Y-76200000D03*
D12*
X147637500Y-76200000D03*
%TD*%
D13*
%TO.C,MX4*%
X90805000Y-57150000D03*
X80645000Y-57150000D03*
D12*
X85725000Y-57150000D03*
%TD*%
D14*
%TO.C,D27*%
X167513000Y-118200000D03*
D15*
X167513000Y-110400000D03*
%TD*%
D14*
%TO.C,D43*%
X252412500Y-61050000D03*
D15*
X252412500Y-53250000D03*
%TD*%
D14*
%TO.C,D20*%
X119888000Y-118200000D03*
D15*
X119888000Y-110400000D03*
%TD*%
D14*
%TO.C,D3*%
X44450000Y-99150000D03*
D15*
X44450000Y-91350000D03*
%TD*%
D14*
%TO.C,D38*%
X219075000Y-99150000D03*
D15*
X219075000Y-91350000D03*
%TD*%
D12*
%TO.C,MX38*%
X52387500Y-114300000D03*
D13*
X47307500Y-114300000D03*
X57467500Y-114300000D03*
%TD*%
%TO.C,MX3*%
X71755000Y-57150000D03*
D12*
X66675000Y-57150000D03*
D13*
X61595000Y-57150000D03*
%TD*%
%TO.C,MX18*%
X123507500Y-76200000D03*
X133667500Y-76200000D03*
D12*
X128587500Y-76200000D03*
%TD*%
%TO.C,MX31*%
X152400000Y-95250000D03*
D13*
X147320000Y-95250000D03*
X157480000Y-95250000D03*
%TD*%
D14*
%TO.C,D40*%
X238125000Y-99150000D03*
D15*
X238125000Y-91350000D03*
%TD*%
%TO.C,RZ1*%
X20593000Y-83280000D03*
X23133000Y-83280000D03*
X25673000Y-83280000D03*
X28213000Y-83280000D03*
X30753000Y-83280000D03*
X33293000Y-83280000D03*
X35833000Y-83280000D03*
X38373000Y-83280000D03*
X40913000Y-83280000D03*
X41123000Y-80740000D03*
X41123000Y-78200000D03*
X41123000Y-75660000D03*
X41123000Y-73120000D03*
X41123000Y-70580000D03*
X40913000Y-68040000D03*
X38373000Y-68040000D03*
X35833000Y-68040000D03*
X33293000Y-68040000D03*
X30753000Y-68040000D03*
X28213000Y-68040000D03*
X25673000Y-68040000D03*
X20593000Y-68040000D03*
X23133000Y-68040000D03*
%TD*%
D20*
%TO.C,J1*%
X21209000Y-63976000D03*
D21*
X21209000Y-62706000D03*
X21209000Y-61436000D03*
%TD*%
M02*
