%TF.GenerationSoftware,KiCad,Pcbnew,(6.0.7)*%
%TF.CreationDate,2023-01-05T12:45:50+01:00*%
%TF.ProjectId,lumpen backplate,6c756d70-656e-4206-9261-636b706c6174,rev?*%
%TF.SameCoordinates,Original*%
%TF.FileFunction,Legend,Top*%
%TF.FilePolarity,Positive*%
%FSLAX46Y46*%
G04 Gerber Fmt 4.6, Leading zero omitted, Abs format (unit mm)*
G04 Created by KiCad (PCBNEW (6.0.7)) date 2023-01-05 12:45:50*
%MOMM*%
%LPD*%
G01*
G04 APERTURE LIST*
%TA.AperFunction,Profile*%
%ADD10C,0.200000*%
%TD*%
%ADD11C,0.150000*%
%ADD12C,0.050000*%
G04 APERTURE END LIST*
D10*
X33287290Y-128781256D02*
X25917546Y-128781256D01*
X39350957Y-123825611D02*
X35178801Y-127997767D01*
X25855692Y-42668887D02*
G75*
G03*
X23964181Y-43452380I8J-2675013D01*
G01*
X19102418Y-121966128D02*
X19040564Y-49484019D01*
X236913960Y-123824293D02*
X39350957Y-123825611D01*
X252245970Y-43472322D02*
G75*
G03*
X250354482Y-42688810I-1891570J-1891578D01*
G01*
X242984738Y-42688823D02*
G75*
G03*
X241096372Y-43469515I-38J-2674077D01*
G01*
X252245993Y-43472299D02*
X256386121Y-47612427D01*
X39257075Y-47592508D02*
X236956244Y-47609643D01*
X236956244Y-47609643D02*
X241096372Y-43469515D01*
X30540436Y-45418891D02*
G75*
G03*
X30540436Y-45418891I-1000000J0D01*
G01*
X250315343Y-128747910D02*
X242945599Y-128747910D01*
X30602546Y-126031256D02*
G75*
G03*
X30602546Y-126031256I-1000000J0D01*
G01*
X25855692Y-42668891D02*
X33225436Y-42668891D01*
X257169610Y-49503938D02*
X257130471Y-121932782D01*
X247669482Y-45438810D02*
G75*
G03*
X247669482Y-45438810I-1000000J0D01*
G01*
X250315343Y-128747926D02*
G75*
G03*
X252206854Y-127964421I57J2674826D01*
G01*
X241054108Y-127964401D02*
G75*
G03*
X242945599Y-128747910I1891492J1891401D01*
G01*
X35116939Y-43452388D02*
G75*
G03*
X33225436Y-42668891I-1891439J-1891312D01*
G01*
X256346997Y-123824308D02*
G75*
G03*
X257130471Y-121932782I-1891797J1891608D01*
G01*
X256346982Y-123824293D02*
X252206854Y-127964421D01*
X33287290Y-128781221D02*
G75*
G03*
X35178801Y-127997767I110J2674821D01*
G01*
X24026035Y-127997767D02*
X19885907Y-123857639D01*
X242984738Y-42688810D02*
X250354482Y-42688810D01*
X241054088Y-127964421D02*
X236913960Y-123824293D01*
X24026051Y-127997751D02*
G75*
G03*
X25917546Y-128781256I1891549J1891551D01*
G01*
X19824057Y-47592512D02*
G75*
G03*
X19040564Y-49484019I1891443J-1891488D01*
G01*
X19824053Y-47592508D02*
X23964181Y-43452380D01*
X35116947Y-43452380D02*
X39257075Y-47592508D01*
X247630599Y-125997910D02*
G75*
G03*
X247630599Y-125997910I-1000000J0D01*
G01*
X257169605Y-49503938D02*
G75*
G03*
X256386121Y-47612427I-2675405J-162D01*
G01*
X19102451Y-121966128D02*
G75*
G03*
X19885907Y-123857639I2675149J28D01*
G01*
D11*
X20530428Y-87330357D02*
X20601857Y-87187500D01*
X20744714Y-87116071D01*
X22030428Y-87116071D01*
X21530428Y-88544642D02*
X20530428Y-88544642D01*
X21530428Y-87901785D02*
X20744714Y-87901785D01*
X20601857Y-87973214D01*
X20530428Y-88116071D01*
X20530428Y-88330357D01*
X20601857Y-88473214D01*
X20673285Y-88544642D01*
X20530428Y-89258928D02*
X21530428Y-89258928D01*
X21387571Y-89258928D02*
X21459000Y-89330357D01*
X21530428Y-89473214D01*
X21530428Y-89687500D01*
X21459000Y-89830357D01*
X21316142Y-89901785D01*
X20530428Y-89901785D01*
X21316142Y-89901785D02*
X21459000Y-89973214D01*
X21530428Y-90116071D01*
X21530428Y-90330357D01*
X21459000Y-90473214D01*
X21316142Y-90544642D01*
X20530428Y-90544642D01*
X21530428Y-91258928D02*
X20030428Y-91258928D01*
X21459000Y-91258928D02*
X21530428Y-91401785D01*
X21530428Y-91687500D01*
X21459000Y-91830357D01*
X21387571Y-91901785D01*
X21244714Y-91973214D01*
X20816142Y-91973214D01*
X20673285Y-91901785D01*
X20601857Y-91830357D01*
X20530428Y-91687500D01*
X20530428Y-91401785D01*
X20601857Y-91258928D01*
X20601857Y-93187500D02*
X20530428Y-93044642D01*
X20530428Y-92758928D01*
X20601857Y-92616071D01*
X20744714Y-92544642D01*
X21316142Y-92544642D01*
X21459000Y-92616071D01*
X21530428Y-92758928D01*
X21530428Y-93044642D01*
X21459000Y-93187500D01*
X21316142Y-93258928D01*
X21173285Y-93258928D01*
X21030428Y-92544642D01*
X21530428Y-93901785D02*
X20530428Y-93901785D01*
X21387571Y-93901785D02*
X21459000Y-93973214D01*
X21530428Y-94116071D01*
X21530428Y-94330357D01*
X21459000Y-94473214D01*
X21316142Y-94544642D01*
X20530428Y-94544642D01*
X21530428Y-96258928D02*
X20530428Y-96616071D01*
X21530428Y-96973214D01*
X20530428Y-98330357D02*
X20530428Y-97473214D01*
X20530428Y-97901785D02*
X22030428Y-97901785D01*
X21816142Y-97758928D01*
X21673285Y-97616071D01*
X21601857Y-97473214D01*
X20673285Y-98973214D02*
X20601857Y-99044642D01*
X20530428Y-98973214D01*
X20601857Y-98901785D01*
X20673285Y-98973214D01*
X20530428Y-98973214D01*
X22030428Y-99973214D02*
X22030428Y-100116071D01*
X21959000Y-100258928D01*
X21887571Y-100330357D01*
X21744714Y-100401785D01*
X21459000Y-100473214D01*
X21101857Y-100473214D01*
X20816142Y-100401785D01*
X20673285Y-100330357D01*
X20601857Y-100258928D01*
X20530428Y-100116071D01*
X20530428Y-99973214D01*
X20601857Y-99830357D01*
X20673285Y-99758928D01*
X20816142Y-99687500D01*
X21101857Y-99616071D01*
X21459000Y-99616071D01*
X21744714Y-99687500D01*
X21887571Y-99758928D01*
X21959000Y-99830357D01*
X22030428Y-99973214D01*
X20530428Y-102258928D02*
X22030428Y-102258928D01*
X21459000Y-102258928D02*
X21530428Y-102401785D01*
X21530428Y-102687500D01*
X21459000Y-102830357D01*
X21387571Y-102901785D01*
X21244714Y-102973214D01*
X20816142Y-102973214D01*
X20673285Y-102901785D01*
X20601857Y-102830357D01*
X20530428Y-102687500D01*
X20530428Y-102401785D01*
X20601857Y-102258928D01*
X21530428Y-103473214D02*
X20530428Y-103830357D01*
X21530428Y-104187500D02*
X20530428Y-103830357D01*
X20173285Y-103687500D01*
X20101857Y-103616071D01*
X20030428Y-103473214D01*
X20673285Y-106758928D02*
X20601857Y-106687500D01*
X20530428Y-106473214D01*
X20530428Y-106330357D01*
X20601857Y-106116071D01*
X20744714Y-105973214D01*
X20887571Y-105901785D01*
X21173285Y-105830357D01*
X21387571Y-105830357D01*
X21673285Y-105901785D01*
X21816142Y-105973214D01*
X21959000Y-106116071D01*
X22030428Y-106330357D01*
X22030428Y-106473214D01*
X21959000Y-106687500D01*
X21887571Y-106758928D01*
X20530428Y-108044642D02*
X21316142Y-108044642D01*
X21459000Y-107973214D01*
X21530428Y-107830357D01*
X21530428Y-107544642D01*
X21459000Y-107401785D01*
X20601857Y-108044642D02*
X20530428Y-107901785D01*
X20530428Y-107544642D01*
X20601857Y-107401785D01*
X20744714Y-107330357D01*
X20887571Y-107330357D01*
X21030428Y-107401785D01*
X21101857Y-107544642D01*
X21101857Y-107901785D01*
X21173285Y-108044642D01*
X20530428Y-108973214D02*
X20601857Y-108830357D01*
X20744714Y-108758928D01*
X22030428Y-108758928D01*
X21530428Y-109401785D02*
X20530428Y-109758928D01*
X21530428Y-110116071D01*
X20530428Y-110687500D02*
X21530428Y-110687500D01*
X22030428Y-110687500D02*
X21959000Y-110616071D01*
X21887571Y-110687500D01*
X21959000Y-110758928D01*
X22030428Y-110687500D01*
X21887571Y-110687500D01*
X21530428Y-111401785D02*
X20530428Y-111401785D01*
X21387571Y-111401785D02*
X21459000Y-111473214D01*
X21530428Y-111616071D01*
X21530428Y-111830357D01*
X21459000Y-111973214D01*
X21316142Y-112044642D01*
X20530428Y-112044642D01*
X21530428Y-112687500D02*
X21530428Y-113758928D01*
X22173285Y-113116071D02*
X20244714Y-112687500D01*
X20887571Y-113616071D02*
X20887571Y-112544642D01*
X20244714Y-113187500D02*
X22173285Y-113616071D01*
X22030428Y-114544642D02*
X22030428Y-114687500D01*
X21959000Y-114830357D01*
X21887571Y-114901785D01*
X21744714Y-114973214D01*
X21459000Y-115044642D01*
X21101857Y-115044642D01*
X20816142Y-114973214D01*
X20673285Y-114901785D01*
X20601857Y-114830357D01*
X20530428Y-114687500D01*
X20530428Y-114544642D01*
X20601857Y-114401785D01*
X20673285Y-114330357D01*
X20816142Y-114258928D01*
X21101857Y-114187500D01*
X21459000Y-114187500D01*
X21744714Y-114258928D01*
X21887571Y-114330357D01*
X21959000Y-114401785D01*
X22030428Y-114544642D01*
X22030428Y-116401785D02*
X22030428Y-115687500D01*
X21316142Y-115616071D01*
X21387571Y-115687500D01*
X21459000Y-115830357D01*
X21459000Y-116187500D01*
X21387571Y-116330357D01*
X21316142Y-116401785D01*
X21173285Y-116473214D01*
X20816142Y-116473214D01*
X20673285Y-116401785D01*
X20601857Y-116330357D01*
X20530428Y-116187500D01*
X20530428Y-115830357D01*
X20601857Y-115687500D01*
X20673285Y-115616071D01*
X22030428Y-117758928D02*
X22030428Y-117473214D01*
X21959000Y-117330357D01*
X21887571Y-117258928D01*
X21673285Y-117116071D01*
X21387571Y-117044642D01*
X20816142Y-117044642D01*
X20673285Y-117116071D01*
X20601857Y-117187500D01*
X20530428Y-117330357D01*
X20530428Y-117616071D01*
X20601857Y-117758928D01*
X20673285Y-117830357D01*
X20816142Y-117901785D01*
X21173285Y-117901785D01*
X21316142Y-117830357D01*
X21387571Y-117758928D01*
X21459000Y-117616071D01*
X21459000Y-117330357D01*
X21387571Y-117187500D01*
X21316142Y-117116071D01*
X21173285Y-117044642D01*
X22030428Y-118401785D02*
X22030428Y-119330357D01*
X21459000Y-118830357D01*
X21459000Y-119044642D01*
X21387571Y-119187500D01*
X21316142Y-119258928D01*
X21173285Y-119330357D01*
X20816142Y-119330357D01*
X20673285Y-119258928D01*
X20601857Y-119187500D01*
X20530428Y-119044642D01*
X20530428Y-118616071D01*
X20601857Y-118473214D01*
X20673285Y-118401785D01*
D12*
X255122023Y-58073809D02*
X255729166Y-58073809D01*
X255850595Y-58083333D01*
X255931547Y-58102380D01*
X255972023Y-58130952D01*
X255972023Y-58150000D01*
X255972023Y-57883333D02*
X255972023Y-57978571D01*
X255122023Y-57978571D01*
X255891071Y-57702380D02*
X255931547Y-57711904D01*
X255972023Y-57740476D01*
X255972023Y-57759523D01*
X255931547Y-57788095D01*
X255850595Y-57807142D01*
X255769642Y-57816666D01*
X255607738Y-57826190D01*
X255486309Y-57826190D01*
X255324404Y-57816666D01*
X255243452Y-57807142D01*
X255162500Y-57788095D01*
X255122023Y-57759523D01*
X255122023Y-57740476D01*
X255162500Y-57711904D01*
X255202976Y-57702380D01*
X255122023Y-57559523D02*
X255729166Y-57559523D01*
X255850595Y-57569047D01*
X255931547Y-57588095D01*
X255972023Y-57616666D01*
X255972023Y-57635714D01*
X255972023Y-57369047D02*
X255972023Y-57464285D01*
X255122023Y-57464285D01*
X255891071Y-57188095D02*
X255931547Y-57197619D01*
X255972023Y-57226190D01*
X255972023Y-57245238D01*
X255931547Y-57273809D01*
X255850595Y-57292857D01*
X255769642Y-57302380D01*
X255607738Y-57311904D01*
X255486309Y-57311904D01*
X255324404Y-57302380D01*
X255243452Y-57292857D01*
X255162500Y-57273809D01*
X255122023Y-57245238D01*
X255122023Y-57226190D01*
X255162500Y-57197619D01*
X255202976Y-57188095D01*
X255122023Y-57045238D02*
X255729166Y-57045238D01*
X255850595Y-57054761D01*
X255931547Y-57073809D01*
X255972023Y-57102380D01*
X255972023Y-57121428D01*
X255972023Y-56854761D02*
X255972023Y-56950000D01*
X255122023Y-56950000D01*
X255891071Y-56673809D02*
X255931547Y-56683333D01*
X255972023Y-56711904D01*
X255972023Y-56730952D01*
X255931547Y-56759523D01*
X255850595Y-56778571D01*
X255769642Y-56788095D01*
X255607738Y-56797619D01*
X255486309Y-56797619D01*
X255324404Y-56788095D01*
X255243452Y-56778571D01*
X255162500Y-56759523D01*
X255122023Y-56730952D01*
X255122023Y-56711904D01*
X255162500Y-56683333D01*
X255202976Y-56673809D01*
X255122023Y-56530952D02*
X255729166Y-56530952D01*
X255850595Y-56540476D01*
X255931547Y-56559523D01*
X255972023Y-56588095D01*
X255972023Y-56607142D01*
X255972023Y-56340476D02*
X255972023Y-56435714D01*
X255122023Y-56435714D01*
X255891071Y-56159523D02*
X255931547Y-56169047D01*
X255972023Y-56197619D01*
X255972023Y-56216666D01*
X255931547Y-56245238D01*
X255850595Y-56264285D01*
X255769642Y-56273809D01*
X255607738Y-56283333D01*
X255486309Y-56283333D01*
X255324404Y-56273809D01*
X255243452Y-56264285D01*
X255162500Y-56245238D01*
X255122023Y-56216666D01*
X255122023Y-56197619D01*
X255162500Y-56169047D01*
X255202976Y-56159523D01*
M02*
